<svg width="16" height="16" viewBox="0 0 16 16" fill="none" xmlns="http://www.w3.org/2000/svg">
<g clip-path="url(#clip0_6609_2863)">
<path fill-rule="evenodd" clip-rule="evenodd" d="M0.666992 7.99984C0.666992 3.94975 3.95024 0.666504 8.00033 0.666504C12.0504 0.666504 15.3337 3.94975 15.3337 7.99984C15.3337 12.0499 12.0504 15.3332 8.00033 15.3332C3.95024 15.3332 0.666992 12.0499 0.666992 7.99984ZM8.00033 4.6665C8.36852 4.6665 8.66699 4.96498 8.66699 5.33317V7.99984C8.66699 8.36803 8.36852 8.6665 8.00033 8.6665C7.63213 8.6665 7.33366 8.36803 7.33366 7.99984V5.33317C7.33366 4.96498 7.63213 4.6665 8.00033 4.6665ZM7.33366 10.6665C7.33366 10.2983 7.63213 9.99984 8.00033 9.99984H8.00699C8.37518 9.99984 8.67366 10.2983 8.67366 10.6665C8.67366 11.0347 8.37518 11.3332 8.00699 11.3332H8.00033C7.63213 11.3332 7.33366 11.0347 7.33366 10.6665Z" fill="#E2832C"/>
</g>
<defs>
<clipPath id="clip0_6609_2863">
<rect width="16" height="16" fill="white"/>
</clipPath>
</defs>
</svg>
