<svg width="16" height="16" viewBox="0 0 16 16" fill="none" xmlns="http://www.w3.org/2000/svg">
<path fill-rule="evenodd" clip-rule="evenodd" d="M8.00033 2.0013C4.68662 2.0013 2.00033 4.68759 2.00033 8.0013C2.00033 11.315 4.68662 14.0013 8.00033 14.0013C11.314 14.0013 14.0003 11.315 14.0003 8.0013C14.0003 4.68759 11.314 2.0013 8.00033 2.0013ZM0.666992 8.0013C0.666992 3.95121 3.95024 0.667969 8.00033 0.667969C12.0504 0.667969 15.3337 3.95121 15.3337 8.0013C15.3337 12.0514 12.0504 15.3346 8.00033 15.3346C3.95024 15.3346 0.666992 12.0514 0.666992 8.0013ZM8.00033 4.66797C8.36852 4.66797 8.66699 4.96645 8.66699 5.33464V8.0013C8.66699 8.36949 8.36852 8.66797 8.00033 8.66797C7.63213 8.66797 7.33366 8.36949 7.33366 8.0013V5.33464C7.33366 4.96645 7.63213 4.66797 8.00033 4.66797ZM7.33366 10.668C7.33366 10.2998 7.63213 10.0013 8.00033 10.0013H8.00699C8.37518 10.0013 8.67366 10.2998 8.67366 10.668C8.67366 11.0362 8.37518 11.3346 8.00699 11.3346H8.00033C7.63213 11.3346 7.33366 11.0362 7.33366 10.668Z" fill="#CC483B"/>
</svg>
