<svg xmlns="http://www.w3.org/2000/svg" width="18" height="18" fill="none" viewBox="0 0 18 18">
    <path fill="#BFBFBF" d="M15.469 3.234h-2.953V2.11c0-.077-.064-.14-.141-.14h-.984c-.078 0-.141.063-.141.14v1.125h-4.5V2.11c0-.077-.063-.14-.14-.14h-.985c-.077 0-.14.063-.14.14v1.125H2.53c-.31 0-.562.252-.562.563v11.672c0 .31.251.562.562.562H15.47c.31 0 .562-.251.562-.562V3.797c0-.311-.251-.563-.562-.563zm-.703 11.532H3.234v-6.68h11.532v6.68zM3.234 6.89V4.5h2.25v.844c0 .077.064.14.141.14h.984c.078 0 .141-.063.141-.14V4.5h4.5v.844c0 .077.063.14.14.14h.985c.077 0 .14-.063.14-.14V4.5h2.25v2.39H3.236z"/>
</svg>
