<svg width="160" height="160" viewBox="0 0 160 160" fill="none" xmlns="http://www.w3.org/2000/svg">
<circle cx="80" cy="80" r="80" fill="#F5F5F5"/>
<path d="M39 114.161V59.1611C39 58.0566 39.8954 57.1611 41 57.1611H63.0738C63.7843 57.1611 64.4415 57.5381 64.8002 58.1514L66.8518 61.6592C67.2105 62.2725 67.8676 62.6495 68.5782 62.6495H120C121.105 62.6495 122 63.5449 122 64.6495V114.161C122 115.266 121.105 116.161 120 116.161H41C39.8954 116.161 39 115.266 39 114.161Z" fill="#CACACA" stroke="#CACACA"/>
<path d="M47 108L51.5395 47.0069L116 42L112.368 91.6138L47 108Z" fill="#E6E6E6"/>
<path d="M44.7617 108.315L46.618 46.8988L111.264 38.9999L109.815 88.9554L44.7617 108.315Z" fill="white"/>
<path d="M39.5 119.161V64.1611C39.5 63.3327 40.1716 62.6611 41 62.6611H63.0738C63.6067 62.6611 64.0995 62.9439 64.3686 63.4039L66.4202 66.9116C66.8685 67.6783 67.69 68.1495 68.5782 68.1495H120C120.828 68.1495 121.5 68.8211 121.5 69.6495V119.161C121.5 119.99 120.828 120.661 120 120.661H41C40.1716 120.661 39.5 119.99 39.5 119.161Z" fill="#F8F8F8" stroke="#CACACA"/>
<path fill-rule="evenodd" clip-rule="evenodd" d="M78.667 81.3337C73.5123 81.3337 69.3337 85.5123 69.3337 90.667C69.3337 95.8217 73.5123 100 78.667 100C81.1816 100 83.4639 99.0059 85.1422 97.3888C85.1773 97.3432 85.2157 97.2993 85.2575 97.2575C85.2993 97.2157 85.3432 97.1773 85.3888 97.1422C87.0059 95.4639 88.0003 93.1816 88.0003 90.667C88.0003 85.5123 83.8217 81.3337 78.667 81.3337ZM88.0429 98.1572C89.685 96.1043 90.667 93.5003 90.667 90.667C90.667 84.0396 85.2944 78.667 78.667 78.667C72.0396 78.667 66.667 84.0396 66.667 90.667C66.667 97.2944 72.0396 102.667 78.667 102.667C81.5003 102.667 84.1043 101.685 86.1572 100.043L91.0575 104.943C91.5782 105.464 92.4224 105.464 92.9431 104.943C93.4638 104.422 93.4638 103.578 92.9431 103.058L88.0429 98.1572Z" fill="#D6D6D6"/>
</svg>
