<svg width="48" height="44" viewBox="0 0 48 44" fill="none" xmlns="http://www.w3.org/2000/svg">
<g clip-path="url(#clip0_978_66448)">
<path d="M24.5823 0.534716L23.0204 0.937845L3.77829 5.90449L2.21646 6.30762C1.45836 6.50421 0.809132 6.99375 0.4112 7.66885C0.0132685 8.34395 -0.100865 9.14948 0.0938377 9.9087L6.8663 36.1945C7.06271 36.9533 7.55181 37.6031 8.2263 38.0014C8.90079 38.3997 9.70558 38.514 10.4641 38.3191L10.4682 38.318L32.8259 32.5472L32.8299 32.5462C33.588 32.3496 34.2372 31.86 34.6352 31.1849C35.0331 30.5098 35.1472 29.7043 34.9525 28.9451L28.1801 2.65927C27.9837 1.90049 27.4946 1.25067 26.8201 0.852372C26.1456 0.454078 25.3408 0.339838 24.5823 0.534716Z" fill="#F2F2F2"/>
<path d="M24.7946 1.35878L22.9447 1.83626L4.27864 6.65422L2.42878 7.1317C1.88892 7.27169 1.42658 7.6203 1.14321 8.10105C0.859828 8.58181 0.77855 9.15544 0.917203 9.6961L7.68967 35.9819C7.82953 36.5223 8.17783 36.985 8.65815 37.2686C9.13847 37.5523 9.71159 37.6336 10.2518 37.4949L10.2558 37.4938L32.6135 31.723L32.6176 31.7219C33.1574 31.5819 33.6198 31.2333 33.9031 30.7526C34.1865 30.2718 34.2678 29.6982 34.1291 29.1575L27.3567 2.87173C27.2168 2.33139 26.8685 1.86864 26.3882 1.585C25.9079 1.30137 25.3348 1.22001 24.7946 1.35878Z" fill="white"/>
<path d="M23.3981 9.87094L12.0879 12.7903C11.9615 12.8229 11.8274 12.8039 11.7151 12.7376C11.6027 12.6712 11.5213 12.5629 11.4887 12.4365C11.4562 12.31 11.4751 12.1758 11.5414 12.0634C11.6077 11.9509 11.7159 11.8694 11.8422 11.8368L23.1524 8.91747C23.2787 8.88499 23.4127 8.90403 23.525 8.97039C23.6372 9.03675 23.7186 9.14501 23.7511 9.27137C23.7837 9.39774 23.7648 9.53187 23.6986 9.64429C23.6324 9.75672 23.5243 9.83824 23.3981 9.87094Z" fill="#F2F2F2"/>
<path d="M25.7774 10.9726L12.5024 14.3991C12.3761 14.4317 12.242 14.4127 12.1296 14.3464C12.0173 14.28 11.9359 14.1717 11.9033 14.0453C11.8707 13.9188 11.8896 13.7846 11.9559 13.6722C12.0222 13.5597 12.1304 13.4782 12.2568 13.4456L25.5317 10.0191C25.6581 9.98653 25.7922 10.0055 25.9045 10.0718C26.0169 10.1382 26.0983 10.2465 26.1309 10.3729C26.1635 10.4994 26.1445 10.6336 26.0782 10.746C26.0119 10.8585 25.9037 10.94 25.7774 10.9726Z" fill="#F2F2F2"/>
<path d="M25.2555 17.0814L13.9453 20.0007C13.8827 20.0168 13.8176 20.0205 13.7537 20.0115C13.6897 20.0024 13.6281 19.9809 13.5725 19.948C13.5169 19.9151 13.4683 19.8716 13.4294 19.82C13.3906 19.7683 13.3623 19.7095 13.3461 19.6469C13.33 19.5843 13.3264 19.5191 13.3354 19.4551C13.3444 19.3911 13.366 19.3295 13.3988 19.2738C13.4316 19.2181 13.4751 19.1694 13.5267 19.1306C13.5783 19.0917 13.6371 19.0634 13.6996 19.0472L25.0098 16.1279C25.0724 16.1118 25.1375 16.1081 25.2015 16.1171C25.2654 16.1262 25.327 16.1477 25.3826 16.1806C25.4383 16.2135 25.4869 16.257 25.5257 16.3086C25.5646 16.3603 25.5928 16.4191 25.609 16.4817C25.6251 16.5443 25.6288 16.6095 25.6197 16.6735C25.6107 16.7375 25.5891 16.7991 25.5563 16.8548C25.5235 16.9105 25.48 16.9592 25.4284 16.998C25.3768 17.0369 25.3181 17.0652 25.2555 17.0814Z" fill="#F2F2F2"/>
<path d="M27.6348 18.1833L14.3598 21.6098C14.2973 21.6259 14.2322 21.6296 14.1682 21.6205C14.1042 21.6115 14.0427 21.5899 13.9871 21.5571C13.9314 21.5242 13.8828 21.4807 13.844 21.429C13.8051 21.3774 13.7768 21.3186 13.7607 21.256C13.7446 21.1934 13.7409 21.1282 13.75 21.0642C13.759 21.0001 13.7805 20.9385 13.8134 20.8828C13.8462 20.8272 13.8896 20.7785 13.9412 20.7396C13.9929 20.7007 14.0516 20.6724 14.1142 20.6563L27.3892 17.2298C27.5155 17.1972 27.6496 17.2162 27.7619 17.2825C27.8743 17.3489 27.9557 17.4572 27.9883 17.5836C28.0209 17.7101 28.0019 17.8443 27.9356 17.9567C27.8694 18.0692 27.7611 18.1507 27.6348 18.1833Z" fill="#F2F2F2"/>
<path d="M27.1136 24.2922L15.8034 27.2115C15.6771 27.244 15.543 27.225 15.4308 27.1587C15.3185 27.0923 15.2371 26.984 15.2045 26.8576C15.172 26.7313 15.1909 26.5971 15.2571 26.4847C15.3233 26.3722 15.4315 26.2907 15.5577 26.258L26.8679 23.3387C26.9943 23.3061 27.1283 23.3251 27.2407 23.3914C27.3531 23.4578 27.4345 23.5661 27.4671 23.6925C27.4996 23.819 27.4807 23.9532 27.4144 24.0656C27.3481 24.1781 27.2399 24.2596 27.1136 24.2922Z" fill="#F2F2F2"/>
<path d="M29.4927 25.3937L16.2177 28.8202C16.1551 28.8364 16.09 28.8401 16.026 28.8311C15.962 28.8221 15.9004 28.8006 15.8447 28.7677C15.789 28.7349 15.7403 28.6914 15.7014 28.6397C15.6626 28.588 15.6343 28.5291 15.6181 28.4665C15.602 28.4039 15.5983 28.3386 15.6074 28.2746C15.6164 28.2105 15.638 28.1489 15.6709 28.0932C15.7038 28.0375 15.7473 27.9888 15.7989 27.95C15.8506 27.9111 15.9094 27.8828 15.972 27.8667L29.247 24.4403C29.3733 24.4077 29.5074 24.4266 29.6198 24.493C29.7321 24.5593 29.8136 24.6676 29.8461 24.7941C29.8787 24.9205 29.8598 25.0547 29.7935 25.1672C29.7272 25.2796 29.619 25.3611 29.4927 25.3937Z" fill="#F2F2F2"/>
<path d="M10.1565 15.7835L6.15392 16.8166C6.09335 16.8322 6.02909 16.8231 5.97523 16.7913C5.92137 16.7595 5.88232 16.7076 5.86664 16.647L4.94785 13.0809C4.9323 13.0203 4.94141 12.956 4.97319 12.902C5.00496 12.8481 5.0568 12.809 5.11734 12.7934L9.11992 11.7602C9.18049 11.7447 9.24475 11.7538 9.29861 11.7856C9.35247 11.8174 9.39153 11.8693 9.40721 11.9299L10.326 15.496C10.3415 15.5566 10.3324 15.6209 10.3007 15.6748C10.2689 15.7287 10.217 15.7678 10.1565 15.7835Z" fill="#E6E6E6"/>
<path d="M12.0149 22.9943L8.01232 24.0274C7.95175 24.043 7.88749 24.0339 7.83363 24.0021C7.77977 23.9703 7.74071 23.9184 7.72503 23.8578L6.80624 20.2917C6.7907 20.2311 6.79981 20.1668 6.83158 20.1129C6.86336 20.059 6.9152 20.0199 6.97573 20.0042L10.9783 18.971C11.0389 18.9555 11.1031 18.9646 11.157 18.9964C11.2109 19.0282 11.2499 19.0801 11.2656 19.1407L12.1844 22.7068C12.1999 22.7674 12.1908 22.8317 12.1591 22.8856C12.1273 22.9395 12.0754 22.9786 12.0149 22.9943Z" fill="#E6E6E6"/>
<path d="M13.8723 30.2046L9.86974 31.2378C9.80917 31.2533 9.74491 31.2442 9.69105 31.2124C9.63719 31.1806 9.59814 31.1287 9.58246 31.0681L8.66367 27.502C8.64812 27.4414 8.65723 27.3771 8.68901 27.3232C8.72078 27.2693 8.77262 27.2302 8.83316 27.2145L12.8357 26.1814C12.8963 26.1658 12.9606 26.1749 13.0144 26.2067C13.0683 26.2385 13.1073 26.2904 13.123 26.351L14.0418 29.9171C14.0574 29.9777 14.0483 30.042 14.0165 30.0959C13.9847 30.1499 13.9329 30.1889 13.8723 30.2046Z" fill="#E6E6E6"/>
<path d="M40.1817 7.19763H17.0842C16.301 7.19851 15.5502 7.51028 14.9965 8.06454C14.4427 8.61879 14.1313 9.37027 14.1304 10.1541V37.2999C14.1313 38.0837 14.4427 38.8352 14.9965 39.3895C15.5502 39.9437 16.301 40.2555 17.0842 40.2564H40.1817C40.9648 40.2555 41.7156 39.9437 42.2694 39.3895C42.8231 38.8352 43.1346 38.0837 43.1355 37.2999V10.1541C43.1346 9.37027 42.8231 8.61879 42.2694 8.06454C41.7156 7.51028 40.9648 7.19851 40.1817 7.19763Z" fill="#E6E6E6"/>
<path d="M40.1815 8.04895H17.0839C16.5263 8.04958 15.9916 8.27159 15.5973 8.66629C15.2029 9.06099 14.9811 9.59613 14.9805 10.1543V37.3001C14.9811 37.8583 15.2029 38.3934 15.5973 38.7881C15.9916 39.1828 16.5263 39.4048 17.0839 39.4055H40.1815C40.7392 39.4048 41.2738 39.1828 41.6681 38.7881C42.0625 38.3934 42.2843 37.8583 42.2849 37.3001V10.1543C42.2843 9.59614 42.0625 9.061 41.6681 8.6663C41.2738 8.2716 40.7392 8.04958 40.1815 8.04895Z" fill="white"/>
<path d="M42.6079 43.5592C45.5858 43.5592 47.9999 41.1429 47.9999 38.1623C47.9999 35.1817 45.5858 32.7654 42.6079 32.7654C39.6299 32.7654 37.2158 35.1817 37.2158 38.1623C37.2158 41.1429 39.6299 43.5592 42.6079 43.5592Z" fill="#82C146"/>
<path d="M45.1866 37.4583H43.3111V35.5811C43.3111 35.3944 43.237 35.2154 43.1051 35.0834C42.9732 34.9514 42.7943 34.8772 42.6078 34.8772C42.4213 34.8772 42.2424 34.9514 42.1105 35.0834C41.9786 35.2154 41.9045 35.3944 41.9045 35.5811V37.4583H40.029C39.8425 37.4583 39.6636 37.5325 39.5317 37.6645C39.3998 37.7965 39.3257 37.9756 39.3257 38.1623C39.3257 38.349 39.3998 38.528 39.5317 38.66C39.6636 38.7921 39.8425 38.8662 40.029 38.8662H41.9045V40.7434C41.9045 40.9301 41.9786 41.1092 42.1105 41.2412C42.2424 41.3732 42.4213 41.4474 42.6078 41.4474C42.7943 41.4474 42.9732 41.3732 43.1051 41.2412C43.237 41.1092 43.3111 40.9301 43.3111 40.7434V38.8662H45.1866C45.3731 38.8662 45.552 38.7921 45.6839 38.66C45.8158 38.528 45.8899 38.349 45.8899 38.1623C45.8899 37.9756 45.8158 37.7965 45.6839 37.6645C45.552 37.5325 45.3731 37.4583 45.1866 37.4583Z" fill="white"/>
<path d="M36.7049 22.9656H25.0247C24.96 22.9657 24.896 22.953 24.8363 22.9283C24.7765 22.9036 24.7222 22.8673 24.6765 22.8216C24.6308 22.7759 24.5945 22.7216 24.5697 22.6618C24.545 22.6021 24.5322 22.538 24.5322 22.4733C24.5322 22.4086 24.545 22.3445 24.5697 22.2848C24.5945 22.225 24.6308 22.1707 24.6765 22.125C24.7222 22.0792 24.7765 22.043 24.8363 22.0183C24.896 21.9936 24.96 21.9809 25.0247 21.981H36.7049C36.8353 21.9811 36.9603 22.033 37.0524 22.1254C37.1445 22.2177 37.1963 22.3428 37.1963 22.4733C37.1963 22.6038 37.1445 22.7289 37.0524 22.8212C36.9603 22.9135 36.8353 22.9655 36.7049 22.9656Z" fill="#E6E6E6"/>
<path d="M38.734 24.6271H25.0247C24.96 24.6272 24.896 24.6145 24.8363 24.5898C24.7765 24.5651 24.7222 24.5288 24.6765 24.4831C24.6308 24.4374 24.5945 24.3831 24.5697 24.3233C24.545 24.2635 24.5322 24.1995 24.5322 24.1348C24.5322 24.0701 24.545 24.006 24.5697 23.9462C24.5945 23.8865 24.6308 23.8322 24.6765 23.7865C24.7222 23.7407 24.7765 23.7045 24.8363 23.6798C24.896 23.6551 24.96 23.6424 25.0247 23.6425H38.734C38.8644 23.6425 38.9895 23.6943 39.0818 23.7867C39.174 23.879 39.2258 24.0042 39.2258 24.1348C39.2258 24.2654 39.174 24.3906 39.0818 24.4829C38.9895 24.5752 38.8644 24.6271 38.734 24.6271Z" fill="#E6E6E6"/>
<path d="M36.7049 30.4119H25.0247C24.96 30.412 24.896 30.3993 24.8363 30.3746C24.7765 30.3499 24.7222 30.3136 24.6765 30.2679C24.6308 30.2222 24.5945 30.1679 24.5697 30.1081C24.545 30.0483 24.5322 29.9843 24.5322 29.9196C24.5322 29.8549 24.545 29.7908 24.5697 29.731C24.5945 29.6713 24.6308 29.617 24.6765 29.5713C24.7222 29.5255 24.7765 29.4893 24.8363 29.4646C24.896 29.4399 24.96 29.4272 25.0247 29.4272H36.7049C36.8354 29.4272 36.9605 29.4791 37.0527 29.5714C37.145 29.6638 37.1968 29.789 37.1968 29.9196C37.1968 30.0501 37.145 30.1754 37.0527 30.2677C36.9605 30.36 36.8354 30.4119 36.7049 30.4119Z" fill="#E6E6E6"/>
<path d="M38.734 32.0734H25.0247C24.96 32.0735 24.896 32.0608 24.8363 32.0361C24.7765 32.0114 24.7222 31.9751 24.6765 31.9294C24.6308 31.8837 24.5945 31.8294 24.5697 31.7696C24.545 31.7099 24.5322 31.6458 24.5322 31.5811C24.5322 31.5164 24.545 31.4523 24.5697 31.3925C24.5945 31.3328 24.6308 31.2785 24.6765 31.2328C24.7222 31.187 24.7765 31.1508 24.8363 31.1261C24.896 31.1014 24.96 31.0887 25.0247 31.0887H38.734C38.7986 31.0887 38.8626 31.1014 38.9224 31.1261C38.9821 31.1508 39.0364 31.187 39.0821 31.2328C39.1279 31.2785 39.1641 31.3328 39.1889 31.3925C39.2137 31.4523 39.2264 31.5164 39.2264 31.5811C39.2264 31.6458 39.2137 31.7099 39.1889 31.7696C39.1641 31.8294 39.1279 31.8837 39.0821 31.9294C39.0364 31.9751 38.9821 32.0114 38.9224 32.0361C38.8626 32.0608 38.7986 32.0735 38.734 32.0734Z" fill="#E6E6E6"/>
<path d="M22.4085 25.3814H18.2749C18.2124 25.3814 18.1524 25.3565 18.1082 25.3122C18.064 25.268 18.0391 25.208 18.0391 25.1454V21.4626C18.0391 21.4 18.064 21.34 18.1082 21.2958C18.1524 21.2515 18.2124 21.2266 18.2749 21.2266H22.4085C22.471 21.2266 22.5309 21.2515 22.5752 21.2958C22.6194 21.34 22.6442 21.4 22.6443 21.4626V25.1454C22.6442 25.208 22.6194 25.268 22.5752 25.3122C22.5309 25.3565 22.471 25.3814 22.4085 25.3814Z" fill="#E6E6E6"/>
<path d="M22.4085 32.8277H18.2749C18.2124 32.8277 18.1524 32.8028 18.1082 32.7585C18.064 32.7143 18.0391 32.6543 18.0391 32.5917V28.9089C18.0391 28.8463 18.064 28.7863 18.1082 28.7421C18.1524 28.6978 18.2124 28.6729 18.2749 28.6729H22.4085C22.471 28.6729 22.5309 28.6978 22.5752 28.7421C22.6194 28.7863 22.6442 28.8463 22.6443 28.9089V32.5917C22.6442 32.6543 22.6194 32.7143 22.5752 32.7585C22.5309 32.8028 22.471 32.8277 22.4085 32.8277Z" fill="#E6E6E6"/>
<path d="M36.7185 14.6762H28.1071C27.9767 14.6762 27.8516 14.6243 27.7593 14.532C27.6671 14.4397 27.6152 14.3144 27.6152 14.1839C27.6152 14.0533 27.6671 13.9281 27.7593 13.8357C27.8516 13.7434 27.9767 13.6915 28.1071 13.6915H36.7185C36.849 13.6915 36.9741 13.7434 37.0663 13.8357C37.1586 13.9281 37.2104 14.0533 37.2104 14.1839C37.2104 14.3144 37.1586 14.4397 37.0663 14.532C36.9741 14.6243 36.849 14.6762 36.7185 14.6762Z" fill="#CCCCCC"/>
<path d="M38.7475 16.3377H28.1071C28.0425 16.3377 27.9786 16.325 27.9189 16.3002C27.8592 16.2755 27.805 16.2392 27.7593 16.1935C27.7136 16.1478 27.6774 16.0935 27.6527 16.0338C27.628 15.974 27.6152 15.91 27.6152 15.8454C27.6152 15.7807 27.628 15.7167 27.6527 15.657C27.6774 15.5972 27.7136 15.5429 27.7593 15.4972C27.805 15.4515 27.8592 15.4152 27.9189 15.3905C27.9786 15.3658 28.0425 15.353 28.1071 15.353H38.7475C38.878 15.353 39.0031 15.4049 39.0953 15.4972C39.1876 15.5896 39.2394 15.7148 39.2394 15.8454C39.2394 15.9759 39.1876 16.1012 39.0953 16.1935C39.0031 16.2858 38.878 16.3377 38.7475 16.3377Z" fill="#CCCCCC"/>
<path d="M26.2012 18.3514H18.2622C18.1997 18.3513 18.1397 18.3264 18.0955 18.2822C18.0513 18.2379 18.0264 18.1779 18.0264 18.1153V11.9138C18.0264 11.8512 18.0513 11.7912 18.0955 11.747C18.1397 11.7027 18.1997 11.6778 18.2622 11.6777H26.2012C26.2637 11.6778 26.3237 11.7027 26.3679 11.747C26.4121 11.7912 26.437 11.8512 26.437 11.9138V18.1153C26.437 18.1779 26.4121 18.2379 26.3679 18.2822C26.3237 18.3264 26.2637 18.3513 26.2012 18.3514Z" fill="#82C146"/>
</g>
<defs>
<clipPath id="clip0_978_66448">
<rect width="48" height="43.1186" fill="white" transform="translate(0 0.440674)"/>
</clipPath>
</defs>
</svg>
