<svg width="28" height="28" viewBox="0 0 28 28" fill="none" xmlns="http://www.w3.org/2000/svg">
<rect width="28" height="28" rx="14" fill="#82C146"/>
<path fill-rule="evenodd" clip-rule="evenodd" d="M14.0001 8.66699C14.3683 8.66699 14.6667 8.96547 14.6667 9.33366V13.3337H18.6667C19.0349 13.3337 19.3334 13.6321 19.3334 14.0003C19.3334 14.3685 19.0349 14.667 18.6667 14.667H14.6667V18.667C14.6667 19.0352 14.3683 19.3337 14.0001 19.3337C13.6319 19.3337 13.3334 19.0352 13.3334 18.667V14.667H9.33341C8.96522 14.667 8.66675 14.3685 8.66675 14.0003C8.66675 13.6321 8.96522 13.3337 9.33341 13.3337H13.3334V9.33366C13.3334 8.96547 13.6319 8.66699 14.0001 8.66699Z" fill="white"/>
</svg>
