<svg width="17" height="18" viewBox="0 0 17 18" fill="none" xmlns="http://www.w3.org/2000/svg">
<path d="M6.91761 12.4353C7.1127 12.6316 7.4301 12.6321 7.62578 12.4364L12.8095 7.25264C13.0063 7.05586 13.0046 6.73628 12.8056 6.54167L12.5622 6.30351C12.3663 6.1119 12.0527 6.11363 11.859 6.30737L7.62471 10.5416C7.42945 10.7369 7.11287 10.7369 6.91761 10.5416L5.12471 8.74874C4.92945 8.55347 4.61287 8.55347 4.41761 8.74874L4.18615 8.9802C3.9913 9.17504 3.99082 9.4908 4.18508 9.68623L6.91761 12.4353ZM8.50033 17.3327C7.31977 17.3327 6.22255 17.1209 5.20866 16.6973C4.19477 16.2737 3.31283 15.6868 2.56283 14.9368C1.81283 14.1868 1.22602 13.3049 0.802409 12.291C0.378798 11.2771 0.166992 10.1799 0.166992 8.99935C0.166992 7.83268 0.378798 6.7424 0.802409 5.72852C1.22602 4.71463 1.81283 3.83268 2.56283 3.08268C3.31283 2.33268 4.19477 1.7424 5.20866 1.31185C6.22255 0.881294 7.31977 0.666016 8.50033 0.666016C9.66699 0.666016 10.7573 0.881294 11.7712 1.31185C12.785 1.7424 13.667 2.33268 14.417 3.08268C15.167 3.83268 15.7573 4.71463 16.1878 5.72852C16.6184 6.7424 16.8337 7.83268 16.8337 8.99935C16.8337 10.1799 16.6184 11.2771 16.1878 12.291C15.7573 13.3049 15.167 14.1868 14.417 14.9368C13.667 15.6868 12.785 16.2737 11.7712 16.6973C10.7573 17.1209 9.66699 17.3327 8.50033 17.3327ZM8.50033 16.0827C10.5142 16.0827 12.1982 15.4056 13.5524 14.0514C14.9066 12.6973 15.5837 11.0132 15.5837 8.99935C15.5837 6.98546 14.9066 5.30143 13.5524 3.94727C12.1982 2.5931 10.5142 1.91602 8.50033 1.91602C6.48644 1.91602 4.80241 2.5931 3.44824 3.94727C2.09408 5.30143 1.41699 6.98546 1.41699 8.99935C1.41699 11.0132 2.09408 12.6973 3.44824 14.0514C4.80241 15.4056 6.48644 16.0827 8.50033 16.0827Z" fill="white"/>
</svg>
