<svg xmlns="http://www.w3.org/2000/svg" width="56" height="57" viewBox="0 0 56 57" fill="none">
<path d="M23.8632 39.8252C24.0583 40.0215 24.3757 40.022 24.5714 39.8263L42.0185 22.3792C42.2153 22.1825 42.2135 21.8629 42.0146 21.6683L39.7778 19.4801C39.5819 19.2885 39.2683 19.2902 39.0746 19.484L24.5703 33.9882C24.3751 34.1835 24.0585 34.1835 23.8632 33.9882L16.8703 26.9953C16.6751 26.8001 16.3585 26.8001 16.1632 26.9953L13.9818 29.1768C13.7869 29.3716 13.7864 29.6874 13.9807 29.8828L23.8632 39.8252ZM28.0026 54.1693C24.3665 54.1693 20.9871 53.5169 17.8643 52.2122C14.7415 50.9075 12.0251 49.1001 9.7151 46.7901C7.4051 44.4801 5.59774 41.7637 4.29302 38.6409C2.9883 35.5182 2.33594 32.1387 2.33594 28.5026C2.33594 24.9093 2.9883 21.5512 4.29302 18.4284C5.59774 15.3057 7.4051 12.5893 9.7151 10.2793C12.0251 7.96927 14.7415 6.15122 17.8643 4.8251C20.9871 3.49899 24.3665 2.83594 28.0026 2.83594C31.5959 2.83594 34.954 3.49899 38.0768 4.8251C41.1996 6.15122 43.9159 7.96927 46.2259 10.2793C48.5359 12.5893 50.354 15.3057 51.6801 18.4284C53.0062 21.5512 53.6693 24.9093 53.6693 28.5026C53.6693 32.1387 53.0062 35.5182 51.6801 38.6409C50.354 41.7637 48.5359 44.4801 46.2259 46.7901C43.9159 49.1001 41.1996 50.9075 38.0768 52.2122C34.954 53.5169 31.5959 54.1693 28.0026 54.1693ZM28.0026 50.3193C34.2054 50.3193 39.3922 48.2339 43.563 44.063C47.7339 39.8922 49.8193 34.7054 49.8193 28.5026C49.8193 22.2998 47.7339 17.113 43.563 12.9422C39.3922 8.77135 34.2054 6.68594 28.0026 6.68594C21.7998 6.68594 16.613 8.77135 12.4422 12.9422C8.27135 17.113 6.18594 22.2998 6.18594 28.5026C6.18594 34.7054 8.27135 39.8922 12.4422 44.063C16.613 48.2339 21.7998 50.3193 28.0026 50.3193Z" fill="#82C146"/>
</svg>