<svg width="16" height="16" viewBox="0 0 16 16" fill="none" xmlns="http://www.w3.org/2000/svg">
<path d="M7.99967 14.6673C7.05523 14.6673 6.17745 14.4979 5.36634 14.159C4.55523 13.8201 3.84967 13.3507 3.24967 12.7507C2.64967 12.1507 2.18023 11.4451 1.84134 10.634C1.50245 9.82287 1.33301 8.9451 1.33301 8.00065C1.33301 7.06732 1.50245 6.1951 1.84134 5.38398C2.18023 4.57287 2.64967 3.86732 3.24967 3.26732C3.84967 2.66732 4.55523 2.1951 5.36634 1.85065C6.17745 1.50621 7.05523 1.33398 7.99967 1.33398C8.93301 1.33398 9.80523 1.50621 10.6163 1.85065C11.4275 2.1951 12.133 2.66732 12.733 3.26732C13.333 3.86732 13.8052 4.57287 14.1497 5.38398C14.4941 6.1951 14.6663 7.06732 14.6663 8.00065C14.6663 8.9451 14.4941 9.82287 14.1497 10.634C13.8052 11.4451 13.333 12.1507 12.733 12.7507C12.133 13.3507 11.4275 13.8201 10.6163 14.159C9.80523 14.4979 8.93301 14.6673 7.99967 14.6673ZM6.66279 10.6783C6.85788 10.8746 7.17528 10.875 7.37096 10.6794L11.3755 6.67478C11.5723 6.478 11.5706 6.15841 11.3716 5.96381L11.3199 5.91314C11.124 5.72154 10.8104 5.72326 10.6167 5.91701L7.36989 9.16376C7.17463 9.35903 6.85805 9.35903 6.66279 9.16376L5.36989 7.87087C5.17463 7.67561 4.85805 7.67561 4.66279 7.87087L4.61883 7.91483C4.42398 8.10968 4.42351 8.42544 4.61776 8.62087L6.66279 10.6783Z" fill="#82C146"/>
</svg>
