<svg width="16" height="16" viewBox="0 0 16 16" fill="none" xmlns="http://www.w3.org/2000/svg">
<path d="M9.74178 6.58594C9.71828 6.56267 9.68656 6.54962 9.6535 6.54962C9.62043 6.54962 9.58871 6.56267 9.56522 6.58594L8.2449 7.90625C7.95271 7.82812 7.62927 7.90312 7.39958 8.13281C7.31823 8.21401 7.25369 8.31046 7.20965 8.41663C7.16561 8.5228 7.14294 8.63662 7.14294 8.75156C7.14294 8.86651 7.16561 8.98032 7.20965 9.08649C7.25369 9.19267 7.31823 9.28911 7.39958 9.37031C7.48078 9.45167 7.57723 9.51621 7.6834 9.56025C7.78958 9.60428 7.90339 9.62695 8.01834 9.62695C8.13328 9.62695 8.24709 9.60428 8.35327 9.56025C8.45944 9.51621 8.55589 9.45167 8.63709 9.37031C8.74591 9.26182 8.82416 9.12652 8.86395 8.9781C8.90373 8.82967 8.90363 8.67337 8.86365 8.525L10.184 7.20469C10.2324 7.15625 10.2324 7.07656 10.184 7.02812L9.74178 6.58594ZM7.65583 5H8.34334C8.41209 5 8.46834 4.94375 8.46834 4.875V3.625C8.46834 3.55625 8.41209 3.5 8.34334 3.5H7.65583C7.58708 3.5 7.53083 3.55625 7.53083 3.625V4.875C7.53083 4.94375 7.58708 5 7.65583 5Z" fill="#575F70"/>
<path d="M14.45 6.025C14.0986 5.1933 13.5892 4.43767 12.95 3.8C12.3123 3.16079 11.5567 2.65138 10.725 2.3C9.86094 1.93437 8.94531 1.75 8 1.75C7.05469 1.75 6.13906 1.93437 5.275 2.3C4.4433 2.65138 3.68767 3.16079 3.05 3.8C2.41079 4.43767 1.90138 5.1933 1.55 6.025C1.18437 6.88906 1 7.80469 1 8.75C1 10.8234 1.91094 12.7766 3.49844 14.1109L3.525 14.1328C3.61563 14.2078 3.72969 14.25 3.84687 14.25H12.1547C12.2719 14.25 12.3859 14.2078 12.4766 14.1328L12.5031 14.1109C14.0891 12.7766 15 10.8234 15 8.75C15 7.80469 14.8141 6.88906 14.45 6.025ZM11.8969 13.0625H4.10313C3.49937 12.5181 3.01682 11.8529 2.68681 11.1099C2.35679 10.367 2.18667 9.56294 2.1875 8.75C2.1875 7.19688 2.79219 5.7375 3.89062 4.64062C4.98906 3.54219 6.44844 2.9375 8 2.9375C9.55313 2.9375 11.0125 3.54219 12.1094 4.64062C13.2078 5.73906 13.8125 7.19844 13.8125 8.75C13.8125 10.4 13.1172 11.9609 11.8969 13.0625Z" fill="#575F70"/>
<path d="M11.9172 5.32449L11.4312 4.83856C11.4078 4.8153 11.376 4.80225 11.343 4.80225C11.3099 4.80225 11.2782 4.8153 11.2547 4.83856L10.3703 5.72293C10.347 5.74642 10.334 5.77815 10.334 5.81121C10.334 5.84427 10.347 5.876 10.3703 5.89949L10.8562 6.38543C10.9047 6.43386 10.9844 6.43386 11.0328 6.38543L11.9172 5.50106C11.9656 5.45262 11.9656 5.37293 11.9172 5.32449ZM11.7188 8.40573V9.09323C11.7188 9.16198 11.775 9.21823 11.8438 9.21823H13.0938C13.1625 9.21823 13.2188 9.16198 13.2188 9.09323V8.40573C13.2188 8.33698 13.1625 8.28073 13.0938 8.28073H11.8438C11.775 8.28073 11.7188 8.33698 11.7188 8.40573ZM4.75156 4.83856C4.72807 4.8153 4.69634 4.80225 4.66328 4.80225C4.63022 4.80225 4.59849 4.8153 4.575 4.83856L4.08906 5.32449C4.0658 5.34799 4.05275 5.37971 4.05275 5.41277C4.05275 5.44584 4.0658 5.47756 4.08906 5.50106L4.97344 6.38543C5.02187 6.43386 5.10156 6.43386 5.15 6.38543L5.63594 5.89949C5.68438 5.85105 5.68438 5.77137 5.63594 5.72293L4.75156 4.83856ZM4.09375 8.28073H2.84375C2.775 8.28073 2.71875 8.33698 2.71875 8.40573V9.09323C2.71875 9.16198 2.775 9.21823 2.84375 9.21823H4.09375C4.1625 9.21823 4.21875 9.16198 4.21875 9.09323V8.40573C4.21875 8.33698 4.1625 8.28073 4.09375 8.28073Z" fill="#575F70"/>
</svg>
