<svg width="32" height="33" viewBox="0 0 32 33" fill="none" xmlns="http://www.w3.org/2000/svg">
<rect y="0.833984" width="32" height="32" rx="4" fill="#F6F6F6"/>
<path d="M24.6614 25.0162H23.2178V12.0442C23.225 11.9391 23.1966 11.8347 23.1373 11.7476C23.078 11.6605 22.9911 11.5958 22.8906 11.5638L18.4058 10.0936V8.17185C18.4058 8.04443 18.3551 7.92223 18.2649 7.83213C18.1746 7.74202 18.0522 7.69141 17.9246 7.69141H9.26295C9.13533 7.69141 9.01293 7.74202 8.92269 7.83213C8.83244 7.92223 8.78175 8.04443 8.78175 8.17185V25.0162H7.33814C7.21051 25.0162 7.08812 25.0669 6.99787 25.157C6.90763 25.2471 6.85693 25.3693 6.85693 25.4967C6.85693 25.6241 6.90763 25.7463 6.99787 25.8364C7.08812 25.9265 7.21051 25.9771 7.33814 25.9771H24.6614C24.7891 25.9771 24.9115 25.9265 25.0017 25.8364C25.092 25.7463 25.1426 25.6241 25.1426 25.4967C25.1426 25.3693 25.092 25.2471 25.0017 25.157C24.9115 25.0669 24.7891 25.0162 24.6614 25.0162ZM20.8118 20.2118H19.8494C19.7218 20.2118 19.5994 20.1612 19.5092 20.0711C19.4189 19.981 19.3682 19.8588 19.3682 19.7313C19.3682 19.6039 19.4189 19.4817 19.5092 19.3916C19.5994 19.3015 19.7218 19.2509 19.8494 19.2509H20.8118C20.9394 19.2509 21.0618 19.3015 21.1521 19.3916C21.2423 19.4817 21.293 19.6039 21.293 19.7313C21.293 19.8588 21.2423 19.981 21.1521 20.0711C21.0618 20.1612 20.9394 20.2118 20.8118 20.2118ZM21.293 22.6044C21.293 22.7318 21.2423 22.854 21.1521 22.9441C21.0618 23.0342 20.9394 23.0848 20.8118 23.0848H19.8494C19.7218 23.0848 19.5994 23.0342 19.5092 22.9441C19.4189 22.854 19.3682 22.7318 19.3682 22.6044C19.3682 22.477 19.4189 22.3548 19.5092 22.2647C19.5994 22.1746 19.7218 22.124 19.8494 22.124H20.8118C20.9362 22.1239 21.0557 22.1718 21.1455 22.2578C21.2352 22.3438 21.288 22.4611 21.293 22.5852V22.6044ZM20.8118 17.3291H19.8494C19.7218 17.3291 19.5994 17.2785 19.5092 17.1884C19.4189 17.0983 19.3682 16.9761 19.3682 16.8487C19.3682 16.7213 19.4189 16.5991 19.5092 16.509C19.5994 16.4188 19.7218 16.3682 19.8494 16.3682H20.8118C20.9394 16.3682 21.0618 16.4188 21.1521 16.509C21.2423 16.5991 21.293 16.7213 21.293 16.8487C21.293 16.9761 21.2423 17.0983 21.1521 17.1884C21.0618 17.2785 20.9394 17.3291 20.8118 17.3291ZM20.8118 14.4465H19.8494C19.7218 14.4465 19.5994 14.3958 19.5092 14.3057C19.4189 14.2156 19.3682 14.0934 19.3682 13.966C19.3682 13.8386 19.4189 13.7164 19.5092 13.6263C19.5994 13.5362 19.7218 13.4856 19.8494 13.4856H20.8118C20.9394 13.4856 21.0618 13.5362 21.1521 13.6263C21.2423 13.7164 21.293 13.8386 21.293 13.966C21.293 14.0934 21.2423 14.2156 21.1521 14.3057C21.0618 14.3958 20.9394 14.4465 20.8118 14.4465ZM9.74415 8.68112H17.4434V25.0162H14.5562V22.5852H12.6314V25.0162H9.74415V8.68112ZM12.6314 20.2118H11.669C11.5413 20.2118 11.4189 20.1612 11.3287 20.0711C11.2385 19.981 11.1878 19.8588 11.1878 19.7313C11.1878 19.6039 11.2385 19.4817 11.3287 19.3916C11.4189 19.3015 11.5413 19.2509 11.669 19.2509H12.6314C12.759 19.2509 12.8814 19.3015 12.9716 19.3916C13.0619 19.4817 13.1126 19.6039 13.1126 19.7313C13.1126 19.8588 13.0619 19.981 12.9716 20.0711C12.8814 20.1612 12.759 20.2118 12.6314 20.2118ZM14.1135 19.7313C14.1131 19.6103 14.1585 19.4936 14.2405 19.4045C14.3226 19.3154 14.4353 19.2606 14.5562 19.2509H15.5186C15.6462 19.2509 15.7686 19.3015 15.8588 19.3916C15.9491 19.4817 15.9998 19.6039 15.9998 19.7313C15.9998 19.8588 15.9491 19.981 15.8588 20.0711C15.7686 20.1612 15.6462 20.2118 15.5186 20.2118H14.5562C14.4319 20.2068 14.3144 20.154 14.2283 20.0645C14.1422 19.9749 14.0941 19.8555 14.0942 19.7313H14.1135ZM11.1493 16.8487C11.1493 16.7213 11.2 16.5991 11.2902 16.509C11.3804 16.4188 11.5028 16.3682 11.6305 16.3682H12.6314C12.759 16.3682 12.8814 16.4188 12.9716 16.509C13.0619 16.5991 13.1126 16.7213 13.1126 16.8487C13.1126 16.9761 13.0619 17.0983 12.9716 17.1884C12.8814 17.2785 12.759 17.3291 12.6314 17.3291H11.669C11.6011 17.3373 11.5323 17.331 11.467 17.3105C11.4018 17.2901 11.3417 17.256 11.2907 17.2105C11.2397 17.1651 11.199 17.1093 11.1713 17.0469C11.1436 16.9845 11.1295 16.9169 11.13 16.8487H11.1493ZM14.1135 16.8487C14.1131 16.7276 14.1585 16.6109 14.2405 16.5218C14.3226 16.4328 14.4353 16.3779 14.5562 16.3682H15.5186C15.6462 16.3682 15.7686 16.4188 15.8588 16.509C15.9491 16.5991 15.9998 16.7213 15.9998 16.8487C15.9998 16.9761 15.9491 17.0983 15.8588 17.1884C15.7686 17.2785 15.6462 17.3291 15.5186 17.3291H14.5562C14.4319 17.3242 14.3144 17.2714 14.2283 17.1818C14.1422 17.0922 14.0941 16.9728 14.0942 16.8487H14.1135ZM11.1493 13.966C11.1493 13.8386 11.2 13.7164 11.2902 13.6263C11.3804 13.5362 11.5028 13.4856 11.6305 13.4856H12.6314C12.759 13.4856 12.8814 13.5362 12.9716 13.6263C13.0619 13.7164 13.1126 13.8386 13.1126 13.966C13.1126 14.0934 13.0619 14.2156 12.9716 14.3057C12.8814 14.3958 12.759 14.4465 12.6314 14.4465H11.669C11.6011 14.4546 11.5323 14.4483 11.467 14.4279C11.4018 14.4074 11.3417 14.3733 11.2907 14.3279C11.2397 14.2824 11.199 14.2266 11.1713 14.1642C11.1436 14.1018 11.1295 14.0343 11.13 13.966H11.1493ZM14.1135 13.966C14.1131 13.845 14.1585 13.7283 14.2405 13.6392C14.3226 13.5501 14.4353 13.4952 14.5562 13.4856H15.5186C15.6462 13.4856 15.7686 13.5362 15.8588 13.6263C15.9491 13.7164 15.9998 13.8386 15.9998 13.966C15.9998 14.0934 15.9491 14.2156 15.8588 14.3057C15.7686 14.3958 15.6462 14.4465 15.5186 14.4465H14.5562C14.4319 14.4415 14.3144 14.3887 14.2283 14.2991C14.1422 14.2095 14.0941 14.0902 14.0942 13.966H14.1135ZM11.1493 11.0833C11.1493 10.9559 11.2 10.8337 11.2902 10.7436C11.3804 10.6535 11.5028 10.6029 11.6305 10.6029H12.6314C12.759 10.6029 12.8814 10.6535 12.9716 10.7436C13.0619 10.8337 13.1126 10.9559 13.1126 11.0833C13.1126 11.2108 13.0619 11.333 12.9716 11.4231C12.8814 11.5132 12.759 11.5638 12.6314 11.5638H11.669C11.6011 11.572 11.5323 11.5656 11.467 11.5452C11.4018 11.5247 11.3417 11.4907 11.2907 11.4452C11.2397 11.3997 11.199 11.344 11.1713 11.2816C11.1436 11.2192 11.1295 11.1516 11.13 11.0833H11.1493ZM14.1135 11.0833C14.1131 10.9623 14.1585 10.8456 14.2405 10.7565C14.3226 10.6674 14.4353 10.6126 14.5562 10.6029H15.5186C15.6462 10.6029 15.7686 10.6535 15.8588 10.7436C15.9491 10.8337 15.9998 10.9559 15.9998 11.0833C15.9998 11.2108 15.9491 11.333 15.8588 11.4231C15.7686 11.5132 15.6462 11.5638 15.5186 11.5638H14.5562C14.4319 11.5588 14.3144 11.506 14.2283 11.4165C14.1422 11.3269 14.0941 11.2075 14.0942 11.0833H14.1135Z" fill="#ABABAB"/>
</svg>
