<svg xmlns="http://www.w3.org/2000/svg" width="20" height="20" viewBox="0 0 20 20" fill="none">
  <path fill-rule="evenodd" clip-rule="evenodd" d="M9.16699 16.6667C9.16699 16.2064 9.54009 15.8333 10.0003 15.8333H17.5003C17.9606 15.8333 18.3337 16.2064 18.3337 16.6667C18.3337 17.1269 17.9606 17.5 17.5003 17.5H10.0003C9.54009 17.5 9.16699 17.1269 9.16699 16.6667Z" fill="#6A6A6A"/>
  <path fill-rule="evenodd" clip-rule="evenodd" d="M15.0003 3.23223C14.7525 3.23223 14.5148 3.33068 14.3396 3.50592L4.08615 13.7594L3.64565 15.5214L5.40764 15.0809L15.6611 4.82741C15.7479 4.74064 15.8167 4.63763 15.8636 4.52426C15.9106 4.41089 15.9348 4.28938 15.9348 4.16667C15.9348 4.04396 15.9106 3.92245 15.8636 3.80907C15.8167 3.6957 15.7479 3.59269 15.6611 3.50592C15.5743 3.41915 15.4713 3.35032 15.3579 3.30336C15.2446 3.2564 15.1231 3.23223 15.0003 3.23223ZM13.1611 2.32741C13.6489 1.83961 14.3105 1.56557 15.0003 1.56557C15.3419 1.56557 15.6802 1.63285 15.9957 1.76356C16.3113 1.89428 16.5981 2.08588 16.8396 2.32741C17.0811 2.56895 17.2727 2.85569 17.4034 3.17127C17.5342 3.48685 17.6014 3.82509 17.6014 4.16667C17.6014 4.50825 17.5342 4.84649 17.4034 5.16207C17.2727 5.47765 17.0811 5.76439 16.8396 6.00592L6.42293 16.4226C6.31613 16.5294 6.18232 16.6052 6.03579 16.6418L2.70246 17.4751C2.41848 17.5461 2.11807 17.4629 1.91109 17.2559C1.7041 17.0489 1.6209 16.7485 1.69189 16.4646L2.52522 13.1312C2.56186 12.9847 2.63762 12.8509 2.74442 12.7441L13.1611 2.32741Z" fill="#6A6A6A"/>
</svg>