<svg xmlns="http://www.w3.org/2000/svg" width="32" height="32" viewBox="0 0 32 32" fill="none">
  <path fill-rule="evenodd" clip-rule="evenodd" d="M29.8906 13.1548L29.9136 16.0435L29.8498 24.0648L25.2188 26.7878C25.1261 26.7091 25.027 26.6369 24.9217 26.5737C24.3768 26.2467 22.1833 24.9739 19.9458 23.6755C18.4469 22.8058 16.9282 21.9245 15.8721 21.3084L29.8906 13.1548Z" fill="#DB28A9"/>
  <path fill-rule="evenodd" clip-rule="evenodd" d="M29.8906 13.1548L29.9136 16.0435L29.8498 24.0648L25.2188 26.7878C25.1261 26.7091 25.027 26.6369 24.9217 26.5737C24.3768 26.2467 22.1833 24.9739 19.9458 23.6755C18.4469 22.8058 16.9282 21.9245 15.8721 21.3084L29.8906 13.1548Z" fill="url(#paint0_linear_282_4170)" fill-opacity="0.2"/>
  <path fill-rule="evenodd" clip-rule="evenodd" d="M20.7269 2.70435L20.7266 18.4302C21.7882 17.8236 23.3108 16.949 24.8135 16.0858C27.0566 14.7972 29.2556 13.5341 29.8112 13.2256C29.8379 13.2108 29.8648 13.1966 29.892 13.183L29.851 8.02246L22.9363 3.95661L20.7269 2.70435Z" fill="#8834F4"/>
  <path fill-rule="evenodd" clip-rule="evenodd" d="M20.7269 2.70435L20.7266 18.4302C21.7882 17.8236 23.3108 16.949 24.8135 16.0858C27.0566 14.7972 29.2556 13.5341 29.8112 13.2256C29.8379 13.2108 29.8648 13.1966 29.892 13.183L29.851 8.02246L22.9363 3.95661L20.7269 2.70435Z" fill="url(#paint1_linear_282_4170)" fill-opacity="0.2"/>
  <path fill-rule="evenodd" clip-rule="evenodd" d="M7.11621 5.04968L20.8088 12.9555C20.8143 11.7328 20.8181 9.97688 20.8219 8.24384L20.8219 8.24307C20.8269 5.94664 20.8319 3.69054 20.8404 2.76863L15.9557 0L8.97721 3.95541L7.11621 5.04968Z" fill="#2CC1E2"/>
  <path fill-rule="evenodd" clip-rule="evenodd" d="M7.11621 5.04968L20.8088 12.9555C20.8143 11.7328 20.8181 9.97688 20.8219 8.24384L20.8219 8.24307C20.8269 5.94664 20.8319 3.69054 20.8404 2.76863L15.9557 0L8.97721 3.95541L7.11621 5.04968Z" fill="url(#paint2_linear_282_4170)" fill-opacity="0.2"/>
  <path fill-rule="evenodd" clip-rule="evenodd" d="M2.01805 18.3742L1.99951 16.0416L2.06327 8.02029L7.15043 5.02905C7.81844 5.42593 9.90632 6.63747 12.0341 7.87219L12.0347 7.87251C13.5336 8.74229 15.0523 9.62354 16.1084 10.2396L2.01805 18.3742Z" fill="#9DE541"/>
  <path fill-rule="evenodd" clip-rule="evenodd" d="M2.01805 18.3742L1.99951 16.0416L2.06327 8.02029L7.15043 5.02905C7.81844 5.42593 9.90632 6.63747 12.0341 7.87219L12.0347 7.87251C13.5336 8.74229 15.0523 9.62354 16.1084 10.2396L2.01805 18.3742Z" fill="url(#paint3_linear_282_4170)" fill-opacity="0.2"/>
  <path fill-rule="evenodd" clip-rule="evenodd" d="M11.3986 29.5009L8.97917 28.1296L2.06443 24.0638L2.01855 18.2926L2.18072 18.1997C2.22592 18.1786 2.27049 18.1559 2.31429 18.1316C2.8699 17.8232 5.06871 16.5601 7.31178 15.2716L7.31213 15.2714C8.81483 14.4082 10.3374 13.5336 11.3989 12.927L11.3986 29.5009Z" fill="#FFB525"/>
  <path fill-rule="evenodd" clip-rule="evenodd" d="M11.3986 29.5009L8.97917 28.1296L2.06443 24.0638L2.01855 18.2926L2.18072 18.1997C2.22592 18.1786 2.27049 18.1559 2.31429 18.1316C2.8699 17.8232 5.06871 16.5601 7.31178 15.2716L7.31213 15.2714C8.81483 14.4082 10.3374 13.5336 11.3989 12.927L11.3986 29.5009Z" fill="url(#paint4_linear_282_4170)" fill-opacity="0.2"/>
  <path fill-rule="evenodd" clip-rule="evenodd" d="M15.795 31.9939L11.3301 29.4632L11.3317 28.9555C11.336 28.9058 11.3387 28.8559 11.3395 28.8058C11.3502 28.1704 11.3558 25.6346 11.3614 23.0479L11.3614 23.0474C11.3652 21.3144 11.3691 19.5586 11.3745 18.3359L25.6127 26.5568L22.9361 28.1306L16.1083 32.0006C16.0025 31.9991 15.898 31.9968 15.795 31.9939Z" fill="#F2831D"/>
  <path fill-rule="evenodd" clip-rule="evenodd" d="M15.795 31.9939L11.3301 29.4632L11.3317 28.9555C11.336 28.9058 11.3387 28.8559 11.3395 28.8058C11.3502 28.1704 11.3558 25.6346 11.3614 23.0479L11.3614 23.0474C11.3652 21.3144 11.3691 19.5586 11.3745 18.3359L25.6127 26.5568L22.9361 28.1306L16.1083 32.0006C16.0025 31.9991 15.898 31.9968 15.795 31.9939Z" fill="url(#paint5_linear_282_4170)" fill-opacity="0.2"/>
  <defs>
    <linearGradient id="paint0_linear_282_4170" x1="18.4999" y1="25.0001" x2="22.9998" y2="19.0003" gradientUnits="userSpaceOnUse">
      <stop/>
      <stop offset="1" stop-opacity="0"/>
    </linearGradient>
    <linearGradient id="paint1_linear_282_4170" x1="29.5006" y1="18.5003" x2="25.0006" y2="11.0002" gradientUnits="userSpaceOnUse">
      <stop/>
      <stop offset="1" stop-opacity="0"/>
    </linearGradient>
    <linearGradient id="paint2_linear_282_4170" x1="23.0005" y1="8.50006" x2="17.5003" y2="8.00003" gradientUnits="userSpaceOnUse">
      <stop/>
      <stop offset="1" stop-opacity="0"/>
    </linearGradient>
    <linearGradient id="paint3_linear_282_4170" x1="13.4995" y1="5.49976" x2="8.99951" y2="10.4998" gradientUnits="userSpaceOnUse">
      <stop/>
      <stop offset="1" stop-opacity="0"/>
    </linearGradient>
    <linearGradient id="paint4_linear_282_4170" x1="6.70874" y1="12.927" x2="8.50025" y2="19.0004" gradientUnits="userSpaceOnUse">
      <stop/>
      <stop offset="1" stop-opacity="0"/>
    </linearGradient>
    <linearGradient id="paint5_linear_282_4170" x1="8.50049" y1="23.5" x2="14.0005" y2="25" gradientUnits="userSpaceOnUse">
      <stop/>
      <stop offset="1" stop-opacity="0"/>
    </linearGradient>
  </defs>
</svg>
