<svg width="48" height="48" viewBox="0 0 48 48" fill="none" xmlns="http://www.w3.org/2000/svg">
<g clip-path="url(#clip0_1910_13193)">
<rect width="48" height="48" rx="4" fill="white"/>
<rect width="48" height="48" rx="4" fill="#F6F6F6"/>
<path d="M36.9919 36.2729H34.8265V16.8149C34.8372 16.6573 34.7947 16.5006 34.7057 16.3699C34.6167 16.2393 34.4864 16.1422 34.3357 16.0942L27.6085 13.889V11.0063C27.6085 10.8152 27.5324 10.6319 27.3971 10.4967C27.2617 10.3616 27.0781 10.2856 26.8867 10.2856H13.8942C13.7027 10.2856 13.5192 10.3616 13.3838 10.4967C13.2484 10.6319 13.1724 10.8152 13.1724 11.0063V36.2729H11.007C10.8155 36.2729 10.6319 36.3488 10.4966 36.484C10.3612 36.6191 10.2852 36.8024 10.2852 36.9935C10.2852 37.1847 10.3612 37.368 10.4966 37.5031C10.6319 37.6383 10.8155 37.7142 11.007 37.7142H36.9919C37.1834 37.7142 37.367 37.6383 37.5023 37.5031C37.6377 37.368 37.7137 37.1847 37.7137 36.9935C37.7137 36.8024 37.6377 36.6191 37.5023 36.484C37.367 36.3488 37.1834 36.2729 36.9919 36.2729ZM31.2175 29.0662H29.7739C29.5824 29.0662 29.3988 28.9903 29.2635 28.8551C29.1281 28.72 29.0521 28.5367 29.0521 28.3455C29.0521 28.1544 29.1281 27.9711 29.2635 27.836C29.3988 27.7008 29.5824 27.6249 29.7739 27.6249H31.2175C31.4089 27.6249 31.5925 27.7008 31.7279 27.836C31.8632 27.9711 31.9393 28.1544 31.9393 28.3455C31.9393 28.5367 31.8632 28.72 31.7279 28.8551C31.5925 28.9903 31.4089 29.0662 31.2175 29.0662ZM31.9393 32.6551C31.9393 32.8463 31.8632 33.0296 31.7279 33.1647C31.5925 33.2999 31.4089 33.3758 31.2175 33.3758H29.7739C29.5824 33.3758 29.3988 33.2999 29.2635 33.1647C29.1281 33.0296 29.0521 32.8463 29.0521 32.6551C29.0521 32.464 29.1281 32.2807 29.2635 32.1455C29.3988 32.0104 29.5824 31.9345 29.7739 31.9345H31.2175C31.404 31.9343 31.5834 32.0063 31.7179 32.1353C31.8525 32.2642 31.9318 32.4402 31.9393 32.6263V32.6551ZM31.2175 24.7422H29.7739C29.5824 24.7422 29.3988 24.6663 29.2635 24.5311C29.1281 24.396 29.0521 24.2127 29.0521 24.0216C29.0521 23.8304 29.1281 23.6471 29.2635 23.512C29.3988 23.3768 29.5824 23.3009 29.7739 23.3009H31.2175C31.4089 23.3009 31.5925 23.3768 31.7279 23.512C31.8632 23.6471 31.9393 23.8304 31.9393 24.0216C31.9393 24.2127 31.8632 24.396 31.7279 24.5311C31.5925 24.6663 31.4089 24.7422 31.2175 24.7422ZM31.2175 20.4182H29.7739C29.5824 20.4182 29.3988 20.3423 29.2635 20.2071C29.1281 20.072 29.0521 19.8887 29.0521 19.6975C29.0521 19.5064 29.1281 19.3231 29.2635 19.188C29.3988 19.0528 29.5824 18.9769 29.7739 18.9769H31.2175C31.4089 18.9769 31.5925 19.0528 31.7279 19.188C31.8632 19.3231 31.9393 19.5064 31.9393 19.6975C31.9393 19.8887 31.8632 20.072 31.7279 20.2071C31.5925 20.3423 31.4089 20.4182 31.2175 20.4182ZM14.616 11.7702H26.1649V36.2729H21.834V32.6263H18.9468V36.2729H14.616V11.7702ZM18.9468 29.0662H17.5032C17.3118 29.0662 17.1282 28.9903 16.9928 28.8551C16.8574 28.72 16.7814 28.5367 16.7814 28.3455C16.7814 28.1544 16.8574 27.9711 16.9928 27.836C17.1282 27.7008 17.3118 27.6249 17.5032 27.6249H18.9468C19.1382 27.6249 19.3218 27.7008 19.4572 27.836C19.5926 27.9711 19.6686 28.1544 19.6686 28.3455C19.6686 28.5367 19.5926 28.72 19.4572 28.8551C19.3218 28.9903 19.1382 29.0662 18.9468 29.0662ZM21.17 28.3455C21.1694 28.164 21.2375 27.9889 21.3606 27.8553C21.4837 27.7217 21.6528 27.6394 21.834 27.6249H23.2776C23.4691 27.6249 23.6527 27.7008 23.788 27.836C23.9234 27.9711 23.9994 28.1544 23.9994 28.3455C23.9994 28.5367 23.9234 28.72 23.788 28.8551C23.6527 28.9903 23.4691 29.0662 23.2776 29.0662H21.834C21.6476 29.0588 21.4714 28.9796 21.3422 28.8452C21.213 28.7109 21.1409 28.5318 21.1411 28.3455H21.17ZM16.7237 24.0216C16.7237 23.8304 16.7997 23.6471 16.9351 23.512C17.0704 23.3768 17.254 23.3009 17.4455 23.3009H18.9468C19.1382 23.3009 19.3218 23.3768 19.4572 23.512C19.5926 23.6471 19.6686 23.8304 19.6686 24.0216C19.6686 24.2127 19.5926 24.396 19.4572 24.5311C19.3218 24.6663 19.1382 24.7422 18.9468 24.7422H17.5032C17.4014 24.7545 17.2981 24.745 17.2003 24.7143C17.1025 24.6837 17.0123 24.6325 16.9358 24.5643C16.8593 24.4961 16.7983 24.4125 16.7567 24.3189C16.7152 24.2253 16.694 24.1239 16.6948 24.0216H16.7237ZM21.17 24.0216C21.1694 23.84 21.2375 23.6649 21.3606 23.5313C21.4837 23.3977 21.6528 23.3154 21.834 23.3009H23.2776C23.4691 23.3009 23.6527 23.3768 23.788 23.512C23.9234 23.6471 23.9994 23.8304 23.9994 24.0216C23.9994 24.2127 23.9234 24.396 23.788 24.5311C23.6527 24.6663 23.4691 24.7422 23.2776 24.7422H21.834C21.6476 24.7348 21.4714 24.6556 21.3422 24.5212C21.213 24.3869 21.1409 24.2078 21.1411 24.0216H21.17ZM16.7237 19.6975C16.7237 19.5064 16.7997 19.3231 16.9351 19.188C17.0704 19.0528 17.254 18.9769 17.4455 18.9769H18.9468C19.1382 18.9769 19.3218 19.0528 19.4572 19.188C19.5926 19.3231 19.6686 19.5064 19.6686 19.6975C19.6686 19.8887 19.5926 20.072 19.4572 20.2071C19.3218 20.3423 19.1382 20.4182 18.9468 20.4182H17.5032C17.4014 20.4305 17.2981 20.421 17.2003 20.3903C17.1025 20.3597 17.0123 20.3085 16.9358 20.2403C16.8593 20.1721 16.7983 20.0885 16.7567 19.9949C16.7152 19.9013 16.694 19.7999 16.6948 19.6975H16.7237ZM21.17 19.6975C21.1694 19.516 21.2375 19.3409 21.3606 19.2073C21.4837 19.0737 21.6528 18.9914 21.834 18.9769H23.2776C23.4691 18.9769 23.6527 19.0528 23.788 19.188C23.9234 19.3231 23.9994 19.5064 23.9994 19.6975C23.9994 19.8887 23.9234 20.072 23.788 20.2071C23.6527 20.3423 23.4691 20.4182 23.2776 20.4182H21.834C21.6476 20.4108 21.4714 20.3316 21.3422 20.1972C21.213 20.0629 21.1409 19.8838 21.1411 19.6975H21.17ZM16.7237 15.3736C16.7237 15.1824 16.7997 14.9991 16.9351 14.864C17.0704 14.7288 17.254 14.6529 17.4455 14.6529H18.9468C19.1382 14.6529 19.3218 14.7288 19.4572 14.864C19.5926 14.9991 19.6686 15.1824 19.6686 15.3736C19.6686 15.5647 19.5926 15.748 19.4572 15.8831C19.3218 16.0183 19.1382 16.0942 18.9468 16.0942H17.5032C17.4014 16.1065 17.2981 16.097 17.2003 16.0663C17.1025 16.0357 17.0123 15.9845 16.9358 15.9163C16.8593 15.8481 16.7983 15.7645 16.7567 15.6709C16.7152 15.5773 16.694 15.4759 16.6948 15.3736H16.7237ZM21.17 15.3736C21.1694 15.192 21.2375 15.0169 21.3606 14.8833C21.4837 14.7497 21.6528 14.6674 21.834 14.6529H23.2776C23.4691 14.6529 23.6527 14.7288 23.788 14.864C23.9234 14.9991 23.9994 15.1824 23.9994 15.3736C23.9994 15.5647 23.9234 15.748 23.788 15.8831C23.6527 16.0183 23.4691 16.0942 23.2776 16.0942H21.834C21.6476 16.0868 21.4714 16.0076 21.3422 15.8732C21.213 15.7389 21.1409 15.5598 21.1411 15.3736H21.17Z" fill="#ABABAB"/>
</g>
<defs>
<clipPath id="clip0_1910_13193">
<rect width="48" height="48" rx="4" fill="white"/>
</clipPath>
</defs>
</svg>
