<svg width="16" height="16" viewBox="0 0 16 16" fill="none" xmlns="http://www.w3.org/2000/svg">
<path d="M13.0937 4.88099C13.007 5.08265 12.7211 5.08265 12.6344 4.88099L12.1474 3.74844L10.9367 3.21292C10.7373 3.12474 10.7384 2.84142 10.9385 2.75485L12.1474 2.23177L12.6363 1.15162C12.725 0.955737 13.0032 0.955738 13.0918 1.15162L13.5807 2.23177L14.7896 2.75485C14.9897 2.84142 14.9908 3.12474 14.7915 3.21292L13.5807 3.74844L13.0937 4.88099ZM13.0922 14.8224C13.0039 15.0195 12.7242 15.0195 12.6359 14.8224L12.1474 13.7318L10.9443 13.2112C10.7434 13.1243 10.7434 12.8393 10.9443 12.7523L12.1474 12.2318L12.634 11.0887C12.7204 10.886 13.0078 10.886 13.0941 11.0887L13.5807 12.2318L14.7838 12.7523C14.9848 12.8393 14.9848 13.1243 14.7838 13.2112L13.5807 13.7318L13.0922 14.8224ZM5.77469 12.2836C5.6843 12.4751 5.4117 12.4745 5.3221 12.2827L4.01406 9.48177L1.17364 8.20994C0.976532 8.12168 0.976533 7.84186 1.17364 7.7536L4.01406 6.48177L5.32231 3.69464C5.41208 3.50338 5.68391 3.50281 5.77448 3.69369L7.0974 6.48177L9.92411 7.75379C10.1207 7.84224 10.1207 8.12131 9.92411 8.20975L7.0974 9.48177L5.77469 12.2836ZM5.5474 10.2984L6.3474 8.69844L7.98073 7.98177L6.3474 7.2651L5.5474 5.6651L4.76406 7.2651L3.11406 7.98177L4.76406 8.69844L5.5474 10.2984Z" fill="#6C59E4"/>
</svg>
