<svg width="32" height="32" viewBox="0 0 32 32" fill="none" xmlns="http://www.w3.org/2000/svg">
<g clip-path="url(#clip0_1687_159090)">
<path d="M12.8494 0C12.8494 7.08634 7.08634 12.8494 0 12.8494V19.1506C6.68404 19.1506 12.5732 15.7092 16 10.5083C14.0127 7.48864 12.8494 3.88246 12.8494 0.00484702V0Z" fill="url(#paint0_linear_1687_159090)"/>
<path d="M21.4918 16C24.5115 14.0127 28.1177 12.8494 31.9953 12.8494C24.909 12.8494 19.1458 7.08634 19.1458 0H12.8447C12.8447 6.68404 16.2861 12.5732 21.487 16H21.4918Z" fill="url(#paint1_linear_1687_159090)"/>
<path d="M10.5035 16C7.48379 17.9873 3.87761 19.1506 0 19.1506C7.08634 19.1506 12.8494 24.9137 12.8494 32H19.1506C19.1506 25.316 15.7092 19.4268 10.5083 16H10.5035Z" fill="url(#paint2_linear_1687_159090)"/>
<path d="M19.1505 32.0002C19.1505 24.9138 24.9136 19.1507 32 19.1507V12.8496C25.3159 12.8496 19.422 16.2958 15.9951 21.4967C17.9824 24.5164 19.1505 28.1226 19.1505 31.9953V32.0002Z" fill="url(#paint3_linear_1687_159090)"/>
</g>
<defs>
<linearGradient id="paint0_linear_1687_159090" x1="16.8434" y1="2.1957" x2="1.44926" y2="19.0148" gradientUnits="userSpaceOnUse">
<stop offset="0.2" stop-color="#F07D21"/>
<stop offset="0.26" stop-color="#F28C1B"/>
<stop offset="0.43" stop-color="#F7AD0F"/>
<stop offset="0.59" stop-color="#FBC607"/>
<stop offset="0.74" stop-color="#FDD401"/>
<stop offset="0.87" stop-color="#FEDA00"/>
</linearGradient>
<linearGradient id="paint1_linear_1687_159090" x1="28.6363" y1="16.8191" x2="13.8771" y2="1.11481" gradientUnits="userSpaceOnUse">
<stop offset="0.13" stop-color="#F07D21"/>
<stop offset="0.2" stop-color="#F28C1B"/>
<stop offset="0.39" stop-color="#F7AD0F"/>
<stop offset="0.57" stop-color="#FBC607"/>
<stop offset="0.73" stop-color="#FDD401"/>
<stop offset="0.87" stop-color="#FEDA00"/>
</linearGradient>
<linearGradient id="paint2_linear_1687_159090" x1="2.29264" y1="16.4314" x2="19.7371" y2="30.4005" gradientUnits="userSpaceOnUse">
<stop offset="0.24" stop-color="#F07D21"/>
<stop offset="0.3" stop-color="#F28C1B"/>
<stop offset="0.46" stop-color="#F7AD0F"/>
<stop offset="0.61" stop-color="#FBC607"/>
<stop offset="0.75" stop-color="#FDD401"/>
<stop offset="0.87" stop-color="#FEDA00"/>
</linearGradient>
<linearGradient id="paint3_linear_1687_159090" x1="17.5219" y1="25.8687" x2="29.6782" y2="17.7402" gradientUnits="userSpaceOnUse">
<stop stop-color="#F07D21"/>
<stop offset="0.11" stop-color="#F28E1A"/>
<stop offset="0.36" stop-color="#F7AF0F"/>
<stop offset="0.59" stop-color="#FBC606"/>
<stop offset="0.81" stop-color="#FDD501"/>
<stop offset="1" stop-color="#FEDA00"/>
</linearGradient>
<clipPath id="clip0_1687_159090">
<rect width="32" height="32" fill="white"/>
</clipPath>
</defs>
</svg>
