<svg xmlns="http://www.w3.org/2000/svg" width="16" height="16" viewBox="0 0 16 16" fill="none">
<path fill-rule="evenodd" clip-rule="evenodd" d="M9.22731 1.33398C8.85359 1.33398 8.49518 1.48244 8.23092 1.7467C7.96666 2.01096 7.8182 2.36937 7.8182 2.74309V3.21278H6.4091C5.63088 3.21278 5 3.84366 5 4.62188V9.31889C5 10.0971 5.63088 10.728 6.4091 10.728H13.9243C14.7025 10.728 15.3334 10.0971 15.3334 9.31889V4.62188C15.3334 3.84366 14.7025 3.21278 13.9243 3.21278H12.5152V2.74309C12.5152 2.36937 12.3668 2.01096 12.1025 1.7467C11.8382 1.48244 11.4798 1.33398 11.1061 1.33398H9.22731ZM11.5758 3.21278V2.74309C11.5758 2.61851 11.5263 2.49904 11.4382 2.41096C11.3502 2.32287 11.2307 2.27339 11.1061 2.27339H9.22731C9.10273 2.27339 8.98326 2.32287 8.89518 2.41096C8.80709 2.49904 8.75761 2.61851 8.75761 2.74309V3.21278H11.5758ZM5.9394 4.62188C5.9394 4.36247 6.14969 4.15218 6.4091 4.15218H13.9243C14.1837 4.15218 14.394 4.36247 14.394 4.62188V9.31889C14.394 9.5783 14.1837 9.78859 13.9243 9.78859H6.4091C6.14969 9.78859 5.9394 9.5783 5.9394 9.31889V4.62188Z" fill="#ABABAB"/>
<path d="M3.5 6.5V11.2878C3.5 11.8401 3.94772 12.2878 4.5 12.2878H12" stroke="#ABABAB" stroke-linecap="round" stroke-linejoin="round"/>
<path d="M1.5 8.5V13.2878C1.5 13.8401 1.94772 14.2878 2.5 14.2878H10" stroke="#ABABAB" stroke-linecap="round" stroke-linejoin="round"/>
</svg>