<svg width="18" height="18" viewBox="0 0 18 18" fill="none" xmlns="http://www.w3.org/2000/svg">
<path fill-rule="evenodd" clip-rule="evenodd" d="M9.00002 0.75C9.28549 0.75 9.5462 0.912054 9.67255 1.16803L11.8157 5.50985L16.6085 6.21039C16.8909 6.25167 17.1254 6.44967 17.2135 6.72118C17.3015 6.99268 17.2278 7.29062 17.0233 7.48977L13.5559 10.867L14.3742 15.6382C14.4225 15.9196 14.3068 16.204 14.0758 16.3718C13.8448 16.5396 13.5386 16.5617 13.2859 16.4288L9.00002 14.1749L4.71411 16.4288C4.46142 16.5617 4.1552 16.5396 3.92422 16.3718C3.69324 16.204 3.57755 15.9196 3.62582 15.6382L4.44413 10.867L0.976722 7.48977C0.772259 7.29062 0.698554 6.99268 0.786587 6.72118C0.874621 6.44967 1.10913 6.25167 1.39155 6.21039L6.18433 5.50985L8.32749 1.16803C8.45385 0.912054 8.71456 0.75 9.00002 0.75Z" fill="#F3B72C"/>
</svg>
