<svg width="16" height="16" viewBox="0 0 16 16" fill="none" xmlns="http://www.w3.org/2000/svg">
<path fill-rule="evenodd" clip-rule="evenodd" d="M6.11454 2.78101C6.61464 2.28091 7.29292 1.99996 8.00016 1.99996C8.70741 1.99996 9.38568 2.28091 9.88578 2.78101C10.3859 3.2811 10.6668 3.95938 10.6668 4.66663V6.66663H5.3335V4.66663C5.3335 3.95938 5.61445 3.2811 6.11454 2.78101ZM12.0002 4.66663V6.66663H12.6668C13.7714 6.66663 14.6668 7.56206 14.6668 8.66663V13.3333C14.6668 14.4379 13.7714 15.3333 12.6668 15.3333H3.3335C2.22893 15.3333 1.3335 14.4379 1.3335 13.3333V8.66663C1.3335 7.56206 2.22893 6.66663 3.3335 6.66663H4.00016V4.66663C4.00016 3.60576 4.42159 2.58834 5.17174 1.8382C5.92188 1.08805 6.9393 0.666626 8.00016 0.666626C9.06103 0.666626 10.0784 1.08805 10.8286 1.8382C11.5787 2.58834 12.0002 3.60576 12.0002 4.66663ZM8.00016 12C8.73654 12 9.3335 11.403 9.3335 10.6666C9.3335 9.93025 8.73654 9.33329 8.00016 9.33329C7.26378 9.33329 6.66683 9.93025 6.66683 10.6666C6.66683 11.403 7.26378 12 8.00016 12Z" fill="#0072C6"/>
</svg>
