<svg width="16" height="16" viewBox="0 0 16 16" fill="none" xmlns="http://www.w3.org/2000/svg">
<path fill-rule="evenodd" clip-rule="evenodd" d="M6.11454 2.78105C6.61464 2.28095 7.29292 2 8.00016 2C8.70741 2 9.38568 2.28095 9.88578 2.78105C10.3859 3.28114 10.6668 3.95942 10.6668 4.66666V6.66666H5.3335V4.66666C5.3335 3.95942 5.61445 3.28114 6.11454 2.78105ZM12.0002 4.66666V6.66666H12.6668C13.7714 6.66666 14.6668 7.56209 14.6668 8.66666V13.3333C14.6668 14.4379 13.7714 15.3333 12.6668 15.3333H3.3335C2.22893 15.3333 1.3335 14.4379 1.3335 13.3333V8.66666C1.3335 7.56209 2.22893 6.66666 3.3335 6.66666H4.00016V4.66666C4.00016 3.6058 4.42159 2.58838 5.17174 1.83824C5.92188 1.08809 6.9393 0.666664 8.00016 0.666664C9.06103 0.666664 10.0784 1.08809 10.8286 1.83824C11.5787 2.58838 12.0002 3.6058 12.0002 4.66666ZM8.00016 12C8.73654 12 9.3335 11.403 9.3335 10.6667C9.3335 9.93028 8.73654 9.33333 8.00016 9.33333C7.26378 9.33333 6.66683 9.93028 6.66683 10.6667C6.66683 11.403 7.26378 12 8.00016 12Z" fill="#848484"/>
</svg>
