<svg width="130" height="129" viewBox="0 0 130 129" fill="none" xmlns="http://www.w3.org/2000/svg">
<rect y="9" width="120" height="120" rx="60" fill="white"/>
<rect x="24.4746" y="56.3682" width="71.0526" height="7.89474" rx="1.42105" fill="#E3E3E3"/>
<rect x="24.4746" y="95.8418" width="71.0526" height="7.89474" rx="1.57895" fill="#E3E3E3"/>
<rect x="38.6836" y="65.8418" width="28.4211" height="7.89474" rx="1.57895" transform="rotate(90 38.6836 65.8418)" fill="#E3E3E3"/>
<rect x="63.9473" y="65.8418" width="28.4211" height="7.89474" rx="1.57895" transform="rotate(90 63.9473 65.8418)" fill="#E3E3E3"/>
<rect x="90.2695" y="65.8418" width="28.4211" height="7.89474" rx="1.57895" transform="rotate(90 90.2695 65.8418)" fill="#E3E3E3"/>
<path d="M59.2705 32.9453C59.5252 32.7854 59.8487 32.7841 60.1047 32.942L93.1577 53.3279C93.8349 53.7456 93.5389 54.7893 92.7433 54.7893H27.217C26.4247 54.7893 26.1262 53.7525 26.7973 53.3312L59.2705 32.9453Z" fill="#E3E3E3"/>
<circle cx="60.0001" cy="46.8946" r="3.94737" fill="white"/>
<path d="M27.1213 79.5421C27.2755 79.3879 27.2755 79.138 27.1213 78.9839L24.6092 76.4718C24.4551 76.3176 24.2052 76.3176 24.051 76.4718C23.8968 76.6259 23.8968 76.8759 24.051 77.03L26.284 79.263L24.051 81.4959C23.8968 81.6501 23.8968 81.9 24.051 82.0542C24.2052 82.2083 24.4551 82.2083 24.6092 82.0542L27.1213 79.5421ZM10.658 57.9472C10.658 58.1652 10.8347 58.3419 11.0527 58.3419C11.2707 58.3419 11.4475 58.1652 11.4475 57.9472H10.658ZM11.4475 59.5261C11.4475 59.3081 11.2707 59.1314 11.0527 59.1314C10.8347 59.1314 10.658 59.3081 10.658 59.5261H11.4475ZM10.658 61.1051C10.658 61.3231 10.8347 61.4998 11.0527 61.4998C11.2707 61.4998 11.4475 61.3231 11.4475 61.1051H10.658ZM11.4475 62.684C11.4475 62.466 11.2707 62.2893 11.0527 62.2893C10.8347 62.2893 10.658 62.466 10.658 62.684H11.4475ZM10.658 64.263C10.658 64.481 10.8347 64.6577 11.0527 64.6577C11.2707 64.6577 11.4475 64.481 11.4475 64.263H10.658ZM11.4475 65.8419C11.4475 65.6239 11.2707 65.4472 11.0527 65.4472C10.8347 65.4472 10.658 65.6239 10.658 65.8419H11.4475ZM10.658 67.4209C10.658 67.6389 10.8347 67.8156 11.0527 67.8156C11.2707 67.8156 11.4475 67.6389 11.4475 67.4209H10.658ZM11.4475 68.9998C11.4475 68.7818 11.2707 68.6051 11.0527 68.6051C10.8347 68.6051 10.658 68.7818 10.658 68.9998H11.4475ZM10.658 70.5788C10.658 70.7968 10.8347 70.9735 11.0527 70.9735C11.2707 70.9735 11.4475 70.7968 11.4475 70.5788H10.658ZM11.4475 72.1577C11.4475 71.9397 11.2707 71.763 11.0527 71.763C10.8347 71.763 10.658 71.9397 10.658 72.1577H11.4475ZM10.7147 73.8232C10.7429 74.0393 10.941 74.1917 11.1572 74.1635C11.3734 74.1353 11.5257 73.9372 11.4975 73.721L10.7147 73.8232ZM11.8966 75.2136C11.8131 75.0122 11.5822 74.9167 11.3808 75.0002C11.1794 75.0837 11.0838 75.3146 11.1674 75.516L11.8966 75.2136ZM12.0446 77.0327C12.1774 77.2055 12.4252 77.238 12.5981 77.1051C12.771 76.9723 12.8034 76.7245 12.6706 76.5516L12.0446 77.0327ZM13.7641 77.6451C13.5912 77.5123 13.3434 77.5447 13.2106 77.7176C13.0777 77.8905 13.1102 78.1383 13.283 78.2711L13.7641 77.6451ZM14.7997 79.1484C15.0011 79.2319 15.232 79.1363 15.3155 78.9349C15.3991 78.7336 15.3035 78.5026 15.1021 78.4191L14.7997 79.1484ZM16.5947 78.8182C16.3785 78.79 16.1804 78.9424 16.1522 79.1585C16.124 79.3747 16.2764 79.5728 16.4926 79.601L16.5947 78.8182ZM18.158 79.6577C18.376 79.6577 18.5527 79.481 18.5527 79.263C18.5527 79.045 18.376 78.8682 18.158 78.8682V79.6577ZM19.7369 78.8682C19.5189 78.8682 19.3422 79.045 19.3422 79.263C19.3422 79.481 19.5189 79.6577 19.7369 79.6577V78.8682ZM21.3159 79.6577C21.5339 79.6577 21.7106 79.481 21.7106 79.263C21.7106 79.045 21.5339 78.8682 21.3159 78.8682V79.6577ZM22.8948 78.8682C22.6768 78.8682 22.5001 79.045 22.5001 79.263C22.5001 79.481 22.6768 79.6577 22.8948 79.6577V78.8682ZM24.4738 79.6577C24.6918 79.6577 24.8685 79.481 24.8685 79.263C24.8685 79.045 24.6918 78.8682 24.4738 78.8682V79.6577ZM26.0527 78.8682C25.8347 78.8682 25.658 79.045 25.658 79.263C25.658 79.481 25.8347 79.6577 26.0527 79.6577V78.8682ZM10.658 57.1577V57.9472H11.4475V57.1577H10.658ZM10.658 59.5261V61.1051H11.4475V59.5261H10.658ZM10.658 62.684V64.263H11.4475V62.684H10.658ZM10.658 65.8419V67.4209H11.4475V65.8419H10.658ZM10.658 68.9998V70.5788H11.4475V68.9998H10.658ZM10.658 72.1577V72.9472H11.4475V72.1577H10.658ZM10.658 72.9472C10.658 73.2439 10.6773 73.5363 10.7147 73.8232L11.4975 73.721C11.4645 73.4679 11.4475 73.2097 11.4475 72.9472H10.658ZM11.1674 75.516C11.3937 76.0618 11.6898 76.571 12.0446 77.0327L12.6706 76.5516C12.3574 76.1441 12.0961 75.6947 11.8966 75.2136L11.1674 75.516ZM13.283 78.2711C13.7447 78.6259 14.2539 78.922 14.7997 79.1484L15.1021 78.4191C14.621 78.2196 14.1717 77.9583 13.7641 77.6451L13.283 78.2711ZM16.4926 79.601C16.7794 79.6384 17.0718 79.6577 17.3685 79.6577V78.8682C17.1061 78.8682 16.8478 78.8512 16.5947 78.8182L16.4926 79.601ZM17.3685 79.6577H18.158V78.8682H17.3685V79.6577ZM19.7369 79.6577H21.3159V78.8682H19.7369V79.6577ZM22.8948 79.6577H24.4738V78.8682H22.8948V79.6577ZM26.0527 79.6577H26.8422V78.8682H26.0527V79.6577Z" fill="#6CA635"/>
<path d="M94.4568 74.016C94.3026 73.8618 94.3026 73.6119 94.4568 73.4577L96.9689 70.9456C97.123 70.7915 97.373 70.7915 97.5271 70.9456C97.6813 71.0998 97.6813 71.3497 97.5271 71.5039L95.2942 73.7368L97.5271 75.9698C97.6813 76.124 97.6813 76.3739 97.5271 76.5281C97.373 76.6822 97.123 76.6822 96.9689 76.5281L94.4568 74.016ZM110.92 39.7895C110.92 40.0075 110.743 40.1842 110.525 40.1842C110.307 40.1842 110.131 40.0075 110.131 39.7895H110.92ZM110.131 41.3684C110.131 41.1504 110.307 40.9737 110.525 40.9737C110.743 40.9737 110.92 41.1504 110.92 41.3684H110.131ZM110.92 42.9474C110.92 43.1654 110.743 43.3421 110.525 43.3421C110.307 43.3421 110.131 43.1654 110.131 42.9474H110.92ZM110.131 44.5263C110.131 44.3083 110.307 44.1316 110.525 44.1316C110.743 44.1316 110.92 44.3083 110.92 44.5263H110.131ZM110.92 46.1053C110.92 46.3233 110.743 46.5 110.525 46.5C110.307 46.5 110.131 46.3233 110.131 46.1053H110.92ZM110.131 47.6842C110.131 47.4662 110.307 47.2895 110.525 47.2895C110.743 47.2895 110.92 47.4662 110.92 47.6842H110.131ZM110.92 49.2632C110.92 49.4812 110.743 49.6579 110.525 49.6579C110.307 49.6579 110.131 49.4812 110.131 49.2632H110.92ZM110.131 50.8421C110.131 50.6241 110.307 50.4474 110.525 50.4474C110.743 50.4474 110.92 50.6241 110.92 50.8421H110.131ZM110.92 52.4211C110.92 52.6391 110.743 52.8158 110.525 52.8158C110.307 52.8158 110.131 52.6391 110.131 52.4211H110.92ZM110.131 54C110.131 53.782 110.307 53.6053 110.525 53.6053C110.743 53.6053 110.92 53.782 110.92 54H110.131ZM110.92 55.5789C110.92 55.797 110.743 55.9737 110.525 55.9737C110.307 55.9737 110.131 55.797 110.131 55.5789H110.92ZM110.131 57.1579C110.131 56.9399 110.307 56.7632 110.525 56.7632C110.743 56.7632 110.92 56.9399 110.92 57.1579H110.131ZM110.92 58.7368C110.92 58.9548 110.743 59.1316 110.525 59.1316C110.307 59.1316 110.131 58.9548 110.131 58.7368H110.92ZM110.131 60.3158C110.131 60.0978 110.307 59.921 110.525 59.921C110.743 59.921 110.92 60.0978 110.92 60.3158H110.131ZM110.92 61.8947C110.92 62.1127 110.743 62.2895 110.525 62.2895C110.307 62.2895 110.131 62.1127 110.131 61.8947H110.92ZM110.131 63.4737C110.131 63.2557 110.307 63.0789 110.525 63.0789C110.743 63.0789 110.92 63.2557 110.92 63.4737H110.131ZM110.92 65.0526C110.92 65.2706 110.743 65.4474 110.525 65.4474C110.307 65.4474 110.131 65.2706 110.131 65.0526H110.92ZM110.131 66.6316C110.131 66.4136 110.307 66.2368 110.525 66.2368C110.743 66.2368 110.92 66.4136 110.92 66.6316H110.131ZM110.863 68.297C110.835 68.5132 110.637 68.6656 110.421 68.6374C110.205 68.6092 110.052 68.4111 110.081 68.1949L110.863 68.297ZM109.682 69.6875C109.765 69.4861 109.996 69.3905 110.197 69.474C110.399 69.5575 110.494 69.7885 110.411 69.9899L109.682 69.6875ZM109.534 71.5065C109.401 71.6794 109.153 71.7118 108.98 71.579C108.807 71.4462 108.775 71.1983 108.908 71.0255L109.534 71.5065ZM107.814 72.119C107.987 71.9862 108.235 72.0186 108.368 72.1915C108.5 72.3643 108.468 72.6122 108.295 72.745L107.814 72.119ZM106.778 73.6222C106.577 73.7057 106.346 73.6102 106.263 73.4088C106.179 73.2074 106.275 72.9765 106.476 72.893L106.778 73.6222ZM104.983 73.292C105.2 73.2638 105.398 73.4162 105.426 73.6324C105.454 73.8486 105.302 74.0467 105.086 74.0749L104.983 73.292ZM103.42 74.1316C103.202 74.1316 103.025 73.9548 103.025 73.7368C103.025 73.5188 103.202 73.3421 103.42 73.3421V74.1316ZM101.841 73.3421C102.059 73.3421 102.236 73.5188 102.236 73.7368C102.236 73.9548 102.059 74.1316 101.841 74.1316V73.3421ZM100.262 74.1316C100.044 74.1316 99.8675 73.9548 99.8675 73.7368C99.8675 73.5188 100.044 73.3421 100.262 73.3421V74.1316ZM98.6833 73.3421C98.9013 73.3421 99.078 73.5188 99.078 73.7368C99.078 73.9548 98.9013 74.1316 98.6833 74.1316V73.3421ZM97.1043 74.1316C96.8863 74.1316 96.7096 73.9548 96.7096 73.7368C96.7096 73.5188 96.8863 73.3421 97.1043 73.3421V74.1316ZM95.5254 73.3421C95.7434 73.3421 95.9201 73.5188 95.9201 73.7368C95.9201 73.9548 95.7434 74.1316 95.5254 74.1316V73.3421ZM110.92 39V39.7895H110.131V39H110.92ZM110.92 41.3684V42.9474H110.131V41.3684H110.92ZM110.92 44.5263V46.1053H110.131V44.5263H110.92ZM110.92 47.6842V49.2632H110.131V47.6842H110.92ZM110.92 50.8421V52.4211H110.131V50.8421H110.92ZM110.92 54V55.5789H110.131V54H110.92ZM110.92 57.1579V58.7368H110.131V57.1579H110.92ZM110.92 60.3158V61.8947H110.131V60.3158H110.92ZM110.92 63.4737V65.0526H110.131V63.4737H110.92ZM110.92 66.6316V67.421H110.131V66.6316H110.92ZM110.92 67.421C110.92 67.7177 110.901 68.0101 110.863 68.297L110.081 68.1949C110.114 67.9418 110.131 67.6835 110.131 67.421H110.92ZM110.411 69.9899C110.184 70.5356 109.888 71.0449 109.534 71.5065L108.908 71.0255C109.221 70.6179 109.482 70.1686 109.682 69.6875L110.411 69.9899ZM108.295 72.745C107.833 73.0997 107.324 73.3959 106.778 73.6222L106.476 72.893C106.957 72.6934 107.406 72.4322 107.814 72.119L108.295 72.745ZM105.086 74.0749C104.799 74.1123 104.506 74.1316 104.21 74.1316V73.3421C104.472 73.3421 104.73 73.3251 104.983 73.292L105.086 74.0749ZM104.21 74.1316H103.42V73.3421H104.21V74.1316ZM101.841 74.1316H100.262V73.3421H101.841V74.1316ZM98.6833 74.1316H97.1043V73.3421H98.6833V74.1316ZM95.5254 74.1316H94.7359V73.3421H95.5254V74.1316Z" fill="#6CA635"/>
<path d="M94.4577 82.1418C94.3036 82.296 94.3036 82.5459 94.4577 82.7001L96.9698 85.2122C97.124 85.3663 97.3739 85.3663 97.5281 85.2122C97.6822 85.058 97.6822 84.8081 97.5281 84.6539L95.2951 82.4209L97.5281 80.188C97.6822 80.0338 97.6822 79.7839 97.5281 79.6297C97.3739 79.4756 97.124 79.4756 96.9698 79.6297L94.4577 82.1418ZM120.395 102.059C120.395 101.841 120.218 101.664 120 101.664C119.782 101.664 119.605 101.841 119.605 102.059H120.395ZM119.605 100.283C119.605 100.501 119.782 100.678 120 100.678C120.218 100.678 120.395 100.501 120.395 100.283H119.605ZM120.395 98.5065C120.395 98.2885 120.218 98.1117 120 98.1117C119.782 98.1117 119.605 98.2885 119.605 98.5065H120.395ZM119.605 96.7302C119.605 96.9482 119.782 97.1249 120 97.1249C120.218 97.1249 120.395 96.9482 120.395 96.7302H119.605ZM120.395 94.9538C120.395 94.7358 120.218 94.5591 120 94.5591C119.782 94.5591 119.605 94.7358 119.605 94.9538H120.395ZM119.605 93.1775C119.605 93.3955 119.782 93.5723 120 93.5723C120.218 93.5723 120.395 93.3955 120.395 93.1775H119.605ZM120.395 91.4012C120.395 91.1832 120.218 91.0065 120 91.0065C119.782 91.0065 119.605 91.1832 119.605 91.4012H120.395ZM119.605 89.6249C119.605 89.8429 119.782 90.0196 120 90.0196C120.218 90.0196 120.395 89.8429 120.395 89.6249H119.605ZM120.338 87.8608C120.31 87.6446 120.112 87.4922 119.896 87.5204C119.679 87.5486 119.527 87.7467 119.555 87.9629L120.338 87.8608ZM119.156 86.4703C119.24 86.6717 119.471 86.7673 119.672 86.6838C119.873 86.6003 119.969 86.3693 119.885 86.1679L119.156 86.4703ZM119.008 84.6513C118.875 84.4784 118.627 84.446 118.455 84.5788C118.282 84.7116 118.249 84.9595 118.382 85.1323L119.008 84.6513ZM117.289 84.0388C117.462 84.1716 117.709 84.1392 117.842 83.9663C117.975 83.7935 117.943 83.5456 117.77 83.4128L117.289 84.0388ZM116.253 82.5356C116.052 82.4521 115.821 82.5476 115.737 82.749C115.654 82.9504 115.749 83.1813 115.951 83.2648L116.253 82.5356ZM114.458 82.8658C114.674 82.894 114.872 82.7416 114.901 82.5254C114.929 82.3092 114.776 82.1111 114.56 82.0829L114.458 82.8658ZM112.895 82.0262C112.677 82.0262 112.5 82.2029 112.5 82.4209C112.5 82.639 112.677 82.8157 112.895 82.8157V82.0262ZM111.316 82.8157C111.534 82.8157 111.711 82.639 111.711 82.4209C111.711 82.2029 111.534 82.0262 111.316 82.0262V82.8157ZM109.737 82.0262C109.519 82.0262 109.342 82.2029 109.342 82.4209C109.342 82.639 109.519 82.8157 109.737 82.8157V82.0262ZM108.158 82.8157C108.376 82.8157 108.553 82.639 108.553 82.4209C108.553 82.2029 108.376 82.0262 108.158 82.0262V82.8157ZM106.579 82.0262C106.361 82.0262 106.184 82.2029 106.184 82.4209C106.184 82.639 106.361 82.8157 106.579 82.8157V82.0262ZM105 82.8157C105.218 82.8157 105.395 82.639 105.395 82.4209C105.395 82.2029 105.218 82.0262 105 82.0262V82.8157ZM103.421 82.0262C103.203 82.0262 103.026 82.2029 103.026 82.4209C103.026 82.639 103.203 82.8157 103.421 82.8157V82.0262ZM101.842 82.8157C102.06 82.8157 102.237 82.639 102.237 82.4209C102.237 82.2029 102.06 82.0262 101.842 82.0262V82.8157ZM100.263 82.0262C100.045 82.0262 99.8684 82.2029 99.8684 82.4209C99.8684 82.639 100.045 82.8157 100.263 82.8157V82.0262ZM98.6842 82.8157C98.9022 82.8157 99.0789 82.639 99.0789 82.4209C99.0789 82.2029 98.9022 82.0262 98.6842 82.0262V82.8157ZM97.1053 82.0262C96.8873 82.0262 96.7105 82.2029 96.7105 82.4209C96.7105 82.639 96.8873 82.8157 97.1053 82.8157V82.0262ZM95.5263 82.8157C95.7443 82.8157 95.9211 82.639 95.9211 82.4209C95.9211 82.2029 95.7443 82.0262 95.5263 82.0262V82.8157ZM120.395 102.947V102.059H119.605V102.947H120.395ZM120.395 100.283V98.5065H119.605V100.283H120.395ZM120.395 96.7302V94.9538H119.605V96.7302H120.395ZM120.395 93.1775V91.4012H119.605V93.1775H120.395ZM120.395 89.6249V88.7367H119.605V89.6249H120.395ZM120.395 88.7367C120.395 88.44 120.375 88.1476 120.338 87.8608L119.555 87.9629C119.588 88.216 119.605 88.4743 119.605 88.7367H120.395ZM119.885 86.1679C119.659 85.6222 119.363 85.1129 119.008 84.6513L118.382 85.1323C118.695 85.5399 118.957 85.9892 119.156 86.4703L119.885 86.1679ZM117.77 83.4128C117.308 83.0581 116.799 82.7619 116.253 82.5356L115.951 83.2648C116.432 83.4644 116.881 83.7256 117.289 84.0388L117.77 83.4128ZM114.56 82.0829C114.273 82.0455 113.981 82.0262 113.684 82.0262V82.8157C113.947 82.8157 114.205 82.8327 114.458 82.8658L114.56 82.0829ZM113.684 82.0262H112.895V82.8157H113.684V82.0262ZM111.316 82.0262H109.737V82.8157H111.316V82.0262ZM108.158 82.0262H106.579V82.8157H108.158V82.0262ZM105 82.0262H103.421V82.8157H105V82.0262ZM101.842 82.0262H100.263V82.8157H101.842V82.0262ZM98.6842 82.0262H97.1053V82.8157H98.6842V82.0262ZM95.5263 82.0262H94.7368V82.8157H95.5263V82.0262Z" fill="#6CA635"/>
<rect x="31.1838" y="0.710655" width="18.1579" height="18.1579" rx="9.07895" fill="#BFE19F"/>
<rect x="31.1838" y="0.710655" width="18.1579" height="18.1579" rx="9.07895" stroke="#6CA635" stroke-width="0.789474"/>
<path d="M41.0521 14.5264C40.017 14.5264 39.096 14.2326 38.289 13.6448C37.4819 13.0571 36.9118 12.2983 36.5784 11.3685H34.7363V10.3159H36.3416C36.3153 10.1054 36.3043 9.91019 36.3087 9.73037C36.3131 9.55054 36.324 9.39484 36.3416 9.26326H34.7363V8.21063H36.5784C36.9118 7.2808 37.4819 6.52203 38.289 5.93431C39.096 5.34659 40.017 5.05273 41.0521 5.05273C41.6574 5.05273 42.2297 5.16019 42.7692 5.3751C43.3087 5.59002 43.789 5.88607 44.21 6.26326L43.46 7.0001C43.1355 6.7194 42.7692 6.5001 42.3613 6.34221C41.9534 6.18431 41.517 6.10537 41.0521 6.10537C40.3065 6.10537 39.6398 6.30054 39.0521 6.69089C38.4644 7.08124 38.0214 7.58782 37.7232 8.21063H41.0521V9.26326H37.4074C37.3723 9.5001 37.3591 9.70844 37.3679 9.88826C37.3767 10.0681 37.3898 10.2106 37.4074 10.3159H41.0521V11.3685H37.7232C38.0214 11.9913 38.4644 12.4979 39.0521 12.8883C39.6398 13.2786 40.3065 13.4738 41.0521 13.4738C41.517 13.4738 41.9534 13.3948 42.3613 13.2369C42.7692 13.0791 43.1355 12.8598 43.46 12.5791L44.21 13.3159C43.789 13.6931 43.3087 13.9891 42.7692 14.2041C42.2297 14.419 41.6574 14.5264 41.0521 14.5264Z" fill="#283041"/>
<rect x="101.447" y="17.2893" width="18.1579" height="18.1579" rx="9.07895" fill="#BFE19F"/>
<rect x="101.447" y="17.2893" width="18.1579" height="18.1579" rx="9.07895" stroke="#6CA635" stroke-width="0.789474"/>
<path d="M111.435 31.1045L107.895 27.4203V26.3677H109.738C110.202 26.3677 110.604 26.2164 110.942 25.9138C111.279 25.6111 111.483 25.2361 111.553 24.7888H107.369V23.7361H111.395C111.246 23.4291 111.025 23.1769 110.731 22.9795C110.437 22.7822 110.106 22.6835 109.738 22.6835H107.369V21.6309H113.685V22.6835H111.974C112.097 22.8326 112.207 22.9949 112.303 23.1703C112.4 23.3458 112.474 23.5344 112.527 23.7361H113.685V24.7888H112.619C112.549 25.5344 112.242 26.1594 111.698 26.6638C111.154 27.1681 110.501 27.4203 109.738 27.4203H109.356L112.895 31.1045H111.435Z" fill="#283041"/>
<rect x="110.92" y="106.5" width="18.1579" height="18.1579" rx="9.07895" fill="#BFE19F"/>
<rect x="110.92" y="106.5" width="18.1579" height="18.1579" rx="9.07895" stroke="#6CA635" stroke-width="0.789474"/>
<path d="M117.849 110.397L120.286 115.886L119.167 116.517L116.199 110.397H117.849ZM119.51 115.871L121.936 110.397H123.587L120.619 116.517L119.51 115.871ZM120.648 115.225V120.579H119.117V115.225H120.648ZM122.806 115.448V116.453H116.91V115.448H122.806ZM122.806 117.417V118.421H116.91V117.417H122.806Z" fill="#283041"/>
<path d="M39.9846 37.7C40.1387 37.8542 40.3886 37.8542 40.5428 37.7L43.0549 35.1879C43.209 35.0338 43.209 34.7838 43.0549 34.6297C42.9007 34.4755 42.6508 34.4755 42.4966 34.6297L40.2637 36.8627L38.0307 34.6297C37.8765 34.4755 37.6266 34.4755 37.4725 34.6297C37.3183 34.7838 37.3183 35.0338 37.4725 35.1879L39.9846 37.7ZM39.8689 22.4209L39.8689 23.1709L40.6584 23.1709L40.6584 22.4209L39.8689 22.4209ZM39.8689 24.6709L39.8689 26.1709L40.6584 26.1709L40.6584 24.6709L39.8689 24.6709ZM39.8689 27.6709L39.8689 29.1709L40.6584 29.1709L40.6584 27.6709L39.8689 27.6709ZM39.8689 30.6709L39.8689 32.1709L40.6584 32.1709L40.6584 30.6709L39.8689 30.6709ZM39.8689 33.6709L39.8689 35.1709L40.6584 35.1709L40.6584 33.6709L39.8689 33.6709ZM39.8689 36.6709L39.8689 37.4209L40.6584 37.4209L40.6584 36.6709L39.8689 36.6709Z" fill="#6CA635"/>
<rect x="1.97286" y="36.237" width="18.1579" height="18.1579" rx="9.07895" fill="#BFE19F"/>
<rect x="1.97286" y="36.237" width="18.1579" height="18.1579" rx="9.07895" stroke="#6CA635" stroke-width="0.789474"/>
<path d="M10.5411 50.0528V48.9212C10.0762 48.8159 9.67489 48.6142 9.33717 48.3159C8.99945 48.0177 8.75164 47.5966 8.59375 47.0528L9.56743 46.658C9.69901 47.0791 9.89419 47.3993 10.153 47.6186C10.4117 47.8379 10.7516 47.9475 11.1727 47.9475C11.5323 47.9475 11.8372 47.8664 12.0872 47.7041C12.3372 47.5418 12.4622 47.2896 12.4622 46.9475C12.4622 46.6405 12.3657 46.3971 12.1727 46.2173C11.9797 46.0374 11.5323 45.8335 10.8306 45.6054C10.0762 45.3686 9.55866 45.0857 9.27796 44.7567C8.99726 44.4278 8.85691 44.0265 8.85691 43.5528C8.85691 42.9826 9.04112 42.5396 9.40954 42.2238C9.77796 41.908 10.1552 41.7282 10.5411 41.6844V40.5791H11.5938V41.6844C12.0323 41.7545 12.3942 41.9146 12.6793 42.1646C12.9644 42.4146 13.1727 42.7195 13.3043 43.0791L12.3306 43.5002C12.2253 43.2195 12.0762 43.0089 11.8832 42.8686C11.6902 42.7282 11.4271 42.658 11.0938 42.658C10.7078 42.658 10.4139 42.7436 10.2122 42.9146C10.0104 43.0857 9.90954 43.2984 9.90954 43.5528C9.90954 43.8423 10.0411 44.0703 10.3043 44.237C10.5674 44.4037 11.0236 44.5791 11.6727 44.7633C12.278 44.9388 12.7363 45.2173 13.0477 45.5988C13.3591 45.9804 13.5148 46.4212 13.5148 46.9212C13.5148 47.544 13.3306 48.0177 12.9622 48.3423C12.5938 48.6668 12.1376 48.8686 11.5938 48.9475V50.0528H10.5411Z" fill="#283041"/>
</svg>
