<svg width="20" height="20" viewBox="0 0 20 20" fill="none" xmlns="http://www.w3.org/2000/svg">
<g clip-path="url(#clip0_146_13107)">
<path fill-rule="evenodd" clip-rule="evenodd" d="M0.833008 10C0.833008 4.93743 4.93706 0.833374 9.99967 0.833374C15.0623 0.833374 19.1663 4.93743 19.1663 10C19.1663 15.0626 15.0623 19.1667 9.99967 19.1667C4.93706 19.1667 0.833008 15.0626 0.833008 10ZM9.99967 5.83337C10.4599 5.83337 10.833 6.20647 10.833 6.66671V10C10.833 10.4603 10.4599 10.8334 9.99967 10.8334C9.53944 10.8334 9.16634 10.4603 9.16634 10V6.66671C9.16634 6.20647 9.53944 5.83337 9.99967 5.83337ZM9.16634 13.3334C9.16634 12.8731 9.53944 12.5 9.99967 12.5H10.008C10.4682 12.5 10.8413 12.8731 10.8413 13.3334C10.8413 13.7936 10.4682 14.1667 10.008 14.1667H9.99967C9.53944 14.1667 9.16634 13.7936 9.16634 13.3334Z" fill="#F3B72C"/>
</g>
<defs>
<clipPath id="clip0_146_13107">
<rect width="20" height="20" fill="white"/>
</clipPath>
</defs>
</svg>
