<svg width="56" height="56" viewBox="0 0 56 56" fill="none" xmlns="http://www.w3.org/2000/svg">
<g id="ai_bot_request_icon">
<path id="Vector" d="M27.2 22.225C27.2 22.6668 27.5582 23.025 28 23.025C28.4418 23.025 28.8 22.6668 28.8 22.225H27.2ZM48.1499 40.1331L47.8708 39.3834L47.8708 39.3834L48.1499 40.1331ZM7.85016 40.1331L8.12928 39.3834L8.12927 39.3834L7.85016 40.1331ZM23.8636 38.75C23.4218 38.75 23.0636 39.1082 23.0636 39.55C23.0636 39.9918 23.4218 40.35 23.8636 40.35V38.75ZM32.1364 40.35C32.5782 40.35 32.9364 39.9918 32.9364 39.55C32.9364 39.1082 32.5782 38.75 32.1364 38.75V40.35ZM47.8818 29.925C47.8818 30.3668 48.24 30.725 48.6818 30.725C49.1236 30.725 49.4818 30.3668 49.4818 29.925H47.8818ZM49.4818 26.075C49.4818 25.6332 49.1236 25.275 48.6818 25.275C48.24 25.275 47.8818 25.6332 47.8818 26.075H49.4818ZM6.51818 29.925C6.51818 30.3668 6.87635 30.725 7.31818 30.725C7.76001 30.725 8.11818 30.3668 8.11818 29.925H6.51818ZM8.11818 26.075C8.11818 25.6332 7.76001 25.275 7.31818 25.275C6.87635 25.275 6.51818 25.6332 6.51818 26.075H8.11818ZM12.6681 41.475V28H11.0681V41.475H12.6681ZM12.6681 28C12.6681 25.3055 15.0328 23.025 18.0726 23.025V21.425C14.2592 21.425 11.0681 24.3157 11.0681 28H12.6681ZM18.0726 23.025H37.9273V21.425H18.0726V23.025ZM37.9273 23.025C40.967 23.025 43.3318 25.3055 43.3318 28H44.9318C44.9318 24.3156 41.7406 21.425 37.9273 21.425V23.025ZM43.3318 28V41.475H44.9318V28H43.3318ZM43.3318 41.475C43.3318 44.1696 40.9671 46.45 37.9273 46.45V48.05C41.7406 48.05 44.9318 45.1595 44.9318 41.475H43.3318ZM37.9273 46.45H18.0726V48.05H37.9273V46.45ZM18.0726 46.45C15.0328 46.45 12.6681 44.1696 12.6681 41.475H11.0681C11.0681 45.1595 14.2592 48.05 18.0726 48.05V46.45ZM27.2 16.45V22.225H28.8V16.45H27.2ZM44.5455 30.725H46.6136V29.125H44.5455V30.725ZM46.6136 30.725C48.5113 30.725 49.95 32.1436 49.95 33.775H51.55C51.55 31.1537 49.285 29.125 46.6136 29.125V30.725ZM49.95 33.775V36.5584H51.55V33.775H49.95ZM49.95 36.5584C49.95 37.7708 49.1547 38.9054 47.8708 39.3834L48.429 40.8828C50.2858 40.1916 51.55 38.4945 51.55 36.5584H49.95ZM47.8708 39.3834L44.2663 40.7253L44.8246 42.2247L48.429 40.8828L47.8708 39.3834ZM11.4545 29.125H9.38636V30.725H11.4545V29.125ZM9.38636 29.125C6.71512 29.125 4.45 31.1537 4.45 33.775H6.05C6.05 32.1436 7.48871 30.725 9.38636 30.725V29.125ZM4.45 33.775V36.5584H6.05V33.775H4.45ZM4.45 36.5584C4.45 38.4945 5.71421 40.1916 7.57105 40.8828L8.12927 39.3834C6.84528 38.9054 6.05 37.7708 6.05 36.5584H4.45ZM7.57104 40.8828L11.1754 42.2247L11.7337 40.7253L8.12928 39.3834L7.57104 40.8828ZM36.2725 29.0887C36.8565 29.0887 37.2305 29.5163 37.2305 29.925H38.8305C38.8305 28.5265 37.6301 27.4888 36.2725 27.4888V29.0887ZM37.2305 29.925V33.775H38.8305V29.925H37.2305ZM37.2305 33.775C37.2305 34.1838 36.8566 34.6113 36.2725 34.6113V36.2113C37.6301 36.2113 38.8305 35.1738 38.8305 33.775H37.2305ZM36.2725 34.6113C35.6885 34.6113 35.3146 34.1838 35.3146 33.775H33.7146C33.7146 35.1738 34.915 36.2113 36.2725 36.2113V34.6113ZM35.3146 33.775V29.925H33.7146V33.775H35.3146ZM35.3146 29.925C35.3146 29.5163 35.6885 29.0887 36.2725 29.0887V27.4888C34.9149 27.4888 33.7146 28.5265 33.7146 29.925H35.3146ZM19.7271 29.0887C20.3111 29.0887 20.685 29.5163 20.685 29.925H22.285C22.285 28.5265 21.0848 27.4888 19.7271 27.4888V29.0887ZM20.685 29.925V33.775H22.285V29.925H20.685ZM20.685 33.775C20.685 34.1838 20.3112 34.6113 19.7271 34.6113V36.2113C21.0847 36.2113 22.285 35.1737 22.285 33.775H20.685ZM19.7271 34.6113C19.1429 34.6113 18.7691 34.1838 18.7691 33.775H17.1691C17.1691 35.1737 18.3694 36.2113 19.7271 36.2113V34.6113ZM18.7691 33.775V29.925H17.1691V33.775H18.7691ZM18.7691 29.925C18.7691 29.5163 19.143 29.0887 19.7271 29.0887V27.4888C18.3693 27.4888 17.1691 28.5265 17.1691 29.925H18.7691ZM31.3364 12.6C31.3364 14.2314 29.8976 15.65 28 15.65V17.25C30.6713 17.25 32.9364 15.2212 32.9364 12.6H31.3364ZM28 15.65C26.1024 15.65 24.6636 14.2314 24.6636 12.6H23.0636C23.0636 15.2212 25.3287 17.25 28 17.25V15.65ZM24.6636 12.6C24.6636 10.9686 26.1024 9.55 28 9.55V7.95C25.3287 7.95 23.0636 9.97879 23.0636 12.6H24.6636ZM28 9.55C29.8976 9.55 31.3364 10.9686 31.3364 12.6H32.9364C32.9364 9.97879 30.6713 7.95 28 7.95V9.55ZM23.8636 40.35H32.1364V38.75H23.8636V40.35ZM49.4818 29.925V26.075H47.8818V29.925H49.4818ZM8.11818 29.925V26.075H6.51818V29.925H8.11818Z" fill="#6A6A6A"/>
</g>
</svg>
