<svg width="32" height="32" viewBox="0 0 32 32" fill="none" xmlns="http://www.w3.org/2000/svg">
<g clip-path="url(#clip0)">
<path d="M24.7502 3.50015H21.5002V4.50015H24.7502C25.0264 4.50015 25.2502 4.7239 25.2502 5.00015V30.5003C25.2502 30.7766 25.0264 31.0003 24.7502 31.0003H7.25C6.97375 31.0003 6.75 30.7766 6.75 30.5003V5.00015C6.75 4.7239 6.97375 4.50015 7.25 4.50015H10.4999V3.50015H7.25C6.42251 3.5014 5.75125 4.17266 5.75 5.00015V30.5003C5.75125 31.3278 6.42251 31.9991 7.25 32.0003H24.7502C25.5776 31.9991 26.2489 31.3278 26.2502 30.5003V5.00015C26.2489 4.17266 25.5776 3.5014 24.7502 3.50015V3.50015Z" fill="#848484"/>
<path d="M12 6H20C20.2762 6 20.5 5.77625 20.5 5.5V2.44499C20.5 2.16874 20.2762 1.94499 20 1.94499H18.3175C18.1188 0.82 17.1412 0 16 0C14.8588 0 13.8812 0.82 13.6825 1.94499H12C11.7238 1.94499 11.5 2.16874 11.5 2.44499V5.5C11.5 5.77625 11.7238 6 12 6ZM12.5 2.94499H14.1338C14.41 2.94499 14.6338 2.71999 14.6338 2.44499C14.6125 2.06874 14.7475 1.70125 15.0063 1.42749C15.2638 1.15499 15.6238 1 16 1C16.3763 1 16.7363 1.155 16.9938 1.42749C17.2525 1.70124 17.3876 2.06874 17.3663 2.44499C17.3663 2.71999 17.5901 2.94499 17.8663 2.94499H19.5001V5H12.5001L12.5 2.94499Z" fill="#848484"/>
<path d="M16.0001 25.7501C17.9226 25.7501 19.7675 24.9863 21.1265 23.6263C22.4865 22.2676 23.2503 20.4225 23.2503 18.4999C23.2503 16.5774 22.4865 14.7326 21.1265 13.3735C19.7678 12.0135 17.9227 11.2498 16.0001 11.2498C14.0776 11.2498 12.2328 12.0135 10.8737 13.3735C9.51374 14.7323 8.75 16.5774 8.75 18.4999C8.7525 20.4224 9.51624 22.2651 10.8762 23.6238C12.235 24.9838 14.0775 25.7475 16.0001 25.75L16.0001 25.7501ZM16.0001 12.2499C17.6576 12.2499 19.2475 12.9087 20.42 14.0799C21.5912 15.2524 22.25 16.8424 22.25 18.4998C22.25 20.1571 21.5912 21.7471 20.42 22.9196C19.2475 24.0909 17.6575 24.7496 16.0001 24.7496C14.3428 24.7496 12.7528 24.0909 11.5803 22.9196C10.409 21.7471 9.75029 20.1571 9.75029 18.4998C9.75154 16.8423 10.4115 15.2534 11.5828 14.0822C12.7541 12.9109 14.3428 12.2509 16.0004 12.2497L16.0001 12.2499Z" fill="#848484"/>
<path d="M11.6922 19.5837L14.3285 21.6437C14.436 21.7262 14.571 21.7624 14.706 21.7449C14.8397 21.7262 14.961 21.6537 15.041 21.5437L19.4048 15.5437C19.5661 15.3212 19.5173 15.0074 19.2936 14.8449C19.0711 14.6837 18.7573 14.7324 18.5948 14.9562L14.5359 20.5373L12.3072 18.7961C12.2034 18.7148 12.071 18.6773 11.9385 18.6936C11.8072 18.7098 11.6872 18.7773 11.606 18.8823C11.436 19.0998 11.4747 19.4136 11.6922 19.5836L11.6922 19.5837Z" fill="#848484"/>
</g>
<defs>
<clipPath id="clip0">
<rect width="32" height="32" fill="white"/>
</clipPath>
</defs>
</svg>
