<svg width="56" height="56" viewBox="0 0 56 56" fill="none" xmlns="http://www.w3.org/2000/svg">
<g id="assessments_request_icon">
<g id="Vector">
<path d="M20.3239 28.8956C16.1491 28.8956 12.7527 32.2206 12.7527 36.3073C12.7527 40.3942 16.1491 43.719 20.3239 43.719C24.4986 43.719 27.8951 40.3942 27.8951 36.3073C27.8951 34.8222 27.4478 33.389 26.6017 32.1628C26.3816 31.8441 25.9394 31.7602 25.6137 31.9755C25.2881 32.1911 25.2023 32.624 25.4224 32.9427C26.1091 33.9378 26.4721 35.1011 26.4721 36.3073C26.4721 39.626 23.714 42.3259 20.324 42.3259C16.9339 42.3259 14.176 39.626 14.176 36.3073C14.176 32.9887 16.9339 30.2888 20.324 30.2888C20.717 30.2888 21.0356 29.9769 21.0356 29.5923C21.0355 29.2074 20.7169 28.8956 20.3239 28.8956Z" fill="#6A6A6A"/>
<path d="M33.4777 42.9164L31.617 41.0946C31.4497 40.9309 31.4042 40.6781 31.4961 40.4616C31.498 40.4576 31.5067 40.4376 31.5082 40.4336C31.6043 40.2067 31.8187 40.0601 32.0548 40.0601H34.6864C35.0793 40.0601 35.3979 39.7482 35.3979 39.3636V32.4552C35.3979 32.0706 35.0793 31.7587 34.6864 31.7587H32.0548C31.8187 31.7587 31.6042 31.6121 31.5009 31.3681C31.4042 31.1406 31.4498 30.8877 31.617 30.7238L33.4777 28.9023C33.7557 28.6303 33.7557 28.1893 33.4777 27.9172L28.4879 23.0324C28.2099 22.7604 27.7594 22.7604 27.4815 23.0324C27.2035 23.3045 27.2035 23.7455 27.4815 24.0176L31.9684 28.4098L30.6108 29.7388C30.0344 30.3029 29.8681 31.1524 30.1935 31.9182C30.5104 32.6675 31.2409 33.1518 32.0548 33.1518H33.9748V38.6669H32.0548C31.2409 38.6669 30.5104 39.1512 30.1986 39.8885C30.197 39.8921 30.1884 39.9119 30.187 39.9156C29.8679 40.6662 30.0342 41.5159 30.6108 42.0798L31.9684 43.409L27.9847 47.3088L26.6271 45.9796C26.0506 45.4153 25.1827 45.2526 24.4009 45.5711C23.6354 45.8815 23.1406 46.5968 23.1406 47.3933V49.2729H17.507V47.3932C17.507 46.5966 17.0124 45.8813 16.2314 45.5648C15.4647 45.2527 14.597 45.4154 14.0205 45.9795L12.6629 47.3087L8.67931 43.4089L10.0369 42.0797C10.6132 41.5154 10.7796 40.6659 10.4543 39.9005C10.1371 39.1512 9.40649 38.6669 8.59297 38.6669H6.67307V33.1518H8.59307C9.4067 33.1518 10.1374 32.6675 10.4608 31.9031C10.7796 31.1525 10.6133 30.303 10.037 29.7386L8.67941 28.4097L12.663 24.51L14.0206 25.8389C14.5969 26.4032 15.4646 26.5661 16.2468 26.2476C17.0124 25.9371 17.507 25.2219 17.507 24.4255V22.5459H23.1406V24.4255C23.1406 25.2221 23.6354 25.9373 24.4009 26.2476C24.6574 26.3516 24.9139 26.4674 25.163 26.5916C25.5127 26.7661 25.9414 26.63 26.12 26.2872C26.2983 25.9444 26.1591 25.525 25.8089 25.3503C25.5268 25.2095 25.2363 25.0784 24.9453 24.9604C24.7135 24.8664 24.5637 24.6564 24.5637 24.4254V21.8491C24.5637 21.4644 24.2451 21.1526 23.8522 21.1526H16.7955C16.4025 21.1526 16.0839 21.4644 16.0839 21.8491V24.4254C16.0839 24.6564 15.9341 24.8664 15.6849 24.9675C15.4526 25.0623 15.1942 25.0177 15.027 24.8539L13.1663 23.0323C12.8883 22.7603 12.4377 22.7603 12.1599 23.0323L7.1699 27.9171C6.89197 28.1891 6.89197 28.6303 7.1699 28.9024L9.03066 30.7237C9.19799 30.8876 9.24347 31.1405 9.14915 31.3626C9.1482 31.3648 9.14053 31.3829 9.13948 31.385C9.04348 31.6119 8.82899 31.7586 8.59307 31.7586H5.96153C5.56858 31.7586 5.25 32.0705 5.25 32.4551V39.3635C5.25 39.7481 5.56858 40.06 5.96153 40.06H8.59318C8.82909 40.06 9.04358 40.2066 9.14694 40.4505C9.24358 40.6781 9.19799 40.9309 9.03077 41.0946L7.17001 42.9162C6.89207 43.1883 6.89207 43.6294 7.17001 43.9015L12.16 48.7863C12.4379 49.0583 12.8884 49.0583 13.1664 48.7863L15.0271 46.9646C15.1943 46.8007 15.4526 46.7566 15.6795 46.8487C15.6817 46.8497 15.7002 46.8572 15.7024 46.8582C15.9342 46.9522 16.084 47.1622 16.084 47.3932V49.9693C16.084 50.3541 16.4026 50.6659 16.7956 50.6659H23.8524C24.2453 50.6659 24.5639 50.3541 24.5639 49.9693V47.3932C24.5639 47.1621 24.7137 46.9521 24.9375 46.8612C24.9406 46.86 24.9601 46.8521 24.9631 46.8509C25.1954 46.7562 25.4538 46.801 25.6209 46.9645L27.4817 48.7861C27.6152 48.9168 27.7962 48.9901 27.9849 48.9901C28.1736 48.9901 28.3546 48.9168 28.4881 48.7862L33.4779 43.9014C33.7557 43.6293 33.7557 43.1883 33.4777 42.9164Z" fill="#6A6A6A"/>
<path d="M40.8069 33.8104C40.8069 36.2834 42.8621 38.2954 45.3885 38.2954C47.9149 38.2954 49.9701 36.2834 49.9701 33.8104C49.9701 31.3373 47.9149 29.3252 45.3885 29.3252C42.8621 29.3252 40.8069 31.3373 40.8069 33.8104ZM48.5469 33.8104C48.5469 35.5153 47.13 36.9023 45.3885 36.9023C43.647 36.9023 42.23 35.5153 42.23 33.8104C42.23 32.1053 43.647 30.7184 45.3885 30.7184C47.13 30.7184 48.5469 32.1053 48.5469 33.8104Z" fill="#6A6A6A"/>
<path d="M50.0385 47.3094C50.4313 47.3094 50.75 46.9976 50.75 46.613V44.8683C50.75 41.9742 48.3449 39.6198 45.3885 39.6198C42.4321 39.6198 40.027 41.9742 40.027 44.8683V49.3536H31.3642C30.9714 49.3536 30.6527 49.6654 30.6527 50.0502C30.6527 50.4348 30.9714 50.7466 31.3642 50.7466H40.7041C40.7157 50.7472 40.7268 50.75 40.7385 50.75H50.0384C50.4312 50.75 50.7499 50.4381 50.7499 50.0536C50.7499 49.6688 50.4312 49.3569 50.0384 49.3569H41.4502V44.8683C41.4502 42.7425 43.2169 41.0129 45.3885 41.0129C47.5601 41.0129 49.3268 42.7425 49.3268 44.8683V46.613C49.3268 46.9976 49.6455 47.3094 50.0385 47.3094Z" fill="#6A6A6A"/>
<path d="M10.9426 20.717C11.3355 20.717 11.6541 20.4051 11.6541 20.0205V8.30766H16.3739C16.7669 8.30766 17.0855 7.99589 17.0855 7.61111C17.0855 7.22644 16.7669 6.91456 16.3739 6.91456H10.9426C10.5496 6.91456 10.231 7.22644 10.231 7.61111V20.0205C10.231 20.4053 10.5496 20.717 10.9426 20.717Z" fill="#6A6A6A"/>
<path d="M40.5461 8.30766H45.3709V25.1648C45.3709 25.5496 45.6894 25.8614 46.0824 25.8614C46.4752 25.8614 46.7938 25.5495 46.7938 25.1648V7.61111C46.7938 7.22644 46.4752 6.91456 46.0824 6.91456H40.5461C40.1533 6.91456 39.8347 7.22644 39.8347 7.61111C39.8347 7.99589 40.1533 8.30766 40.5461 8.30766Z" fill="#6A6A6A"/>
<path d="M20.5819 11.3076H36.4433C36.8361 11.3076 37.1547 10.9958 37.1547 10.6111V5.94655C37.1547 5.56187 36.8361 5.25 36.4433 5.25H20.5819C20.1889 5.25 19.8704 5.56187 19.8704 5.94655V10.6111C19.8704 10.9958 20.1889 11.3076 20.5819 11.3076ZM21.2934 6.6431H35.7316V9.91444H21.2934V6.6431Z" fill="#6A6A6A"/>
<path d="M20.3239 31.8009C19.9309 31.8009 19.6124 32.1128 19.6124 32.4975V36.3073C19.6124 36.692 19.9309 37.0038 20.3239 37.0038H22.9198C23.3128 37.0038 23.6314 36.692 23.6314 36.3073C23.6314 35.9226 23.3128 35.6107 22.9198 35.6107H21.0356V32.4976C21.0355 32.1128 20.7169 31.8009 20.3239 31.8009Z" fill="#6A6A6A"/>
<path d="M18.825 16.7895H34.8897C35.2825 16.7895 35.6011 16.4778 35.6011 16.093C35.6011 15.7083 35.2825 15.3964 34.8897 15.3964H18.825C18.432 15.3964 18.1135 15.7083 18.1135 16.093C18.1135 16.4777 18.432 16.7895 18.825 16.7895Z" fill="#6A6A6A"/>
<path d="M34.8898 21.0182H31.6268C31.234 21.0182 30.9153 21.3301 30.9153 21.7148C30.9153 22.0994 31.234 22.4113 31.6268 22.4113H34.8898C35.2826 22.4113 35.6012 22.0994 35.6012 21.7148C35.6012 21.3301 35.2826 21.0182 34.8898 21.0182Z" fill="#6A6A6A"/>
<path d="M39.1689 17.5722C39.3079 17.7081 39.49 17.7761 39.672 17.7761C39.8541 17.7761 40.0364 17.708 40.1751 17.5721L42.1908 15.5987C42.4687 15.3267 42.4687 14.8857 42.1908 14.6136C41.9129 14.3418 41.4622 14.3416 41.1846 14.6137L39.672 16.0945L39.0726 15.5079C38.7947 15.2359 38.344 15.2358 38.0665 15.508C37.7885 15.78 37.7885 16.2211 38.0665 16.4931L39.1689 17.5722Z" fill="#6A6A6A"/>
<path d="M39.1689 23.194C39.3079 23.33 39.49 23.398 39.672 23.398C39.8541 23.398 40.0364 23.33 40.1751 23.1939L42.1908 21.2206C42.4687 20.9486 42.4687 20.5076 42.1908 20.2355C41.9129 19.9636 41.4622 19.9635 41.1846 20.2356L39.672 21.7164L39.0726 21.1298C38.7947 20.8578 38.344 20.8577 38.0665 21.1298C37.7885 21.4017 37.7885 21.8429 38.0665 22.1149L39.1689 23.194Z" fill="#6A6A6A"/>
<path d="M33.4777 42.9164L31.617 41.0946C31.4497 40.9309 31.4042 40.6781 31.4961 40.4616C31.498 40.4576 31.5067 40.4376 31.5082 40.4336C31.6043 40.2067 31.8187 40.0601 32.0548 40.0601H34.6864C35.0793 40.0601 35.3979 39.7482 35.3979 39.3636V32.4552C35.3979 32.0706 35.0793 31.7587 34.6864 31.7587H32.0548C31.8187 31.7587 31.6042 31.6121 31.5009 31.3681C31.4042 31.1406 31.4498 30.8877 31.617 30.7238L33.4777 28.9023C33.7557 28.6303 33.7557 28.1893 33.4777 27.9172L28.4879 23.0324C28.2099 22.7604 27.7594 22.7604 27.4815 23.0324C27.2035 23.3045 27.2035 23.7455 27.4815 24.0176L31.9684 28.4098L30.6108 29.7388C30.0344 30.3029 29.8681 31.1524 30.1935 31.9182C30.5104 32.6675 31.2409 33.1518 32.0548 33.1518H33.9748V38.6669H32.0548C31.2409 38.6669 30.5104 39.1512 30.1986 39.8885C30.197 39.8921 30.1884 39.9119 30.187 39.9156C29.8679 40.6662 30.0342 41.5159 30.6108 42.0798L31.9684 43.409L27.9847 47.3088L26.6271 45.9796C26.0506 45.4153 25.1827 45.2526 24.4009 45.5711C23.6354 45.8815 23.1406 46.5968 23.1406 47.3933V49.2729H17.507V47.3932C17.507 46.5966 17.0124 45.8813 16.2314 45.5648C15.4647 45.2527 14.597 45.4154 14.0205 45.9795L12.6629 47.3087L8.67931 43.4089L10.0369 42.0797C10.6132 41.5154 10.7796 40.6659 10.4543 39.9005C10.1371 39.1512 9.40649 38.6669 8.59297 38.6669H6.67307V33.1518H8.59307C9.4067 33.1518 10.1374 32.6675 10.4608 31.9031C10.7796 31.1525 10.6133 30.303 10.037 29.7386L8.67941 28.4097L12.663 24.51L14.0206 25.8389C14.5969 26.4032 15.4646 26.5661 16.2468 26.2476C17.0124 25.9371 17.507 25.2219 17.507 24.4255V22.5459H23.1406V24.4255C23.1406 25.2221 23.6354 25.9373 24.4009 26.2476C24.6574 26.3516 24.9139 26.4674 25.163 26.5916C25.5127 26.7661 25.9414 26.63 26.12 26.2872C26.2983 25.9444 26.1591 25.525 25.8089 25.3503C25.5268 25.2095 25.2363 25.0784 24.9453 24.9604C24.7135 24.8664 24.5637 24.6564 24.5637 24.4254V21.8491C24.5637 21.4644 24.2451 21.1526 23.8522 21.1526H16.7955C16.4025 21.1526 16.0839 21.4644 16.0839 21.8491V24.4254C16.0839 24.6564 15.9341 24.8664 15.6849 24.9675C15.4526 25.0623 15.1942 25.0177 15.027 24.8539L13.1663 23.0323C12.8883 22.7603 12.4377 22.7603 12.1599 23.0323L7.1699 27.9171C6.89197 28.1891 6.89197 28.6303 7.1699 28.9024L9.03066 30.7237C9.19799 30.8876 9.24347 31.1405 9.14915 31.3626L9.13948 31.385C9.04348 31.6119 8.82899 31.7586 8.59307 31.7586H5.96153C5.56858 31.7586 5.25 32.0705 5.25 32.4551V39.3635C5.25 39.7481 5.56858 40.06 5.96153 40.06H8.59318C8.82909 40.06 9.04358 40.2066 9.14694 40.4505C9.24358 40.6781 9.19799 40.9309 9.03077 41.0946L7.17001 42.9162C6.89207 43.1883 6.89207 43.6294 7.17001 43.9015L12.16 48.7863C12.4379 49.0583 12.8884 49.0583 13.1664 48.7863L15.0271 46.9646C15.1943 46.8007 15.4526 46.7566 15.6795 46.8487L15.7024 46.8582C15.9342 46.9522 16.084 47.1622 16.084 47.3932V49.9693C16.084 50.3541 16.4026 50.6659 16.7956 50.6659H23.8524C24.2453 50.6659 24.5639 50.3541 24.5639 49.9693V47.3932C24.5639 47.1621 24.7137 46.9521 24.9375 46.8612L24.9631 46.8509C25.1954 46.7562 25.4538 46.801 25.6209 46.9645L27.4817 48.7861C27.6152 48.9168 27.7962 48.9901 27.9849 48.9901C28.1736 48.9901 28.3546 48.9168 28.4881 48.7862L33.4779 43.9014C33.7557 43.6293 33.7557 43.1883 33.4777 42.9164Z" fill="#6A6A6A"/>
<path d="M40.8069 33.8104C40.8069 36.2834 42.8621 38.2954 45.3885 38.2954C47.9149 38.2954 49.9701 36.2834 49.9701 33.8104C49.9701 31.3373 47.9149 29.3252 45.3885 29.3252C42.8621 29.3252 40.8069 31.3373 40.8069 33.8104ZM48.5469 33.8104C48.5469 35.5153 47.13 36.9023 45.3885 36.9023C43.647 36.9023 42.23 35.5153 42.23 33.8104C42.23 32.1053 43.647 30.7184 45.3885 30.7184C47.13 30.7184 48.5469 32.1053 48.5469 33.8104Z" fill="#6A6A6A"/>
<path d="M50.0385 47.3094C50.4313 47.3094 50.75 46.9976 50.75 46.613V44.8683C50.75 41.9742 48.3449 39.6198 45.3885 39.6198C42.4321 39.6198 40.027 41.9742 40.027 44.8683V49.3536H31.3642C30.9714 49.3536 30.6527 49.6654 30.6527 50.0502C30.6527 50.4348 30.9714 50.7466 31.3642 50.7466H40.7041C40.7157 50.7472 40.7268 50.75 40.7385 50.75H50.0384C50.4312 50.75 50.7499 50.4381 50.7499 50.0536C50.7499 49.6688 50.4312 49.3569 50.0384 49.3569H41.4502V44.8683C41.4502 42.7425 43.2169 41.0129 45.3885 41.0129C47.5601 41.0129 49.3268 42.7425 49.3268 44.8683V46.613C49.3268 46.9976 49.6455 47.3094 50.0385 47.3094Z" fill="#6A6A6A"/>
<path d="M10.9426 20.717C11.3355 20.717 11.6541 20.4051 11.6541 20.0205V8.30766H16.3739C16.7669 8.30766 17.0855 7.99589 17.0855 7.61111C17.0855 7.22644 16.7669 6.91456 16.3739 6.91456H10.9426C10.5496 6.91456 10.231 7.22644 10.231 7.61111V20.0205C10.231 20.4053 10.5496 20.717 10.9426 20.717Z" fill="#6A6A6A"/>
<path d="M40.5461 8.30766H45.3709V25.1648C45.3709 25.5496 45.6894 25.8614 46.0824 25.8614C46.4752 25.8614 46.7938 25.5495 46.7938 25.1648V7.61111C46.7938 7.22644 46.4752 6.91456 46.0824 6.91456H40.5461C40.1533 6.91456 39.8347 7.22644 39.8347 7.61111C39.8347 7.99589 40.1533 8.30766 40.5461 8.30766Z" fill="#6A6A6A"/>
<path d="M20.5819 11.3076H36.4433C36.8361 11.3076 37.1547 10.9958 37.1547 10.6111V5.94655C37.1547 5.56187 36.8361 5.25 36.4433 5.25H20.5819C20.1889 5.25 19.8704 5.56187 19.8704 5.94655V10.6111C19.8704 10.9958 20.1889 11.3076 20.5819 11.3076ZM21.2934 6.6431H35.7316V9.91444H21.2934V6.6431Z" fill="#6A6A6A"/>
<path d="M18.825 16.7895H34.8897C35.2825 16.7895 35.6011 16.4778 35.6011 16.093C35.6011 15.7083 35.2825 15.3964 34.8897 15.3964H18.825C18.432 15.3964 18.1135 15.7083 18.1135 16.093C18.1135 16.4777 18.432 16.7895 18.825 16.7895Z" fill="#6A6A6A"/>
<path d="M34.8898 21.0182H31.6268C31.234 21.0182 30.9153 21.3301 30.9153 21.7148C30.9153 22.0994 31.234 22.4113 31.6268 22.4113H34.8898C35.2826 22.4113 35.6012 22.0994 35.6012 21.7148C35.6012 21.3301 35.2826 21.0182 34.8898 21.0182Z" fill="#6A6A6A"/>
</g>
</g>
</svg>
