<svg width="56" height="56" viewBox="0 0 56 56" fill="none" xmlns="http://www.w3.org/2000/svg">
<g id="awardroll_request_icon">
<g id="Vector">
<path d="M46.1194 10.9537H21.3087C21.4753 10.5057 21.5713 10.2892 21.5713 9.87699C21.5713 8.39668 20.3666 7.22904 18.8863 7.22904C18.4331 7.22904 17.9812 7.31639 17.5423 7.43986C17.6676 6.99751 17.7356 6.55331 17.7356 6.10609C17.7356 4.62578 16.531 3.42578 15.0506 3.42578C14.3 3.42578 13.6205 3.7375 13.1328 4.23567C12.6451 3.7375 11.9656 3.42925 11.215 3.42925C9.73466 3.42925 8.53001 4.63446 8.53001 6.11477C8.53001 6.56401 8.59625 7.01705 8.72067 7.45744C8.28263 7.33448 7.83154 7.26589 7.37934 7.26589C5.89903 7.26589 4.69438 8.47059 4.69438 9.9509C4.69438 10.7016 5.00381 11.381 5.50198 11.8687C5.00381 12.3564 4.58984 13.0359 4.58984 13.7866C4.58984 14.8548 5.29161 15.7767 6.01953 16.2088V25.6771C6.01953 26.5675 6.47728 27.274 7.09271 27.6152C7.70813 27.9561 8.54625 27.8812 9.30177 27.4095C9.32798 27.3931 9.25782 27.3751 9.28178 27.3556L12.1228 24.9821V44.7179H7.64329V47.1567C7.64329 50.1177 10.1717 52.389 13.1328 52.389H36.9137C39.8747 52.389 42.1354 50.1177 42.1354 47.1567V21.6485H46.1193C49.0803 21.6485 51.4892 19.2621 51.4892 16.3011C51.4892 13.3401 49.0804 10.9537 46.1194 10.9537ZM7.37945 11.1017C6.74493 11.1017 6.22878 10.5855 6.22878 9.95101C6.22878 9.31649 6.74493 8.80034 7.37945 8.80034C8.28515 8.80034 9.23245 9.19588 9.91306 9.85851C10.2172 10.1544 10.7027 10.1477 10.9978 9.84429C11.1973 9.63918 11.2559 9.3521 11.1818 9.09582C11.2023 8.89139 11.1433 8.67956 10.9971 8.51309C10.4041 7.83887 10.0644 6.96459 10.0644 6.11544C10.0644 5.48092 10.5806 4.96477 11.2151 4.96477C11.8496 4.96477 12.3657 5.48092 12.3657 6.11544C12.3657 6.53909 12.7092 6.88255 13.1329 6.88255C13.5565 6.88255 13.9 6.53909 13.9 6.11544C13.9 5.48092 14.4161 4.96477 15.0506 4.96477C15.6852 4.96477 16.2013 5.48092 16.2013 6.11544C16.2013 6.91363 15.8942 7.74861 15.3589 8.40631C15.248 8.54294 15.1947 8.70605 15.1904 8.86938C14.9827 9.16531 15.0068 9.57591 15.2682 9.84429C15.5638 10.1477 16.05 10.1544 16.353 9.85851C17.0332 9.19588 17.9805 8.80034 18.8863 8.80034C19.5208 8.80034 20.0369 9.31649 20.0369 9.95101C20.0369 10.5855 19.5208 11.1017 18.8863 11.1017C18.4626 11.1017 18.1192 11.4451 18.1192 11.8688C18.1192 12.2924 18.4626 12.6359 18.8863 12.6359C19.5208 12.6359 20.0369 13.1521 20.0369 13.7866C20.0369 14.4211 19.5208 14.9373 18.8863 14.9373C17.9806 14.9373 17.0336 14.5417 16.3534 13.8795C16.0496 13.5839 15.5646 13.5903 15.2682 13.8937C15.228 13.9357 15.1928 13.9822 15.1631 14.0322C14.8726 14.3275 14.8666 14.8014 15.1559 15.1017C15.8106 15.7812 16.2013 16.7236 16.2013 17.6222C16.2013 18.2567 15.6852 18.7729 15.0506 18.7729C14.4161 18.7729 13.9 18.2567 13.9 17.6222C13.9 17.1986 13.5565 16.8551 13.1329 16.8551C12.7092 16.8551 12.3657 17.1986 12.3657 17.6222C12.3657 18.2567 11.8496 18.7729 11.2151 18.7729C10.5806 18.7729 10.0644 18.2567 10.0644 17.6222C10.0644 16.6479 10.5285 15.6201 11.2758 14.9406C11.5893 14.6555 11.6121 14.1705 11.3271 13.857C11.1057 13.6134 10.7636 13.5475 10.4746 13.6634C10.2728 13.6564 10.0687 13.7271 9.91266 13.8791C9.23245 14.5417 8.28515 14.9373 7.3794 14.9373C6.74487 14.9373 6.22872 14.4211 6.22872 13.7866C6.22872 13.1521 6.74487 12.6359 7.3794 12.6359C7.80304 12.6359 8.14651 12.2924 8.14651 11.8688C8.14651 11.4451 7.8031 11.1017 7.37945 11.1017ZM8.50431 26.1304C8.23201 26.2926 7.96285 26.3188 7.88155 26.2735C7.79576 26.2259 7.64346 26.0187 7.64346 25.6771V16.4519C7.92343 16.4261 8.35089 16.3676 8.66675 16.2785C8.54255 16.7182 8.50028 17.1701 8.50028 17.6223C8.50028 19.1026 9.71988 20.3073 11.2002 20.3073C11.5587 20.3075 11.9136 20.2362 12.2442 20.0976C12.5748 19.9589 12.8744 19.7556 13.1255 19.4997C13.6132 19.9979 14.2964 20.3073 15.047 20.3073C16.5273 20.3073 17.7338 19.1026 17.7338 17.6223C17.7338 17.1699 17.5839 16.7183 17.4605 16.2796C17.775 16.368 18.3383 16.4261 18.3383 16.452V25.6772C18.3383 26.0188 18.328 26.2259 18.2422 26.2735C18.1609 26.3188 17.9927 26.2926 17.7204 26.1305L13.5944 22.7791C13.3135 22.5521 12.9215 22.5521 12.6406 22.7791L8.50431 26.1304ZM13.1329 50.8212C11.0181 50.8212 9.0993 49.2715 9.0993 47.1567V46.2857H31.3848V47.1567C31.3848 48.6576 32.1632 50.0933 33.1591 50.8212H13.1329ZM40.5678 16.4716V47.1567C40.5678 49.2715 38.819 50.9923 36.7042 50.9923C34.5894 50.9923 32.8406 49.2715 32.8406 47.1567V44.7179H13.7468V24.9821L16.7597 27.3557C16.7837 27.3751 16.8471 27.3931 16.8733 27.4096C17.316 27.686 17.7885 27.8265 18.2117 27.8265C18.5106 27.8265 18.7107 27.7564 18.9654 27.6152C19.5808 27.274 19.8502 26.5675 19.8502 25.6771V16.2088C20.97 15.7768 21.4779 14.7977 21.4779 13.7295C21.4779 13.3172 21.4754 12.8575 21.3087 12.5216H42.3685C41.3711 13.6974 40.5678 14.9696 40.5678 16.4716ZM46.1194 20.1927H42.1356V16.4716C42.1356 14.3568 43.9305 12.636 46.0453 12.636C48.1601 12.636 49.918 14.2995 49.918 16.4143C49.918 18.5291 48.2343 20.1927 46.1194 20.1927Z" fill="#6A6A6A"/>
<path d="M34.4645 17.057H36.7602V18.6248H34.4645V17.057ZM23.7137 24.0002H36.7602V25.5681H23.7137V24.0002ZM21.4179 27.0239H36.7602V28.5917H21.4179V27.0239ZM17.4984 30.1035H36.7602V31.6714H17.4984V30.1035ZM26.0094 17.057H32.8406V18.6248H26.0094V17.057ZM21.4179 17.057H24.4416V18.6248H21.4179V17.057Z" fill="#6A6A6A"/>
<path d="M13.1329 7.64961C10.8064 7.64961 8.91373 9.54231 8.91373 11.8688C8.91373 14.1953 10.8064 16.088 13.1329 16.088C15.4594 16.088 17.3521 14.1953 17.3521 11.8688C17.3521 9.54231 15.4594 7.64961 13.1329 7.64961ZM13.1329 14.5538C11.6526 14.5538 10.448 13.3492 10.448 11.8689C10.448 10.3885 11.6526 9.1839 13.1329 9.1839C14.6132 9.1839 15.8179 10.3885 15.8179 11.8689C15.8179 13.3492 14.6132 14.5538 13.1329 14.5538ZM29.0891 37.7747H30.5449V40.9103H29.0891V37.7747ZM32.1127 34.695H33.7365V40.9103H32.1127V34.695ZM35.1924 37.0468H36.7602V40.9103H35.1924V37.0468ZM46.0061 14.1702C44.7371 14.1702 43.5914 15.2025 43.5914 16.4716V18.6248H46.1194C47.3885 18.6248 48.3642 17.6666 48.3642 16.3975C48.3642 15.1285 47.2752 14.1702 46.0061 14.1702ZM46.1194 17.057H45.1593V16.4716C45.1593 16.0487 45.6 15.7045 46.0229 15.7045C46.4458 15.7045 46.8383 15.9579 46.8383 16.3808C46.8383 16.8036 46.5423 17.057 46.1194 17.057Z" fill="#6A6A6A"/>
</g>
</g>
</svg>
