<svg width="56" height="56" viewBox="0 0 56 56" fill="none" xmlns="http://www.w3.org/2000/svg">
<g id="award_request_icon">
<g id="Vector">
<path d="M21.7543 37.047H23.3221V41.6945H21.7543V37.047ZM17.2188 35.1432H18.7306V39.6787H17.2188V35.1432ZM13.3552 33.5754H14.923V38.2229H13.3552V33.5754ZM32.5051 37.047H34.0729V41.6945H32.5051V37.047ZM37.1526 35.1432H38.6084V39.6787H37.1526V35.1432ZM40.9041 33.5754H42.472V38.2229H40.9041V33.5754ZM47.8474 37.439H51.6549V38.9508H47.8474V37.439ZM47.8474 39.6787H51.6549V41.2466H47.8474V39.6787Z" fill="#6A6A6A"/>
<path d="M51.2293 26.3586C51.8892 26.0681 52.3829 25.3007 52.3829 24.574V23.0236C52.3829 22.2976 51.9861 21.5303 51.3263 21.239L30.4735 12.011C29.8189 11.7216 28.9874 11.5625 28.0864 11.5625C27.1853 11.5625 26.3413 11.7216 25.6867 12.0106L4.69255 21.239C4.03272 21.5303 3.44434 22.2977 3.44434 23.0236V24.574C3.44434 25.3 3.91586 26.0673 4.57575 26.3586L10.2756 28.8863V35.5448C10.2756 36.6733 11.2198 37.9068 12.2681 38.353L25.6441 44.0171C26.3188 44.3039 27.2152 44.4473 28.0808 44.4473C28.9464 44.4473 29.8274 44.3039 30.5021 44.0171L43.7494 38.3526C44.7976 37.9067 45.5516 36.6733 45.5516 35.5448V28.8863L48.9112 27.367V33.0466C48.5753 33.2049 48.1833 33.6254 48.1833 34.1233V34.9889C47.8474 35.4733 47.0075 36.2752 47.0075 37.1823V41.7709C47.0075 43.2467 48.2194 44.4477 49.6952 44.4477C51.1709 44.4477 52.3829 43.2467 52.3829 41.7709V37.1823C52.3829 36.2752 52.0469 35.4733 51.207 34.9889V34.1233C51.207 33.6254 51.207 33.2049 50.4791 33.0466V26.6916L51.2293 26.3586ZM50.927 41.7709C50.927 42.4035 50.3837 42.9181 49.7512 42.9181C49.1186 42.9181 48.5753 42.4035 48.5753 41.7709V37.1823C48.5753 36.5498 49.1186 36.0352 49.7512 36.0352C50.3837 36.0352 50.927 36.5498 50.927 37.1823V41.7709ZM5.01216 24.574V23.0236C5.01216 22.8992 5.22544 22.6871 5.33564 22.6386L26.2778 13.4098C26.7357 13.2078 27.4091 13.092 28.092 13.092C28.7751 13.092 29.4386 13.2078 29.8965 13.4102L50.7407 22.6386C50.8508 22.6871 50.927 22.8992 50.927 23.0236V24.574C50.927 24.6958 50.8534 24.9116 50.7455 24.9591L29.8743 34.1878C29.4165 34.3899 28.7786 34.5056 28.0956 34.5056C27.4127 34.5056 26.7667 34.3899 26.3089 34.1874L5.33166 24.959C5.22146 24.9105 5.01216 24.6983 5.01216 24.574ZM43.9838 35.5448C43.9838 36.0688 43.6304 36.7364 43.139 36.9452L29.7822 42.6093C29.4894 42.734 29.0335 42.8161 28.6975 42.8649V38.223H27.1297V42.8649C26.7937 42.8161 26.4888 42.734 26.196 42.6093L12.8319 36.9456C12.3405 36.7364 11.8434 36.0688 11.8434 35.5448V29.5616L25.5953 35.5867C26.2499 35.8761 27.1585 36.0352 28.0596 36.0352C28.9606 36.0352 29.7493 35.8761 30.4039 35.5871L43.9838 29.5616V35.5448Z" fill="#6A6A6A"/>
<path d="M27.1297 15.6014H28.6975V31.6716H27.1297V15.6014ZM7.25191 22.8246H25.6738V24.3925H7.25191V22.8246ZM30.1533 22.8246H48.5753V24.3925H30.1533V22.8246ZM31.7772 27.4721H34.4089V26.0163H30.1533V30.2158H31.7772V27.4721ZM21.4183 27.4721H24.05V30.2158H25.6738V26.0163H21.4183V27.4721ZM35.9767 26.0163H39.0004V27.4721H35.9767V26.0163ZM16.8268 26.0163H19.8505V27.4721H16.8268V26.0163Z" fill="#6A6A6A"/>
</g>
</g>
</svg>
