<svg width="56" height="56" viewBox="0 0 56 56" fill="none" xmlns="http://www.w3.org/2000/svg">
<g id="banks_request_icon">
<g id="Vector">
<path d="M28.0916 18.0389C25.973 18.0389 24.2492 16.315 24.2492 14.1963C24.2492 12.0776 25.973 10.3537 28.0916 10.3537C30.2101 10.3537 31.9339 12.0776 31.9339 14.1963C31.9339 16.315 30.2101 18.0389 28.0916 18.0389ZM28.0916 11.8907C26.8203 11.8907 25.7861 12.925 25.7861 14.1963C25.7861 15.4676 26.8203 16.5019 28.0916 16.5019C29.3628 16.5019 30.397 15.4676 30.397 14.1963C30.397 12.925 29.3628 11.8907 28.0916 11.8907Z" fill="#6A6A6A"/>
<path d="M49.61 47.8537H47.567V46.4739C47.567 45.6264 46.9994 44.83 46.1517 44.83H44.4313V22.4885H46.1592C47.7154 22.4885 48.2096 21.8831 48.3657 21.4743C48.5233 21.0619 48.6107 20.253 47.4298 19.1976L30.921 4.46644C29.3611 3.07236 26.8229 3.0821 25.2622 4.47652L8.75334 19.2329C7.57244 20.2883 7.65984 21.0593 7.81746 21.4717C7.97358 21.8805 8.46778 22.4885 10.024 22.4885H11.395V44.83H10.0315C9.18377 44.83 8.31536 45.6264 8.31536 46.4739V47.8537H6.57312C5.72543 47.8537 4.84375 48.7005 4.84375 49.548V52.5012H50.9266V49.548C50.9266 48.7005 50.4577 47.8537 49.61 47.8537ZM42.8075 44.83H38.9999V22.4885H42.8075V44.83ZM32.1687 44.83H23.7136V43.2622H32.1687V44.83ZM32.3184 41.6944H23.8647C23.017 41.6944 22.1458 42.5524 22.1458 43.3998V44.83H18.3382V25.6242H35.6403V24.0563H18.3382V22.4885H37.5441V44.83H33.6245V43.3998C33.6245 42.5524 33.1661 41.6944 32.3184 41.6944ZM10.024 21.0327C9.5834 21.0327 9.36877 20.999 9.28019 20.9554C9.31731 20.8608 9.43143 20.6735 9.77775 20.364L26.2866 5.62265C27.2645 4.74831 28.9186 4.75335 29.8965 5.62769L46.4053 20.3815C46.7517 20.6911 46.8658 20.8596 46.9029 20.9542C46.8143 20.9979 46.5997 21.0328 46.1591 21.0328H14.8666V22.4886H16.7704V44.8301H12.9628V21.0328L10.024 21.0327ZM9.7712 46.2859H45.9991V47.8537H9.7712V46.2859ZM49.4708 50.8773H6.41157V49.4215H49.4708V50.8773Z" fill="#6A6A6A"/>
<path d="M7.53145 25.6242H9.09927V41.6944H7.53145V25.6242ZM9.09927 12.275C9.09927 11.4275 9.95228 10.5619 10.8 10.5619H13.7468V9.10602H10.8C9.10498 9.10602 7.53145 10.5799 7.53145 12.275V15.9373H9.09927V12.275ZM46.7831 12.275V15.9373H48.2389V12.275C48.2389 10.58 47.0782 9.10602 45.3832 9.10602H41.3517V10.5619H45.3832C46.2309 10.5619 46.7831 11.4275 46.7831 12.275ZM46.7831 25.6242H48.2389V41.6944H46.7831V25.6242Z" fill="#6A6A6A"/>
</g>
</g>
</svg>
