<svg width="56" height="56" viewBox="0 0 56 56" fill="none" xmlns="http://www.w3.org/2000/svg">
<rect width="56" height="56" fill="white"/>
<path d="M53.0362 26.3626V20.504H44.8635V10.8585H49.4333V5H9.88832V10.8585H14.1063V20.5031L6.16807 20.5035V26.362H9.71238V50.4671H6V51.9317H9.71238V52H49.2574V51.9317H52.8682V50.4671H49.2574V26.362L53.0362 26.3626ZM11.3529 9.39389V6.46463H47.9686V9.39389H43.3988V50.4036H39.1808V23.9569C39.1808 22.0167 37.6025 20.4383 35.6623 20.4383C33.7221 20.4383 32.1437 22.0166 32.1437 23.9569V50.4036H27.1784V23.9569C27.1784 22.0167 25.5993 20.4383 23.6591 20.4383C21.719 20.4383 20.1406 22.0166 20.1406 23.9569V50.4036H15.5707V9.39389H11.3529ZM25.7136 50.4036H21.605V23.9569C21.605 22.8245 22.5261 21.9029 23.659 21.9029C24.7919 21.9029 25.7136 22.8244 25.7136 23.9569V50.4036ZM37.7162 50.4036H33.6084V23.9569C33.6084 21.2383 37.7162 21.2422 37.7162 23.9569V50.4036ZM7.6327 24.8979V21.9687H14.1063V50.4676H11.177V24.8979H7.6327ZM44.8636 50.4676V21.9687H51.5717V24.8979H47.7929V50.4676H44.8636Z" fill="#848484"/>
<path d="M29.5775 16.0625H29.7434C31.5702 16.0625 31.5721 18.2595 29.7434 18.2595C28.9817 18.2595 28.3624 17.7667 28.3624 17.161H26.8978C26.8978 18.3128 27.7513 19.2782 28.9145 19.6001V21.2135H30.3791V19.6545C33.6659 18.974 33.1178 14.598 29.7434 14.598L29.5774 14.5976C28.8158 14.5976 28.1957 14.1049 28.1957 13.4992C28.1957 12.0456 30.9591 12.0467 30.9591 13.4992H32.4238C32.4238 12.326 31.5388 11.3448 30.342 11.0419V9.47107H28.8773V11.0237C27.6472 11.3065 26.7312 12.3045 26.7312 13.4992C26.7312 14.9126 28.0077 16.0626 29.5775 16.0626L29.5775 16.0625Z" fill="#848484"/>
</svg>
