<svg width="56" height="56" viewBox="0 0 56 56" fill="none" xmlns="http://www.w3.org/2000/svg">
<g id="business_request_icon">
<g id="Vector">
<path d="M47.209 12.3528H37.9365V8.69146C37.9365 7.63782 37.179 6.64147 36.1254 6.64147H35.1368V6.01608C35.1368 4.96244 34.5037 4.00977 33.45 4.00977H22.7486C21.6949 4.00977 20.6905 4.96244 20.6905 6.01608V6.64147H20.0732C19.0196 6.64147 17.9468 7.63777 17.9468 8.69146V12.3528H8.98951C6.03909 12.3528 3.44434 14.9137 3.44434 17.8641V46.1466C3.44434 49.097 6.03909 51.3805 8.98951 51.3805H47.209C50.1595 51.3805 52.3829 49.097 52.3829 46.1466V17.8641C52.3829 14.9137 50.1595 12.3528 47.209 12.3528ZM33.7369 9.00301C33.7369 9.10438 33.6967 9.20159 33.625 9.27327C33.5533 9.34495 33.4561 9.38522 33.3547 9.38522H22.5844C22.4831 9.38522 22.3859 9.34495 22.3142 9.27327C22.2425 9.20159 22.2022 9.10438 22.2022 9.00301V5.84782C22.2022 5.74645 22.2425 5.64923 22.3142 5.57755C22.3859 5.50587 22.4831 5.4656 22.5844 5.4656H33.3548C33.405 5.4656 33.4547 5.47549 33.5011 5.4947C33.5474 5.5139 33.5896 5.54206 33.625 5.57755C33.6605 5.61304 33.6887 5.65518 33.7079 5.70155C33.7271 5.74792 33.737 5.79762 33.737 5.84782L33.7369 9.00301ZM50.815 46.1466C50.815 48.2539 49.3163 49.8687 47.209 49.8687H8.98951C6.88218 49.8687 4.90017 48.2539 4.90017 46.1466V32.6226H22.2022V36.2095C22.2022 37.2644 23.2224 37.998 24.2773 37.998H31.9212C32.9761 37.998 33.625 37.2643 33.625 36.2095V32.6226H50.815V46.1466ZM32.1131 35.2543L32.1132 36.2095C32.1132 36.4159 32.1277 36.4301 31.9213 36.4301H24.2774C24.071 36.4301 23.7701 36.4159 23.7701 36.2095L23.7701 35.2543H32.1131ZM23.7701 33.7984V30.0944C23.7701 29.888 24.0709 29.5429 24.2773 29.5429H31.9212C32.1276 29.5429 32.1131 29.888 32.1131 30.0944V33.7984H23.7701ZM50.815 31.1107H33.625V30.0944C33.625 29.0395 32.9761 28.0871 31.9212 28.0871H24.2773C23.2224 28.0871 22.2022 29.0395 22.2022 30.0944V31.1107H4.90017V17.8641C4.90017 15.7568 6.88224 13.9766 8.98951 13.9766H22.2022V12.3528H19.5145V8.69146C19.5145 8.48434 19.866 8.09731 20.0732 8.09731H20.6904V9.07361C20.6904 10.1272 21.6949 10.841 22.7485 10.841H33.45C34.5036 10.841 35.1368 10.1273 35.1368 9.07361V8.09731H36.1254C36.3325 8.09731 36.3127 8.48428 36.3127 8.69146V12.3528H27.9136V13.9766H47.209C49.3164 13.9766 50.815 15.7568 50.815 17.8641V31.1107Z" fill="#6A6A6A"/>
<path d="M11.0595 26.4633H9.60365V21.6861C9.60365 20.0002 11.1256 18.5121 12.8115 18.5121H17.5548V19.968H12.8115C11.9683 19.968 11.0595 20.8429 11.0595 21.6861V26.4633ZM22.2022 18.5121H27.9136V19.968H22.2022V18.5121Z" fill="#6A6A6A"/>
</g>
</g>
</svg>
