<svg width="32" height="32" viewBox="0 0 32 32" fill="none" xmlns="http://www.w3.org/2000/svg">
<path d="M4.5755 18.1501C4.5755 17.8501 4.7005 17.5751 4.92552 17.3751L11.6756 11.6752V17.8253C10.7506 18.7003 9.75061 19.6253 8.5756 20.5253L9.02558 21.1253C10.3006 20.1253 11.3506 19.1503 12.3507 18.2003C13.4257 17.1753 14.4507 16.2253 15.7507 15.2253C16.5007 14.6753 17.4757 14.5753 18.2507 14.9753C18.4507 15.0753 18.6257 15.2003 18.7757 15.3503L18.8757 15.4503C19.2507 15.8503 19.4257 16.3503 19.4257 16.9003C19.4007 17.4503 19.1507 18.0003 18.7507 18.3753L8.60062 29.3753L9.15064 29.8753L13.0508 25.6504V25.7254H25.5506C27.0006 25.7254 28.2006 24.5254 28.2006 23.0754V4.02546C28.2006 2.57547 27.0006 1.37547 25.5506 1.37547H14.3257C12.8757 1.37547 11.6757 2.57547 11.6757 4.02546V10.6754L4.42577 16.8005C4.02577 17.1505 3.80078 17.6255 3.80078 18.1505V30.2504H4.5508V18.1505L4.5755 18.1501ZM27.4254 4.02497V23.0998C27.4254 24.1498 26.5754 24.9998 25.5254 24.9998H24.2504V2.12497H25.5254C26.5754 2.12497 27.4254 2.97495 27.4254 4.02497V4.02497ZM12.4254 4.02497C12.4254 2.97498 13.2754 2.12497 14.3254 2.12497H23.5005V24.9998H13.6755L19.2755 18.925C19.8255 18.425 20.1505 17.7 20.1755 16.925C20.2005 16.1749 19.9255 15.475 19.4255 14.925L19.3005 14.8C19.0755 14.6 18.8505 14.425 18.5755 14.275C17.5505 13.725 16.2505 13.85 15.2757 14.6C14.1757 15.425 13.2757 16.25 12.4006 17.075V4.02506L12.4254 4.02497Z" fill="#848484"/>
</svg>
