<svg width="56" height="56" viewBox="0 0 56 56" fill="none" xmlns="http://www.w3.org/2000/svg">
<rect width="56" height="56" fill="white"/>
<path d="M43.3782 13.088H26.3407V14.7106H43.3782V13.088Z" fill="#848484"/>
<path d="M43.3782 17.1384H26.3407V18.761H43.3782V17.1384Z" fill="#848484"/>
<path d="M39.3217 21.1989H26.3407V22.8215H39.3217V21.1989Z" fill="#848484"/>
<path d="M26.3407 29.3106V30.9332H28.729C29.0191 30.3711 29.3462 29.8289 29.7087 29.3106H26.3407Z" fill="#848484"/>
<path d="M26.3408 26.8755H31.857C32.5332 26.2659 33.2662 25.7226 34.046 25.2529H26.3407L26.3408 26.8755Z" fill="#848484"/>
<path d="M3.62268 34.5839V9.43325C3.62304 8.98522 3.98596 8.6223 4.43399 8.62194H45.8108C46.2589 8.6223 46.6218 8.98522 46.6221 9.43325V24.2455C47.1788 24.4689 47.7207 24.7272 48.2448 25.0195V9.43396C48.244 8.78854 47.9873 8.16989 47.5313 7.71352C47.0749 7.25751 46.4562 7.00072 45.8108 7H4.43396C3.78854 7.00072 3.16989 7.25751 2.71352 7.71352C2.25752 8.16988 2.00072 8.78853 2 9.43396V34.5846C2.00072 35.23 2.25752 35.8487 2.71352 36.305C3.16988 36.761 3.78853 37.0178 4.43396 37.0186H27.1609C27.1757 36.4756 27.2213 35.9338 27.2978 35.3959H4.43365C3.98562 35.3956 3.6227 35.0327 3.62233 34.5846L3.62268 34.5839Z" fill="#848484"/>
<path d="M41.3458 24.8494C38.0107 24.8494 34.8122 26.1743 32.4537 28.5326C30.0954 30.8912 28.7705 34.0897 28.7705 37.4247C28.7705 40.7597 30.0954 43.9584 32.4537 46.3169C34.8123 48.6752 38.0108 50.0001 41.3458 50.0001C44.6808 50.0001 47.8794 48.6752 50.238 46.3169C52.5963 43.9583 53.9211 40.7597 53.9211 37.4247C53.9175 34.0908 52.5912 30.8944 50.2336 28.537C47.8761 26.1795 44.6798 24.8531 41.3458 24.8494V24.8494ZM41.3458 48.3774C38.4411 48.3774 35.6551 47.2235 33.6011 45.1695C31.5471 43.1154 30.3931 40.3295 30.3931 37.4247C30.3931 34.52 31.547 31.734 33.6011 29.68C35.6552 27.6261 38.4411 26.472 41.3458 26.472C44.2506 26.472 47.0366 27.626 49.0906 29.68C51.1445 31.7341 52.2985 34.52 52.2985 37.4247C52.2953 40.3284 51.1402 43.1126 49.0869 45.1659C47.0336 47.2191 44.2495 48.3742 41.3458 48.3774V48.3774Z" fill="#848484"/>
<path d="M21.2252 19.9704C21.4334 19.6347 21.5153 19.2355 21.4552 18.8447C21.3954 18.4539 21.1977 18.0975 20.8981 17.8396C20.5986 17.5817 20.2168 17.4394 19.8217 17.4383L17.1216 17.4242L15.1712 14.2745V14.2742C14.8706 13.7877 14.3396 13.4915 13.7677 13.4915C13.1958 13.4915 12.6648 13.7877 12.3642 14.2742L10.3895 17.4383H7.71363C7.31848 17.4394 6.93672 17.5817 6.63723 17.8396C6.33769 18.0974 6.13993 18.4538 6.08018 18.8447C6.02005 19.2355 6.10191 19.6346 6.31053 19.9704L7.56079 21.9892C7.56839 22.0019 7.56875 22.0178 7.56115 22.0309L6.31015 24.0501C6.10189 24.3858 6.02004 24.7849 6.08016 25.1758C6.13992 25.5666 6.33767 25.923 6.63721 26.1809C6.93674 26.4388 7.3185 26.5811 7.71361 26.5822L10.4137 26.5963L12.3641 29.746V29.7463C12.6648 30.2328 13.1957 30.529 13.7677 30.529C14.3396 30.529 14.8706 30.2328 15.1712 29.7463L17.1459 26.5822H19.8217C20.2169 26.5811 20.5986 26.4388 20.8981 26.1809C21.1976 25.923 21.3954 25.5666 21.4552 25.1758C21.5153 24.785 21.4334 24.3859 21.2248 24.0501L19.9745 22.0313H19.9749C19.9669 22.0182 19.9669 22.0023 19.9749 21.9892L21.2252 19.9704ZM18.595 22.885L19.8456 24.9042L19.8217 24.9596H17.1455C16.5732 24.9578 16.0415 25.2545 15.7419 25.7423L13.7915 28.892H13.7437L11.7934 25.7423C11.4942 25.2545 10.9621 24.9578 10.3898 24.9596H7.71362L7.68971 24.9042L8.94071 22.8846C9.10441 22.6221 9.19098 22.3193 9.19098 22.01C9.19098 21.701 9.10405 21.3978 8.94034 21.1356L7.68972 19.1164L7.71362 19.061H10.3898C10.9621 19.0628 11.4938 18.7662 11.7934 18.2783L13.7438 15.1287H13.7916L15.742 18.2783C16.0411 18.7662 16.5732 19.0628 17.1455 19.061H19.8213L19.8452 19.1164L18.5946 21.1356L18.5942 21.136H18.5946C18.4309 21.3986 18.3443 21.7014 18.3443 22.0107C18.3443 22.3196 18.4312 22.6228 18.595 22.885V22.885Z" fill="#848484"/>
<path fill-rule="evenodd" clip-rule="evenodd" d="M46.4697 32.4697L47.5304 33.5303L40.0001 41.0607L35.9697 37.0303L37.0304 35.9697L40.0001 38.9393L46.4697 32.4697Z" fill="#848484"/>
</svg>
