<svg width="56" height="56" viewBox="0 0 56 56" fill="none" xmlns="http://www.w3.org/2000/svg">
<g id="chemicals_request_icon">
<g id="Vector">
<path d="M22.1441 39.8943C16.9708 40.9801 17.6963 36.7352 13.4262 36.0622C8.15703 35.232 8.23582 39.5259 8.23582 39.5259C8.23582 44.5618 10.8003 48.6442 17.3541 48.6442C23.9078 48.6442 26.4723 44.5618 26.4723 39.5259C26.4723 39.5259 26.539 37.3995 25.0182 38.2976C25.0182 38.2976 23.6161 39.5854 22.1441 39.8943ZM47.847 43.6625V46.345C47.847 47.6095 46.9759 48.5257 45.7113 48.5257H30.0535C31.4714 46.9578 32.4102 45.054 32.8203 42.4223H46.861C47.4932 42.4223 47.847 43.0303 47.847 43.6625Z" fill="#6A6A6A"/>
<path d="M17.354 3.42578C15.875 3.42578 14.6716 4.62931 14.6716 6.10822C14.6716 7.58712 15.8751 8.79065 17.354 8.79065C18.833 8.79065 20.0364 7.58712 20.0364 6.10822C20.0364 4.62931 18.833 3.42578 17.354 3.42578ZM17.354 7.25788C16.72 7.25788 16.2044 6.74218 16.2044 6.10827C16.2044 5.47437 16.7201 4.95867 17.354 4.95867C17.9879 4.95867 18.5036 5.47437 18.5036 6.10827C18.5036 6.74218 17.988 7.25788 17.354 7.25788ZM43.0289 14.922C41.761 14.922 40.7297 15.9534 40.7297 17.2212C40.7297 18.4891 41.761 19.5205 43.0289 19.5205C44.2967 19.5205 45.3281 18.4891 45.3281 17.2212C45.3281 15.9534 44.2967 14.922 43.0289 14.922ZM43.0289 17.9877C42.6063 17.9877 42.2624 17.6438 42.2624 17.2212C42.2624 16.7987 42.6063 16.4548 43.0289 16.4548C43.4513 16.4548 43.7953 16.7987 43.7953 17.2212C43.7953 17.6438 43.4514 17.9877 43.0289 17.9877ZM25.1136 9.05007H23.7137V10.1699H22.4819V11.7378H23.7137V12.8576H25.1136V11.7378H26.3454V10.1699H25.1136V9.05007Z" fill="#6A6A6A"/>
<path d="M22.7526 31.0721C21.3859 30.1893 19.8059 29.6519 18.1833 29.5179C17.7544 29.4827 17.391 29.7971 17.3562 30.2184C17.3214 30.6406 17.635 31.0107 18.0568 31.0455C19.4291 31.1589 20.7654 31.6132 21.921 32.3594C22.0446 32.4396 22.1887 32.4822 22.336 32.4821C22.5875 32.4821 22.8342 32.3586 22.9805 32.1315C23.2103 31.776 23.1081 31.3015 22.7526 31.0721ZM24.0538 33.1004C23.7233 33.3653 23.6705 33.8473 23.9351 34.1778C24.3678 34.717 24.7325 35.3074 25.0207 35.9359C25.1498 36.2169 25.4275 36.3827 25.7179 36.3827C25.8249 36.3827 25.9335 36.3602 26.0371 36.3131C26.4218 36.1364 26.5906 35.6818 26.4144 35.2967C26.0734 34.5541 25.6424 33.8563 25.1311 33.219C24.8658 32.8878 24.3835 32.8354 24.0538 33.1004ZM17.8904 26.035C18.3136 26.035 18.6743 25.6918 18.6743 25.2685V22.2029C18.6743 21.7796 18.3136 21.4364 17.8904 21.4364C17.4671 21.4364 17.1065 21.7796 17.1065 22.2029V25.2685C17.1065 25.6919 17.4671 26.035 17.8904 26.035Z" fill="#6A6A6A"/>
<path d="M49.4329 38.35L40.8906 33.069C40.7582 32.9867 40.5678 32.7052 40.5678 32.5496V24.754C41.7437 24.4378 42.1816 23.5103 42.1816 22.5111C42.1816 21.2432 41.2311 20.1368 39.9632 20.1368H33.8319C32.564 20.1368 31.4482 21.2432 31.4482 22.5111C31.4482 23.5103 32.1128 24.4378 32.8967 24.754V32.5495C32.8967 32.7052 32.8247 32.9866 32.6922 33.0689L29.5711 35.0325C28.6029 32.3327 26.7781 29.9957 24.2561 28.4113C23.3744 27.8575 22.1491 27.3904 22.0997 27.3709C21.999 27.3305 21.8099 27.1408 21.8099 27.0323V19.409C22.8738 19.0785 23.7973 17.9619 23.7973 16.749C23.7973 15.2701 22.665 13.9776 21.1861 13.9776H13.522C12.043 13.9776 10.7193 15.2701 10.7193 16.749C10.7193 17.9619 11.8991 19.0785 12.515 19.409V27.0323C12.515 27.1409 12.5066 27.3306 12.4059 27.371C12.3568 27.3905 11.2524 27.8575 10.3715 28.411C6.54766 30.8128 4.29492 34.9386 4.29492 39.4473C4.29492 47.7274 9.05887 52.4763 17.339 52.4763C25.6191 52.4763 30.3756 47.7274 30.3756 39.4473C30.3756 38.4616 30.264 37.4962 30.0536 36.5611L33.4882 34.3713C34.0753 34.0068 34.4085 33.2408 34.4085 32.5495V24.7283H36.1312C36.5544 24.7283 36.8976 24.4237 36.8976 24.0004C36.8976 23.5771 36.5544 23.2725 36.1312 23.2725H33.8319C33.4094 23.2725 33.0655 22.9111 33.0655 22.4886C33.0655 22.066 33.4094 21.7047 33.8319 21.7047H39.9632C40.3857 21.7047 40.7297 22.066 40.7297 22.4886C40.7297 22.9111 40.3857 23.2725 39.9632 23.2725H39.056V32.5495C39.056 33.2407 39.5527 34.0068 40.1398 34.3713L48.5719 39.6523C49.4195 40.1785 50.0868 41.5152 50.0868 42.5129V47.1114C50.0868 49.2243 48.5907 50.7095 46.4778 50.7095H28.3052V52.3333H46.4777C49.436 52.3333 51.6546 50.0697 51.6546 47.1114V42.5129C51.6546 40.9846 50.7315 39.1561 49.4329 38.35ZM17.354 50.9435C7.35134 50.9435 5.85782 43.7408 5.85782 39.4473C5.85782 35.4693 7.87225 31.8288 11.2467 29.7088C12.0082 29.2305 12.981 28.7987 12.9918 28.7946C13.6725 28.5225 14.0828 27.7651 14.0828 27.0323V19.3529H16.5876C17.0108 19.3529 17.354 19.0483 17.354 18.625C17.354 18.2017 17.0108 17.8971 16.5876 17.8971H13.5219C12.8879 17.8971 12.3723 17.3272 12.3723 16.6932C12.3723 16.0593 12.888 15.4894 13.5219 15.4894H21.186C21.82 15.4894 22.3357 16.0593 22.3357 16.6932C22.3357 17.3272 21.82 17.8971 21.186 17.8971H20.2421V27.0323C20.2421 27.7654 20.8443 28.5232 21.525 28.7945C21.5359 28.799 22.6524 29.2286 23.4173 29.7091C26.7914 31.8287 28.828 35.4692 28.828 39.4472C28.828 43.7408 27.3567 50.9435 17.354 50.9435Z" fill="#6A6A6A"/>
<path d="M43.774 40.1115C43.895 40.187 44.0348 40.2269 44.1774 40.2268C44.4338 40.2268 44.6841 40.0984 44.8293 39.8645C45.0527 39.5049 44.9419 39.0322 44.5823 38.8092L38.8993 35.2817C38.5401 35.0583 38.067 35.1683 37.844 35.5287C37.6206 35.8884 37.7314 36.361 38.091 36.584L43.774 40.1115ZM37.4322 30.2503V27.9511C37.4322 27.5278 37.0715 27.1846 36.6483 27.1846C36.225 27.1846 35.8644 27.5278 35.8644 27.9511V30.2503C35.8644 30.6736 36.225 31.0167 36.6483 31.0167C37.0715 31.0167 37.4322 30.6736 37.4322 30.2503ZM30.7662 19.5205C32.0341 19.5205 33.0655 18.4892 33.0655 17.2213C33.0655 15.9534 32.0341 14.9221 30.7662 14.9221C29.4984 14.9221 28.467 15.9534 28.467 17.2213C28.467 18.4892 29.4984 19.5205 30.7662 19.5205ZM30.7662 16.4548C31.1888 16.4548 31.5327 16.7988 31.5327 17.2213C31.5327 17.6438 31.1888 17.9877 30.7662 17.9877C30.3438 17.9877 29.9998 17.6438 29.9998 17.2213C29.9998 16.7988 30.3438 16.4548 30.7662 16.4548ZM36.8976 13.7724C38.1654 13.7724 39.1968 12.741 39.1968 11.4731C39.1968 10.2053 38.1654 9.17393 36.8976 9.17393C35.6297 9.17393 34.5983 10.2053 34.5983 11.4731C34.5983 12.741 35.6297 13.7724 36.8976 13.7724ZM36.8976 10.7067C37.3201 10.7067 37.664 11.0506 37.664 11.4731C37.664 11.8957 37.3201 12.2396 36.8976 12.2396C36.4751 12.2396 36.1311 11.8957 36.1311 11.4731C36.1311 11.0506 36.4751 10.7067 36.8976 10.7067ZM9.15535 12.8576H10.6112V11.7378H11.899V10.1699H10.6112V9.05007H9.15535V10.1699H7.97948V11.7378H9.15535V12.8576Z" fill="#6A6A6A"/>
</g>
</g>
</svg>
