<svg width="56" height="56" viewBox="0 0 56 56" fill="none" xmlns="http://www.w3.org/2000/svg">
<rect width="56" height="56" fill="white"/>
<path fill-rule="evenodd" clip-rule="evenodd" d="M17.342 11.502H22.154C23.3352 11.502 24.1424 12.0102 24.6304 12.688C25.0923 13.3295 25.2392 14.0777 25.2392 14.5872V22.9923C25.2392 24.1107 24.7114 24.8866 24.0627 25.3701C23.7031 25.6382 23.3081 25.8169 22.9429 25.9286L25.0076 29.1051L30.1905 31.3856C31.2434 31.815 32.7823 33.4779 32.7823 36.7853V51.7238H29.2661V50.2948H31.3533V36.7853C31.3533 33.899 30.0308 32.8608 29.6472 32.7073L29.636 32.7028L25.4236 30.8494L26.0288 34.8837L21.4788 33.9737L23.3401 48.6986L19.7636 52L16.4474 48.6838L18.151 34.0854L13.2841 35.3957L14.1013 30.6971L10.7762 32.2805L10.7263 32.2958C10.1157 32.4837 8.429 33.6254 8.429 36.7853V50.2948H10.0852V51.7238H7V36.7853C7 33.1016 8.99128 31.3663 10.2522 30.9472L14.5731 28.8897L16.7021 26.0003C15.9564 25.8311 15.4085 25.4021 15.0349 24.901C14.572 24.28 14.3756 23.554 14.3305 23.057L14.3275 23.0247V19.113H15.7565V22.9569C15.7887 23.2507 15.9161 23.6921 16.1806 24.0469C16.4334 24.3861 16.807 24.6485 17.4127 24.6485H22.1181C22.412 24.6163 22.8538 24.4889 23.2087 24.2244C23.5478 23.9716 23.8102 23.598 23.8102 22.9923V14.5872C23.8102 14.3064 23.7201 13.8693 23.4707 13.523C23.2476 13.2131 22.8694 12.931 22.154 12.931H17.4904C17.216 12.9958 16.8224 13.148 16.5038 13.3952C16.1725 13.6523 15.972 13.9658 15.972 14.3717V16.0278H19.9026C20.1121 15.9646 20.4001 15.8381 20.6335 15.6537C20.8927 15.4489 21.0085 15.2396 21.0085 15.0182H22.4375C22.4375 15.8313 21.9786 16.4122 21.5194 16.775C21.0647 17.1342 20.5358 17.3446 20.1722 17.4355L20.0868 17.4568H14.543V14.3717C14.543 13.3983 15.0609 12.7061 15.6277 12.2663C16.1816 11.8365 16.8288 11.6046 17.2726 11.5159L17.342 11.502ZM21.3353 26.0775H18.4208L16.0437 29.3028L19.7966 32.0322L23.5447 29.4767L21.3353 26.0775ZM23.9869 30.9047L21.5904 32.5387L24.3137 33.0834L23.9869 30.9047ZM19.6364 33.6855L17.947 48.1624L19.8032 50.0187L21.8301 48.1477L20.0011 33.6782L19.8074 33.6395L19.6364 33.6855ZM18.1543 32.6047L15.0758 33.4335L15.5494 30.7103L18.1543 32.6047ZM11.7413 51.8714V41.3111H13.1703V51.8714H11.7413ZM26.6119 51.8714V41.3111H28.0409V51.8714H26.6119Z" fill="#848484"/>
<path fill-rule="evenodd" clip-rule="evenodd" d="M19.8638 4H48.6225V41.3327H32.3676V39.9037H47.1935V5.429H21.2928V11.6809H19.8638V4ZM43.621 10.7878H27.5447V9.35877H43.621V10.7878ZM43.621 14.5389H27.5447V13.1099H43.621V14.5389ZM43.621 18.8259H27.5447V17.3969H43.621V18.8259Z" fill="#848484"/>
<path fill-rule="evenodd" clip-rule="evenodd" d="M44.6586 32.5481L43.7644 33.4422C42.7983 34.4083 41.2987 34.593 40.1271 33.89C39.6367 33.5958 39.0241 33.5958 38.5338 33.89L37.0187 34.7991L36.2834 33.5737L37.7985 32.6647C38.7415 32.0989 39.9194 32.0989 40.8623 32.6647C41.4716 33.0302 42.2515 32.9342 42.754 32.4318L43.6481 31.5377L44.6586 32.5481Z" fill="#848484"/>
</svg>
