<svg width="56" height="56" viewBox="0 0 56 56" fill="none" xmlns="http://www.w3.org/2000/svg">
<g id="creative_request_icon">
<g id="Vector">
<path d="M32.1132 30.8321H38.4965V33.4638H32.1132V30.8321Z" fill="#6A6A6A"/>
<path d="M10.0517 14.4259H15.3711V15.9937H10.0517V14.4259Z" fill="#6A6A6A"/>
<path d="M11.8994 15.2098H13.4113V24.3928H11.8994V15.2098ZM19.1226 16.7776H24.442V18.2335H19.1226V16.7776ZM19.1226 19.7453H24.442V21.3131H19.1226V19.7453ZM35.8648 12.1861H28.1936V5.86349C28.1936 4.56965 29.3263 3.45117 30.5404 3.45117H33.5849C34.8035 3.45117 35.8648 4.56965 35.8648 5.86349V12.1861ZM29.7614 10.6743H34.3529V5.86349C34.3529 5.41437 33.9639 4.963 33.5849 4.963H30.5404C30.1657 4.963 29.7614 5.41437 29.7614 5.86349V10.6743Z" fill="#6A6A6A"/>
<path d="M26.3738 21.9143C26.2748 21.716 25.5208 21.1395 23.8222 20.5575L24.3157 19.0853C25.6456 19.5411 27.8765 20.5852 27.8765 21.7611H26.3543C26.3543 22.041 26.3738 21.9143 26.3738 21.9143ZM15.7568 19.6275L15.6405 18.1098C16.6998 18.0284 17.7486 18.0195 18.7895 18.0834L18.6966 19.6026C17.7253 19.5432 16.7468 19.5514 15.7568 19.6275ZM8.06186 21.9366C8.06186 21.9366 8.08767 22.041 8.08767 21.7611H6.56543C6.56543 21.7611 6.56543 20.5613 9.32704 19.4572L9.8923 20.8705C8.59218 21.3905 8.12357 21.8253 8.06186 21.9366Z" fill="#6A6A6A"/>
<path d="M17.4091 52.2914C12.6284 52.2914 6.58004 50.4997 6.58004 48.4858V21.7611H8.09199L8.06617 21.6711C8.39934 22.2726 12.2462 24.1087 17.4156 24.1087C22.5124 24.1087 26.071 22.2979 26.3781 21.6827L26.3587 21.7611H27.8577V48.4858C27.8577 50.3707 22.5929 52.2914 17.4091 52.2914ZM8.09187 48.3929C8.65181 49.0306 12.3493 50.7692 17.4091 50.7692C22.4151 50.7692 25.9539 49.0534 26.3458 48.4093V23.6484C24.442 24.7871 20.8882 25.6523 17.4091 25.6523C14.1066 25.6523 10.2196 24.7972 8.09187 23.6046V48.3929Z" fill="#6A6A6A"/>
<path d="M16.043 24.8407H14.5312V12.9141H10.7236V23.5529H9.21175V11.4582H16.043V24.8407Z" fill="#6A6A6A"/>
<path d="M16.043 12.9141H9.21175V9.28846C9.21175 7.99461 10.2985 6.86673 11.5127 6.86673H13.796C15.0146 6.86673 16.043 7.99461 16.043 9.28846V12.9141ZM10.7236 11.4582H14.5312V9.28846C14.5312 8.83934 14.1751 8.37856 13.796 8.37856H11.5127C11.1379 8.37856 10.7236 8.83934 10.7236 9.28846V11.4582ZM18.3947 17.5055H19.7946V24.8407H18.3947V17.5055ZM23.7141 17.5055H25.2819V23.5529H23.7141V17.5055ZM25.2819 17.5055H23.7141V14.6162C23.7141 14.1671 23.3084 13.698 22.9293 13.698H20.646C20.2712 13.698 19.7946 14.1671 19.7946 14.6162V17.5055H18.3947V14.6162C18.3947 13.3224 19.4319 12.1861 20.646 12.1861H22.9293C24.1479 12.1861 25.2819 13.3224 25.2819 14.6162V17.5055ZM23.3222 27.7524H24.834V42.9827H23.3222V27.7524ZM17.4113 49.2469C14.0578 49.2469 11.407 48.5171 10.1252 48.0819L10.6146 46.6407C12.6443 47.3297 15.1216 47.7247 17.4112 47.7247C20.4117 47.7247 22.7169 47.0881 23.824 46.7086L24.3175 48.1483C22.2515 48.8567 19.7987 49.2469 17.4113 49.2469ZM45.3821 49.142H27.5217V47.5742H45.3821C46.6862 47.5742 47.6794 46.6599 47.6794 45.4413V11.1912C47.6794 9.89739 46.6007 8.77058 45.3821 8.77058H35.8648V7.20275H45.3821C47.4472 7.20275 49.2473 9.04954 49.2473 11.1912V45.4414C49.2473 47.4935 47.5184 49.142 45.3821 49.142ZM19.7946 7.2027H28.1936V8.77052H19.7946V7.2027Z" fill="#6A6A6A"/>
<path d="M41.9571 44.4945H31.3016C30.4078 44.4945 29.7614 43.9686 29.7614 43.1578V41.6356C29.7614 40.8468 30.407 39.959 31.3016 39.959H43.4793C43.7636 39.959 44.2638 39.8382 44.2638 39.3523V13.094C44.2638 12.6449 43.8584 12.1862 43.4793 12.1862L35.8648 12.1861L35.8648 10.6744H43.4793C44.6979 10.6744 45.7757 11.8002 45.7757 13.094V39.3523C45.7757 40.3178 45.1597 41.0953 44.2638 41.3766V42.587C44.2638 43.7155 43.2825 44.4945 41.9571 44.4945ZM31.2733 42.9827H41.9571C42.2648 42.9827 42.696 42.899 42.696 42.587V41.5269H31.3682C31.3368 41.5269 31.2733 41.5971 31.2733 41.6356V42.9827Z" fill="#6A6A6A"/>
<path d="M27.8577 14.4259H41.1842V15.9937H27.8577V14.4259ZM29.4255 17.8415H41.1842V19.3533H29.4255V17.8415ZM29.4255 21.3131H41.1842V22.8249H29.4255V21.3131ZM29.4255 24.8407H41.1842V26.2406H29.4255V24.8407ZM41.1842 36.1515H29.4255V28.1444H41.1842V36.1515ZM30.9373 34.5836H39.6723V29.6562H30.9373V34.5836Z" fill="#6A6A6A"/>
</g>
</g>
</svg>
