<svg width="56" height="56" viewBox="0 0 56 56" fill="none" xmlns="http://www.w3.org/2000/svg">
<g id="document_request_icon">
<g id="Vector">
<path d="M38.6644 25.2319H41.744V26.7997H38.6644V25.2319ZM38.6644 28.7035H41.744V30.2713H38.6644V28.7035ZM38.6644 32.1191H41.744V33.6309H38.6644V32.1191ZM46.3355 39.0623H49.3592V40.5741H46.3355V39.0623ZM46.3355 35.5907H49.3592V37.1585H46.3355V35.5907ZM24.106 14.5371H25.6738V12.6333H28.3055V21.8162H26.7937V23.3281H31.3852V21.8162H29.8734V12.6333H32.6171V14.5371H34.1289V11.0654H24.106V14.5371Z" fill="#6A6A6A"/>
<path d="M49.1934 18.7366H39.4483V9.70664C39.4483 7.59831 37.9093 5.74609 35.801 5.74609H7.48557C5.37724 5.74609 3.44434 7.59831 3.44434 9.70664V46.4401C3.44434 48.5484 5.37724 50.0931 7.48557 50.0931H42.6885C44.9614 50.0931 46.8516 48.5812 47.2151 46.3415H49.1934C51.0913 46.3415 52.4389 44.8942 52.4389 42.9963V22.3337C52.4389 20.4359 51.0913 18.7366 49.1934 18.7366ZM5.01216 9.70664C5.01216 8.44012 6.21905 7.31392 7.48557 7.31392H11.1715V11.2372C11.1715 12.5038 10.2827 13.3612 9.01616 13.3612H5.01216V9.70664ZM7.48557 48.5812C6.21905 48.5812 5.01216 47.7066 5.01216 46.4401V14.929H9.01616C11.1245 14.929 12.6273 13.3455 12.6273 11.2372V7.31386H35.801C37.0675 7.31386 37.9365 8.44006 37.9365 9.70659V45.6748C37.9365 46.8495 38.5406 47.8533 39.2677 48.5812H7.48557ZM45.5516 22.3337V45.6748C45.5516 47.3622 44.1874 48.7359 42.5 48.7359C40.8125 48.7359 39.4483 47.3622 39.4483 45.6748V20.2484H46.3312C45.9639 21.0883 45.5516 21.6259 45.5516 22.3337ZM50.871 42.9963C50.871 44.0524 50.2495 44.7737 49.1934 44.7737H47.1194V22.3337C47.1194 21.2776 47.9391 20.4205 48.9952 20.4205C50.0513 20.4205 50.871 21.2776 50.871 22.3337V42.9963Z" fill="#6A6A6A"/>
<path d="M15.707 11.5134H22.5942V12.9692H15.707V11.5134ZM15.707 14.929H22.5942V16.4408H15.707V14.929ZM8.76374 18.4006H22.5942V19.8565H8.76374V18.4006ZM8.76374 21.8162H22.5942V23.3281H8.76374V21.8162ZM8.76374 25.2319H34.1289V26.7997H8.76374V25.2319ZM10.3316 40.9101H8.76374V43.3789C8.76374 44.223 9.70281 44.7737 10.5467 44.7737H12.6273V43.2618H10.3316V40.9101ZM32.6171 43.2618H30.2093V44.7737H32.7399C33.584 44.7737 34.1289 44.223 34.1289 43.3789L34.1289 40.9101H32.6171V43.2618ZM32.7399 30.5513H30.2093V32.1191H32.6171V34.4708H34.1289L34.1289 32.2824C34.1289 31.4383 33.584 30.5513 32.7399 30.5513ZM8.76374 32.2824V34.4709H10.3316V32.1191H12.6273V30.5513L10.5467 30.5513C9.70275 30.5512 8.76374 31.4382 8.76374 32.2824ZM21.6433 34.3869C19.7454 34.3869 18.1995 35.9328 18.1995 37.8307C18.1995 39.7286 19.7454 41.2745 21.6433 41.2745C23.5412 41.2745 25.0871 39.7286 25.0871 37.8307C25.087 35.9328 23.5412 34.3869 21.6433 34.3869ZM21.6433 39.7439C20.5872 39.7439 19.7301 38.8868 19.7301 37.8307C19.7301 36.7746 20.5872 35.9175 21.6433 35.9175C22.6994 35.9175 23.5565 36.7746 23.5565 37.8307C23.5565 38.8868 22.6993 39.7439 21.6433 39.7439ZM9.60365 10.8546V8.82575H7.86823C7.23522 8.82575 6.52399 9.45629 6.52399 10.0893V11.8494H8.6335C9.26651 11.8494 9.60365 11.4875 9.60365 10.8546Z" fill="#6A6A6A"/>
</g>
</g>
</svg>
