<svg width="56" height="56" viewBox="0 0 56 56" fill="none" xmlns="http://www.w3.org/2000/svg">
<g id="expressdelivery_request_icon">
<g id="Vector">
<path d="M52.1128 14.6032C51.95 14.4134 51.7472 14.261 51.5185 14.1568C51.2898 14.0526 51.0408 13.9992 50.7889 14.0001H22.0167C21.6191 13.9951 21.2323 14.1286 20.9243 14.3771C20.6162 14.6255 20.4065 14.9732 20.3318 15.3592L15.535 42.2341C15.4942 42.4663 15.5055 42.7045 15.5678 42.9319C15.6302 43.1594 15.7422 43.3705 15.896 43.5506C16.0588 43.7405 16.2617 43.8929 16.4904 43.997C16.7191 44.1012 16.9681 44.1547 17.2199 44.1537H45.9921C46.3898 44.1587 46.7765 44.0253 47.0846 43.7768C47.3926 43.5283 47.6024 43.1806 47.677 42.7947L52.4738 15.9198C52.5168 15.6876 52.5067 15.4489 52.4443 15.2211C52.3818 14.9933 52.2685 14.7822 52.1128 14.6032ZM34.6964 15.6989H38.0233L36.0461 24.9573C34.9027 23.7682 34.8942 23.7682 34.5159 23.7682C34.2752 23.7682 34.2666 23.7682 32.4872 24.813C32.7966 23.4879 33.1233 22.1798 33.45 20.8972C33.8712 19.2069 34.3096 17.4572 34.6964 15.6989ZM46.0007 42.4549H45.9921L17.2285 42.5314L22.0167 15.6989L32.9342 15.6734C32.5731 17.2958 32.1691 18.9181 31.7822 20.4895C31.3008 22.4007 30.8108 24.3713 30.381 26.3673C30.3555 26.4908 30.3581 26.6183 30.3887 26.7406C30.4192 26.8629 30.4768 26.9769 30.5575 27.0745C30.6381 27.1721 30.7397 27.2507 30.8549 27.3047C30.9701 27.3587 31.096 27.3867 31.2235 27.3866C31.4728 27.3866 31.4728 27.3866 33.2952 26.3164C33.6821 26.087 34.0689 25.8577 34.3698 25.6878C34.5331 25.8492 34.7222 26.0446 34.9113 26.2484C36.1578 27.5565 36.1578 27.5565 36.5447 27.5565C36.7416 27.557 36.9328 27.4905 37.0862 27.3684C37.2395 27.2462 37.3457 27.0758 37.3871 26.8855L39.7941 15.648L50.7803 15.6225L46.0007 42.4549Z" fill="#6A6A6A"/>
<path d="M11.1353 21.5564H17.0669C17.2949 21.5564 17.5135 21.4669 17.6747 21.3076C17.836 21.1483 17.9265 20.9322 17.9265 20.707C17.9265 20.4817 17.836 20.2656 17.6747 20.1064C17.5135 19.9471 17.2949 19.8576 17.0669 19.8576H11.1353C10.9074 19.8576 10.6887 19.9471 10.5275 20.1064C10.3663 20.2656 10.2757 20.4817 10.2757 20.707C10.2757 20.9322 10.3663 21.1483 10.5275 21.3076C10.6887 21.4669 10.9074 21.5564 11.1353 21.5564Z" fill="#6A6A6A"/>
<path d="M14.5241 28.2275H7.74749C7.5195 28.2275 7.30085 28.317 7.13964 28.4763C6.97842 28.6356 6.88785 28.8516 6.88785 29.0769C6.88785 29.3022 6.97842 29.5182 7.13964 29.6775C7.30085 29.8368 7.5195 29.9263 7.74749 29.9263H14.5241C14.752 29.9263 14.9707 29.8368 15.1319 29.6775C15.2931 29.5182 15.3837 29.3022 15.3837 29.0769C15.3837 28.8516 15.2931 28.6356 15.1319 28.4763C14.9707 28.317 14.752 28.2275 14.5241 28.2275Z" fill="#6A6A6A"/>
<path d="M12.8297 36.5975H4.35964C4.13165 36.5975 3.913 36.687 3.75178 36.8463C3.59057 37.0056 3.5 37.2216 3.5 37.4469C3.5 37.6721 3.59057 37.8882 3.75178 38.0475C3.913 38.2068 4.13165 38.2963 4.35964 38.2963H12.8297C13.0577 38.2963 13.2763 38.2068 13.4376 38.0475C13.5988 37.8882 13.6893 37.6721 13.6893 37.4469C13.6893 37.2216 13.5988 37.0056 13.4376 36.8463C13.2763 36.687 13.0577 36.5975 12.8297 36.5975Z" fill="#6A6A6A"/>
<path d="M44.8488 36.0844C44.7679 35.9832 44.6646 35.9015 44.547 35.8456C44.4293 35.7897 44.3003 35.761 44.1697 35.7617H37.3957C37.2037 35.7618 37.0173 35.8255 36.8662 35.9425C36.7151 36.0594 36.6079 36.2231 36.5619 36.4072L35.7108 39.7538C35.6795 39.8789 35.6774 40.0094 35.7047 40.1354C35.732 40.2614 35.7879 40.3796 35.8682 40.481C35.9486 40.5825 36.0512 40.6646 36.1684 40.7211C36.2856 40.7776 36.4143 40.807 36.5447 40.8071H43.3186C43.5106 40.8069 43.697 40.7433 43.8482 40.6263C43.9993 40.5093 44.1064 40.3457 44.1525 40.1615L45.0036 36.8149C45.0344 36.6895 45.0365 36.5588 45.0097 36.4324C44.9829 36.306 44.928 36.1872 44.8488 36.0844ZM42.6481 39.1083H37.645L38.0662 37.4605H43.0694L42.6481 39.1083Z" fill="#6A6A6A"/>
<path d="M52.1128 14.6032C51.95 14.4134 51.7472 14.261 51.5185 14.1568C51.2898 14.0526 51.0408 13.9992 50.7889 14.0001H22.0167C21.6191 13.9951 21.2323 14.1286 20.9243 14.3771C20.6162 14.6255 20.4065 14.9732 20.3318 15.3592L15.535 42.2341C15.4942 42.4663 15.5055 42.7045 15.5678 42.9319C15.6302 43.1594 15.7422 43.3705 15.896 43.5506C16.0588 43.7405 16.2617 43.8929 16.4904 43.997C16.7191 44.1012 16.9681 44.1547 17.2199 44.1537H45.9921C46.3898 44.1587 46.7765 44.0253 47.0846 43.7768C47.3926 43.5283 47.6024 43.1806 47.677 42.7947L52.4738 15.9198C52.5168 15.6876 52.5067 15.4489 52.4443 15.2211C52.3818 14.9933 52.2685 14.7822 52.1128 14.6032ZM34.6964 15.6989H38.0233L36.0461 24.9573C34.9027 23.7682 34.8942 23.7682 34.5159 23.7682C34.2752 23.7682 34.2666 23.7682 32.4872 24.813C32.7966 23.4879 33.1233 22.1798 33.45 20.8972C33.8712 19.2069 34.3096 17.4572 34.6964 15.6989ZM46.0007 42.4549H45.9921L17.2285 42.5314L22.0167 15.6989L32.9342 15.6734C32.5731 17.2958 32.1691 18.9181 31.7822 20.4895C31.3008 22.4007 30.8108 24.3713 30.381 26.3673C30.3555 26.4908 30.3581 26.6183 30.3887 26.7406C30.4192 26.8629 30.4768 26.9769 30.5575 27.0745C30.6381 27.1721 30.7397 27.2507 30.8549 27.3047C30.9701 27.3587 31.096 27.3867 31.2235 27.3866C31.4728 27.3866 31.4728 27.3866 33.2952 26.3164C33.6821 26.087 34.0689 25.8577 34.3698 25.6878C34.5331 25.8492 34.7222 26.0446 34.9113 26.2484C36.1578 27.5565 36.1578 27.5565 36.5447 27.5565C36.7416 27.557 36.9328 27.4905 37.0862 27.3684C37.2395 27.2462 37.3457 27.0758 37.3871 26.8855L39.7941 15.648L50.7803 15.6225L46.0007 42.4549Z" fill="#6A6A6A"/>
</g>
</g>
</svg>
