<svg width="56" height="56" viewBox="0 0 56 56" fill="none" xmlns="http://www.w3.org/2000/svg">
<rect width="56" height="56" fill="white"/>
<path d="M34.0574 32.017C31.7235 32.017 29.8246 30.1855 29.8246 27.9345C29.8246 26.7173 30.3792 25.6249 31.2571 24.8764L23.7437 21.8996C23.1773 22.7539 22.1857 23.3209 21.057 23.3209C19.3012 23.3209 17.8726 21.9431 17.8726 20.2496C17.8726 18.5561 19.3012 17.1783 21.057 17.1783C21.7037 17.1783 22.3072 17.3654 22.8109 17.6867L28.8329 9.80528C26.9849 9.28553 25.6308 7.63739 25.6308 5.69067C25.6308 3.32813 27.6238 1.40594 30.0734 1.40594C32.5229 1.40594 34.5159 3.32813 34.5159 5.69067C34.5159 7.19327 33.7104 8.51819 32.4915 9.28364L41.9781 14.6776C42.4072 13.8441 43.3008 13.2695 44.3296 13.2695C45.7778 13.2695 46.9536 14.4054 46.9536 15.8022C46.9536 17.1989 45.7758 18.3348 44.3296 18.3348C43.5301 18.3348 42.8129 17.989 42.3308 17.4427L35.4289 24.0729C37.0906 24.6248 38.288 26.1463 38.288 27.9343C38.288 30.1872 36.3914 32.017 34.0574 32.017ZM33.5636 25.5948C32.4329 25.816 31.5805 26.7818 31.5805 27.9366C31.5805 29.254 32.6916 30.3256 34.0575 30.3256C35.4234 30.3256 36.5344 29.254 36.5344 27.9366C36.5344 26.6192 35.4234 25.5476 34.0575 25.5476C33.936 25.5476 33.8164 25.557 33.6969 25.5721C33.6538 25.5835 33.6087 25.5911 33.5636 25.5948ZM24.2416 20.2667L32.2528 23.4401L29.9522 11.1929L23.9753 19.0216C24.1477 19.3977 24.2418 19.8154 24.2418 20.2539L24.2416 20.2667ZM31.6608 10.7789L33.9712 23.0851L41.1591 16.1791L31.6608 10.7789ZM21.0571 18.8737C20.2693 18.8737 19.6285 19.4917 19.6285 20.2515C19.6285 21.0113 20.2692 21.6294 21.0571 21.6294C21.8448 21.6294 22.4856 21.0114 22.4856 20.2515C22.4856 19.4918 21.8449 18.8737 21.0571 18.8737ZM44.3299 14.9651C43.8517 14.9651 43.4618 15.3412 43.4618 15.8043C43.4618 16.2674 43.8517 16.6435 44.3299 16.6435C44.8081 16.6435 45.198 16.2674 45.198 15.8043C45.2 15.3393 44.81 14.9651 44.3299 14.9651ZM30.0735 3.10111C28.592 3.10111 27.3868 4.26346 27.3868 5.69237C27.3868 7.12127 28.592 8.28362 30.0735 8.28362C30.1617 8.28362 30.2479 8.27984 30.3341 8.27228C30.3518 8.27039 30.3714 8.2685 30.389 8.26661C31.7215 8.11541 32.7602 7.0192 32.7602 5.69428C32.7602 4.26353 31.555 3.10111 30.0735 3.10111Z" fill="#848484"/>
<path fill-rule="evenodd" clip-rule="evenodd" d="M10.148 25.4972C9.52443 20.3241 10.5345 16.3168 12.9634 13.4586C15.4292 10.557 19.2482 8.96904 23.9167 8.44672L24.0835 9.93742C19.6353 10.4351 16.2376 11.9221 14.1065 14.4299C11.9853 16.926 11.01 20.5627 11.673 25.6017L11.7124 25.9008L11.5336 26.1439C10.7726 27.1787 9.92825 28.3857 9.21618 29.57C8.64457 30.5207 8.17996 31.4216 7.9037 32.1879C8.02731 32.2177 8.1683 32.2422 8.32105 32.2613C8.76057 32.3162 9.20916 32.3169 9.45588 32.3169H10.2338L10.2054 33.0943C10.1935 33.4193 10.1817 33.6909 10.1713 33.9312C10.1319 34.8398 10.1118 35.3025 10.179 36.5194L11.1881 37.0241V38.4698C11.1881 39.6896 11.5632 41.3354 11.9928 42.7131C13.033 42.838 14.3375 42.738 15.6663 42.5823C16.039 42.5386 16.4069 42.4915 16.7666 42.4454L16.7888 42.4426C17.1393 42.3976 17.4829 42.3536 17.8082 42.3157C18.4622 42.2395 19.0873 42.1824 19.5888 42.1991L20.1404 42.2175L20.2869 42.7496C21.042 45.4922 20.999 47.7997 20.612 50.4905L37.3208 50.4902C35.7141 46.4004 34.8841 42.6763 34.7991 37.5612L34.7939 37.2512L35.0093 37.028C35.0576 36.978 35.1058 36.928 35.154 36.8781C36.8033 35.1695 38.3806 33.5355 39.5733 31.4715C40.7877 29.37 41.6138 26.7984 41.6138 23.2437H43.1138C43.1138 27.0566 42.2209 29.8878 40.872 32.222C39.5937 34.4343 37.9153 36.1779 36.305 37.8455C36.4237 43.0172 37.344 46.6801 39.1262 50.9513L39.5597 51.9901L18.8549 51.9905L18.9973 51.1194C19.4499 48.3523 19.5778 46.2039 18.9851 43.7105C18.6963 43.7282 18.3606 43.7615 17.9817 43.8056C17.6652 43.8425 17.3291 43.8856 16.9753 43.9309L16.9574 43.9332C16.5986 43.9792 16.2229 44.0273 15.841 44.0721C14.3399 44.248 12.6325 44.3886 11.2733 44.1169L10.8465 44.0316L10.7089 43.6186C10.2106 42.1242 9.68811 40.0669 9.68811 38.4698V37.951L8.73423 37.4739L8.70734 37.043C8.60553 35.4122 8.62821 34.8899 8.67295 33.8593C8.67383 33.8391 8.67471 33.8186 8.67561 33.7979C8.50383 33.788 8.31991 33.7728 8.13493 33.7497C7.86356 33.7158 7.56787 33.6622 7.29242 33.5736C7.02863 33.4888 6.71436 33.3505 6.46976 33.1059L6.16944 32.8056L6.27248 32.3936C6.54615 31.2994 7.19294 30.024 7.93065 28.7971C8.62029 27.6501 9.41985 26.4963 10.148 25.4972Z" fill="#848484"/>
</svg>
