<svg width="56" height="56" viewBox="0 0 56 56" fill="none" xmlns="http://www.w3.org/2000/svg">
<g id="general_request_icon">
<g id="Vector">
<path d="M15.1471 19.1283H24.274V21.424H15.1471V19.1283ZM49.9163 41.9211L48.9258 43.6589C47.6866 45.8368 45.652 45.8368 44.4128 43.6589L43.4223 41.9211C43.8851 40.597 45.1662 39.6491 46.6693 39.6491C48.1723 39.6491 49.4535 40.5971 49.9163 41.9211Z" fill="#6A6A6A"/>
<path d="M49.3465 9.94531H43.9921C42.3051 9.94531 40.7362 11.4793 40.7362 13.1664V16.1046H42.248V13.1664C42.248 12.3227 43.1484 11.4571 43.9921 11.4571H49.3465C50.1902 11.4571 50.6471 12.3227 50.6471 13.1664V16.1046H52.215V13.1664C52.2149 11.4794 51.0335 9.94531 49.3465 9.94531ZM12.4034 26.4075H26.9057V27.9193H12.4034V26.4075ZM12.4034 30.215H23.9381V31.7269H12.4034V30.215ZM12.4034 34.0786H20.8584V35.5904H12.4034V34.0786Z" fill="#6A6A6A"/>
<path d="M32.7271 13.1013C32.3777 11.3502 30.9287 9.94537 29.0765 9.94537H10.7188C8.61007 9.94537 6.692 11.8226 6.692 13.9313V16.4406H5.74688C4.48148 16.4406 3.45215 17.471 3.45215 18.7364C3.45215 20.0018 4.48148 21.0321 5.74688 21.0321H6.692V22.6H5.74688C4.48148 22.6 3.45215 23.6303 3.45215 24.8957C3.45215 26.1611 4.48148 27.1914 5.74688 27.1914H6.692V28.6473H5.74688C4.48148 28.6473 3.45215 29.7056 3.45215 30.971C3.45215 32.2364 4.48148 33.2948 5.74688 33.2948H6.692V34.8626H5.74688C4.48148 34.8626 3.45215 35.8649 3.45215 37.1303C3.45215 38.3957 4.48148 39.3981 5.74688 39.3981H6.692V42.2328C6.692 44.3415 8.61007 45.8933 10.7188 45.8933H32.5185C34.6273 45.8933 36.1447 44.3415 36.1447 42.2328V16.9909C36.1447 14.9861 34.6921 13.259 32.7271 13.1013ZM32.6731 24.1117H34.6889V26.4075H32.6731V24.1117ZM32.6731 31.7269H34.6889V34.0786H32.6731V31.7269ZM5.74688 19.5202C5.32519 19.5202 4.98195 19.214 4.98195 18.7923C4.98195 18.3706 5.32519 18.0644 5.74688 18.0644H6.692V19.5202H5.74688ZM5.74688 25.6796C5.32519 25.6796 4.98195 25.3173 4.98195 24.8956C4.98195 24.4739 5.32519 24.1117 5.74688 24.1117H6.692V25.6796H5.74688ZM5.74688 31.7269C5.32519 31.7269 4.98195 31.3926 4.98195 30.971C4.98195 30.5493 5.32519 30.215 5.74688 30.215H6.692V31.7269H5.74688ZM5.74688 37.8302C5.32519 37.8302 4.98195 37.552 4.98195 37.1303C4.98195 36.7086 5.32519 36.4303 5.74688 36.4303H6.692V37.8302H5.74688ZM10.7188 44.3815C9.45339 44.3815 8.20383 43.4981 8.20383 42.2328V36.4303H9.3797V34.8625H8.20383V30.215H9.3797V28.6472H8.20383V24.1117H9.3797V22.5999H8.20383V18.0644H9.3797V16.4406H8.20383V13.9313C8.20383 12.6659 9.45339 11.4571 10.7188 11.4571H29.0765C30.3419 11.4571 31.2173 12.6659 31.2173 13.9313V42.2328C31.2173 43.4982 30.3419 44.3815 29.0765 44.3815H10.7188ZM34.6889 42.2328C34.6889 43.4982 33.7839 44.3815 32.5185 44.3815H32.1287C32.6112 43.9895 32.6731 43.0942 32.6731 42.2328V35.5904H34.6889V42.2328ZM34.6889 30.215H32.6731V27.9193H34.6889V30.215ZM32.6731 22.5999V14.7308C33.849 14.9137 34.6889 15.8561 34.6889 16.9909V22.6L32.6731 22.5999Z" fill="#6A6A6A"/>
<path d="M12.4034 24.1117H26.9057V16.4406H12.4034V24.1117ZM13.9712 18.0644H25.4499V22.5999H13.9712V18.0644ZM52.2149 15.2647H40.7362V38.3341H40.9479C40.9425 38.6701 40.7362 38.6074 40.7362 38.7089V39.0996L43.6486 44.036C44.3911 45.3387 45.4781 46.0562 46.6202 46.0562C47.7623 46.0562 48.7292 45.3387 49.4717 44.036L52.2149 39.0996V38.7089C52.2149 38.6074 52.3959 38.6701 52.3906 38.3341H52.2149V15.2647ZM50.6471 16.8325V18.4004H42.248V16.8325H50.6471ZM48.2629 43.2785C47.8106 44.0718 47.2298 44.5264 46.6692 44.5264C46.1086 44.5264 45.5279 44.0718 45.0755 43.2785L42.4623 38.694C42.4705 36.4265 44.3547 34.5838 46.6692 34.5838C48.9837 34.5838 50.868 36.4266 50.8762 38.694L48.2629 43.2785ZM49.1353 33.7112V22.2079H47.6794V33.1679C47.6794 33.0933 46.8864 33.0539 46.4935 33.0539C44.8306 33.0539 43.4239 33.7592 42.248 34.8772V19.9682H43.8718V30.551H45.3277V19.9682H50.6471V34.8771C50.3111 34.4092 49.9192 34.0122 49.1353 33.7112Z" fill="#6A6A6A"/>
</g>
</g>
</svg>
