<svg width="56" height="56" viewBox="0 0 56 56" fill="none" xmlns="http://www.w3.org/2000/svg">
<g id="global_request_icon">
<g id="Vector">
<path d="M26.1655 36.4156C21.9646 36.4156 18.0151 34.7796 15.0444 31.809C8.912 25.677 8.912 15.6988 15.0444 9.56678C18.0151 6.59609 21.9646 4.96018 26.1655 4.96018C30.3663 4.96018 34.3158 6.59609 37.2865 9.56678C43.4189 15.6988 43.4189 25.677 37.2865 31.809C34.3158 34.7796 30.3663 36.4156 26.1655 36.4156ZM26.1655 6.49463C22.3744 6.49463 18.81 7.97096 16.1293 10.6517C10.5955 16.1859 10.5955 25.19 16.1293 30.7241C18.81 33.4048 22.3744 34.8812 26.1655 34.8812C29.9565 34.8812 33.521 33.4049 36.2017 30.7241C41.7354 25.19 41.7354 16.1859 36.2017 10.6517C33.5209 7.97096 29.9565 6.49463 26.1655 6.49463Z" fill="#6A6A6A"/>
<path d="M38.1004 7.6677L39.1852 8.75252L14.2303 33.7074L13.1455 32.6225L38.1004 7.6677ZM46.8799 20.6879C46.8799 16.0191 45.3635 11.6114 42.4951 7.94173L41.2859 8.88651C43.9419 12.2839 45.3456 16.3649 45.3456 20.6879C45.3456 24.8372 44.0491 28.7615 41.5971 32.0745C41.2071 31.9016 40.7853 31.8124 40.3587 31.8124C39.5391 31.8124 38.7685 32.1315 38.189 32.7115C37.6091 33.291 37.2899 34.0616 37.2899 34.8812C37.2899 35.3152 37.3818 35.7343 37.5521 36.1196C34.2699 38.5417 30.2653 39.868 26.1655 39.868C21.8417 39.868 17.7603 38.464 14.3626 35.8076L13.3598 37.0161C16.8282 39.7279 20.9707 41.2297 25.2822 41.3868V44.7181H26.7381V41.3857C30.9376 41.2298 35.0601 39.8073 38.4084 37.3234C38.9393 37.728 39.6313 37.9499 40.3101 37.9499C41.1297 37.9499 41.9247 37.6307 42.5042 37.0508C43.0841 36.4713 43.4154 35.7007 43.4154 34.881C43.4154 34.2016 43.1993 33.5578 42.7939 33.0266C45.4624 29.4397 46.8799 25.1862 46.8799 20.6879ZM41.4436 35.966C40.8636 36.5459 39.8537 36.5459 39.2738 35.966C38.9839 35.6761 38.8243 35.291 38.8243 34.8812C38.8243 34.4713 38.9839 34.0862 39.2738 33.7963C39.5638 33.5063 39.9489 33.3468 40.3587 33.3468C40.7685 33.3468 41.1536 33.5063 41.4436 33.7963C41.7335 34.0862 41.8931 34.4713 41.8931 34.8812C41.8931 35.291 41.7335 35.6761 41.4436 35.966Z" fill="#6A6A6A"/>
<path d="M42.5285 4.32487C41.9489 3.745 41.1783 3.42578 40.3587 3.42578C39.5391 3.42578 38.7685 3.74495 38.1889 4.32487C37.609 4.90441 37.2898 5.67499 37.2898 6.49463C37.2898 7.31427 37.609 8.08485 38.1889 8.66439C38.7685 9.24426 39.5391 9.56348 40.3587 9.56348C41.1783 9.56348 41.9489 9.24431 42.5285 8.66439C43.1083 8.08485 43.4275 7.31427 43.4275 6.49463C43.4275 5.67499 43.1084 4.90441 42.5285 4.32487ZM41.4436 7.57945C40.8636 8.15932 39.8537 8.15932 39.2738 7.57945C38.9839 7.28952 38.8243 6.90439 38.8243 6.49457C38.8243 6.08476 38.9839 5.69963 39.2738 5.4097C39.5637 5.11976 39.9489 4.96018 40.3587 4.96018C40.7685 4.96018 41.1536 5.11976 41.4436 5.4097C41.7335 5.69963 41.8931 6.08476 41.8931 6.49457C41.8931 6.90445 41.7335 7.28952 41.4436 7.57945ZM11.9722 31.8123C11.1525 31.8123 10.3819 32.1315 9.80241 32.7114C9.22254 33.2909 8.90332 34.0615 8.90332 34.8812C8.90332 35.7008 9.22249 36.4714 9.80241 37.0509C10.3819 37.6308 11.1525 37.95 11.9722 37.95C12.7918 37.95 13.5624 37.6308 14.1419 37.0509C14.7218 36.4714 15.041 35.7008 15.041 34.8812C15.041 34.0615 14.7219 33.2909 14.1419 32.7114C13.5624 32.1315 12.7918 31.8123 11.9722 31.8123ZM13.057 35.966C12.4772 36.5459 11.4672 36.5459 10.8873 35.966C10.5974 35.6761 10.4378 35.291 10.4378 34.8812C10.4378 34.4713 10.5974 34.0862 10.8873 33.7963C11.1772 33.5063 11.5624 33.3468 11.9722 33.3468C12.382 33.3468 12.7671 33.5063 13.057 33.7963C13.347 34.0862 13.5066 34.4713 13.5066 34.8812C13.5066 35.291 13.347 35.6761 13.057 35.966ZM31.1523 47.0698H29.2343C29.2343 45.446 27.8575 44.001 26.1655 44.001C24.4733 44.001 23.0967 45.446 23.0967 47.0698H21.1787C19.4865 47.0698 18.003 48.5331 18.003 50.2252V52.3892H34.0172V50.2252C34.0172 48.5331 32.8444 47.0698 31.1523 47.0698ZM26.1655 45.5354C27.0117 45.5354 27.6999 46.2299 27.6999 47.0698H24.6311C24.631 46.2299 25.3192 45.5354 26.1655 45.5354ZM32.5613 50.8774H19.4588V50.2252C19.4588 49.3789 20.3324 48.5257 21.1786 48.5257H31.1523C31.9985 48.5257 32.5613 49.3789 32.5613 50.2252V50.8774ZM22.3665 8.75762C20.1495 8.75762 18.0023 9.21089 15.9842 10.1051L15.7141 10.2246L15.5938 10.4943C12.9648 16.4001 14.27 23.443 18.8417 28.0148C21.8113 30.9847 25.7589 32.6234 29.9575 32.6234H29.9579C32.182 32.6234 34.3356 32.1636 36.3589 31.2626L36.6286 31.1408L36.7481 30.8699C39.364 24.9649 38.0544 17.93 33.489 13.3646C30.5184 10.394 26.5685 8.75762 22.3665 8.75762ZM29.9576 31.0826C26.1692 31.0826 22.6067 29.6066 19.9267 26.9267C16.0728 23.0728 14.7976 17.2773 16.5791 12.1864L34.671 30.2784C33.1605 30.8106 31.5803 31.0826 29.9576 31.0826ZM35.7551 29.1926L17.6562 11.0938C19.1659 10.563 20.7452 10.2921 22.3665 10.2921C26.1587 10.2921 29.7235 11.7684 32.4042 14.4492C36.256 18.301 37.533 24.0989 35.7551 29.1926Z" fill="#6A6A6A"/>
<path d="M29.556 14.0423L26.1655 17.4329L20.198 11.4655L20.2414 11.4221C23.5289 11.1942 26.8463 12.1083 29.556 14.0423ZM19.6555 23.9428L22.9105 20.6879L16.943 14.7204L17.0352 14.6282C16.8074 17.9157 17.6022 21.1138 19.6555 23.9428Z" fill="#6A6A6A"/>
<path d="M9.67055 6.49463C9.67055 7.10506 9.91304 7.69048 10.3447 8.12212C10.7763 8.55376 11.3617 8.79625 11.9722 8.79625C12.5826 8.79625 13.168 8.55376 13.5997 8.12212C14.0313 7.69048 14.2738 7.10506 14.2738 6.49463C14.2738 5.8842 14.0313 5.29877 13.5997 4.86714C13.168 4.4355 12.5826 4.19301 11.9722 4.19301C11.3617 4.19301 10.7763 4.4355 10.3447 4.86714C9.91304 5.29877 9.67055 5.8842 9.67055 6.49463Z" fill="#6A6A6A"/>
</g>
</g>
</svg>
