<svg width="32" height="32" viewBox="0 0 32 32" fill="none" xmlns="http://www.w3.org/2000/svg">
<path d="M26.5431 12.7205C26.3232 12.7205 26.1457 12.8949 26.1457 13.1108V13.9785H21.4843V9.40092H26.1457V9.6884C26.1457 9.90433 26.3232 10.0786 26.5431 10.0786C26.7629 10.0786 26.9404 9.90434 26.9404 9.6884V9.01066C26.9404 8.79472 26.7629 8.62041 26.5431 8.62041H21.0869C20.8683 8.62041 20.6895 8.79472 20.6895 9.01066V14.3688C20.6895 14.5834 20.8683 14.759 21.0869 14.759H26.5431C26.7629 14.759 26.9404 14.5834 26.9404 14.3688V13.1109C26.9404 12.895 26.7629 12.7206 26.5431 12.7206V12.7205Z" fill="#848484"/>
<path d="M27.3492 10.1504L24.3422 12.3735L23.7779 11.3511C23.6733 11.1612 23.4322 11.0909 23.2388 11.1937C23.0468 11.2965 22.9752 11.5332 23.0785 11.7231L23.8627 13.1436C23.9184 13.2437 24.0151 13.314 24.1277 13.3387C24.2416 13.3634 24.3595 13.3374 24.4522 13.2698L27.8273 10.7735C27.9121 10.7124 27.9677 10.6187 27.9836 10.5159C27.9982 10.4132 27.9717 10.3091 27.9081 10.2259C27.8446 10.1426 27.7492 10.088 27.6445 10.0737C27.5399 10.0607 27.4339 10.088 27.3491 10.1504L27.3492 10.1504Z" fill="#848484"/>
<path d="M11.9561 4.04171V2.99847C11.9561 1.34251 10.5891 9.15527e-05 8.90288 9.15527e-05C7.21661 9.15527e-05 5.84961 1.34251 5.84961 2.99847V4.04171C5.84961 5.69766 7.21661 7.04009 8.90288 7.04009C10.5891 7.04009 11.9561 5.69766 11.9561 4.04171V4.04171ZM6.6444 4.04171V2.99847C6.6444 1.77309 7.65511 0.780563 8.90291 0.780563C10.1494 0.780563 11.1614 1.77309 11.1614 2.99847V4.04171C11.1614 5.26708 10.1494 6.25962 8.90291 6.25962C7.65511 6.25962 6.6444 5.26708 6.6444 4.04171V4.04171Z" fill="#848484"/>
<path d="M13.1494 7.52529C13.0752 7.51748 12.2566 7.51228 10.7187 7.50968H10.7174V7.50838C10.5743 7.50968 10.4432 7.58382 10.373 7.7048L9.0033 10.0502L7.70649 7.71262H7.70517C7.63629 7.58644 7.50118 7.5084 7.35681 7.5084H5.15659C3.41339 7.5084 2 8.89638 2 10.6095C2 10.7006 2.01325 17.0133 2.01457 17.2814L2.01325 17.2801C2.01457 18.2895 2.84775 19.1077 3.87568 19.109H3.89687C4.28895 19.1038 4.66912 18.975 4.98041 18.7422L5.346 30.8903C5.346 30.8994 5.34733 30.9085 5.34733 30.9163V30.9176C5.40694 31.5329 5.93415 32.0025 6.56332 31.9999H11.4644C12.0949 32.0025 12.6221 31.5316 12.6804 30.915C12.6817 30.9059 12.6817 30.8968 12.6817 30.889L13.0222 18.7655V18.7642C13.5904 19.1662 14.3388 19.2208 14.9614 18.9073C15.5827 18.5951 15.9748 17.9655 15.9735 17.2787V10.9009C16.1377 9.20464 14.8753 7.69701 13.1494 7.52521L13.1494 7.52529ZM15.1814 10.8436V10.8423C15.1801 10.8554 15.1787 10.8684 15.1787 10.8814V17.2788C15.1801 17.8512 14.7125 18.3194 14.1296 18.3285C13.5454 18.3389 13.062 17.8889 13.0421 17.3165L13.0408 17.2723C13.0368 17.0589 12.8606 16.8885 12.6434 16.8885H12.6407C12.4222 16.8898 12.246 17.0641 12.246 17.2788C12.246 17.2983 12.246 17.3165 12.2473 17.336L12.2553 17.7991L11.8883 30.8514C11.8619 31.0621 11.6804 31.2195 11.4645 31.2195H6.56338C6.34879 31.2195 6.16598 31.0621 6.1395 30.8514L5.74742 17.7951L5.73815 17.2332C5.7355 17.0198 5.558 16.8494 5.34075 16.8494H5.3381C5.11954 16.8507 4.94335 17.025 4.94335 17.2397C4.94335 17.8328 4.47047 18.322 3.89291 18.3285H3.87569C3.28622 18.3272 2.80937 17.8576 2.80805 17.2787C2.80805 17.2124 2.79348 10.6978 2.79348 10.6082L2.7948 10.6095C2.7948 9.32821 3.85186 8.28886 5.1566 8.28886H7.11971L8.64436 11.0362C8.71324 11.1611 8.84571 11.2378 8.98876 11.2404C9.13314 11.2417 9.26693 11.1663 9.33844 11.044L10.9465 8.29017C11.7877 8.29278 12.9441 8.29668 13.0765 8.30188C14.3707 8.43586 15.3112 9.57148 15.1814 10.8424L15.1814 10.8436Z" fill="#848484"/>
<path d="M26.5431 1.45824C26.7629 1.45824 26.9404 1.28393 26.9404 1.06799V0.390252C26.9404 0.174317 26.7629 0 26.5431 0H21.0869C20.8683 0 20.6895 0.17431 20.6895 0.390252V5.74836C20.6895 5.96299 20.8683 6.13861 21.0869 6.13861H26.5431C26.7629 6.13861 26.9404 5.963 26.9404 5.74836V4.49048C26.9404 4.27455 26.7629 4.10023 26.5431 4.10023C26.3232 4.10023 26.1457 4.27454 26.1457 4.49048V5.35814H21.4843V0.780605H26.1457V1.06808C26.1457 1.17215 26.1867 1.27101 26.2622 1.34385C26.3364 1.4167 26.4371 1.45833 26.543 1.45833L26.5431 1.45824Z" fill="#848484"/>
<path d="M27.3492 1.52979L24.3422 3.75288L23.7779 2.73045C23.6733 2.54053 23.4322 2.47028 23.2388 2.57305C23.0468 2.67581 22.9752 2.91255 23.0785 3.10246L23.8627 4.52294C23.9184 4.62181 24.0151 4.69335 24.1277 4.71807C24.2416 4.74148 24.3595 4.71677 24.4522 4.64782L27.8273 2.15286C28.0022 2.02278 28.0379 1.77822 27.9055 1.60652C27.7743 1.43352 27.5253 1.3997 27.3491 1.52978L27.3492 1.52979Z" fill="#848484"/>
<path d="M26.5431 17.2411H21.0869C20.8683 17.2411 20.6895 17.4168 20.6895 17.6314V22.9895C20.6895 23.2054 20.8683 23.3798 21.0869 23.3798H26.5431C26.7629 23.3798 26.9404 23.2054 26.9404 22.9895V17.6314C26.9404 17.4168 26.7629 17.2411 26.5431 17.2411ZM26.1457 22.5993H21.4843V18.0217H26.1457V22.5993Z" fill="#848484"/>
<path d="M26.5431 25.8614H21.0869C20.8683 25.8614 20.6895 26.037 20.6895 26.2516V31.6097C20.6895 31.8257 20.8683 32 21.0869 32H26.5431C26.7629 32 26.9404 31.8257 26.9404 31.6097V26.2516C26.9404 26.037 26.7629 25.8614 26.5431 25.8614ZM26.1457 31.2195H21.4843V26.642H26.1457V31.2195Z" fill="#848484"/>
</svg>
