<svg width="32" height="32" viewBox="0 0 32 32" fill="none" xmlns="http://www.w3.org/2000/svg">
<path d="M19.0033 21.1126C17.7971 21.1126 16.5508 21.1026 16.0508 21.1001L16.0608 20.1626C16.8608 20.1689 19.5833 20.1901 20.9734 20.1626C21.3172 20.1564 21.6359 19.9776 21.8234 19.6851L21.8459 19.6476C21.9459 19.4851 21.9997 19.3002 21.9997 19.1076C21.9997 18.9076 21.9434 18.7139 21.8347 18.5451L22.6221 18.0351C22.8284 18.3539 22.9371 18.7251 22.9371 19.1039C22.9371 19.4664 22.8371 19.8189 22.6459 20.1289L22.6234 20.1664C22.2671 20.7351 21.6584 21.0851 20.9884 21.0976C20.4609 21.1101 19.7384 21.1126 19.0034 21.1126L19.0033 21.1126Z" fill="#848484"/>
<path d="M12.7978 25.7811L12.204 25.0561L13.9165 23.6561C14.414 23.2499 15.0415 23.0374 15.6815 23.0561L20.0153 23.1911C21.3178 23.2311 22.609 22.7412 23.5529 21.8474L26.0466 19.4911C26.0591 19.4786 26.0716 19.4661 26.0816 19.4561L29.1379 15.8437L29.1441 15.8374C29.2666 15.7024 29.3316 15.5312 29.3316 15.3562C29.3316 15.1749 29.2629 15.0036 29.1416 14.8712C28.8291 14.5337 28.6441 14.4437 28.2916 14.4437C28.1854 14.4437 28.0791 14.4562 27.9766 14.4787C27.5116 14.5812 27.2016 14.8937 26.8116 15.2887C26.7741 15.3287 26.7341 15.3662 26.6929 15.4074L25.0629 17.1474C24.9604 17.2499 24.8504 17.3324 24.7354 17.3999L22.0754 18.9224L21.8354 18.5537C21.6416 18.2599 21.3204 18.0849 20.9729 18.0849H17.7355C17.2604 18.0849 16.7917 18.0199 16.3355 17.8874L16.298 17.8749L13.5629 16.825C12.313 16.3437 10.9479 16.4437 9.81287 17.0937C9.61537 17.2087 9.44413 17.325 9.30912 17.4437C9.29412 17.4587 9.27787 17.4712 9.26537 17.4837C9.26287 17.4862 9.25912 17.49 9.25287 17.4937L7.12788 19.6287L6.46289 18.9662L8.59038 16.8287C8.61538 16.8037 8.63413 16.7887 8.65038 16.7762C8.65288 16.7737 8.66038 16.77 8.66288 16.7662L8.68538 16.7437C8.86663 16.585 9.09162 16.4312 9.34538 16.2812C10.7266 15.4875 12.3854 15.3662 13.898 15.9462L16.613 16.99C16.978 17.0925 17.3568 17.1437 17.738 17.1437H20.9694C21.4844 17.1437 21.9694 17.3437 22.3319 17.6937L24.2756 16.5812C24.3156 16.5587 24.3531 16.5287 24.3944 16.4912L26.0256 14.7512C26.0656 14.7112 26.1069 14.67 26.1481 14.6287C26.5856 14.185 27.0381 13.7287 27.7731 13.5662C27.9419 13.5287 28.1169 13.5062 28.2956 13.5062C29.0106 13.5062 29.4269 13.7975 29.8331 14.2337C30.1181 14.54 30.2731 14.9362 30.2731 15.3562C30.2731 15.7624 30.1231 16.1562 29.8481 16.4625L26.7981 20.0688C26.7669 20.1039 26.7381 20.1338 26.7106 20.1588L26.7006 20.1688L24.2031 22.5289C23.0781 23.5913 21.5431 24.1763 19.9907 24.1289L15.6569 23.9938C15.2419 23.9813 14.8319 24.1188 14.5132 24.3813L12.7978 25.7811Z" fill="#848484"/>
<path d="M10.2448 30.4624H10.2048C9.90727 30.4524 9.62976 30.3274 9.42976 30.1099L2.0272 22.1723C1.8247 21.9573 1.7172 21.6723 1.7272 21.3748C1.7372 21.0773 1.8622 20.7998 2.07971 20.5998L4.77722 18.0848C4.99222 17.8823 5.27722 17.7748 5.57472 17.7848C5.87222 17.7948 6.14973 17.9198 6.34973 18.1373L7.13472 18.9773L12.841 25.096L13.7535 26.0735C13.956 26.2922 14.066 26.5772 14.0535 26.876C14.041 27.1735 13.916 27.4485 13.6972 27.6485L11.001 30.1623C10.7947 30.356 10.5285 30.4623 10.2447 30.4623L10.2448 30.4624ZM5.53597 18.7187C5.50847 18.7187 5.46097 18.725 5.41722 18.7662L2.71972 21.285C2.67222 21.3287 2.66722 21.3787 2.66347 21.4075C2.66347 21.435 2.66597 21.485 2.71097 21.5325L10.1135 29.4701C10.1573 29.5176 10.2073 29.5226 10.236 29.5263C10.2635 29.5263 10.3135 29.5238 10.361 29.4788L13.061 26.9601C13.1048 26.9226 13.1135 26.8751 13.1135 26.8451C13.1135 26.8176 13.111 26.7676 13.066 26.7201L12.1535 25.7426L6.44855 19.6162L5.66356 18.7762C5.61981 18.7287 5.56981 18.7199 5.54106 18.7199C5.54106 18.7224 5.53856 18.7187 5.53606 18.7187L5.53597 18.7187Z" fill="#848484"/>
<path d="M10.466 27.7526C10.041 27.7526 9.69727 27.4089 9.69727 26.9839C9.69727 26.5589 10.041 26.2151 10.466 26.2151C10.891 26.2151 11.2347 26.5589 11.2347 26.9839C11.236 27.4101 10.891 27.7526 10.466 27.7526ZM10.466 26.8151C10.3723 26.8151 10.2973 26.8901 10.2973 26.9839C10.2973 27.0776 10.3723 27.1526 10.466 27.1526C10.5597 27.1526 10.6348 27.0776 10.6348 26.9839C10.6348 26.8901 10.561 26.8151 10.466 26.8151Z" fill="#848484"/>
<path d="M20.9421 14.7002H18.1046C17.4946 14.7002 17.0021 14.2064 17.0021 13.5977V11.9752C17.0021 11.2602 16.6996 10.5652 16.1746 10.0777C15.1746 9.15267 14.5996 7.83392 14.5996 6.46518C14.5996 5.16518 15.1034 3.94019 16.0121 3.0127C16.9221 2.08771 18.1371 1.56521 19.4345 1.54019C20.762 1.51519 22.0158 2.0127 22.9619 2.94019C23.9144 3.8752 24.4469 5.12518 24.4494 6.46275C24.4556 7.84774 23.8931 9.13149 22.8681 10.0816C22.3431 10.5691 22.0431 11.2604 22.0431 11.9754V13.5979C22.0456 14.2066 21.5519 14.7004 20.9419 14.7004L20.9421 14.7002ZM19.5271 2.47776H19.4496C17.2908 2.51526 15.5347 4.30525 15.5347 6.46528C15.5347 7.57529 15.9997 8.64029 16.8097 9.39027C17.5285 10.0553 17.9372 11.0003 17.9372 11.9753V13.5978C17.9372 13.6878 18.0122 13.7628 18.1022 13.7628H20.9397C21.0297 13.7628 21.1047 13.6878 21.1047 13.5978V11.9753C21.1047 11.0003 21.5147 10.0603 22.2297 9.39401C23.061 8.6215 23.5172 7.58403 23.511 6.46902C23.5085 5.38403 23.0797 4.36902 22.3047 3.61277C21.5585 2.87776 20.5747 2.47776 19.5272 2.47776H19.5271Z" fill="#848484"/>
<path d="M17.6035 6.46496H16.666C16.666 4.88995 17.9473 3.6087 19.5223 3.6087V4.54621C18.4635 4.54746 17.6035 5.40621 17.6035 6.46496V6.46496Z" fill="#848484"/>
<path d="M20.0391 15.5437H19.0141C18.5991 15.5437 18.2578 15.2037 18.2578 14.7874V13.7624H20.7953V14.7874C20.7953 15.2024 20.4541 15.5437 20.0391 15.5437Z" fill="#848484"/>
<path d="M17.4707 11.5062H21.5769V12.4437H17.4707V11.5062Z" fill="#848484"/>
</svg>
