<svg width="56" height="56" viewBox="0 0 56 56" fill="none" xmlns="http://www.w3.org/2000/svg">
<rect width="56" height="56" fill="white"/>
<path fill-rule="evenodd" clip-rule="evenodd" d="M16.7479 17.6426C16.2922 17.6426 15.9227 18.0115 15.9227 18.4677V21.6598H12.7302C12.2746 21.6598 11.905 22.0287 11.905 22.485V27.7296C11.905 28.1853 12.2745 28.5548 12.7302 28.5548H15.9227V31.7468C15.9227 32.2026 16.2921 32.572 16.7479 32.572H21.9925C22.4481 32.572 22.8176 32.2031 22.8176 31.7468V28.5548H26.0097C26.4653 28.5548 26.8349 28.1858 26.8349 27.7296V22.485C26.8349 22.0287 26.4653 21.6598 26.0097 21.6598H22.8176V18.4677C22.8176 18.012 22.4482 17.6426 21.9925 17.6426H16.7479ZM17.573 22.4846V19.2925H21.1677V22.4846C21.1677 22.9403 21.5371 23.3097 21.9929 23.3097H25.185V26.9044H21.9929C21.5372 26.9044 21.1677 27.2733 21.1677 27.7296V30.9217H17.573V27.7296C17.573 27.2739 17.2036 26.9044 16.7478 26.9044H13.5553V23.3097H16.7478C17.2034 23.3097 17.573 22.9408 17.573 22.4846Z" fill="#848484"/>
<path d="M5.57516 45.2067H22.2501L22.2505 50.4248C22.2505 50.7425 22.508 51 22.8257 51H50.4256C50.7433 51 51.0008 50.7429 51.0008 50.4248L51.0004 11.368C51.0004 11.0504 50.7429 10.7929 50.4252 10.7929H33.7503V5.57516C33.7503 5.2575 33.4928 5 33.1751 5H5.57516C5.2575 5 5 5.2571 5 5.57516V44.632C5.0004 44.9496 5.2575 45.2067 5.57516 45.2067V45.2067ZM33.4544 45.1345C33.4772 45.1217 33.4913 45.1008 33.5117 45.0856C33.5438 45.0615 33.5751 45.0391 33.6016 45.009C33.6265 44.9809 33.6441 44.9504 33.6626 44.9187C33.6814 44.8871 33.6995 44.857 33.7119 44.8217C33.7255 44.7836 33.7299 44.7455 33.7355 44.7054C33.7388 44.6801 33.7504 44.658 33.7504 44.632L33.75 11.9433H49.85L49.8496 49.8501H24.9839L33.4544 45.1345ZM23.3999 49.4153V45.2067H30.9596L23.3999 49.4153ZM6.14996 6.1497H32.5999V44.0565H6.14996V6.1497Z" fill="#848484" stroke="#848484" stroke-width="0.5"/>
<path fill-rule="evenodd" clip-rule="evenodd" d="M38 17L46 17L46 18.5L38 18.5L38 17Z" fill="#848484"/>
<path fill-rule="evenodd" clip-rule="evenodd" d="M38 22L46 22L46 23.5L38 23.5L38 22Z" fill="#848484"/>
<path fill-rule="evenodd" clip-rule="evenodd" d="M38 27L46 27L46 28.5L38 28.5L38 27Z" fill="#848484"/>
<path fill-rule="evenodd" clip-rule="evenodd" d="M38 32L46 32L46 33.5L38 33.5L38 32Z" fill="#848484"/>
<path fill-rule="evenodd" clip-rule="evenodd" d="M38 37L46 37L46 38.5L38 38.5L38 37Z" fill="#848484"/>
<path fill-rule="evenodd" clip-rule="evenodd" d="M38 42L46 42L46 43.5L38 43.5L38 42Z" fill="#848484"/>
</svg>
