<svg width="56" height="56" viewBox="0 0 56 56" fill="none" xmlns="http://www.w3.org/2000/svg">
<g id="intake_request_icon">
<path id="Vector" d="M1.75 7.95C1.30817 7.95 0.95 8.30817 0.95 8.75C0.95 9.19183 1.30817 9.55 1.75 9.55V7.95ZM54.25 9.55C54.6918 9.55 55.05 9.19183 55.05 8.75C55.05 8.30817 54.6918 7.95 54.25 7.95V9.55ZM10.0395 8.75V7.95H9.23947V8.75H10.0395ZM45.9605 8.75H46.7605V7.95H45.9605V8.75ZM45.8843 43.2227L46.6644 43.4L46.6644 43.3999L45.8843 43.2227ZM45.5532 44.0659L44.8616 43.6639L44.8613 43.6644L45.5532 44.0659ZM44.6657 45.1167L44.0849 44.5665V44.5666L44.6657 45.1167ZM38.9659 51.1332L39.5466 51.6834V51.6834L38.9659 51.1332ZM37.9703 52.0701L37.536 51.3983L37.5355 51.3986L37.9703 52.0701ZM37.1715 52.4195L37.3678 53.195L37.3679 53.195L37.1715 52.4195ZM12.3025 52.0231L12.6815 51.3186L12.6814 51.3186L12.3025 52.0231ZM10.4912 50.1112L9.77075 50.459L9.77079 50.4591L10.4912 50.1112ZM28.8 18.9583C28.8 18.5165 28.4418 18.1583 28 18.1583C27.5582 18.1583 27.2 18.5165 27.2 18.9583H28.8ZM20.576 22.7221C20.2384 23.0072 20.1958 23.5119 20.4809 23.8495C20.7659 24.187 21.2707 24.2296 21.6082 23.9446L20.576 22.7221ZM27.7411 17.7186L27.2251 17.1073L27.2249 17.1074L27.7411 17.7186ZM28.2589 17.7186L28.7751 17.1074L28.7749 17.1073L28.2589 17.7186ZM34.3918 23.9446C34.7293 24.2296 35.2341 24.187 35.5191 23.8495C35.8042 23.5119 35.7616 23.0072 35.424 22.7221L34.3918 23.9446ZM36.4166 41.1512L36.7955 41.8558L36.7956 41.8558L36.4166 41.1512ZM35.2091 42.4258L35.9295 42.7736L35.9295 42.7736L35.2091 42.4258ZM28.8 18.845C28.8 18.4032 28.4418 18.045 28 18.045C27.5582 18.045 27.2 18.4032 27.2 18.845H28.8ZM20.4857 22.6381C20.1473 22.9221 20.1032 23.4267 20.3872 23.7652C20.6712 24.1036 21.1758 24.1477 21.5143 23.8637L20.4857 22.6381ZM27.7376 17.5965L27.2235 16.9836L27.2234 16.9837L27.7376 17.5965ZM28.2624 17.5965L28.7766 16.9837L28.7765 16.9836L28.2624 17.5965ZM34.4857 23.8637C34.8242 24.1477 35.3288 24.1036 35.6128 23.7652C35.8968 23.4267 35.8527 22.9221 35.5143 22.6381L34.4857 23.8637ZM1.75 9.55H54.25V7.95H1.75V9.55ZM10.0395 9.55H45.9605V7.95H10.0395V9.55ZM45.1605 8.75V41.8171H46.7605V8.75H45.1605ZM45.1605 41.8171C45.1605 42.5664 45.1559 42.8176 45.1041 43.0454L46.6644 43.3999C46.7652 42.9563 46.7605 42.4941 46.7605 41.8171H45.1605ZM45.1042 43.0453C45.0542 43.2651 44.9721 43.4737 44.8616 43.6639L46.2449 44.4678C46.4378 44.136 46.5789 43.7758 46.6644 43.4L45.1042 43.0453ZM44.8613 43.6644C44.7483 43.8592 44.588 44.0355 44.0849 44.5665L45.2465 45.6669C45.6989 45.1894 46.0167 44.8612 46.2452 44.4674L44.8613 43.6644ZM44.0849 44.5666L38.3851 50.5831L39.5466 51.6834L45.2465 45.6669L44.0849 44.5666ZM38.3851 50.583C37.8803 51.1159 37.7154 51.2823 37.536 51.3983L38.4046 52.7419C38.7828 52.4974 39.096 52.1591 39.5466 51.6834L38.3851 50.583ZM37.5355 51.3986C37.3605 51.5118 37.1715 51.5942 36.975 51.644L37.3679 53.195C37.7357 53.1019 38.0855 52.9486 38.4051 52.7416L37.5355 51.3986ZM36.9752 51.644C36.7762 51.6943 36.5555 51.7 35.8399 51.7V53.3C36.4755 53.3 36.9307 53.3057 37.3678 53.195L36.9752 51.644ZM35.8399 51.7H16.6711V53.3H35.8399V51.7ZM16.6711 51.7C15.4965 51.7 14.6663 51.6993 14.0175 51.6433C13.3794 51.5883 12.9895 51.4842 12.6815 51.3186L11.9236 52.7277C12.5022 53.0389 13.1359 53.1732 13.8801 53.2374C14.6135 53.3007 15.5243 53.3 16.6711 53.3V51.7ZM12.6814 51.3186C12.0553 50.9818 11.5382 50.4398 11.2117 49.7634L9.77079 50.4591C10.239 51.4288 10.99 52.2256 11.9236 52.7277L12.6814 51.3186ZM11.2117 49.7635C11.0474 49.4232 10.9464 48.9951 10.8936 48.3118C10.84 47.6203 10.8395 46.7377 10.8395 45.5H9.23947C9.23947 46.7126 9.23892 47.6677 9.29833 48.4352C9.35837 49.211 9.48327 49.8634 9.77075 50.459L11.2117 49.7635ZM10.8395 45.5V8.75H9.23947V45.5H10.8395ZM28.8 35V18.9583H27.2V35H28.8ZM21.6082 23.9446L28.2572 18.3299L27.2249 17.1074L20.576 22.7221L21.6082 23.9446ZM28.2571 18.33C28.1105 18.4537 27.8895 18.4537 27.7429 18.33L28.7749 17.1073C28.3255 16.7279 27.6745 16.7279 27.2251 17.1073L28.2571 18.33ZM27.7428 18.3299L34.3918 23.9446L35.424 22.7221L28.7751 17.1074L27.7428 18.3299ZM45.9605 40.0333H39.329V41.6333H45.9605V40.0333ZM39.329 40.0333C38.5691 40.0333 37.9484 40.0326 37.4453 40.076C36.9315 40.1203 36.4684 40.215 36.0376 40.4467L36.7956 41.8558C36.9558 41.7696 37.1751 41.7053 37.5828 41.6701C38.0012 41.634 38.5412 41.6333 39.329 41.6333V40.0333ZM36.0376 40.4467C35.3639 40.8091 34.8244 41.3824 34.4886 42.078L35.9295 42.7736C36.1237 42.3714 36.4292 42.0529 36.7955 41.8558L36.0376 40.4467ZM34.4886 42.078C34.2764 42.5176 34.1892 42.99 34.1479 43.5225C34.1073 44.0469 34.1079 44.6957 34.1079 45.5H35.7079C35.7079 44.6707 35.7085 44.0943 35.7432 43.646C35.7772 43.2058 35.8406 42.9579 35.9295 42.7736L34.4886 42.078ZM34.1079 45.5V52.5H35.7079V45.5H34.1079ZM28.8 35V18.845H27.2V35H28.8ZM21.5143 23.8637L28.2519 18.2093L27.2234 16.9837L20.4857 22.6381L21.5143 23.8637ZM28.2518 18.2094C28.1078 18.3302 27.8922 18.3302 27.7482 18.2094L28.7765 16.9836C28.3257 16.6055 27.6743 16.6055 27.2235 16.9836L28.2518 18.2094ZM27.7481 18.2093L34.4857 23.8637L35.5143 22.6381L28.7766 16.9837L27.7481 18.2093Z" fill="#6A6A6A"/>
</g>
</svg>
