<svg width="56" height="56" viewBox="0 0 56 56" fill="none" xmlns="http://www.w3.org/2000/svg">
<g id="knowledgebase_request_icon">
<g id="Vector">
<path d="M50.2899 15.6007H47.7918V17.1686H50.2899C50.7122 17.1686 50.8714 17.6255 50.8714 18.0478V38.7311C50.8714 40.8429 49.3376 42.4217 47.2258 42.4217H31.9048C30.6375 42.4217 29.4258 43.5922 29.4258 44.8594V45.1094H26.3461V44.8594C26.3461 43.5922 25.5116 42.4217 24.2443 42.4217H8.92337C6.81151 42.4217 4.9005 40.8429 4.9005 38.7311V18.0478C4.9005 17.6255 5.43692 17.1686 5.85923 17.1686H7.98016V15.6007H5.85923C4.59198 15.6007 3.38867 16.7805 3.38867 18.0478V38.7311C3.38867 41.6879 5.96657 43.9336 8.92337 43.9336H24.2443C24.6666 43.9336 24.8343 44.4371 24.8343 44.8594V45.2424C24.8343 46.0874 25.6975 46.6212 26.5425 46.6212H29.6067C30.4516 46.6212 30.9376 46.0874 30.9376 45.2424V44.8594C30.9376 44.4371 31.4825 43.9336 31.9048 43.9336H47.2257C50.1826 43.9336 52.3832 41.6879 52.3832 38.7311V18.0478C52.3832 16.7806 51.5572 15.6007 50.2899 15.6007Z" fill="#6A6A6A"/>
<path d="M14.8674 15.6007H24.0504V17.1686H14.8674V15.6007ZM14.8674 19.0724H24.0504V20.5842H14.8674V19.0724ZM14.8674 22.488H24.0504V24.0558H14.8674V22.488ZM31.7215 15.6007H40.9045V17.1686H31.7215V15.6007ZM31.7215 19.0724H40.9045V20.5842H31.7215V19.0724ZM31.7215 22.488H40.9045V24.0558H31.7215V22.488Z" fill="#6A6A6A"/>
<path d="M46.0767 12.5771H45.1041V12.3025C45.1041 10.6129 43.936 9.10547 42.2465 9.10547H33.0539C30.925 9.10547 29.0671 10.2719 28.0746 11.9966C27.082 10.2719 25.2242 9.10547 23.0953 9.10547H13.9027C12.2132 9.10547 10.6679 10.6129 10.6679 12.3025V12.5771H10.0725C8.5943 12.5771 7.1963 14.0601 7.1963 15.7497V36.4329C7.1963 38.5448 9.02371 40.126 11.0301 40.126H25.0104C26.2777 40.126 27.3086 41.2459 27.3086 42.4217H28.8407C28.8407 41.2459 29.8715 40.126 31.1388 40.126H45.1192C47.1255 40.126 48.5757 38.5448 48.5757 36.4329V15.7497C48.5756 14.0601 47.5548 12.5771 46.0767 12.5771ZM33.0539 10.6173H42.2464C43.0914 10.6173 43.5922 11.4575 43.5922 12.3025V34.1348C43.5922 34.9797 43.0914 35.5345 42.2464 35.5345H33.0539C31.3884 35.5345 29.8177 36.3834 28.6418 37.5193V14.9836C28.6418 12.6605 30.7306 10.6173 33.0539 10.6173ZM12.1797 12.3025C12.1797 11.4575 13.0577 10.6173 13.9027 10.6173H23.0952C25.4184 10.6173 27.13 12.6604 27.13 14.9836V37.5102C26.3461 36.3772 24.7582 35.5345 23.0952 35.5345H13.9027C13.0578 35.5345 12.1797 34.9798 12.1797 34.1348L12.1797 12.3025ZM11.03 38.6142C9.8686 38.6142 8.70808 37.7002 8.70808 36.4329V15.7497C8.70808 14.9193 9.44966 14.0889 10.0725 14.0889H10.6679V34.1348C10.6679 35.8243 12.2131 37.0463 13.9027 37.0463H23.0952C24.5572 37.0463 25.8466 37.8134 26.6024 38.9473C26.1169 38.7241 25.5788 38.6142 25.0103 38.6142H11.03ZM47.0078 36.4329C47.0078 37.7002 46.2805 38.6142 45.1191 38.6142H31.1387C30.5703 38.6142 30.0322 38.7242 29.5465 38.9473C30.3023 37.8134 31.5918 37.0463 33.0538 37.0463H42.2464C43.9359 37.0463 45.1039 35.8243 45.1039 34.1348V14.0889H46.0766C46.6993 14.0889 47.0077 14.9193 47.0077 15.7497L47.0078 36.4329Z" fill="#6A6A6A"/>
</g>
</g>
</svg>
