<svg width="56" height="56" viewBox="0 0 56 56" fill="none" xmlns="http://www.w3.org/2000/svg">
<rect width="56" height="56" fill="white"/>
<path fill-rule="evenodd" clip-rule="evenodd" d="M11.75 5C11.75 4.30964 12.3096 3.75 13 3.75C13.6904 3.75 14.25 4.30964 14.25 5C14.25 5.69036 13.6904 6.25 13 6.25C12.3096 6.25 11.75 5.69036 11.75 5ZM13 2.25C11.4812 2.25 10.25 3.48122 10.25 5C10.25 6.51878 11.4812 7.75 13 7.75C14.5188 7.75 15.75 6.51878 15.75 5C15.75 3.48122 14.5188 2.25 13 2.25ZM40.3079 6.12134L43.4899 2.93936L50.2074 9.65687L47.0254 12.8389L45.6112 11.4246L44.701 12.3349L46.8666 14.5005L43.9765 17.3906C44.3736 17.997 44.6358 18.6997 44.7204 19.456C47.232 21.446 49.2345 23.8983 50.1729 26.9615C51.1223 30.0608 50.9549 33.6953 49.2634 37.9679C47.2654 43.0145 42.9822 45.3307 39.5181 46.2397H48C50.0711 46.2397 51.75 47.9186 51.75 49.9897V52.7397H12.25V49.9897C12.25 47.9186 13.9289 46.2397 16 46.2397H18.0395L20.7244 40.8141H35.9287C37.3458 40.636 40.8966 39.1922 42.9544 34.6181C44.8731 30.3532 42.6661 26.3134 41.1205 24.6068C40.7612 24.6936 40.386 24.7397 40 24.7397C39.0407 24.7397 38.1477 24.4553 37.401 23.9662L29.7438 31.6233L28.2902 30.1697L25.7014 32.7585L20.1312 27.1883L22.72 24.5995L21.2665 23.1459L38.3893 6.02315L40.8119 8.44579L41.7221 7.53555L40.3079 6.12134ZM42.5638 23.989C44.2896 26.1211 46.4474 30.51 44.3223 35.2335C42.0193 40.3527 37.9523 42.0967 36.0568 42.3095L36.0151 42.3141H21.6558L20.208 45.2397H35.9731C38.9311 45.2397 45.4038 43.6418 47.8687 37.4157C49.4623 33.3904 49.5686 30.1101 48.7386 27.4008C48.0084 25.0172 46.5321 23.0062 44.5715 21.2841C44.2526 22.4124 43.5274 23.3701 42.5638 23.989ZM44.7453 14.5005L42.9663 16.2795C42.1535 15.6288 41.1222 15.2397 40 15.2397C37.3766 15.2397 35.25 17.3663 35.25 19.9897C35.25 21.1119 35.6391 22.1432 36.2898 22.956L29.7438 29.502L23.3878 23.1459L38.3893 8.14447L44.7453 14.5005ZM42.7828 8.59621L41.8726 9.50645L43.6403 11.2742L44.5506 10.364L42.7828 8.59621ZM42.4292 6.12134L47.0254 10.7175L48.0861 9.65687L43.4899 5.06068L42.4292 6.12134ZM27.2295 29.109L23.7807 25.6601L22.2525 27.1883L25.7014 30.6371L27.2295 29.109ZM40 16.7397C38.2051 16.7397 36.75 18.1948 36.75 19.9897C36.75 21.7846 38.2051 23.2397 40 23.2397C41.7949 23.2397 43.25 21.7846 43.25 19.9897C43.25 18.1948 41.7949 16.7397 40 16.7397ZM31 38.9897H19V37.4897H31V38.9897ZM13.75 49.9897C13.75 48.747 14.7574 47.7397 16 47.7397H48C49.2426 47.7397 50.25 48.747 50.25 49.9897V51.2397H13.75V49.9897ZM6.75 12V13.5H8V15H6.75V16.5H8V18H6.75V19.5H8V21H6.75V22.5H8V24H6.75V25.5H8V27H6.75V28.5H8V30H6.75V34C6.75 35.7949 8.20507 37.25 10 37.25C11.7949 37.25 13.25 35.7949 13.25 34V12H6.75ZM5.25 12H4V10.5H16V12H14.75V34C14.75 36.6234 12.6234 38.75 10 38.75C7.37665 38.75 5.25 36.6234 5.25 34V12ZM7 7.75C6.86193 7.75 6.75 7.86193 6.75 8C6.75 8.13807 6.86193 8.25 7 8.25C7.13807 8.25 7.25 8.13807 7.25 8C7.25 7.86193 7.13807 7.75 7 7.75ZM5.25 8C5.25 7.0335 6.0335 6.25 7 6.25C7.9665 6.25 8.75 7.0335 8.75 8C8.75 8.9665 7.9665 9.75 7 9.75C6.0335 9.75 5.25 8.9665 5.25 8Z" fill="#848484"/>
</svg>
