<svg width="32" height="32" viewBox="0 0 32 32" fill="none" xmlns="http://www.w3.org/2000/svg">
<path d="M5.19501 3.97379C3.46752 3.97004 2.05751 5.37005 2.05002 7.09754V22.3199H1.35127C0.990021 22.3199 0.750021 22.6437 0.750021 22.9674V24.9012C0.743771 26.6174 2.13501 28.0199 3.85127 28.0274H28.1338C29.8501 28.0299 31.2488 26.6337 31.2513 24.9174V22.9687C31.2513 22.6437 31.0101 22.3212 30.6488 22.3212H29.9488V7.09878C29.9413 5.3713 28.5326 3.9713 26.8051 3.97504H5.19773L5.19501 3.97379ZM5.19376 5.21629H26.8037C27.8499 5.21254 28.6974 6.0513 28.7024 7.09878V22.3199H3.29252V7.09878C3.29877 6.05254 4.14503 5.21254 5.19127 5.21629H5.19376ZM16.3726 10.7475C16.0851 10.7625 15.8339 10.98 15.7889 11.275V11.2762L14.9827 16.6036C14.9314 16.9398 15.1664 17.2611 15.5027 17.3123H15.5052C15.8414 17.3623 16.1602 17.1273 16.2114 16.7911V16.7898L17.0176 11.4625C17.0689 11.1262 16.8339 10.805 16.4976 10.7537C16.4551 10.7475 16.4139 10.7462 16.3726 10.7475L16.3726 10.7475ZM15.5052 17.3126L15.5214 17.3151H15.5414L15.5052 17.3126ZM18.0739 11.6089C17.9176 11.6264 17.7639 11.7052 17.6564 11.8389C17.4451 12.1052 17.4901 12.5014 17.7576 12.7127H17.7589L17.7601 12.7139C17.7551 12.7102 17.7639 12.7189 17.7839 12.7327L19.4839 14.0177L17.7776 15.3089C17.5064 15.5139 17.4514 15.9077 17.6564 16.179C17.8626 16.4515 18.2564 16.5052 18.5277 16.3015V16.3002L20.8902 14.514C21.1614 14.309 21.2164 13.9165 21.0127 13.6452V13.644C20.9789 13.5977 20.9377 13.5577 20.8914 13.5227V13.5215L18.5327 11.739H18.5302C18.3964 11.634 18.2314 11.5915 18.0739 11.609L18.0739 11.6089ZM13.9389 11.6152C13.7826 11.5927 13.6151 11.6314 13.4813 11.7302C13.4676 11.7414 13.4463 11.7589 13.4463 11.7589L13.4726 11.7364L11.1101 13.5227C10.8376 13.7289 10.7839 14.1227 10.9876 14.3939C11.0238 14.4414 11.0651 14.4814 11.1089 14.5139V14.5152L13.4713 16.3014C13.5788 16.3827 13.7101 16.4289 13.8476 16.4289C14.1889 16.4289 14.4701 16.1477 14.4701 15.8064C14.4701 15.6127 14.3788 15.4277 14.2238 15.3102L12.5151 14.0189L14.2214 12.7302C14.4939 12.5264 14.5526 12.1339 14.3489 11.8602C14.2476 11.7227 14.0964 11.6389 13.9389 11.6164L13.9389 11.6152ZM1.99261 23.564H30.0051V24.9027C30.0113 25.9377 29.1826 26.7765 28.1463 26.7827H3.86506C2.83005 26.7852 1.99504 25.9527 1.99255 24.9177L1.99261 23.564Z" fill="#848484"/>
</svg>
