<svg width="32" height="32" viewBox="0 0 32 32" fill="none" xmlns="http://www.w3.org/2000/svg">
<path d="M26.9975 17.1532C26.7635 17.1472 26.5295 17.1802 26.3065 17.2512C25.8885 16.2842 24.8065 15.7912 23.8025 16.1112C23.5325 15.4932 22.9755 15.0482 22.3125 14.9212C21.9365 14.8502 21.5475 14.8842 21.1885 15.0212L21.0635 10.8251C21.0385 9.83114 20.3035 8.99914 19.3205 8.85114C18.7566 8.77614 18.1885 8.94414 17.7545 9.31115C17.3215 9.67915 17.0645 10.2131 17.0466 10.7812L16.7706 20.7892C16.6986 20.7342 16.6346 20.6722 16.5786 20.6022L15.7976 19.2732C15.1445 18.1712 13.8955 17.5662 12.6255 17.7372C12.1705 17.7982 11.7735 18.0772 11.5615 18.4842C11.3495 18.8922 11.3495 19.3772 11.5605 19.7852L14.5616 25.5731C14.8346 26.0931 15.2496 26.5251 15.7596 26.8171L15.8336 26.8531L17.3366 27.4651L17.3856 27.4831H17.3846C17.6406 27.5661 17.8416 27.7641 17.9306 28.0181L18.0836 28.4891C18.2006 28.8201 18.5626 28.9951 18.8946 28.8811C19.2266 28.7671 19.4046 28.4071 19.2946 28.0741L19.1386 27.6181V27.6191C18.9216 26.9941 18.4296 26.5041 17.8046 26.2901L16.3636 25.6941V25.6931C16.0766 25.5231 15.8426 25.2751 15.6876 24.9791L12.6947 19.1812C12.6747 19.1432 12.6737 19.0972 12.6937 19.0582C12.7137 19.0202 12.7517 18.9942 12.7947 18.9892C13.5557 18.8882 14.3027 19.2502 14.6947 19.9102L15.4957 21.2822V21.2832C15.5077 21.3052 15.5217 21.3262 15.5367 21.3472C16.0617 22.0433 16.9887 22.4862 17.7457 21.9872C17.9187 21.8722 18.0257 21.6822 18.0327 21.4752L18.3377 10.8151C18.3437 10.6081 18.4387 10.4141 18.5967 10.2812C18.7547 10.1472 18.9617 10.0872 19.1667 10.1162C19.5267 10.1822 19.7907 10.4922 19.7967 10.8581L19.9477 16.4571C19.9567 16.7611 20.1787 17.0171 20.4787 17.0691C20.7787 17.1211 21.0737 16.9531 21.1837 16.6691C21.3197 16.3021 21.7047 16.0891 22.0877 16.1701C22.4657 16.2611 22.7277 16.6041 22.7177 16.9921V17.1461C22.7167 17.4131 22.8827 17.6531 23.1337 17.7461C23.3837 17.8401 23.6666 17.7681 23.8417 17.5651C24.0166 17.3621 24.2857 17.2651 24.5506 17.3091C24.9476 17.3861 25.2317 17.7371 25.2236 18.1411V18.2931C25.2236 18.5601 25.3896 18.7991 25.6396 18.8931C25.8906 18.9871 26.1726 18.9151 26.3476 18.7121C26.4976 18.5341 26.7186 18.4311 26.9516 18.4311C27.3946 18.4651 27.7336 18.8411 27.7196 19.2861V23.8811C27.7196 25.263 26.8337 26.318 26.4526 26.6971C26.2046 26.9481 26.0147 27.2501 25.8966 27.583L25.7306 28.0571V28.0561C25.6106 28.3891 25.7836 28.7561 26.1166 28.8761C26.4496 28.995 26.8166 28.822 26.9366 28.4891L27.1026 28.015C27.1566 27.859 27.2446 27.717 27.3586 27.598C27.9756 26.981 28.9996 25.6731 28.9996 23.8809V19.288C29.0096 18.156 28.1277 17.216 26.9976 17.153L26.9975 17.1532Z" fill="#848484"/>
<path d="M21.2895 6.24326C21.2895 6.07326 21.2225 5.91026 21.1025 5.79027C20.9825 5.67028 20.8195 5.60327 20.6496 5.60327H11.7845C11.4315 5.60327 11.1445 5.88927 11.1445 6.24327C11.1445 6.59627 11.4315 6.88327 11.7845 6.88327H20.6496C20.8196 6.88327 20.9826 6.81527 21.1025 6.69527C21.2225 6.57527 21.2895 6.41226 21.2895 6.24328V6.24326Z" fill="#848484"/>
<path d="M4.23174 6.58119C4.67974 6.83918 5.05173 7.21018 5.30973 7.65818C5.41873 7.84818 5.61772 7.96917 5.83673 7.97818H5.86473C6.07373 7.97818 6.26972 7.87618 6.38974 7.70418C7.08073 6.71118 7.94274 5.84918 8.93673 5.16018C9.22773 4.95818 9.29974 4.55917 9.09873 4.26917C8.89673 3.97818 8.49772 3.90616 8.20772 4.10817C7.33072 4.71617 6.54472 5.44419 5.86973 6.27117C5.57973 5.95516 5.24273 5.68616 4.87174 5.47217C4.72474 5.38617 4.54974 5.36217 4.38475 5.40517C4.21975 5.44917 4.07875 5.55717 3.99376 5.70417C3.90876 5.85217 3.88576 6.02717 3.93076 6.19216C3.97476 6.35616 4.08376 6.49616 4.23176 6.58115L4.23174 6.58119Z" fill="#848484"/>
<path d="M15.3276 10.607C15.3276 10.438 15.2606 10.275 15.1406 10.155C15.0206 10.0351 14.8576 9.96704 14.6876 9.96704H11.7845C11.4315 9.96704 11.1445 10.254 11.1445 10.607C11.1445 10.961 11.4315 11.247 11.7845 11.247H14.6876C14.8576 11.247 15.0206 11.18 15.1406 11.06C15.2605 10.94 15.3276 10.777 15.3276 10.607V10.607Z" fill="#848484"/>
<path d="M4.23122 11.204C4.67922 11.462 5.05121 11.834 5.30921 12.282C5.41821 12.472 5.6172 12.592 5.83621 12.602H5.86421C6.07321 12.602 6.2692 12.499 6.38921 12.328C7.07921 11.333 7.94221 10.471 8.93621 9.78104C9.22721 9.57904 9.29922 9.18002 9.09821 8.89003C8.89621 8.59903 8.4972 8.52702 8.2072 8.72803C7.3302 9.33703 6.5442 10.065 5.8692 10.892C5.58021 10.576 5.24421 10.307 4.87421 10.093C4.72621 10.007 4.55121 9.98302 4.38622 10.026C4.22122 10.07 4.08122 10.177 3.99623 10.325C3.91023 10.473 3.88823 10.648 3.93223 10.813C3.97723 10.977 4.08523 11.117 4.23423 11.201L4.23122 11.204Z" fill="#848484"/>
<path d="M14.4316 15.6152C14.7856 15.6152 15.0716 15.3282 15.0716 14.9752C15.0716 14.6212 14.7856 14.3352 14.4316 14.3352H11.7845C11.4315 14.3352 11.1445 14.6212 11.1445 14.9752C11.1445 15.3282 11.4315 15.6152 11.7845 15.6152H14.4316Z" fill="#848484"/>
<path d="M4.23174 15.8271C4.67974 16.0851 5.05173 16.4571 5.30973 16.9051C5.41873 17.0951 5.61772 17.2161 5.83673 17.2251H5.86473C6.07373 17.2251 6.26972 17.1231 6.38974 16.9511C7.07973 15.9591 7.94174 15.0981 8.93474 14.4091C9.22473 14.2081 9.29675 13.8091 9.09574 13.5181C8.89474 13.2281 8.49572 13.1551 8.20473 13.3571C7.32872 13.9651 6.54173 14.6931 5.86773 15.5201C5.57773 15.2051 5.24273 14.9351 4.87174 14.7211C4.72474 14.6351 4.54974 14.6111 4.38475 14.6551C4.21975 14.6981 4.07875 14.8061 3.99376 14.9531C3.90876 15.1011 3.88576 15.2771 3.93076 15.4411C3.97476 15.6061 4.08376 15.7461 4.23176 15.8301L4.23174 15.8271Z" fill="#848484"/>
</svg>
