<svg width="56" height="56" viewBox="0 0 56 56" fill="none" xmlns="http://www.w3.org/2000/svg">
<rect width="56" height="56" fill="white"/>
<path fill-rule="evenodd" clip-rule="evenodd" d="M42.2646 14.1837C42.174 14.1243 42.0854 14.062 41.999 13.9969L42 13.9999L20.6412 20.7959C20.4722 21.3226 20.2449 21.8304 19.9619 22.3089C19.6862 22.7761 19.3628 23.207 19 23.5968L19 45H21.1769C22.1817 45 22.9995 45.8694 22.9995 46.9377L23 51H3V46.9377C3 45.8695 3.81781 45 4.82263 45H7.5L7.5 23H7.50083C7.33469 22.7792 7.18005 22.5482 7.03806 22.3075C6.35892 21.1598 6 19.8425 6 18.4993C6 15.7944 7.46498 13.2888 9.82307 11.9611C10.6297 11.5063 11.5011 11.2092 12.4145 11.0779C12.772 11.0264 13.138 11 13.5003 11C14.0353 11 14.5633 11.0574 15.0765 11.168L40.6457 7.53526C41.5076 6.01017 43.1431 5 45.0003 5C47.7566 5.00049 50 7.24413 50 10.0005C50 11.2677 49.5214 12.4441 48.7224 13.3369L47.6849 24.75H46.367L46.4662 26.0165L50.4248 29.9751C51.0302 30.5805 51.1154 31.5367 50.6264 32.2479L49.0956 34.4754L48.0447 33.7576L49.5755 31.5301C49.7147 31.3272 49.6907 31.0549 49.5178 30.882L46.6205 27.9847L46.9637 32.3647L45.6541 32.2754L45.3727 28.6842L43.1991 30.8577C43.0242 31.0327 42.9985 31.3058 43.1377 31.5079L44.7136 33.7915L43.6592 34.5232L42.084 32.2403C41.5945 31.5324 41.6853 30.572 42.2991 29.9582L45.2419 27.0154L45.0644 24.75H43.3212L42.2646 14.1837ZM43.8401 14.8642L44.6787 23.25H46.315L47.1072 14.5357C46.7495 14.702 46.3675 14.8274 45.9667 14.9056C45.6568 14.9684 45.3305 15 45.0003 15L45.0002 15C44.601 15 44.2125 14.9529 43.8401 14.8642ZM17.5 45H9L9 24.4944C10.2814 25.454 11.8586 26 13.4997 26L13.4998 26C14.9337 26 16.3186 25.5834 17.5 24.8388L17.5 45ZM40 9.99997C40 11.0327 40.3146 11.9932 40.8531 12.7908L20.9748 19.1157C20.9916 18.9115 21 18.7061 21 18.5002C21 17.6005 20.8447 16.7293 20.538 15.9022L31 14L30.7317 12.5242L19.8463 14.5033C19.7815 14.4006 19.7142 14.2994 19.6446 14.1999C19.1179 13.4484 18.4655 12.8104 17.727 12.3065L40.0757 9.1313C40.0574 9.23645 40.0424 9.34281 40.0306 9.45029C40.0104 9.6327 40 9.81806 40 9.99997ZM19.677 18.4992C19.677 18.8555 19.6463 19.2096 19.5861 19.5575L19.5452 19.5706L19.5698 19.6479C19.4379 20.3476 19.186 21.0208 18.8226 21.6353C18.5215 22.1459 18.1512 22.6038 17.7279 23H17.5V23.203C16.3968 24.1379 14.9799 24.677 13.4996 24.677C11.3239 24.677 9.28413 23.5114 8.17664 21.6349C7.61793 20.6897 7.32229 19.6053 7.32229 18.4992C7.32229 16.2708 8.52902 14.2073 10.4724 13.1129C11.1354 12.7393 11.8529 12.4947 12.6033 12.3861C12.8995 12.3431 13.2008 12.3213 13.4997 12.3213L13.4996 12.3213C14.0012 12.3213 14.4954 12.3826 14.9725 12.5001L15.0001 12.6939L15.4326 12.6325C16.6819 13.0451 17.7862 13.8522 18.561 14.9578C18.7702 15.2568 18.9535 15.5751 19.1069 15.9052C19.4852 16.7176 19.677 17.5904 19.677 18.4992ZM45.0002 6.38411C43.152 6.38411 41.6072 7.76774 41.4065 9.60161C41.3921 9.73507 41.3842 9.86854 41.3842 10C41.3842 11.9936 43.0066 13.6159 45.0003 13.6159C45.2395 13.6159 45.4743 13.5931 45.6978 13.5482C47.3899 13.2175 48.6154 11.7262 48.6154 10.001C48.6154 8.00694 46.9935 6.38515 45.0004 6.38414L45.0002 6.38411ZM4.29621 49.6222H21.7038V46.9377C21.7038 46.6292 21.4673 46.3777 21.1771 46.3777H4.82283C4.53264 46.3777 4.29614 46.6292 4.29614 46.9377L4.29621 49.6222ZM11 18.5C11 19.8785 12.122 21 13.5 21C14.8781 21 16 19.8785 16 18.5C16 17.1215 14.878 16 13.5 16C12.1215 16 11 17.122 11 18.5ZM12.3506 18.5004C12.3506 17.8662 12.8667 17.351 13.5 17.351C14.1333 17.351 14.6494 17.8666 14.6494 18.5004C14.6494 19.1338 14.1333 19.6499 13.5 19.6499C12.8667 19.6499 12.3506 19.1347 12.3506 18.5004ZM44 10C44 10.551 44.4486 11 45 11C45.551 11 45.9996 10.5514 46 10C46 9.44899 45.551 9 45 9C44.449 9 44 9.44855 44 10ZM44.7687 9.99994C44.7687 9.87285 44.8725 9.76863 45 9.76863C45.1275 9.76863 45.2313 9.87285 45.2313 9.99994C45.2313 10.127 45.1275 10.2313 45 10.2313C44.8729 10.2313 44.7687 10.1275 44.7687 9.99994ZM43.75 43.25H51.25V37.75H43.75V43.25ZM33.25 43.25H42.25V36.25H52.75V43.25V44.75V51.75H33.25V43.25ZM51.25 44.75H42.25H34.75V50.25H51.25V44.75Z" fill="#848484"/>
</svg>
