<svg width="56" height="56" viewBox="0 0 56 56" fill="none" xmlns="http://www.w3.org/2000/svg">
<rect width="56" height="56" fill="white"/>
<path d="M27.3414 8.14368L25.4988 8.99343C25.3554 9.05956 25.2244 9.15054 25.1124 9.26171L16.6917 22.0949L8.05359 26.0785C7.72785 26.2288 7.47495 26.5023 7.35097 26.8392C7.22686 27.1757 7.24147 27.5477 7.39169 27.8734L7.63612 28.4035L6.40772 28.97C6.08197 29.1202 5.82907 29.3938 5.70496 29.7303C5.58086 30.0668 5.59559 30.4391 5.74581 30.7649L7.44531 34.4501C7.59553 34.7758 7.86911 35.0287 8.20565 35.1528C8.54219 35.2769 8.91447 35.2622 9.24021 35.112L10.4686 34.5455L10.713 35.0755C10.8633 35.4012 11.1367 35.6539 11.4733 35.778C11.8099 35.9024 12.1822 35.8876 12.5079 35.7374L13.1306 35.4502C13.1418 35.4793 13.1477 35.5095 13.161 35.5383L13.2324 35.6932C12.7284 36.1707 12.2747 36.6988 11.8787 37.2692C11.7183 37.4961 11.5461 37.7145 11.3626 37.9238C10.9907 38.3005 10.6089 38.6897 10.2671 39.0791C9.5146 39.8261 8.85765 40.6635 8.31092 41.5717C7.81757 42.3542 7.6152 42.6753 6.84909 43.0286C6.46009 43.2096 6.15859 43.5379 6.01104 43.9411C5.86348 44.3443 5.88186 44.7894 6.06221 45.179L8.28191 49.9922C8.45991 50.3797 8.78299 50.6815 9.1818 50.8325C9.58059 50.9834 10.0229 50.9713 10.4127 50.7985C10.757 50.7641 11.1035 50.7612 11.4483 50.7901C12.4972 50.8337 13.7878 50.8872 15.0872 50.288L16.7906 49.5025C16.8233 49.4897 16.8557 49.4757 16.8878 49.4609L22.1219 47.0471C22.7463 46.7456 23.2254 46.2084 23.4546 45.5538C23.6837 44.8991 23.6438 44.1803 23.3439 43.5552L23.342 43.5511C23.5336 42.9563 23.512 42.3132 23.281 41.7325C23.5001 41.2068 23.547 40.6256 23.4152 40.0716C23.7035 39.6902 23.8815 39.237 23.93 38.7611C23.9784 38.2856 23.8958 37.8057 23.6902 37.3737C23.4046 36.7393 22.8756 36.2468 22.2224 36.007C21.5691 35.7673 20.8469 35.8011 20.2188 36.1004L19.5262 36.4198L18.0746 33.2723C18.0614 33.2435 18.0423 33.2194 18.0273 33.192L21.1461 31.7538L36.3738 33.6811C36.5311 33.6681 36.6853 33.6275 36.8287 33.5614L38.6713 32.7116C38.9971 32.5614 39.25 32.2878 39.3741 31.9513C39.4982 31.6148 39.4835 31.2425 39.3332 30.9167L29.1363 8.80549C28.986 8.47974 28.7124 8.22684 28.3759 8.10274C28.0394 7.97863 27.6671 7.99345 27.3414 8.14368ZM9.90229 33.317L8.67389 33.8835L6.97439 30.1983L8.20279 29.6318L9.90229 33.317ZM20.7856 37.3287C21.0885 37.1837 21.4369 37.167 21.7522 37.282C22.068 37.397 22.3237 37.6342 22.4621 37.9401C22.6098 38.2461 22.6283 38.5983 22.5133 38.9178C22.3982 39.2372 22.1593 39.497 21.8506 39.6383L21.7111 39.7027C21.8355 39.8239 21.9366 39.9668 22.0096 40.1243C22.1391 40.3885 22.1742 40.6888 22.1092 40.9755C22.0443 41.2624 21.8833 41.5182 21.653 41.7009C21.7967 41.8272 21.9121 41.9821 21.9918 42.1558C22.1015 42.3849 22.1417 42.641 22.1085 42.8927C22.0751 43.1446 21.9692 43.3809 21.8037 43.5736C21.7898 43.6003 21.7711 43.6239 21.7486 43.6436C21.9052 43.7735 22.0307 43.9368 22.1157 44.1217C22.2657 44.421 22.2909 44.7678 22.1859 45.0859C22.0809 45.404 21.854 45.6676 21.5554 45.8189L16.3212 48.2327C16.3053 48.24 16.2893 48.2464 16.2725 48.2518L14.5207 49.0597C13.5152 49.5234 12.4487 49.4776 11.5084 49.4388C10.8315 49.4088 10.247 49.3857 9.86284 49.5629C9.79817 49.5914 9.72436 49.5928 9.65829 49.5671C9.59223 49.5414 9.53912 49.4904 9.51063 49.4257L7.29093 44.6125C7.22743 44.4798 7.28338 44.3207 7.41577 44.2566C8.54604 43.7354 8.92544 43.1335 9.45113 42.2998C9.9363 41.4902 10.519 40.7427 11.1857 40.0744L11.1847 40.0736C11.1847 40.0736 11.68 39.5542 12.1013 39.1029C12.1764 39.0264 12.2509 38.9494 12.3258 38.8737C12.7237 38.4704 13.2426 37.6286 13.8344 36.9976L15.1731 39.9041L15.2026 39.9031L20.7856 37.3287ZM15.8413 38.1192L14.3898 34.9717L16.8466 33.8387L18.2981 36.9862L15.8413 38.1192ZM19.6194 30.9683L11.9415 34.5091L8.62019 27.3071L16.2981 23.7663L19.6194 30.9683ZM35.4732 32.2357L20.8623 30.4334L17.5119 23.1682L25.6271 10.8853L35.4732 32.2357ZM38.1055 31.4833L36.8771 32.0498L26.6801 9.93852L27.9086 9.37202L38.1055 31.4833Z" fill="#848484"/>
<path d="M38.2275 18.0157C37.5869 16.61 36.2511 15.648 34.7148 15.4856C34.3435 15.4447 34.0095 15.7127 33.9686 16.0841C33.9277 16.4554 34.1955 16.7894 34.5668 16.8303C35.6287 16.9475 36.5517 17.6122 36.9991 18.5823C37.4465 19.5523 37.3527 20.6859 36.7524 21.5696C36.6515 21.7179 36.6139 21.9001 36.6474 22.0766C36.681 22.2526 36.7831 22.4083 36.9316 22.5091C37.2406 22.719 37.6613 22.6391 37.8713 22.3301C38.7452 21.0563 38.8807 19.4156 38.2275 18.0157Z" fill="#848484"/>
<path d="M34.705 12.7728C34.5259 12.7606 34.3492 12.8202 34.214 12.938C34.0787 13.0563 33.996 13.2231 33.9838 13.4023C33.972 13.5813 34.0315 13.758 34.1499 13.893C34.2682 14.0283 34.4353 14.1108 34.6145 14.1223C35.9968 14.214 37.2994 14.8013 38.2829 15.7766C39.2665 16.7522 39.8648 18.0497 39.9682 19.4311C40.0715 20.8123 39.6724 22.1844 38.8448 23.2953C38.7371 23.439 38.6915 23.6197 38.7176 23.7975C38.7433 23.9752 38.8391 24.1352 38.9829 24.2424C39.1271 24.3495 39.3077 24.3949 39.4855 24.3688C39.6629 24.3425 39.8229 24.2468 39.93 24.1026C40.952 22.7309 41.4445 21.036 41.317 19.3298C41.1897 17.6239 40.4505 16.021 39.2356 14.8165C38.0207 13.6119 36.4118 12.8861 34.705 12.7728Z" fill="#848484"/>
<path fill-rule="evenodd" clip-rule="evenodd" d="M51.8598 12.3787L44.4842 15.7801L43.856 14.4179L51.2316 11.0165L51.8598 12.3787Z" fill="#848484"/>
<path fill-rule="evenodd" clip-rule="evenodd" d="M47.5578 6.87025L41.7903 12.5891L40.7342 11.524L46.5016 5.80511L47.5578 6.87025Z" fill="#848484"/>
<path fill-rule="evenodd" clip-rule="evenodd" d="M53.2561 19.2367L45.162 19.9103L45.0375 18.4155L53.1317 17.7418L53.2561 19.2367Z" fill="#848484"/>
</svg>
