<svg width="32" height="32" viewBox="0 0 32 32" fill="none" xmlns="http://www.w3.org/2000/svg">
<path d="M24.6501 32H10.6064C10.43 32 10.2608 31.9311 10.1383 31.8087C10.0158 31.6863 9.94874 31.5218 9.95457 31.3516C9.9779 30.5766 10.0056 29.7256 9.93269 29.3459C9.76936 28.4977 6.63978 28.7748 6.24311 28.7411C5.96749 28.7171 5.01813 28.6018 4.40851 28.0983C4.07893 27.8254 3.93748 27.3078 3.88499 26.7944C3.84999 26.4554 3.58019 20.8334 3.58019 20.8334L1.51521 20.7082C1.38979 20.7011 1.26875 20.6575 1.16667 20.5858C0.392299 20.0316 0 19.5239 0 19.0752C0 18.8516 0 18.5449 4.06859 12.695C4.02338 12.176 3.90963 10.8469 3.85859 9.78914C3.80901 8.7877 5.70484 5.39371 7.95668 3.41474C9.71687 1.86754 12.8246 1.47092 14.5206 1.37244C14.8765 1.34994 15.19 1.61577 15.2119 1.96318C15.2338 2.31058 14.9596 2.60879 14.5994 2.62989C13.0755 2.7185 10.3001 3.06029 8.83737 4.34586C6.72572 6.20247 5.19737 9.17301 5.16384 9.74265C5.22801 11.0423 5.38842 12.7878 5.38988 12.8047C5.40301 12.9482 5.36509 13.0916 5.28197 13.2126C3.60925 15.615 1.80238 18.2943 1.36794 19.0681C1.46565 19.1778 1.62898 19.3297 1.79813 19.4634L4.24231 19.6124C4.57335 19.6321 4.83583 19.8881 4.85334 20.206C4.85334 20.206 5.06917 24.434 5.2048 26.3006C5.24126 26.7985 5.2646 27.0095 5.42209 27.1685C5.66709 27.416 5.99524 27.4821 6.35834 27.4849C8.04417 27.4976 11.031 27.236 11.171 28.9224C11.1958 29.2136 11.2847 29.9731 11.2745 30.7383H23.9985L23.997 25.6774C23.981 25.4524 23.9577 24.4664 24.681 23.6408C24.9041 23.3876 25.1841 23.2301 25.4553 23.0782C26.1597 22.6843 27.0376 22.1921 27.4955 19.4985C27.5772 19.0133 27.7435 16.2424 27.8353 14.4996C27.8543 14.1522 28.1547 13.8807 28.5207 13.9018C28.8809 13.9201 29.158 14.2155 29.1405 14.5629C29.1172 15.0144 28.9058 18.9922 28.7847 19.7022C28.2276 22.9837 26.9545 23.6969 26.1116 24.1679C25.9205 24.2748 25.7557 24.3676 25.6799 24.4548C25.2541 24.9401 25.3022 25.5899 25.3022 25.5969C25.3037 25.6138 25.3051 25.6363 25.3051 25.6518V31.3694C25.3037 31.7168 25.012 31.9995 24.6503 31.9995L24.6501 32ZM22.4029 22.7803C20.666 22.7803 19.2529 21.4174 19.2529 19.7422C19.2529 18.8364 19.6656 18.0234 20.3189 17.4664L14.7275 15.2511C14.306 15.8869 13.5681 16.3088 12.7281 16.3088C11.4214 16.3088 10.3583 15.2835 10.3583 14.0232C10.3583 12.7629 11.4214 11.7376 12.7281 11.7376C13.2094 11.7376 13.6585 11.8768 14.0333 12.1159L18.5148 6.25067C17.1396 5.86388 16.1319 4.63736 16.1319 3.18864C16.1319 1.43047 17.615 0 19.438 0C21.2609 0 22.744 1.43047 22.744 3.18864C22.744 4.30685 22.1446 5.29284 21.2375 5.86247L28.2973 9.87658C28.6167 9.25628 29.2816 8.82869 30.0473 8.82869C31.125 8.82869 32 9.67404 32 10.7135C32 11.7529 31.1235 12.5982 30.0473 12.5982C29.4523 12.5982 28.9185 12.3408 28.5598 11.9343L23.4234 16.8684C24.6601 17.2791 25.5511 18.4114 25.5511 19.742C25.5511 21.4186 24.1395 22.7801 22.4026 22.7801L22.4029 22.7803ZM22.0354 18.001C21.1939 18.1656 20.5595 18.8843 20.5595 19.7437C20.5595 20.7241 21.3864 21.5216 22.4029 21.5216C23.4193 21.5216 24.2462 20.7241 24.2462 19.7437C24.2462 18.7634 23.4193 17.9659 22.4029 17.9659C22.3124 17.9659 22.2235 17.9729 22.1345 17.9841C22.1024 17.9926 22.0689 17.9982 22.0354 18.001L22.0354 18.001ZM15.0981 14.0359L21.0598 16.3975L19.3478 7.28329L14.8999 13.1093C15.0282 13.3892 15.0982 13.7 15.0982 14.0264V14.0362L15.0981 14.0359ZM20.6193 6.97521L22.3387 16.1333L27.6878 10.994L20.6193 6.97521ZM12.7281 12.9993C12.1419 12.9993 11.665 13.4592 11.665 14.0246C11.665 14.5901 12.1419 15.05 12.7281 15.05C13.3144 15.05 13.7913 14.5901 13.7913 14.0246C13.7913 13.4592 13.3144 12.9993 12.7281 12.9993ZM30.0475 10.0905C29.6916 10.0905 29.4014 10.3704 29.4014 10.715C29.4014 11.0597 29.6916 11.3396 30.0475 11.3396C30.4033 11.3396 30.6935 11.0597 30.6935 10.715C30.695 10.369 30.4048 10.0905 30.0475 10.0905ZM19.4381 1.26152C18.3356 1.26152 17.4387 2.12653 17.4387 3.1899C17.4387 4.25327 18.3355 5.11827 19.4381 5.11827C19.5037 5.11827 19.5679 5.11546 19.632 5.10983C19.6452 5.10843 19.6597 5.10702 19.6729 5.10561C20.6645 4.99309 21.4375 4.17731 21.4375 3.19132C21.4375 2.12658 20.5406 1.26154 19.4381 1.26154L19.4381 1.26152Z" fill="#848484"/>
</svg>
