<svg width="32" height="32" viewBox="0 0 32 32" fill="none" xmlns="http://www.w3.org/2000/svg">
<path d="M28.5435 11.9037V11.8074V11.7749V11.7424C28.5435 11.7424 28.5435 11.7099 28.511 11.7099C28.511 11.7099 28.511 11.6774 28.4785 11.6774L28.446 11.6449L28.4135 11.6124L28.381 11.5799L28.3485 11.5474L26.1085 9.85119L26.1122 5.82367C26.1122 5.56742 25.8885 5.34367 25.6322 5.34367H19.9672C19.9347 5.24742 19.9035 5.15117 19.8397 5.08742C17.696 3.1349 14.4324 3.1349 12.2871 5.08742C12.2234 5.15117 12.1596 5.24742 12.1596 5.34367H6.43224C6.17599 5.34367 5.95224 5.56742 5.95224 5.82367V9.79102L3.64725 11.5198C3.4235 11.6798 3.391 11.9672 3.551 12.1923V27.9049V27.9374V27.9699C3.551 28.0024 3.551 28.0337 3.5835 28.0662C3.5835 28.0987 3.616 28.1299 3.64725 28.1624L3.67975 28.1949C3.71225 28.2274 3.7435 28.2587 3.776 28.2912C3.8085 28.3237 3.83975 28.3237 3.9035 28.3549H3.936C3.9685 28.3549 4.03225 28.3874 4.0635 28.3874H28.0635C28.096 28.3874 28.1598 28.3874 28.191 28.3549H28.2235C28.256 28.3549 28.2873 28.3224 28.351 28.2912C28.3835 28.2587 28.4148 28.2274 28.4473 28.1949L28.4798 28.1624C28.5123 28.1299 28.5123 28.0987 28.5435 28.0662C28.5435 28.0337 28.576 28.0024 28.576 27.9699V27.9374V27.9049V11.9036L28.5435 11.9037ZM27.5835 13.0237V26.8163L20.2235 20.129L27.5835 13.0237ZM27.3272 11.9362L26.1122 13.1199V11.0399L27.3272 11.9362ZM18.5922 5.34356H13.5035C15.0723 4.31981 17.0562 4.31981 18.5922 5.34356ZM25.1522 6.30356V14.0472L19.4872 19.5199C17.4709 17.9524 14.6546 17.9524 12.6398 19.5199L6.91248 13.9836V6.30356H25.1522ZM11.9035 20.1272L4.54352 26.8146V13.0232L11.9035 20.1272ZM5.95216 13.0559L4.73591 11.8721L5.95216 10.9446V13.0559ZM5.31216 27.4232L12.9285 20.5106C14.721 18.8781 17.4085 18.8781 19.2011 20.5106L26.8174 27.4232H5.31216ZM14.2395 14.2396C14.1758 14.2071 14.112 14.2071 14.047 14.2071C13.9195 14.2071 13.8233 14.2396 13.727 14.3346C13.6633 14.4308 13.5995 14.5271 13.5995 14.6546C13.5995 14.7508 13.632 14.8471 13.6958 14.9108C13.7595 14.9746 13.8233 15.0383 13.8883 15.0708C14.4008 15.2946 14.9758 15.4233 15.5845 15.4871L15.5833 15.9996C15.5833 16.0958 15.6158 16.1921 15.6795 16.2558C15.7433 16.3196 15.807 16.3521 15.9033 16.3521C15.9995 16.3521 16.0958 16.3196 16.1595 16.2558C16.2233 16.1921 16.2558 16.0958 16.2558 15.9996V15.4558C16.6395 15.4233 16.9595 15.3283 17.2483 15.1996C17.5683 15.0396 17.792 14.8471 17.9845 14.5921C18.1445 14.3358 18.2408 14.0483 18.2408 13.7283C18.2408 13.3446 18.1445 13.0246 17.9533 12.7684C17.7608 12.5446 17.537 12.3521 17.2495 12.2246C16.9933 12.1284 16.6733 12.0009 16.257 11.9046V10.0171C16.6733 10.0496 17.057 10.1134 17.4095 10.2409C17.4733 10.2734 17.5371 10.2734 17.5695 10.2734C17.6971 10.2734 17.7933 10.2409 17.8895 10.1459C17.9533 10.0496 18.017 9.95337 18.017 9.85837C18.017 9.66587 17.9208 9.50585 17.7295 9.44211C17.3133 9.28211 16.8333 9.18586 16.2895 9.15461L16.287 8.6396C16.287 8.54335 16.2545 8.4471 16.1908 8.38335C16.0633 8.25585 15.8383 8.25585 15.7108 8.38335C15.647 8.4471 15.6145 8.54335 15.6145 8.6396V9.18335C15.2308 9.21584 14.8783 9.31085 14.622 9.47085C14.3345 9.63085 14.0783 9.85459 13.9495 10.1108C13.822 10.3671 13.7258 10.6546 13.7258 10.9746C13.7258 11.3271 13.822 11.6146 14.0133 11.8708C14.2058 12.0946 14.4295 12.2871 14.717 12.4146C14.9733 12.5421 15.2933 12.6383 15.6445 12.7346V14.5583C15.1358 14.5271 14.687 14.4321 14.2395 14.2396L14.2395 14.2396ZM14.8795 11.4558C14.7195 11.3283 14.6233 11.1683 14.6233 10.9433C14.6233 10.7195 14.7195 10.527 14.9108 10.367C15.0708 10.2395 15.327 10.1433 15.6145 10.0795V11.7758C15.2958 11.6795 15.0395 11.5833 14.8795 11.4558L14.8795 11.4558ZM17.0558 13.2158C17.2483 13.3121 17.312 13.4721 17.312 13.6633C17.312 14.207 16.9595 14.4958 16.2558 14.5596V12.8958C16.6395 13.0233 16.8958 13.1196 17.0558 13.2158H17.0558Z" fill="#848484"/>
</svg>
