<svg width="56" height="56" viewBox="0 0 56 56" fill="none" xmlns="http://www.w3.org/2000/svg">
<g clip-path="url(#clip0_204_3709)">
<rect width="56" height="56" fill="white"/>
<path fill-rule="evenodd" clip-rule="evenodd" d="M13 27H5V25.5H13V27Z" fill="#848484"/>
<path fill-rule="evenodd" clip-rule="evenodd" d="M51 27H43V25.5H51V27Z" fill="#848484"/>
<path fill-rule="evenodd" clip-rule="evenodd" d="M28 4L28 12L26.5 12L26.5 4L28 4Z" fill="#848484"/>
<path fill-rule="evenodd" clip-rule="evenodd" d="M17.3934 16.3934L11.7366 10.7366L12.7972 9.6759L18.4541 15.3328L17.3934 16.3934Z" fill="#848484"/>
<path fill-rule="evenodd" clip-rule="evenodd" d="M44.2636 43.2635L38.6067 37.6066L39.6674 36.546L45.3242 42.2028L44.2636 43.2635Z" fill="#848484"/>
<path fill-rule="evenodd" clip-rule="evenodd" d="M17.3934 37.6066L11.7366 43.2635L10.6759 42.2028L16.3328 36.546L17.3934 37.6066Z" fill="#848484"/>
<path fill-rule="evenodd" clip-rule="evenodd" d="M44.2634 10.7366L38.6066 16.3934L37.5459 15.3328L43.2028 9.67591L44.2634 10.7366Z" fill="#848484"/>
<path d="M36.235 17.1543C33.477 14.6842 29.9137 13.5527 26.2019 13.9597C20.1884 14.6249 15.4212 19.4863 14.8666 25.5189C14.5018 29.4894 15.9452 33.3321 18.8263 36.0604C20.4747 37.6216 21.4203 39.9015 21.4203 42.3137V44.9093C21.4203 47.1493 22.8724 49.0515 24.883 49.7373C24.9063 50.4411 25.1859 51.1052 25.6924 51.6172C26.2209 52.1454 26.921 52.4359 27.6651 52.4359C29.1727 52.4359 30.3969 51.2321 30.4457 49.7368C32.4548 49.0506 33.9058 47.1488 33.9058 44.9099V42.3125C33.9058 39.9159 34.8788 37.6467 36.6451 35.9217C39.1411 33.4831 40.5162 30.2194 40.5162 26.7319C40.5162 23.082 38.9556 19.5911 36.2347 17.1544L36.235 17.1543ZM27.6654 50.8209C27.3523 50.8209 27.0576 50.6982 26.8376 50.4785C26.7047 50.3441 26.612 50.1842 26.5546 50.013H28.7761C28.6207 50.4804 28.1841 50.8209 27.6653 50.8209L27.6654 50.8209ZM29.4973 48.3286C29.492 48.3297 29.4864 48.3301 29.4811 48.3312C29.2611 48.3748 29.0344 48.3984 28.802 48.3984H26.5255C26.2951 48.3984 26.0702 48.3748 25.8517 48.3316C25.8427 48.3293 25.8333 48.329 25.8243 48.3275C24.2353 48.002 23.0362 46.5931 23.0362 44.9091L23.0358 42.6567H32.2913V44.9094C32.2917 46.5953 31.0897 48.0053 29.4972 48.3285L29.4973 48.3286ZM35.5176 34.7666C33.7513 36.4916 32.6676 38.685 32.3777 41.043H28.2743V29.6106L28.7015 28.1233L29.1643 29.7308C29.2638 30.0769 29.5803 30.3145 29.9399 30.3145C30.2995 30.3145 30.616 30.0765 30.7155 29.7308L31.955 25.4253C32.0781 24.997 31.8311 24.5498 31.4028 24.4263C30.9733 24.3024 30.5266 24.5506 30.4038 24.9785L29.9406 26.5886L29.4773 24.9785C29.3778 24.6324 29.0614 24.3948 28.7014 24.3948C28.3417 24.3948 28.0253 24.6331 27.9258 24.9793L27.475 26.548C27.4723 26.548 27.4701 26.5477 27.4678 26.5477C27.4637 26.5477 27.4592 26.5488 27.4543 26.5492L27.0035 24.9792C26.904 24.6331 26.5875 24.3947 26.2275 24.3947C25.8675 24.3947 25.551 24.6331 25.4516 24.9792L24.9913 26.5818L24.5318 24.9792C24.4087 24.5502 23.9608 24.3013 23.5336 24.4266C23.1053 24.5498 22.8571 24.9965 22.9803 25.4249L24.2154 29.7303C24.3149 30.0765 24.6309 30.3148 24.9913 30.3148C25.3513 30.3148 25.6678 30.0765 25.7673 29.7303L26.2279 28.1259L26.6607 29.6328L26.66 41.043H22.9529C22.6703 38.6682 21.6112 36.4733 19.9377 34.8883C17.418 32.5019 16.1567 29.1413 16.4751 25.6663C16.9593 20.3942 21.1248 16.1462 26.3794 15.565C26.8152 15.5165 27.2484 15.4929 27.679 15.4929C30.452 15.4929 33.0697 16.4873 35.158 18.3572C37.5373 20.488 38.9023 23.5404 38.9023 26.7317C38.9015 29.7814 37.6994 32.6348 35.5172 34.7671L35.5176 34.7666Z" fill="#848484"/>
</g>
<defs>
<clipPath id="clip0_204_3709">
<rect width="56" height="56" fill="white"/>
</clipPath>
</defs>
</svg>
