<svg width="56" height="56" viewBox="0 0 56 56" fill="none" xmlns="http://www.w3.org/2000/svg">
<rect width="56" height="56" fill="white"/>
<path d="M5.12451 9.24772C4.50353 9.24772 4 8.74417 4 8.1232C4 7.50223 4.50354 7 5.12451 7H11.5218C12.0605 7 12.5098 7.37723 12.62 7.88383L13.8356 11.9774H48.6058C49.2268 11.9774 49.7303 12.481 49.7303 13.1019V31.1289C49.7303 31.7223 49.2695 32.2094 48.6864 32.2508L38.3178 33.7116C38.2663 33.7218 38.2137 33.7307 38.1608 33.7338L28.224 35.1344C28.171 35.146 28.1181 35.1536 28.0625 35.1566L19.7302 36.3313H19.7258L15.3315 37.2182V42.9883H17.7263C17.9478 41.9194 18.4794 40.9635 19.224 40.2207C20.2195 39.2251 21.5966 38.6087 23.1164 38.6087C24.636 38.6087 26.0118 39.2252 27.0089 40.2207C27.7518 40.9635 28.2847 41.9194 28.5066 42.9883H41.0723C41.2939 41.9194 41.8254 40.9635 42.57 40.2207C43.5668 39.2238 44.9426 38.6087 46.4625 38.6087C47.982 38.6087 49.3595 39.2252 50.355 40.2207C51.3518 41.2162 51.967 42.5933 51.967 44.1132C51.967 45.6327 51.3505 47.0085 50.355 48.0056C49.3595 49.0012 47.9824 49.6176 46.4625 49.6176C44.943 49.6176 43.5672 49.0011 42.57 48.0056C41.8272 47.2611 41.2942 46.3069 41.0723 45.2366H28.5066C28.2851 46.3055 27.7535 47.2614 27.0089 48.0056C26.0121 49.0012 24.6363 49.6176 23.1164 49.6176C21.5969 49.6176 20.2195 49.0011 19.224 48.0056C18.4794 47.2611 17.9482 46.3069 17.7263 45.2366H14.2083C13.5873 45.2366 13.0837 44.7331 13.0837 44.1134V36.3039H13.0882C13.0882 35.7812 13.4552 35.3128 13.9881 35.2057L18.1476 34.3658L14.8484 23.2544C14.8293 23.2029 14.8132 23.1503 14.8013 23.096L11.9527 13.5C11.9336 13.4485 11.9176 13.3942 11.9056 13.3399L10.69 9.24806L5.12451 9.24772ZM48.7609 41.8094C48.1707 41.2192 47.3572 40.8549 46.4573 40.8549C45.5574 40.8549 44.7439 41.2192 44.1536 41.8094C43.5648 42.3983 43.1991 43.2132 43.1991 44.1131C43.1991 45.013 43.5634 45.8265 44.1536 46.4167C44.7439 47.0056 45.5574 47.3713 46.4573 47.3713C47.3572 47.3713 48.1707 47.007 48.7609 46.4167C49.3498 45.8278 49.7155 45.013 49.7155 44.1131C49.7155 43.2132 49.3512 42.3997 48.7609 41.8094ZM25.4159 41.8094C24.827 41.2192 24.0122 40.8549 23.1123 40.8549C22.2124 40.8549 21.3989 41.2192 20.8086 41.8094C20.2184 42.3983 19.8541 43.2132 19.8541 44.1131C19.8541 45.013 20.2184 45.8265 20.8086 46.4167C21.3975 47.0056 22.2124 47.3713 23.1123 47.3713C24.0122 47.3713 24.8257 47.007 25.4159 46.4167C26.0048 45.8278 26.3705 45.013 26.3705 44.1131C26.3705 43.2132 26.0062 42.3997 25.4159 41.8094ZM16.7314 21.7321H26.857V14.225H14.5028L16.7317 21.7321H16.7314ZM29.1057 21.7321H36.9535V14.225H29.1057V21.7321ZM39.2033 21.7321H47.4813V14.225H39.2033V21.7321ZM47.4813 23.9802H39.2033V31.32L47.4813 30.1541V23.9802ZM36.9554 23.9802H29.1076V32.7442L36.9554 31.6371V23.9802ZM26.8578 23.9802H17.399L20.3663 33.9747L26.8574 33.0601L26.8578 23.9802Z" fill="#848484"/>
<path fill-rule="evenodd" clip-rule="evenodd" d="M5.12451 7.25C4.64124 7.25 4.25 7.64068 4.25 8.1232C4.25 8.6061 4.6416 8.99772 5.12451 8.99772L10.8765 8.99807L12.1478 13.2774L12.1498 13.2862C12.1592 13.329 12.172 13.3722 12.1871 13.4131L12.19 13.4209L15.0435 23.0335L15.0454 23.0423C15.0546 23.0837 15.0671 23.1252 15.0828 23.1675L15.0857 23.1753L18.4651 34.5568L14.0376 35.4507C13.624 35.5339 13.3382 35.8976 13.3382 36.3039V36.5539H13.3337V44.1134C13.3337 44.5948 13.7252 44.9866 14.2083 44.9866H17.9297L17.9711 45.1859C18.1828 46.207 18.6896 47.1178 19.4007 47.8289C20.3513 48.7793 21.6659 49.3676 23.1164 49.3676C24.5673 49.3676 25.8803 48.7795 26.8323 47.8288C27.5433 47.118 28.0505 46.2056 28.2618 45.1859L28.3031 44.9866H41.2758L41.3171 45.1859C41.5288 46.2067 42.0372 47.1176 42.7468 47.8289C43.6992 48.7795 45.0121 49.3676 46.4625 49.3676C47.9134 49.3676 49.2276 48.7795 50.1781 47.829C51.1288 46.8767 51.717 45.5636 51.717 44.1132C51.717 42.6621 51.13 41.3479 50.1783 40.3975C49.2278 39.4471 47.9131 38.8587 46.4625 38.8587C45.0115 38.8587 43.6986 39.4456 42.7468 40.3974C42.0359 41.1066 41.5285 42.0192 41.3171 43.039L41.2758 43.2383H28.3032L28.2619 43.0391C28.0502 42.0194 27.5416 41.1069 26.8322 40.3974C25.8798 39.4468 24.5669 38.8587 23.1164 38.8587C21.6655 38.8587 20.3513 39.4469 19.4007 40.3974C18.6899 41.1066 18.1825 42.0192 17.9711 43.039L17.9298 43.2383H15.0815V37.0136L19.7008 36.0813H19.7127L28.0381 34.9076L28.0487 34.907C28.0903 34.9047 28.1299 34.8991 28.1704 34.8902L28.1797 34.8882L38.1361 33.4848L38.1463 33.4842C38.182 33.4821 38.2213 33.4758 38.2691 33.4664L38.2829 33.4636L48.6601 32.002L48.6687 32.0014C49.1218 31.9693 49.4803 31.5902 49.4803 31.1289V13.1019C49.4803 12.619 49.0887 12.2274 48.6058 12.2274H13.6491L12.3777 7.94607L12.3757 7.93697C12.29 7.54299 11.9405 7.25 11.5218 7.25H5.12451ZM13.9386 34.9606C13.373 35.0744 12.9607 35.5206 12.8613 36.0539L13.9386 34.9606ZM13.9386 34.9606L17.8301 34.1749L14.611 23.3332C14.5908 23.2777 14.573 23.2198 14.5592 23.159L11.7153 13.5788C11.6947 13.522 11.6771 13.4626 11.6635 13.4029L10.5034 9.49805L5.12451 9.49772C4.36546 9.49771 3.75 8.88224 3.75 8.1232C3.75 7.36378 4.36585 6.75 5.12451 6.75H11.5218C12.177 6.75 12.7239 7.20674 12.8621 7.82113L14.0222 11.7274H48.6058C49.3649 11.7274 49.9803 12.3429 49.9803 13.1019V31.1289C49.9803 31.8513 49.4219 32.4445 48.7131 32.4995L38.3595 33.9582C38.3086 33.9681 38.2494 33.9783 38.1863 33.9826L28.2678 35.3807C28.2091 35.3931 28.1496 35.4016 28.0874 35.4056L19.7577 36.5799L15.5815 37.4228V42.7383H17.5265C17.7804 41.701 18.3155 40.7739 19.0472 40.0439C20.0877 39.0034 21.5276 38.3587 23.1164 38.3587C24.705 38.3587 26.1436 39.0035 27.1856 40.0437C27.9154 40.7736 28.4519 41.7008 28.7063 42.7383H40.8726C41.1265 41.701 41.6616 40.7739 42.3932 40.0439C43.4351 39.002 44.8737 38.3587 46.4625 38.3587C48.051 38.3587 49.4913 39.0034 50.5318 40.0439C51.5737 41.0845 52.217 42.5245 52.217 44.1132C52.217 45.7018 51.5721 47.1403 50.5319 48.1823C49.4914 49.2228 48.0513 49.8676 46.4625 49.8676C44.8739 49.8676 43.4354 49.2228 42.3934 48.1826C41.6637 47.4512 41.127 46.5253 40.8726 45.4866H28.7064C28.4524 46.524 27.9173 47.4512 27.1857 48.1825C26.144 49.2228 24.7054 49.8676 23.1164 49.8676C21.528 49.8676 20.0877 49.2229 19.0472 48.1824C18.3156 47.4509 17.7807 46.5251 17.5265 45.4866H14.2083C13.4494 45.4866 12.8337 44.8713 12.8337 44.1134V36.0539H12.8613M14.1678 13.975H27.107V21.9821H16.7317L16.7314 21.7322L16.4921 21.8033L14.1678 13.975ZM16.9183 21.4821L14.8378 14.475H26.607V21.4821H16.9183ZM28.8557 13.975H37.2035V21.9821H28.8557V13.975ZM29.3557 14.475V21.4821H36.7035V14.475H29.3557ZM38.9533 13.975H47.7313V21.9821H38.9533V13.975ZM39.4533 14.475V21.4821H47.2313V14.475H39.4533ZM17.064 23.7302H27.1078L27.1074 33.2774L20.188 34.2523L17.064 23.7302ZM17.734 24.2302L20.5447 33.6971L26.6074 32.8429L26.6078 24.2302H17.734ZM28.8576 23.7302H37.2054V31.8543L28.8576 33.0319V23.7302ZM29.3576 24.2302V32.4564L36.7054 31.4199V24.2302H29.3576ZM38.9533 23.7302H47.7313V30.3714L38.9533 31.6077V23.7302ZM39.4533 24.2302V31.0323L47.2313 29.9369V24.2302H39.4533ZM20.6321 41.6324C21.2673 40.9974 22.1435 40.6049 23.1123 40.6049C24.081 40.6049 24.9589 40.9973 25.5929 41.6329C26.228 42.268 26.6205 43.1443 26.6205 44.1131C26.6205 45.0821 26.2265 45.9597 25.5927 46.5935C24.9575 47.2287 24.0812 47.6213 23.1123 47.6213C22.1433 47.6213 21.2656 47.2273 20.6319 46.5935C19.9967 45.9583 19.6041 45.082 19.6041 44.1131C19.6041 43.1443 19.9966 42.2665 20.6321 41.6324ZM23.1123 41.1049C22.2814 41.1049 21.5307 41.4409 20.9854 41.9862C20.4404 42.5299 20.1041 43.282 20.1041 44.1131C20.1041 44.944 20.4401 45.6946 20.9854 46.24C21.5294 46.784 22.2815 47.1213 23.1123 47.1213C23.9432 47.1213 24.6938 46.7853 25.2392 46.24C25.7832 45.6959 26.1205 44.9439 26.1205 44.1131C26.1205 43.2822 25.7845 42.5315 25.2392 41.9862C24.6954 41.4412 23.9434 41.1049 23.1123 41.1049ZM43.9769 41.6327C44.6121 40.9974 45.4884 40.6049 46.4573 40.6049C47.4262 40.6049 48.3025 40.9975 48.9377 41.6327C49.5729 42.2679 49.9655 43.1442 49.9655 44.1131C49.9655 45.0821 49.5715 45.9597 48.9377 46.5935C48.3025 47.2287 47.4262 47.6213 46.4573 47.6213C45.4882 47.6213 44.612 47.2272 43.9771 46.5937C43.3419 45.9585 42.9491 45.082 42.9491 44.1131C42.9491 43.1441 43.3431 42.2664 43.9769 41.6327ZM46.4573 41.1049C45.6264 41.1049 44.8757 41.4409 44.3304 41.9862C43.7864 42.5302 43.4491 43.2822 43.4491 44.1131C43.4491 44.944 43.7851 45.6946 44.3304 46.24C44.876 46.7842 45.6267 47.1213 46.4573 47.1213C47.2882 47.1213 48.0388 46.7853 48.5842 46.24C49.1282 45.6959 49.4655 44.9439 49.4655 44.1131C49.4655 43.2822 49.1295 42.5315 48.5842 41.9862C48.0389 41.4409 47.2882 41.1049 46.4573 41.1049Z" fill="white"/>
</svg>
