<svg width="56" height="56" viewBox="0 0 56 56" fill="none" xmlns="http://www.w3.org/2000/svg">
<rect width="56" height="56" fill="white"/>
<path fill-rule="evenodd" clip-rule="evenodd" d="M28.9499 6V15.9582H27.4877V6H28.9499ZM37.8849 8.45852L31.8935 17.2389L30.6846 16.4186L36.6761 7.63818L37.8849 8.45852ZM19.9106 8.27964L25.902 17.0601L24.6931 17.8804L18.7017 9.09998L19.9106 8.27964ZM10.1168 17.9551L17.4231 21.7438L16.4464 23.7567C17.5619 24.0085 18.7476 23.8345 19.7403 23.2495L20.1988 22.9794C22.0439 21.8921 24.2708 21.6554 26.3042 22.3304L26.4358 22.2588C28.1578 21.3221 30.2091 21.2004 32.0303 21.9269L34.8255 23.0418C35.8826 23.4635 37.0506 23.5216 38.1446 23.2069L39.2833 22.8794L38.5962 21.1928L46.1963 17.9862L53 34.6876L45.3999 37.8942L44.5204 35.7353L42.9492 37.0175C42.9892 38.8964 41.5033 40.4799 39.6154 40.5592C39.4091 41.1582 39.0488 41.8371 38.4831 42.3574C38.0885 42.7204 37.5871 43.0112 36.9735 43.1263C36.536 43.2085 36.0667 43.1966 35.5686 43.0815C35.2518 43.5795 34.7908 44.1222 34.1937 44.5244C33.4847 45.0018 32.5795 45.2778 31.5542 45.0428C31.3036 45.5562 30.9185 46.1007 30.3711 46.4877C29.9489 46.7861 29.4291 46.9901 28.8205 46.9996C28.216 47.0092 27.5767 46.8264 26.9103 46.4387L26.8913 46.4277L25.9782 45.8206C25.3204 46.8564 23.9837 47.2832 22.8262 46.7712C22.0949 46.4478 21.5942 45.8201 21.4073 45.1038C20.8252 45.3044 20.1685 45.2942 19.5611 45.0256C18.7371 44.6611 18.2057 43.9101 18.0865 43.0814C17.5979 43.1756 17.0765 43.1269 16.5872 42.9104C15.6708 42.5051 15.1164 41.6219 15.0881 40.6853C14.7406 40.6944 14.3856 40.6286 14.0467 40.4787L13.85 40.3917C12.7014 39.8836 12.1468 38.5912 12.5389 37.4267L10.4039 36.21L9.58565 37.8965L2 34.4051L10.1168 17.9551ZM11.0423 34.8944L13.4085 36.2428C14.0826 35.7548 14.9919 35.6282 15.8081 35.9893L16.0048 36.0763C16.5134 36.3012 16.9055 36.6799 17.1506 37.1332C17.7683 36.8754 18.487 36.8619 19.1474 37.154C19.6728 37.3864 20.0792 37.7758 20.3357 38.2424C21.0125 37.8465 21.8641 37.7705 22.6361 38.1119C23.7208 38.5917 24.2984 39.7411 24.0966 40.8561C24.5166 40.8145 24.9528 40.8776 25.3661 41.0605C26.6395 41.6237 27.2139 43.1098 26.6491 44.3796L26.6029 44.4835L27.6652 45.1897C28.1445 45.4651 28.5175 45.5461 28.7974 45.5417C29.0766 45.5373 29.3144 45.4474 29.5255 45.2981C29.8567 45.064 30.1144 44.6865 30.2807 44.3173L27.7237 41.7674L28.7577 40.7363L31.5443 43.5152C32.2817 43.8088 32.8789 43.6502 33.3754 43.3159C33.7634 43.0546 34.083 42.6853 34.3094 42.3386L30.6099 38.6493L31.6438 37.6182L35.6175 41.581C36.0705 41.7333 36.426 41.7453 36.703 41.6933C37.0078 41.6361 37.2671 41.4922 37.4918 41.2855C37.8524 40.9538 38.1036 40.4766 38.2467 40.0443L33.75 35.7842L34.757 34.727L39.3752 39.1021C40.5638 39.1533 41.5281 38.1774 41.4861 37.0152L36.4616 31.7768L28.4268 27.8849C28.3519 27.8486 28.2698 27.8298 28.1866 27.8298C28.0677 27.8298 27.9519 27.8683 27.8568 27.9394L27.6351 28.1052C27.4636 28.2335 27.3244 28.3998 27.2286 28.591L26.8488 29.3485C26.5385 29.9673 26.0155 30.4541 25.3751 30.7202L25.2373 30.7775C23.7615 31.3907 22.074 30.6248 21.5684 29.1122C21.3296 28.3979 21.3956 27.6173 21.7509 26.953L22.4765 25.5961C22.9386 24.7323 23.5937 23.9904 24.3871 23.4255C23.1946 23.341 21.9917 23.6165 20.9426 24.2347L20.4842 24.5049C19.0663 25.3404 17.3622 25.5423 15.7969 25.0954L11.0423 34.8944ZM42.251 35.7031L43.9444 34.3212L39.8367 24.2378L38.5498 24.608C37.1433 25.0126 35.6416 24.9379 34.2824 24.3957L31.4873 23.2807C30.0708 22.7157 28.4753 22.8104 27.136 23.5389L25.735 24.301C24.8991 24.7557 24.2148 25.4445 23.7667 26.2823L23.0411 27.6392C22.8746 27.9505 22.8437 28.3163 22.9555 28.651C23.1925 29.3599 23.9833 29.7189 24.675 29.4315L24.8128 29.3742C25.1292 29.2427 25.3876 29.0022 25.541 28.6964L25.9207 27.9389C26.1181 27.5452 26.4047 27.2028 26.7578 26.9387L26.9795 26.7729C27.3277 26.5124 27.7513 26.3716 28.1866 26.3716C28.4911 26.3716 28.7917 26.4406 29.0656 26.5733L37.3367 30.5796L42.251 35.7031ZM24.9343 44.6387L25.3125 43.7884C25.5499 43.2547 25.3085 42.6301 24.7733 42.3934C24.2381 42.1567 23.6118 42.3975 23.3744 42.9312L22.8798 44.0433C22.6424 44.577 22.8838 45.2016 23.419 45.4383C23.9157 45.658 24.4908 45.4664 24.7607 45.0112L24.7085 44.9765L24.9343 44.6387ZM19.855 41.7574C19.8762 41.7161 19.8964 41.6739 19.9155 41.631L20.4304 40.4732C20.4496 40.4302 20.4674 40.387 20.4839 40.3436L20.6444 39.9826C20.8818 39.4489 21.5081 39.2081 22.0433 39.4449C22.5785 39.6816 22.8199 40.3061 22.5825 40.8398L21.5528 43.1549C21.3155 43.6886 20.6892 43.9294 20.154 43.6926C19.6188 43.4559 19.3774 42.8314 19.6148 42.2977L19.855 41.7574ZM19.1272 39.7975C19.3051 39.284 19.0618 38.7113 18.5546 38.487C18.1571 38.3112 17.7094 38.3987 17.4081 38.674C17.3752 38.8696 17.3174 39.0642 17.2331 39.2538C17.1078 39.5355 16.9349 39.7814 16.7281 39.9862L16.6408 40.1825C16.4034 40.7162 16.6448 41.3408 17.18 41.5775C17.6872 41.8018 18.2762 41.5973 18.5385 41.1211L19.1272 39.7975ZM15.9693 38.1465C15.9252 37.8323 15.7242 37.5473 15.412 37.4092L15.2153 37.3222C14.7344 37.1095 14.1717 37.3258 13.9584 37.8053C13.7451 38.2849 13.962 38.8461 14.4429 39.0588L14.6396 39.1458C14.9395 39.2784 15.2711 39.2442 15.5301 39.0834L15.8191 38.4335C15.8636 38.3334 15.9139 38.2377 15.9693 38.1465ZM40.4934 21.9756L46.1963 35.9749L51.1028 33.9048L45.3999 19.9055L40.4934 21.9756ZM10.7687 19.9366L3.9738 33.7076L8.89479 35.9726L15.4881 22.384L10.7687 19.9366Z" fill="#848484"/>
</svg>
