<svg width="56" height="56" viewBox="0 0 56 56" fill="none" xmlns="http://www.w3.org/2000/svg">
<g id="pass_request_icon">
<path id="Vector" d="M36.75 22.3523C36.75 26.9651 32.8325 30.7045 28 30.7045M36.75 22.3523C36.75 17.7394 32.8325 14 28 14M36.75 22.3523H19.25M28 30.7045C23.1675 30.7045 19.25 26.9651 19.25 22.3523M28 30.7045C28.6523 30.7045 29.579 30.1688 30.4175 28.5683C31.2185 27.0391 31.75 24.8432 31.75 22.3523C31.75 19.8614 31.2185 17.6654 30.4175 16.1362C29.579 14.5357 28.6523 14 28 14M28 30.7045C27.3478 30.7045 26.421 30.1688 25.5825 28.5683C24.7815 27.0391 24.25 24.8432 24.25 22.3523C24.25 19.8614 24.7815 17.6654 25.5825 16.1362C26.421 14.5357 27.3478 14 28 14M19.25 22.3523C19.25 17.7394 23.1675 14 28 14M36.75 35.4773H19.25M34.25 40.25H21.75M12.25 11.3167C12.25 9.89915 13.3349 8.75 14.6731 8.75H41.3269C42.6652 8.75 43.75 9.89915 43.75 11.3167V44.6833C43.75 46.1009 42.6652 47.25 41.3269 47.25H14.6731C13.3349 47.25 12.25 46.1009 12.25 44.6833V11.3167Z" stroke="#6A6A6A" stroke-width="1.6" stroke-linecap="round" stroke-linejoin="round"/>
</g>
</svg>
