<svg width="56" height="56" viewBox="0 0 56 56" fill="none" xmlns="http://www.w3.org/2000/svg">
<rect width="56" height="56" fill="white"/>
<path d="M21.2052 4C19.62 4 18.3622 5.29466 18.3622 6.85791V23.9135C18.3622 25.4763 19.62 26.7631 21.2052 26.7631H50.1623C51.7242 26.7631 52.999 25.4963 52.999 23.9135V6.85791C52.999 5.26193 51.7246 4 50.1623 4H21.2052ZM21.2052 5.69107H50.1623C50.8129 5.69107 51.3157 6.22018 51.3157 6.85752V9.07013H20.0519V6.85752C20.0519 6.19679 20.5878 5.69107 21.2052 5.69107ZM20.0519 10.7597H51.3157V13.2989H20.0519V10.7597ZM20.0519 14.9819H51.3157V23.9131C51.3157 24.5474 50.8129 25.0731 50.1623 25.0731H21.2052C20.5746 25.0731 20.0519 24.5738 20.0519 23.9131V14.9819ZM24.3983 16.8841C23.392 16.8841 22.5899 17.7153 22.5899 18.7306V20.7384C22.5899 21.754 23.3921 22.5897 24.3983 22.5897H29.2263C30.2326 22.5897 31.0348 21.7536 31.0348 20.7384V18.7306C31.0348 17.7222 30.2325 16.8841 29.2263 16.8841H24.3983ZM24.3983 18.5737H29.2263C29.2897 18.5737 29.3436 18.634 29.3436 18.7306V20.7384C29.3436 20.8383 29.2901 20.9002 29.2263 20.9002H24.3983C24.3349 20.9002 24.281 20.8417 24.281 20.7384V18.7306C24.281 18.6438 24.3346 18.5737 24.3983 18.5737ZM21.6903 32.7271C20.3797 32.7271 18.0401 33.6107 16.1872 34.4973C15.2183 34.9612 14.4168 35.3715 13.8111 35.6984C13.3728 34.934 12.5458 34.4166 11.61 34.4166H6.53943C5.11721 34.4166 4 35.5665 4 36.9558V48.7777C4 50.1671 5.12658 51.3169 6.53943 51.3169H11.61C12.9995 51.3169 14.1411 50.1934 14.1411 48.7777V48.6325C15.7889 48.3655 17.3616 48.0069 19.2117 47.9363C20.256 47.9363 22.2082 49.4162 23.477 50.3122C25.2851 51.5884 27.2327 53 29.3448 53C29.9807 53 30.6192 52.7907 31.4603 52.4769C36.0823 50.7493 45.8157 45.207 51.5104 41.9121C52.932 41.0899 53.4195 39.2775 52.6075 37.8715C51.8287 36.5225 50.245 36.1869 48.71 36.7183L36.8871 40.8116C36.68 39.9362 36.1237 39.1521 35.2883 38.6698C31.984 36.898 28.5597 35.0777 25.1802 33.7C24.0178 33.232 22.6317 32.7266 21.6903 32.7266V32.7271ZM21.6375 34.4166C22.4559 34.4298 23.7126 34.9276 24.5499 35.2648C28.013 36.7352 31.0468 38.2897 34.4408 40.1354C35.3889 40.6826 35.4482 41.7778 35.0646 42.4419C34.6142 43.2218 33.5744 43.5359 32.7511 43.0608L27.6312 40.1037C26.5823 39.4984 25.7409 40.9587 26.7897 41.5639L31.91 44.5191C33.5186 45.4479 35.5964 44.8936 36.5253 43.2847C36.6472 43.0739 36.749 42.848 36.8207 42.6248L49.2653 38.3135C51.4348 37.5619 51.8149 39.7949 50.6944 40.4337C44.0681 44.2106 35.4845 49.1295 30.8683 50.8924C30.0996 51.179 29.4777 51.3162 29.3454 51.3162C28.0781 51.3162 26.2323 50.192 24.4495 48.9335C23.2403 48.1201 21.0592 46.2763 19.2122 46.2457C17.8454 46.2488 15.6202 46.6436 14.1417 46.9155V37.45C14.1417 37.45 15.5538 36.6656 16.9104 36.0244C18.6627 35.1966 20.5296 34.4817 21.6378 34.4156L21.6375 34.4166ZM6.53954 36.1061H11.6101C12.0929 36.1061 12.4515 36.4995 12.4515 36.9558V48.7777C12.4515 49.237 12.0793 49.6273 11.6101 49.6273H6.53954C6.08657 49.6273 5.69131 49.2604 5.69131 48.7777V36.9558C5.69131 36.4825 6.06281 36.1061 6.53954 36.1061ZM8.22767 46.2452C7.76113 46.2452 7.38283 46.6235 7.38283 47.09C7.38283 47.5565 7.76113 47.9348 8.22767 47.9348C8.69421 47.9348 9.0725 47.5565 9.0725 47.09C9.0725 46.6235 8.69421 46.2452 8.22767 46.2452Z" fill="#848484"/>
</svg>
