<svg width="56" height="56" viewBox="0 0 56 56" fill="none" xmlns="http://www.w3.org/2000/svg">
<g id="pharma_request_icon">
<g id="Vector">
<path d="M39.2634 16.3287H37.8364L38.7941 13.0449C39.6304 12.8176 40.248 12.0178 40.248 11.1105C40.248 10.0247 39.3647 9.10547 38.2789 9.10547H31.7153C30.6295 9.10547 29.7462 10.0591 29.7462 11.1449C29.7462 12.0522 30.3638 12.7824 31.2 13.0097L32.1578 16.3287H30.7308C25.9762 16.3287 21.9983 19.9683 21.0835 24.2798H16.2909C15.205 24.2798 14.1952 25.2257 14.1952 26.3116V26.8555H12.6809C11.5951 26.8555 10.5556 27.8512 10.5556 28.937V29.4312H9.72729C8.27963 29.4312 6.91602 30.7711 6.91602 32.2188V44.6896C6.91602 46.1373 8.27963 47.1812 9.72729 47.1812H44.5143C47.0477 47.1812 48.9113 45.254 48.9113 42.7205V26.3116C48.9113 20.8828 44.6922 16.3287 39.2634 16.3287ZM31.7153 10.3933H38.2789C38.6407 10.3933 38.9352 10.7032 38.9352 11.0652C38.9352 11.4272 38.6407 11.7372 38.2789 11.7372H31.7153C31.3535 11.7372 31.0589 11.4272 31.0589 11.0652C31.0589 10.7032 31.3535 10.3933 31.7153 10.3933ZM32.5854 13.081H37.4088L36.4711 16.3287H33.5232L32.5854 13.081ZM35.8088 41.0796V42.3923C35.8088 42.5702 35.8313 42.6457 35.6535 42.6457H22.5263C22.3484 42.6457 22.0903 42.5702 22.0903 42.3923V41.0796C22.0903 40.9017 22.3484 40.5739 22.5263 40.5739H35.6535C35.8313 40.5739 35.8088 40.9017 35.8088 41.0796ZM25.1517 39.3421C24.9738 39.3421 24.722 39.2884 24.722 39.1106V37.7978C24.722 37.6199 24.9738 37.2703 25.1517 37.2703H38.2789C38.4568 37.2703 38.4405 37.6199 38.4405 37.7978V39.1106C38.4405 39.2884 38.4568 39.3421 38.2789 39.3421H25.1517ZM35.6535 34.0787C35.8313 34.0787 35.8088 34.3382 35.8088 34.516V35.8288C35.8088 36.0067 35.8313 36.0385 35.6535 36.0385H22.5263C22.3484 36.0385 22.0903 36.0066 22.0903 35.8288V34.516C22.0903 34.3382 22.3484 34.0787 22.5263 34.0787H35.6535ZM37.2612 36.0945C37.2828 36.0385 37.2943 35.8787 37.2943 35.7663C37.2943 35.8779 37.2842 36.0385 37.2612 36.0945ZM37.1526 35.4842V34.516C37.1526 33.6113 36.5582 32.7908 35.6535 32.7908H33.2331V31.8906C33.2331 30.8102 32.4365 29.9038 31.2861 29.66C31.2904 29.661 31.3258 29.6613 31.3301 29.6623C32.0783 28.4415 33.4458 27.6243 34.9817 27.6243C37.3347 27.6243 39.1849 29.5375 39.1849 31.8906C39.1849 33.4003 38.4405 34.7261 37.1526 35.4842ZM31.9452 31.8906V32.7908H28.5372C28.1572 32.4549 27.9165 31.7269 27.8235 30.775H30.7307C31.4423 30.775 31.9452 31.357 31.9452 31.8906ZM26.5027 30.775C26.5741 31.391 26.7578 32.0069 27.0468 32.7908H22.5263C21.6215 32.7908 20.7465 33.6113 20.7465 34.516V35.8288C20.7465 36.7335 21.6215 37.2703 22.5263 37.2703H23.544C23.5224 37.6623 23.3782 37.6855 23.3782 37.7978V39.1106C23.3782 39.2229 23.5224 39.3421 23.544 39.3421H22.5263C21.6215 39.3421 20.7465 40.1749 20.7465 41.0796V42.3923C20.7465 43.2971 21.6215 43.9336 22.5263 43.9336H23.544C23.5224 44.2135 23.3782 44.249 23.3782 44.3614V45.6741C23.3782 45.7865 23.5224 45.8934 23.544 45.8934H13.9584C13.6519 43.3176 11.2276 40.7649 8.20393 40.4585V36.4498C11.2276 36.1434 13.6519 33.6867 13.9584 30.775H26.5027ZM15.4271 26.3116C15.4271 25.9496 15.929 25.5116 16.2909 25.5116H20.9097C20.8953 25.8476 20.7465 26.0908 20.7465 26.3116V26.8555H15.4271V26.3116ZM11.8435 28.937C11.8435 28.575 12.3191 28.1433 12.6809 28.1433H20.7465V29.4312H11.8435V28.937ZM9.72729 30.775H12.6319C12.3382 33.0708 10.5556 34.8297 8.20387 35.1234V32.2188C8.20387 31.4948 9.00329 30.775 9.72729 30.775ZM8.20387 44.6896V41.785C10.5556 42.0787 12.3382 43.9336 12.6319 45.8934H9.72729C9.00329 45.8934 8.20387 45.4136 8.20387 44.6896ZM25.1517 45.8934C24.9738 45.8934 24.722 45.852 24.722 45.6741V44.3614C24.722 44.1835 24.9738 43.9336 25.1517 43.9336H38.2789C38.4568 43.9336 38.4405 44.1835 38.4405 44.3614V45.6741C38.4405 45.852 38.4568 45.8934 38.2789 45.8934H25.1517ZM47.6235 42.7205C47.6235 44.53 46.3238 45.8934 44.5143 45.8934H39.8866C39.9082 45.8934 39.7844 45.7865 39.7844 45.6741V44.3614C39.7844 43.4567 39.1837 42.6457 38.2789 42.6457H37.2613C37.2829 42.6457 37.1527 42.5047 37.1527 42.3923V41.0796C37.1527 40.9673 37.2829 40.9659 37.2613 40.5739H38.2789C39.1837 40.5739 39.7844 40.0152 39.7844 39.1106V37.7978C39.7844 36.8931 39.1159 36.1569 38.2112 36.1569C38.3064 36.1569 38.4321 36.1635 38.5208 36.1832C39.7547 35.1593 40.5593 33.6136 40.5593 31.8906C40.5593 28.8155 38.0638 26.2305 34.9887 26.2305C32.7308 26.2305 30.7931 27.5274 29.917 29.4312L22.0903 29.4312V26.3116C22.0903 21.6066 26.0257 17.6165 30.7308 17.6165H39.2634C43.9685 17.6165 47.6235 21.6066 47.6235 26.3116V42.7205Z" fill="#6A6A6A"/>
<path d="M30.2654 14.0329H39.4484V15.3208H30.2654V14.0329ZM20.0745 41.736C18.4507 41.736 16.7928 40.2637 16.7928 38.4542C16.7928 36.6447 18.4507 35.1724 20.0745 35.1724V36.4851C19.1226 36.4851 18.1055 37.3684 18.1055 38.4542C18.1055 39.54 19.1226 40.4233 20.0745 40.4233V41.736Z" fill="#6A6A6A"/>
</g>
</g>
</svg>
