<svg width="56" height="56" viewBox="0 0 56 56" fill="none" xmlns="http://www.w3.org/2000/svg">
<g id="profits_request_icon">
<g id="Vector">
<path d="M49.923 49.1448H46.152V24.8178H48.4593C48.615 24.8186 48.7678 24.7768 48.9001 24.697C49.0324 24.6173 49.1388 24.5029 49.2071 24.367C49.2753 24.2312 49.3027 24.0794 49.286 23.9291C49.2692 23.7788 49.2092 23.6362 49.1126 23.5176L43.8944 17.0326C43.8131 16.9419 43.7128 16.8692 43.6001 16.8193C43.4874 16.7695 43.3649 16.7437 43.2411 16.7437C43.1172 16.7437 42.9948 16.7695 42.8821 16.8193C42.7694 16.8692 42.6691 16.9419 42.5878 17.0326L37.3696 23.5176C37.273 23.6362 37.2129 23.7788 37.1962 23.9291C37.1795 24.0794 37.2069 24.2312 37.2751 24.367C37.3434 24.5029 37.4498 24.6173 37.5821 24.697C37.7144 24.7768 37.8672 24.8186 38.0229 24.8178H40.3219V49.1448H31.9612V32.1135H34.2602C34.4162 32.1138 34.5691 32.0709 34.7009 31.9898C34.8327 31.9088 34.938 31.793 35.0045 31.656C35.0739 31.5218 35.1022 31.3711 35.086 31.2217C35.0699 31.0724 35.01 30.9306 34.9135 30.8133L29.6953 24.3282C29.614 24.2375 29.5136 24.1648 29.4009 24.115C29.2882 24.0652 29.1658 24.0394 29.042 24.0394C28.9181 24.0394 28.7957 24.0652 28.683 24.115C28.5703 24.1648 28.47 24.2375 28.3887 24.3282L23.1705 30.8133C23.0759 30.9324 23.0175 31.0748 23.0018 31.2244C22.9861 31.374 23.0138 31.5249 23.0817 31.66C23.1496 31.7952 23.2551 31.9092 23.3862 31.9894C23.5173 32.0695 23.6689 32.1125 23.8238 32.1135H26.131V49.1448H18.5973V39.4012H20.9046C21.0597 39.402 21.2119 39.3603 21.3436 39.2808C21.4753 39.2012 21.5811 39.0871 21.6489 38.9517C21.7143 38.8165 21.7404 38.6666 21.7243 38.518C21.7083 38.3695 21.6507 38.2281 21.5579 38.109L16.3314 31.6239C16.2521 31.5316 16.1528 31.4573 16.0407 31.4063C15.9285 31.3553 15.8061 31.3289 15.6823 31.3289C15.5584 31.3289 15.436 31.3553 15.3238 31.4063C15.2117 31.4573 15.1124 31.5316 15.0331 31.6239L9.81489 38.109C9.71833 38.2263 9.65845 38.3681 9.64233 38.5174C9.6262 38.6668 9.65452 38.8175 9.72392 38.9517C9.78901 39.0874 9.89309 39.202 10.0236 39.2818C10.1542 39.3615 10.3057 39.4029 10.4599 39.4012H12.7672V49.1448H6.90394V7.8026C6.90394 7.58974 6.81682 7.3856 6.66173 7.23508C6.50664 7.08456 6.2963 7 6.07697 7C5.85765 7 5.6473 7.08456 5.49221 7.23508C5.33713 7.3856 5.25 7.58974 5.25 7.8026V49.9474C5.25 50.1603 5.33713 50.3644 5.49221 50.5149C5.6473 50.6654 5.85765 50.75 6.07697 50.75H49.923C50.1424 50.75 50.3527 50.6654 50.5078 50.5149C50.6629 50.3644 50.75 50.1603 50.75 49.9474C50.75 49.7345 50.6629 49.5304 50.5078 49.3799C50.3527 49.2293 50.1424 49.1448 49.923 49.1448ZM16.9434 38.5986V49.1448H14.4211V38.5986C14.4211 38.3857 14.334 38.1815 14.1789 38.031C14.0238 37.8805 13.8135 37.796 13.5941 37.796H12.1635L15.6864 33.4218L19.2093 37.796H17.7704C17.551 37.796 17.3407 37.8805 17.1856 38.031C17.0305 38.1815 16.9434 38.3857 16.9434 38.5986ZM30.3073 31.3109V49.1448H27.785V31.3109C27.785 31.098 27.6979 30.8939 27.5428 30.7434C27.3877 30.5929 27.1773 30.5083 26.958 30.5083H25.5191L29.042 26.1261L32.5649 30.5083H31.1342C31.0253 30.5072 30.9173 30.5273 30.8165 30.5672C30.7156 30.6072 30.624 30.6662 30.547 30.741C30.47 30.8157 30.4091 30.9046 30.3679 31.0025C30.3268 31.1004 30.3061 31.2052 30.3073 31.3109ZM44.4981 24.0152V49.1448H41.9758V24.0152C41.9769 23.9095 41.9563 23.8047 41.9151 23.7068C41.874 23.609 41.8131 23.52 41.7361 23.4453C41.6591 23.3706 41.5675 23.3115 41.4666 23.2715C41.3658 23.2316 41.2578 23.2115 41.1489 23.2126H39.7182L43.2411 18.8304L46.764 23.2126H45.3251C45.1057 23.2126 44.8954 23.2972 44.7403 23.4477C44.5852 23.5982 44.4981 23.8024 44.4981 24.0152Z" fill="#6A6A6A"/>
<path d="M18.9775 22.5284C18.859 22.9391 18.6314 23.3095 18.3192 23.5996C18.0071 23.8897 17.6222 24.0886 17.2061 24.1747V24.6912C17.2061 24.9052 17.1217 25.1105 16.9713 25.2619C16.821 25.4132 16.6172 25.4982 16.4046 25.4982C16.192 25.4982 15.9881 25.4132 15.8378 25.2619C15.6875 25.1105 15.6031 24.9052 15.6031 24.6912V24.0375C15.2027 23.8762 14.8189 23.6762 14.4569 23.4403C14.3206 23.3515 14.1844 23.2708 14.0561 23.1982C13.8701 23.0944 13.7327 22.9204 13.6741 22.7146C13.6154 22.5088 13.6404 22.2879 13.7435 22.1007C13.8466 21.9134 14.0194 21.775 14.2238 21.716C14.4282 21.6569 14.6476 21.6821 14.8336 21.7859C14.9939 21.8747 15.1462 21.9715 15.3065 22.0684C15.7001 22.3799 16.1717 22.5755 16.6691 22.6333C16.8342 22.6355 16.996 22.5863 17.1323 22.4924C17.2686 22.3985 17.3728 22.2645 17.4305 22.1087C17.4626 22.0038 17.4706 21.8343 17.2302 21.6729L15.1221 20.2526C14.8786 20.0975 14.6705 19.8921 14.5116 19.65C14.3527 19.408 14.2467 19.1347 14.2004 18.8483C14.158 18.5789 14.1732 18.3034 14.2451 18.0404C14.317 17.7773 14.4439 17.5328 14.6172 17.3231C14.8764 17.0014 15.217 16.756 15.6031 16.6129V15.8946C15.6031 15.6806 15.6875 15.4753 15.8378 15.324C15.9881 15.1726 16.192 15.0876 16.4046 15.0876C16.6172 15.0876 16.821 15.1726 16.9713 15.324C17.1217 15.4753 17.2061 15.6806 17.2061 15.8946V16.5241C17.4753 16.5869 17.7307 16.699 17.9595 16.855L18.8092 17.4199C18.9867 17.5387 19.11 17.7236 19.1521 17.934C19.1942 18.1444 19.1516 18.363 19.0336 18.5417C18.9156 18.7204 18.7319 18.8446 18.523 18.887C18.3141 18.9294 18.097 18.8864 17.9195 18.7676L17.0699 18.1947C16.885 18.0745 16.6648 18.0217 16.446 18.0452C16.2272 18.0687 16.0231 18.167 15.8676 18.3238C15.8351 18.3611 15.8105 18.4046 15.7953 18.4518C15.7802 18.499 15.7747 18.5488 15.7794 18.5982C15.8145 18.7289 15.8976 18.8414 16.0118 18.9129L18.1279 20.3333C18.4864 20.5572 18.7631 20.8923 18.9164 21.2881C19.0696 21.684 19.091 22.1192 18.9775 22.5284Z" fill="#6A6A6A"/>
<path d="M16.4046 12.5858C14.8906 12.5858 13.4107 13.0379 12.1519 13.8847C10.8931 14.7316 9.91203 15.9353 9.33267 17.3435C8.75332 18.7518 8.60173 20.3015 8.89708 21.7965C9.19244 23.2915 9.92147 24.6648 10.992 25.7426C12.0625 26.8205 13.4264 27.5545 14.9112 27.8519C16.3961 28.1493 17.9352 27.9967 19.3339 27.4133C20.7326 26.83 21.928 25.8422 22.7691 24.5747C23.6102 23.3073 24.0592 21.8172 24.0592 20.2929C24.0579 18.2493 23.251 16.2897 21.8158 14.8446C20.3805 13.3995 18.4343 12.5871 16.4046 12.5858ZM16.4046 26.386C15.2077 26.386 14.0377 26.0286 13.0425 25.3591C12.0474 24.6896 11.2717 23.738 10.8137 22.6246C10.3557 21.5113 10.2358 20.2862 10.4693 19.1042C10.7028 17.9223 11.2792 16.8366 12.1255 15.9845C12.9718 15.1324 14.0501 14.5521 15.224 14.317C16.3979 14.0819 17.6146 14.2025 18.7204 14.6637C19.8262 15.1249 20.7713 15.9058 21.4362 16.9078C22.1012 17.9098 22.4561 19.0878 22.4561 20.2929C22.4534 21.908 21.8149 23.4562 20.6806 24.5983C19.5463 25.7403 18.0087 26.3832 16.4046 26.386Z" fill="#6A6A6A"/>
<path d="M30.2421 15.8607C30.3744 15.935 30.509 16.0222 30.6477 16.1029C31.0082 16.3396 31.3907 16.5404 31.7899 16.7025V17.3481C31.7899 17.5621 31.8743 17.7674 32.0247 17.9187C32.175 18.0701 32.3788 18.1551 32.5914 18.1551C32.804 18.1551 33.0079 18.0701 33.1582 17.9187C33.3085 17.7674 33.3929 17.5621 33.3929 17.3481V16.8364C33.8085 16.75 34.193 16.5519 34.5057 16.263C34.8183 15.9741 35.0473 15.6053 35.1683 15.1958C35.2799 14.7853 35.2568 14.3495 35.1024 13.9534C34.948 13.5572 34.6706 13.2219 34.3115 12.9974L32.1979 11.573C32.1406 11.5396 32.0908 11.4945 32.0517 11.4408C32.0125 11.387 31.9848 11.3257 31.9702 11.2607C31.9644 11.2118 31.9689 11.1622 31.9836 11.1151C31.9982 11.0681 32.0226 11.0247 32.0552 10.9879C32.2106 10.8311 32.4147 10.7326 32.6335 10.709C32.8523 10.6853 33.0726 10.7379 33.2575 10.858L34.1015 11.427C34.1889 11.4881 34.2875 11.5311 34.3916 11.5534C34.4957 11.5758 34.6032 11.577 34.7078 11.5571C34.8123 11.5372 34.9119 11.4965 35.0007 11.4374C35.0895 11.3783 35.1657 11.302 35.2249 11.2129C35.2841 11.1238 35.3251 11.0238 35.3454 10.9186C35.3658 10.8134 35.3652 10.7052 35.3436 10.6003C35.322 10.4954 35.2798 10.3958 35.2196 10.3075C35.1594 10.2191 35.0823 10.1437 34.9928 10.0857L34.1488 9.52077C33.9166 9.36846 33.6605 9.25685 33.3913 9.1907V8.5588C33.3913 8.34476 33.3069 8.13949 33.1566 7.98815C33.0063 7.8368 32.8024 7.75177 32.5898 7.75177C32.3772 7.75177 32.1734 7.8368 32.023 7.98815C31.8727 8.13949 31.7883 8.34476 31.7883 8.5588V9.28512C31.4019 9.42577 31.0602 9.66858 30.7992 9.98804C30.6281 10.1992 30.5028 10.444 30.4314 10.7069C30.3601 10.9697 30.3442 11.2447 30.3848 11.5141C30.4326 11.7998 30.5393 12.0722 30.6981 12.3138C30.8569 12.5553 31.0641 12.7607 31.3066 12.9167L33.4186 14.3403C33.659 14.5017 33.6486 14.6631 33.6198 14.7753C33.5611 14.9312 33.4564 15.0652 33.3196 15.1592C33.1828 15.2532 33.0207 15.3025 32.8551 15.3007C32.3581 15.2416 31.8867 15.0462 31.4925 14.7358C31.3322 14.6349 31.1719 14.5364 31.0212 14.4501C30.8359 14.3494 30.6187 14.3263 30.4166 14.3855C30.2144 14.4448 30.0436 14.5818 29.9409 14.7669C29.8383 14.952 29.8121 15.1703 29.868 15.3747C29.9239 15.5791 30.0574 15.7531 30.2397 15.8591L30.2421 15.8607Z" fill="#6A6A6A"/>
<path d="M32.5874 5.25C31.0738 5.2516 29.5947 5.70496 28.3369 6.5528C27.0792 7.40063 26.0993 8.60487 25.5212 10.0133C24.9431 11.4217 24.7926 12.9711 25.0889 14.4656C25.3852 15.9601 26.1148 17.3326 27.1856 18.4096C28.2565 19.4867 29.6204 20.2199 31.105 20.5166C32.5897 20.8134 34.1283 20.6603 35.5266 20.0767C36.9248 19.4931 38.1198 18.5053 38.9605 17.2381C39.8013 15.9708 40.25 14.481 40.25 12.9571C40.2475 10.9124 39.4391 8.95236 38.0024 7.50733C36.5657 6.0623 34.6181 5.25043 32.5874 5.25ZM32.5874 19.0501C31.3909 19.0485 30.2217 18.6898 29.2275 18.0193C28.2334 17.3488 27.459 16.3967 27.0022 15.2832C26.5454 14.1697 26.4267 12.9448 26.6612 11.7634C26.8956 10.582 27.4725 9.49713 28.3192 8.64581C29.1658 7.79449 30.2441 7.21499 31.4178 6.98054C32.5914 6.74609 33.8078 6.86722 34.9131 7.32863C36.0184 7.79003 36.963 8.57099 37.6276 9.57281C38.2922 10.5746 38.6469 11.7523 38.6469 12.9571C38.6442 14.5736 38.0046 16.123 36.8686 17.2653C35.7326 18.4076 34.1929 19.0495 32.5874 19.0501Z" fill="#6A6A6A"/>
</g>
</g>
</svg>
