<svg width="56" height="56" viewBox="0 0 56 56" fill="none" xmlns="http://www.w3.org/2000/svg">
<g id="proposal_request_icon">
<g id="Vector">
<path d="M30.8402 45.5141C30.4181 45.5141 30.0757 45.8604 30.0757 46.2876V47.4525H5.02898V14.2942H6.2634C6.6857 14.2942 7.02788 13.9479 7.02788 13.5206C7.02788 13.0933 6.68559 12.7471 6.2634 12.7471H4.26449C3.84218 12.7471 3.5 13.0933 3.5 13.5206V48.2264C3.5 48.6535 3.84229 49 4.26449 49H30.8402C31.2623 49 31.6047 48.6535 31.6047 48.2264V46.2877C31.6047 45.8605 31.2623 45.5141 30.8402 45.5141Z" fill="#6A6A6A"/>
<path d="M36.0099 37.2953C35.5877 37.2953 35.2454 37.6416 35.2454 38.0688V42.3688H10.1986V9.21041H22.1819C22.6042 9.21041 22.9464 8.86403 22.9464 8.43679C22.9464 8.00956 22.6041 7.66318 22.1819 7.66318H9.43398C9.01178 7.66318 8.66949 8.00956 8.66949 8.43679V43.1425C8.66949 43.5699 9.01178 43.9161 9.43398 43.9161H36.0098C36.4319 43.9161 36.7742 43.5699 36.7742 43.1425V38.0689C36.7743 37.6416 36.432 37.2953 36.0099 37.2953Z" fill="#6A6A6A"/>
<path d="M36.0099 15.3644C35.5877 15.3644 35.2454 15.7107 35.2454 16.138V26.3964C35.2454 26.8236 35.5877 27.17 36.0099 27.17C36.432 27.17 36.7743 26.8236 36.7743 26.3964V16.138C36.7743 15.7109 36.432 15.3644 36.0099 15.3644Z" fill="#6A6A6A"/>
<path d="M13.6478 39.5936H17.2049C17.6271 39.5936 17.9694 39.2473 17.9694 38.82V30.8735C17.9694 30.4463 17.6271 30.0999 17.2049 30.0999H13.6478C13.2255 30.0999 12.8833 30.4463 12.8833 30.8735V38.82C12.8833 39.2471 13.2255 39.5936 13.6478 39.5936ZM14.4123 31.6471H16.4403V38.0463H14.4123V31.6471Z" fill="#6A6A6A"/>
<path d="M21.3019 32.6923C20.8796 32.6923 20.5374 33.0386 20.5374 33.4658V38.8199C20.5374 39.2471 20.8797 39.5935 21.3019 39.5935H24.859C25.2812 39.5935 25.6235 39.2471 25.6235 38.8199V36.1703C25.6235 35.743 25.2812 35.3967 24.859 35.3967C24.4367 35.3967 24.0946 35.743 24.0946 36.1703V38.0463H22.0665V33.4659C22.0664 33.0386 21.7242 32.6923 21.3019 32.6923Z" fill="#6A6A6A"/>
<path d="M28.9561 36.7713C28.534 36.7713 28.1916 37.1177 28.1916 37.5449V38.8199C28.1916 39.2472 28.534 39.5935 28.9561 39.5935H32.5133C32.9354 39.5935 33.2778 39.2472 33.2778 38.8199V37.5449C33.2778 37.1177 32.9354 36.7713 32.5133 36.7713C32.0911 36.7713 31.7488 37.1177 31.7488 37.5449V38.0463H29.7207V37.5449C29.7206 37.1177 29.3781 36.7713 28.9561 36.7713Z" fill="#6A6A6A"/>
<path d="M31.2992 15.6198C31.0006 15.3178 30.5168 15.3177 30.2181 15.62L25.0442 20.8556C24.7456 21.1578 24.7456 21.6475 25.0444 21.9497C25.3427 22.2517 25.8269 22.2519 26.1255 21.9496L30.7587 17.2611L31.6554 18.1684L25.9554 23.9364C25.6568 24.2385 25.6568 24.7285 25.9554 25.0305C26.1048 25.1815 26.3004 25.2571 26.4961 25.2571C26.6917 25.2571 26.8874 25.1815 27.0367 25.0305L33.2773 18.7156C33.4208 18.5704 33.5012 18.3736 33.5012 18.1684C33.5012 17.9633 33.4207 17.7664 33.2773 17.6214L31.2992 15.6198Z" fill="#6A6A6A"/>
<path d="M14.1444 26.3012C14.2937 26.452 14.4894 26.5276 14.6851 26.5276C14.8808 26.5276 15.0764 26.452 15.2258 26.3012L17.2441 24.2586C17.5427 23.9565 17.5427 23.4666 17.2441 23.1645C16.9455 22.8624 16.4614 22.8624 16.1628 23.1645L14.6851 24.66L13.7883 23.7525L17.2441 20.2556C17.5427 19.9534 17.5427 19.4636 17.2441 19.1615C16.9455 18.8594 16.4614 18.8594 16.1628 19.1615L12.1666 23.2055C11.8679 23.5076 11.8679 23.9975 12.1666 24.2996L14.1444 26.3012Z" fill="#6A6A6A"/>
<path d="M51.6421 36.5618L47.1861 32.0526C46.8874 31.7505 46.4036 31.7505 46.105 32.0526C45.8064 32.3547 45.8064 32.8446 46.105 33.1467L50.561 37.6559C50.8262 37.9244 50.9724 38.2813 50.9724 38.6609C50.9724 39.0404 50.8262 39.3973 50.561 39.6659C50.0132 40.2203 49.1226 40.2203 48.5746 39.6659L41.5299 32.5371C44.7119 29.8936 46.7457 25.8842 46.7457 21.4026C46.7457 13.4609 40.3611 7 32.5132 7C24.6652 7 18.2804 13.4609 18.2804 21.4026C18.2804 29.3443 24.6652 35.8052 32.5132 35.8052C35.378 35.8052 38.0457 34.9413 40.2812 33.4616L47.4936 40.7599C48.0476 41.3205 48.7844 41.6293 49.5679 41.6293C50.3513 41.6293 51.0882 41.3205 51.6421 40.7599C52.786 39.6025 52.786 37.7191 51.6421 36.5618ZM32.5132 34.2579C25.5083 34.2579 19.8095 28.491 19.8095 21.4026C19.8095 14.3142 25.5084 8.54734 32.5132 8.54734C39.5178 8.54734 45.2167 14.3142 45.2167 21.4026C45.2168 28.491 39.5179 34.2579 32.5132 34.2579Z" fill="#6A6A6A"/>
<path d="M32.5132 10.8375C26.7562 10.8375 22.0726 15.577 22.0726 21.4026C22.0726 27.2283 26.7562 31.9677 32.5132 31.9677C38.2701 31.9677 42.9535 27.2283 42.9535 21.4026C42.9535 15.577 38.2701 10.8375 32.5132 10.8375ZM32.5132 30.4203C27.5993 30.4203 23.6016 26.3749 23.6016 21.4025C23.6016 16.4301 27.5993 12.3847 32.5132 12.3847C37.4268 12.3847 41.4245 16.4301 41.4245 21.4025C41.4245 26.3749 37.4268 30.4203 32.5132 30.4203Z" fill="#6A6A6A"/>
<path d="M13.2531 14.2503V13.1176C13.2531 12.6904 12.9108 12.344 12.4887 12.344C12.0663 12.344 11.7242 12.6904 11.7242 13.1176V14.2503C11.7242 14.6777 12.0665 15.0239 12.4887 15.0239C12.9108 15.024 13.2531 14.6778 13.2531 14.2503Z" fill="#6A6A6A"/>
<path d="M15.7464 14.2503V11.8252C15.7464 11.398 15.4041 11.0516 14.9819 11.0516C14.5597 11.0516 14.2174 11.398 14.2174 11.8252V14.2503C14.2174 14.6777 14.5597 15.0239 14.9819 15.0239C15.4041 15.024 15.7464 14.6778 15.7464 14.2503Z" fill="#6A6A6A"/>
<path d="M18.2397 14.2503V13.8557C18.2397 13.4285 17.8974 13.0821 17.4752 13.0821C17.053 13.0821 16.7107 13.4285 16.7107 13.8557V14.2503C16.7107 14.6777 17.053 15.0239 17.4752 15.0239C17.8974 15.024 18.2397 14.6778 18.2397 14.2503Z" fill="#6A6A6A"/>
<path d="M30.8402 45.5141C30.4181 45.5141 30.0757 45.8604 30.0757 46.2876V47.4525H5.02898V14.2942H6.2634C6.6857 14.2942 7.02788 13.9479 7.02788 13.5206C7.02788 13.0933 6.68559 12.7471 6.2634 12.7471H4.26449C3.84218 12.7471 3.5 13.0933 3.5 13.5206V48.2264C3.5 48.6535 3.84229 49 4.26449 49H30.8402C31.2623 49 31.6047 48.6535 31.6047 48.2264V46.2877C31.6047 45.8605 31.2623 45.5141 30.8402 45.5141Z" fill="#6A6A6A"/>
<path d="M36.0099 37.2953C35.5877 37.2953 35.2454 37.6416 35.2454 38.0688V42.3688H10.1986V9.21041H22.1819C22.6042 9.21041 22.9464 8.86403 22.9464 8.43679C22.9464 8.00956 22.6041 7.66318 22.1819 7.66318H9.43398C9.01178 7.66318 8.66949 8.00956 8.66949 8.43679V43.1425C8.66949 43.5699 9.01178 43.9161 9.43398 43.9161H36.0098C36.4319 43.9161 36.7742 43.5699 36.7742 43.1425V38.0689C36.7743 37.6416 36.432 37.2953 36.0099 37.2953Z" fill="#6A6A6A"/>
<path d="M51.6421 36.5618L47.1861 32.0526C46.8874 31.7505 46.4036 31.7505 46.105 32.0526C45.8064 32.3547 45.8064 32.8446 46.105 33.1467L50.561 37.6559C50.8262 37.9244 50.9724 38.2813 50.9724 38.6609C50.9724 39.0404 50.8262 39.3973 50.561 39.6659C50.0132 40.2203 49.1226 40.2203 48.5746 39.6659L41.5299 32.5371C44.7119 29.8936 46.7457 25.8842 46.7457 21.4026C46.7457 13.4609 40.3611 7 32.5132 7C24.6652 7 18.2804 13.4609 18.2804 21.4026C18.2804 29.3443 24.6652 35.8052 32.5132 35.8052C35.378 35.8052 38.0457 34.9413 40.2812 33.4616L47.4936 40.7599C48.0476 41.3205 48.7844 41.6293 49.5679 41.6293C50.3513 41.6293 51.0882 41.3205 51.6421 40.7599C52.786 39.6025 52.786 37.7191 51.6421 36.5618ZM32.5132 34.2579C25.5083 34.2579 19.8095 28.491 19.8095 21.4026C19.8095 14.3142 25.5084 8.54734 32.5132 8.54734C39.5178 8.54734 45.2167 14.3142 45.2167 21.4026C45.2168 28.491 39.5179 34.2579 32.5132 34.2579Z" fill="#6A6A6A"/>
<path d="M32.5132 10.8375C26.7562 10.8375 22.0726 15.577 22.0726 21.4026C22.0726 27.2283 26.7562 31.9677 32.5132 31.9677C38.2701 31.9677 42.9535 27.2283 42.9535 21.4026C42.9535 15.577 38.2701 10.8375 32.5132 10.8375ZM32.5132 30.4203C27.5993 30.4203 23.6016 26.3749 23.6016 21.4025C23.6016 16.4301 27.5993 12.3847 32.5132 12.3847C37.4268 12.3847 41.4245 16.4301 41.4245 21.4025C41.4245 26.3749 37.4268 30.4203 32.5132 30.4203Z" fill="#6A6A6A"/>
</g>
</g>
</svg>
