<svg width="56" height="56" viewBox="0 0 56 56" fill="none" xmlns="http://www.w3.org/2000/svg">
<g id="purchaseorder_request_icon">
<g id="Vector">
<path d="M6.46777 17.6423V45.3069C6.46777 46.5782 7.69213 47.4058 8.96341 47.4058H11.0593V15.1534H8.96341C7.69219 15.1534 6.46777 16.371 6.46777 17.6423ZM9.54743 45.9499H8.96341C8.53976 45.9499 8.0356 45.7307 8.0356 45.3069V17.6423C8.0356 17.2185 8.53976 16.7212 8.96341 16.7212H9.54743V45.9499ZM41.2388 10.1699H34.8006V11.6258H41.2388C41.6624 11.6258 41.8558 12.2235 41.8558 12.6473V43.3858C41.8558 43.8096 41.6624 43.9342 41.2388 43.9342H15.1111C14.6875 43.9342 14.083 43.8095 14.083 43.3858V12.6473C14.083 12.2235 14.6875 11.6258 15.1111 11.6258H21.1382V10.17H15.1111C13.8399 10.17 12.5711 11.3761 12.5711 12.6473V50.3019C12.5711 51.5732 13.8399 52.5013 15.1111 52.5013H41.2388C42.5101 52.5013 43.3677 51.5732 43.3677 50.3019V12.6473C43.3676 11.3761 42.51 10.1699 41.2388 10.1699ZM41.2388 50.9334H15.1111C14.6875 50.9334 14.083 50.7257 14.083 50.3019V49.0147C14.4749 49.1002 14.8414 48.9736 15.1111 48.9736H41.2388C41.5086 48.9736 41.8559 49.1002 41.8559 49.0147V50.3019C41.8558 50.7257 41.6624 50.9334 41.2388 50.9334ZM41.2388 47.4058H15.1111C14.6875 47.4058 14.083 47.2676 14.083 46.8438V45.5566C14.4749 45.6421 14.8414 45.502 15.1111 45.502H41.2388C41.5086 45.502 41.8559 45.6421 41.8559 45.5566V46.8438C41.8558 47.2676 41.6624 47.4058 41.2388 47.4058ZM47.3865 15.1534H44.8795V47.4058H47.3865C48.6578 47.4058 49.471 46.5781 49.471 45.3069V17.6423C49.471 16.371 48.6578 15.1534 47.3865 15.1534ZM47.9591 45.3069C47.9591 45.7307 47.8101 45.9499 47.3865 45.9499H46.3353V16.7212H47.3865C47.8101 16.7212 47.9591 17.2185 47.9591 17.6423V45.3069Z" fill="#6A6A6A"/>
<path d="M16.4907 19.5209H28.7533V20.9767H16.4907V19.5209ZM16.4907 31.2796H28.7533V32.8474H16.4907V31.2796ZM16.4907 27.528H28.7533V29.1518H16.4907V27.528ZM16.4907 23.6084H28.7533V25.2323H16.4907V23.6084Z" fill="#6A6A6A"/>
<path d="M34.8006 14.7054H21.1381V8.80504C21.1381 7.95758 21.9481 7.09035 22.7957 7.09035H25.0017V6.49961C25.0017 4.80474 26.3585 3.42578 28.0534 3.42578C29.7482 3.42578 31.105 4.80474 31.105 6.49961V7.09029H33.5542C34.4018 7.09029 34.8006 7.95752 34.8006 8.80499V14.7054ZM22.65 13.1936H33.3448V8.65811H29.5372V6.49961C29.5372 5.65215 28.873 4.9627 28.0254 4.9627C27.1777 4.9627 26.5135 5.65215 26.5135 6.49961V8.65811H22.65V13.1936Z" fill="#6A6A6A"/>
</g>
</g>
</svg>
