<svg width="56" height="56" viewBox="0 0 56 56" fill="none" xmlns="http://www.w3.org/2000/svg">
<g id="purchase_request_icon">
<g id="Vector">
<path d="M9.65976 34.4716H12.4035V35.9835H9.65976V34.4716ZM9.65976 37.4393H12.4035V39.0631H9.65976V37.4393ZM9.65976 40.575H12.4035V42.1428H9.65976V40.575ZM43.7599 34.8076H46.5036V36.4314H43.7599V34.8076ZM43.7599 37.8873H46.5036V39.3991H43.7599V37.8873ZM43.7599 40.9669H46.5036V42.4787H43.7599V40.9669ZM30.5598 8.0426H25.9613C25.116 8.0426 24.2181 7.46139 24.2181 6.61599V4.17903H25.786V6.41878H30.3774V4.17903H31.9453V6.61599C31.9453 7.46139 31.405 8.0426 30.5598 8.0426Z" fill="#6A6A6A"/>
<path d="M48.0155 29.4882H46.5036V25.0102C46.5036 24.5877 46.311 24.0568 45.8883 24.0568H43.7599V22.601H45.8883C47.1562 22.601 48.0155 23.7423 48.0155 25.0102V29.4882Z" fill="#6A6A6A"/>
<path d="M47.4212 47.9101H43.7599V46.2863H47.4212C48.0443 46.2863 48.4074 45.7681 48.4074 44.9373V31.9081C48.4074 31.0773 48.0443 30.2162 47.4212 30.2162H43.7599V28.6483H47.4212C48.9003 28.6483 49.9193 30.2177 49.9193 31.9081V44.9373C49.9193 46.6277 48.9003 47.9101 47.4212 47.9101Z" fill="#6A6A6A"/>
<path d="M39.3737 10.2264H34.9129V5.84961C34.9129 4.58169 34.127 3.45117 32.8591 3.45117H23.662C22.3941 3.45117 21.1945 4.58174 21.1945 5.84961V10.2264H17.1474C14.189 10.2264 11.5635 12.8549 11.5635 15.8131V22.601H10.6328C9.36484 22.601 8.14793 23.7423 8.14793 25.0103V28.9715C7.42001 29.3494 6.24414 30.5221 6.24414 31.9081V44.9373C6.24414 46.6277 7.70664 47.9102 9.29149 47.9102H11.8436C12.2174 50.5419 14.4499 52.4457 17.1474 52.4457H39.3737C42.332 52.4457 44.5998 50.1949 44.5998 47.2366V15.8131C44.5998 12.8548 42.332 10.2264 39.3737 10.2264ZM22.7063 5.84961C22.7063 5.42708 23.2393 4.963 23.662 4.963H32.8591C33.2818 4.963 33.4571 5.42713 33.4571 5.84961V10.2264H22.7063V5.84961ZM10.6328 24.0568H11.5635V28.6483H9.65976V25.0102C9.65976 24.5877 10.2101 24.0568 10.6328 24.0568ZM7.69998 44.9373V31.9081C7.69998 31.0773 8.47683 30.2162 9.09988 30.2162H11.5635V46.2864H9.29149C8.55203 46.2863 7.69998 45.7827 7.69998 44.9373ZM42.976 47.1577C42.976 49.2741 41.2603 50.9898 39.1439 50.9898H16.9635C14.8471 50.9898 13.1314 49.2741 13.1314 47.1577V15.6823C13.1314 13.5659 14.8471 11.8502 16.9635 11.8502H39.1439C41.2604 11.8502 42.9761 13.5659 42.9761 15.6823L42.976 47.1577Z" fill="#6A6A6A"/>
<path d="M39.1685 31.714C39.1685 30.0209 37.7959 28.6483 36.1027 28.6483H20.0047C18.3115 28.6483 16.9389 30.0209 16.9389 31.714V44.7324C16.9389 46.4256 18.3115 47.7981 20.0047 47.7981H36.1027C37.7959 47.7981 39.1685 46.4256 39.1685 44.7324V31.714ZM36.308 46.2863H20.2131C19.3678 46.2863 18.4508 45.7827 18.4508 44.9373V42.2232C19.2907 42.4853 19.6544 42.4787 20.2131 42.4787H36.308C36.8667 42.4787 37.2647 42.4853 37.7126 42.2232V44.9373C37.7126 45.7827 37.1532 46.2863 36.308 46.2863ZM37.6006 39.4341C37.6006 40.2807 36.9144 40.9669 36.0678 40.9669H19.9837C19.1371 40.9669 18.4508 40.2807 18.4508 39.4341V31.749C18.4508 30.9024 19.1371 30.2162 19.9837 30.2162H36.0678C36.9144 30.2162 37.6006 30.9024 37.6006 31.749V39.4341ZM36.308 14.9298H20.2131C18.5227 14.9298 16.9389 16.422 16.9389 18.1124V22.9026C16.9389 24.4874 18.5227 25.6806 20.2131 25.6806H36.308C37.9984 25.6806 39.1685 24.4874 39.1685 22.9026V18.1124C39.1685 16.422 37.9984 14.9298 36.308 14.9298ZM37.7126 22.9026C37.7126 23.642 37.1532 24.0568 36.308 24.0568H20.2131C19.3678 24.0568 18.4508 23.642 18.4508 22.9026V18.1124C18.4508 17.267 19.3679 16.4417 20.2131 16.4417H36.308C37.1532 16.4417 37.7126 17.267 37.7126 18.1124V22.9026Z" fill="#6A6A6A"/>
<path d="M25.1948 35.7402C25.1948 36.5533 25.5178 37.333 26.0928 37.908C26.6677 38.4829 27.4475 38.8059 28.2605 38.8059C29.0736 38.8059 29.8534 38.4829 30.4283 37.908C31.0033 37.333 31.3263 36.5533 31.3263 35.7402C31.3263 34.9271 31.0033 34.1473 30.4283 33.5724C29.8534 32.9975 29.0736 32.6745 28.2605 32.6745C27.4475 32.6745 26.6677 32.9975 26.0928 33.5724C25.5178 34.1473 25.1948 34.9271 25.1948 35.7402Z" fill="#6A6A6A"/>
<path d="M36.1448 21.0681C36.1448 21.9147 35.4585 22.601 34.612 22.601H21.6075C20.7609 22.601 20.0746 21.9147 20.0746 21.0681V19.5424C20.0746 18.6958 20.7609 18.0095 21.6075 18.0095H34.612C35.4585 18.0095 36.1448 18.6958 36.1448 19.5424V21.0681Z" fill="#6A6A6A"/>
</g>
</g>
</svg>
