<svg width="56" height="56" viewBox="0 0 56 56" fill="none" xmlns="http://www.w3.org/2000/svg">
<g id="receipt_request_icon">
<g id="Vector">
<path d="M48.3233 5.25H7.67667C7.03426 5.24935 6.41787 5.50868 5.96287 5.97102C5.50788 6.43336 5.25148 7.06091 5.25 7.71584V16.0085C5.25148 16.6635 5.50788 17.291 5.96287 17.7534C6.41787 18.2157 7.03426 18.475 7.67667 18.4744H11.7557V49.1631C11.7553 49.3337 11.8074 49.5001 11.9048 49.6389C12.0023 49.7776 12.14 49.8816 12.2985 49.9362C12.4582 49.988 12.6296 49.9884 12.7896 49.9375C12.9495 49.8865 13.0902 49.7866 13.1925 49.6514C14.491 47.8825 16.2458 46.5161 18.2614 45.7044C20.2354 44.9148 22.3872 44.7062 24.4718 45.1022C25.5784 45.3073 26.6507 45.6718 27.6568 46.1845C28.3242 46.5472 28.9621 46.9635 29.5646 47.4297C29.8599 47.6494 30.1632 47.8691 30.4746 48.0807C32.4794 49.5778 34.848 50.4868 37.3235 50.7093C37.7466 50.7337 38.1697 50.75 38.6087 50.75C39.4708 50.75 40.3808 50.7012 41.3626 50.6117C41.9331 50.5749 42.4993 50.4878 43.0549 50.3512C43.8452 50.1396 44.2443 49.7409 44.2443 49.1631V18.4744H48.3233C48.9657 18.475 49.5821 18.2157 50.0371 17.7534C50.4921 17.291 50.7485 16.6635 50.75 16.0085V7.71584C50.7485 7.06091 50.4921 6.43336 50.0371 5.97102C49.5821 5.50868 48.9657 5.24935 48.3233 5.25ZM11.7557 13.5346H10.0954V10.1898H11.7557V13.5346ZM42.6478 48.7724C42.6318 48.7806 42.6239 48.7806 42.6079 48.7887C42.1542 48.8969 41.6921 48.965 41.2269 48.9922C39.9588 49.1152 38.6839 49.1478 37.4113 49.0898C35.2222 48.8753 33.1311 48.0597 31.3606 46.7298C31.0653 46.5263 30.7779 46.3229 30.4985 46.1113C29.8264 45.5914 29.1136 45.1287 28.3672 44.7278C27.2292 44.1422 26.0139 43.7282 24.7591 43.499C22.3793 43.0513 19.924 43.2909 17.6707 44.1907C16.0631 44.8371 14.5958 45.7994 13.3522 47.0228V10.1898H42.6478V48.7724ZM49.1535 16.0085C49.152 16.2318 49.0638 16.4454 48.9082 16.6025C48.7526 16.7596 48.5423 16.8474 48.3233 16.8468H44.2443V15.1622H46.7029C46.9146 15.1622 47.1176 15.0764 47.2673 14.9238C47.417 14.7712 47.5011 14.5642 47.5011 14.3484V9.37601C47.5011 9.16017 47.417 8.95318 47.2673 8.80056C47.1176 8.64794 46.9146 8.5622 46.7029 8.5622H9.2971C9.0854 8.5622 8.88236 8.64794 8.73266 8.80056C8.58296 8.95318 8.49886 9.16017 8.49886 9.37601V14.3484C8.49886 14.5642 8.58296 14.7712 8.73266 14.9238C8.88236 15.0764 9.0854 15.1622 9.2971 15.1622H11.7557V16.8468H7.67667C7.45768 16.8474 7.24736 16.7596 7.09176 16.6025C6.93616 16.4454 6.84797 16.2318 6.84649 16.0085V7.71584C6.84797 7.49258 6.93616 7.27902 7.09176 7.12192C7.24736 6.96481 7.45768 6.87697 7.67667 6.87762H48.3233C48.5423 6.87697 48.7526 6.96481 48.9082 7.12192C49.0638 7.27902 49.152 7.49258 49.1535 7.71584V16.0085ZM44.2443 13.5346V10.1898H45.9046V13.5346H44.2443Z" fill="#6A6A6A"/>
<path d="M22.2925 13.5183C22.2925 13.7341 22.2084 13.9411 22.0587 14.0937C21.909 14.2464 21.706 14.3321 21.4943 14.3321H16.617C16.4053 14.3321 16.2023 14.2464 16.0526 14.0937C15.9029 13.9411 15.8188 13.7341 15.8188 13.5183C15.8188 13.3025 15.9029 13.0955 16.0526 12.9428C16.2023 12.7902 16.4053 12.7045 16.617 12.7045H21.4943C21.5991 12.7045 21.7029 12.7255 21.7998 12.7664C21.8966 12.8073 21.9846 12.8673 22.0587 12.9428C22.1329 13.0184 22.1917 13.1081 22.2318 13.2069C22.2719 13.3056 22.2925 13.4114 22.2925 13.5183Z" fill="#6A6A6A"/>
<path d="M31.2409 13.5183C31.2409 13.7341 31.1568 13.9411 31.0071 14.0937C30.8574 14.2464 30.6543 14.3321 30.4426 14.3321H25.5574C25.3457 14.3321 25.1426 14.2464 24.9929 14.0937C24.8432 13.9411 24.7591 13.7341 24.7591 13.5183C24.7591 13.3025 24.8432 13.0955 24.9929 12.9428C25.1426 12.7902 25.3457 12.7045 25.5574 12.7045H30.4426C30.6543 12.7045 30.8574 12.7902 31.0071 12.9428C31.1568 13.0955 31.2409 13.3025 31.2409 13.5183Z" fill="#6A6A6A"/>
<path d="M40.1812 13.5183C40.1812 13.7341 40.0971 13.9411 39.9474 14.0937C39.7977 14.2464 39.5947 14.3321 39.383 14.3321H34.5057C34.294 14.3321 34.091 14.2464 33.9413 14.0937C33.7916 13.9411 33.7075 13.7341 33.7075 13.5183C33.7075 13.3025 33.7916 13.0955 33.9413 12.9428C34.091 12.7902 34.294 12.7045 34.5057 12.7045H39.383C39.5947 12.7045 39.7977 12.7902 39.9474 12.9428C40.0971 13.0955 40.1812 13.3025 40.1812 13.5183Z" fill="#6A6A6A"/>
<path d="M30.4426 23.0968C30.3307 23.4842 30.1192 23.8341 29.8301 24.1103C29.541 24.3864 29.1847 24.5788 28.7982 24.6675V25.1069C28.7982 25.3228 28.7141 25.5297 28.5644 25.6824C28.4147 25.835 28.2117 25.9207 28 25.9207C27.7883 25.9207 27.5853 25.835 27.4356 25.6824C27.2859 25.5297 27.2018 25.3228 27.2018 25.1069V24.5373C26.8423 24.3859 26.4976 24.2007 26.172 23.9839C26.0443 23.9025 25.9166 23.8211 25.7968 23.756C25.6116 23.6513 25.4747 23.4759 25.4163 23.2683C25.358 23.0608 25.3828 22.8381 25.4855 22.6492C25.5882 22.4604 25.7603 22.3208 25.9639 22.2613C26.1674 22.2018 26.3859 22.2271 26.5711 22.3318C26.7148 22.4132 26.8665 22.5027 27.0182 22.6004C27.3692 22.8876 27.7924 23.0681 28.2395 23.1212C28.3811 23.1224 28.5198 23.0805 28.6379 23.0007C28.7559 22.921 28.8479 22.8071 28.902 22.6736C28.926 22.576 28.926 22.4539 28.7344 22.3237L26.7787 20.989C26.5483 20.8365 26.3513 20.6371 26.2002 20.4032C26.0491 20.1693 25.9471 19.906 25.9006 19.63C25.8618 19.3697 25.8772 19.1039 25.946 18.8501C26.0148 18.5963 26.1353 18.3601 26.2997 18.157C26.5376 17.8557 26.8485 17.6228 27.2018 17.4815V16.8549C27.2018 16.6391 27.2859 16.4321 27.4356 16.2795C27.5853 16.1268 27.7883 16.0411 28 16.0411C28.2117 16.0411 28.4147 16.1268 28.5644 16.2795C28.7141 16.4321 28.7982 16.6391 28.7982 16.8549V17.4002C29.0397 17.4641 29.269 17.5686 29.4768 17.7094L30.259 18.2384C30.3461 18.2981 30.4208 18.3748 30.4788 18.4641C30.5368 18.5533 30.577 18.6533 30.597 18.7584C30.617 18.8635 30.6165 18.9715 30.5955 19.0764C30.5745 19.1813 30.5334 19.2809 30.4746 19.3696C30.4169 19.4584 30.3425 19.5346 30.2557 19.5938C30.1689 19.653 30.0714 19.694 29.9689 19.7145C29.8664 19.7349 29.7609 19.7344 29.6586 19.7129C29.5563 19.6914 29.4592 19.6494 29.373 19.5893L28.5907 19.0603C28.4302 18.9552 28.2396 18.9085 28.0498 18.9277C27.86 18.9469 27.6821 19.0309 27.545 19.1661C27.5187 19.1954 27.4992 19.2304 27.4882 19.2685C27.4771 19.3065 27.4747 19.3467 27.4811 19.3858C27.5076 19.4912 27.5735 19.5818 27.6647 19.6381L29.6284 20.9728C29.9703 21.1903 30.2343 21.5145 30.381 21.8972C30.5276 22.2799 30.5493 22.7006 30.4426 23.0968Z" fill="#6A6A6A"/>
<path d="M31.2409 38.3883C31.2409 38.6041 31.1568 38.8111 31.0071 38.9637C30.8574 39.1163 30.6543 39.2021 30.4426 39.2021H16.617C16.4053 39.2021 16.2023 39.1163 16.0526 38.9637C15.9029 38.8111 15.8188 38.6041 15.8188 38.3883C15.8188 38.1724 15.9029 37.9654 16.0526 37.8128C16.2023 37.6602 16.4053 37.5745 16.617 37.5745H30.4426C30.6543 37.5745 30.8574 37.6602 31.0071 37.8128C31.1568 37.9654 31.2409 38.1724 31.2409 38.3883Z" fill="#6A6A6A"/>
<path d="M40.1812 28.4435C40.1812 28.6594 40.0971 28.8664 39.9474 29.019C39.7977 29.1716 39.5947 29.2573 39.383 29.2573H34.5057C34.294 29.2573 34.091 29.1716 33.9413 29.019C33.7916 28.8664 33.7075 28.6594 33.7075 28.4435C33.7075 28.2277 33.7916 28.0207 33.9413 27.8681C34.091 27.7155 34.294 27.6297 34.5057 27.6297H39.383C39.5947 27.6297 39.7977 27.7155 39.9474 27.8681C40.0971 28.0207 40.1812 28.2277 40.1812 28.4435Z" fill="#6A6A6A"/>
<path d="M40.1812 31.7557C40.1812 31.9716 40.0971 32.1786 39.9474 32.3312C39.7977 32.4838 39.5947 32.5695 39.383 32.5695H34.5057C34.294 32.5695 34.091 32.4838 33.9413 32.3312C33.7916 32.1786 33.7075 31.9716 33.7075 31.7557C33.7075 31.5399 33.7916 31.3329 33.9413 31.1803C34.091 31.0277 34.294 30.9419 34.5057 30.9419H39.383C39.5947 30.9419 39.7977 31.0277 39.9474 31.1803C40.0971 31.3329 40.1812 31.5399 40.1812 31.7557Z" fill="#6A6A6A"/>
<path d="M40.1812 35.0679C40.1812 35.2838 40.0971 35.4908 39.9474 35.6434C39.7977 35.796 39.5947 35.8817 39.383 35.8817H34.5057C34.294 35.8817 34.091 35.796 33.9413 35.6434C33.7916 35.4908 33.7075 35.2838 33.7075 35.0679C33.7075 34.8521 33.7916 34.6451 33.9413 34.4925C34.091 34.3399 34.294 34.2541 34.5057 34.2541H39.383C39.5947 34.2541 39.7977 34.3399 39.9474 34.4925C40.0971 34.6451 40.1812 34.8521 40.1812 35.0679Z" fill="#6A6A6A"/>
<path d="M40.1812 38.3883C40.1812 38.6041 40.0971 38.8111 39.9474 38.9637C39.7977 39.1163 39.5947 39.2021 39.383 39.2021H34.5057C34.294 39.2021 34.091 39.1163 33.9413 38.9637C33.7916 38.8111 33.7075 38.6041 33.7075 38.3883C33.7075 38.1724 33.7916 37.9654 33.9413 37.8128C34.091 37.6602 34.294 37.5745 34.5057 37.5745H39.383C39.5947 37.5745 39.7977 37.6602 39.9474 37.8128C40.0971 37.9654 40.1812 38.1724 40.1812 38.3883Z" fill="#6A6A6A"/>
<path d="M31.2409 35.0679C31.2409 35.2838 31.1568 35.4908 31.0071 35.6434C30.8574 35.796 30.6543 35.8817 30.4426 35.8817H16.617C16.4053 35.8817 16.2023 35.796 16.0526 35.6434C15.9029 35.4908 15.8188 35.2838 15.8188 35.0679C15.8188 34.8521 15.9029 34.6451 16.0526 34.4925C16.2023 34.3399 16.4053 34.2541 16.617 34.2541H30.4426C30.6543 34.2541 30.8574 34.3399 31.0071 34.4925C31.1568 34.6451 31.2409 34.8521 31.2409 35.0679Z" fill="#6A6A6A"/>
<path d="M31.2409 31.7557C31.2409 31.9716 31.1568 32.1786 31.0071 32.3312C30.8574 32.4838 30.6543 32.5695 30.4426 32.5695H16.617C16.4053 32.5695 16.2023 32.4838 16.0526 32.3312C15.9029 32.1786 15.8188 31.9716 15.8188 31.7557C15.8188 31.5399 15.9029 31.3329 16.0526 31.1803C16.2023 31.0277 16.4053 30.9419 16.617 30.9419H30.4426C30.6543 30.9419 30.8574 31.0277 31.0071 31.1803C31.1568 31.3329 31.2409 31.5399 31.2409 31.7557Z" fill="#6A6A6A"/>
<path d="M31.2409 28.4435C31.2409 28.6594 31.1568 28.8664 31.0071 29.019C30.8574 29.1716 30.6543 29.2573 30.4426 29.2573H16.617C16.4053 29.2573 16.2023 29.1716 16.0526 29.019C15.9029 28.8664 15.8188 28.6594 15.8188 28.4435C15.8188 28.2277 15.9029 28.0207 16.0526 27.8681C16.2023 27.7155 16.4053 27.6297 16.617 27.6297H30.4426C30.6543 27.6297 30.8574 27.7155 31.0071 27.8681C31.1568 28.0207 31.2409 28.2277 31.2409 28.4435Z" fill="#6A6A6A"/>
<path d="M48.3233 5.25H7.67667C7.03426 5.24935 6.41787 5.50868 5.96287 5.97102C5.50788 6.43336 5.25148 7.06091 5.25 7.71584V16.0085C5.25148 16.6635 5.50788 17.291 5.96287 17.7534C6.41787 18.2157 7.03426 18.475 7.67667 18.4744H11.7557V49.1631C11.7553 49.3337 11.8074 49.5001 11.9048 49.6389C12.0023 49.7776 12.14 49.8816 12.2985 49.9362C12.4582 49.988 12.6296 49.9884 12.7896 49.9375C12.9495 49.8865 13.0902 49.7866 13.1925 49.6514C14.491 47.8825 16.2458 46.5161 18.2614 45.7044C20.2354 44.9148 22.3872 44.7062 24.4718 45.1022C25.5784 45.3073 26.6507 45.6718 27.6568 46.1845C28.3242 46.5472 28.9621 46.9635 29.5646 47.4297C29.8599 47.6494 30.1632 47.8691 30.4746 48.0807C32.4794 49.5778 34.848 50.4868 37.3235 50.7093C37.7466 50.7337 38.1697 50.75 38.6087 50.75C39.4708 50.75 40.3808 50.7012 41.3626 50.6117C41.9331 50.5749 42.4993 50.4878 43.0549 50.3512C43.8452 50.1396 44.2443 49.7409 44.2443 49.1631V18.4744H48.3233C48.9657 18.475 49.5821 18.2157 50.0371 17.7534C50.4921 17.291 50.7485 16.6635 50.75 16.0085V7.71584C50.7485 7.06091 50.4921 6.43336 50.0371 5.97102C49.5821 5.50868 48.9657 5.24935 48.3233 5.25ZM11.7557 13.5346H10.0954V10.1898H11.7557V13.5346ZM42.6478 48.7724C42.6318 48.7806 42.6239 48.7806 42.6079 48.7887C42.1542 48.8969 41.6921 48.965 41.2269 48.9922C39.9588 49.1152 38.6839 49.1478 37.4113 49.0898C35.2222 48.8753 33.1311 48.0597 31.3606 46.7298C31.0653 46.5263 30.7779 46.3229 30.4985 46.1113C29.8264 45.5914 29.1136 45.1287 28.3672 44.7278C27.2292 44.1422 26.0139 43.7282 24.7591 43.499C22.3793 43.0513 19.924 43.2909 17.6707 44.1907C16.0631 44.8371 14.5958 45.7994 13.3522 47.0228V10.1898H42.6478V48.7724ZM49.1535 16.0085C49.152 16.2318 49.0638 16.4454 48.9082 16.6025C48.7526 16.7596 48.5423 16.8474 48.3233 16.8468H44.2443V15.1622H46.7029C46.9146 15.1622 47.1176 15.0764 47.2673 14.9238C47.417 14.7712 47.5011 14.5642 47.5011 14.3484V9.37601C47.5011 9.16017 47.417 8.95318 47.2673 8.80056C47.1176 8.64794 46.9146 8.5622 46.7029 8.5622H9.2971C9.0854 8.5622 8.88236 8.64794 8.73266 8.80056C8.58296 8.95318 8.49886 9.16017 8.49886 9.37601V14.3484C8.49886 14.5642 8.58296 14.7712 8.73266 14.9238C8.88236 15.0764 9.0854 15.1622 9.2971 15.1622H11.7557V16.8468H7.67667C7.45768 16.8474 7.24736 16.7596 7.09176 16.6025C6.93616 16.4454 6.84797 16.2318 6.84649 16.0085V7.71584C6.84797 7.49258 6.93616 7.27902 7.09176 7.12192C7.24736 6.96481 7.45768 6.87697 7.67667 6.87762H48.3233C48.5423 6.87697 48.7526 6.96481 48.9082 7.12192C49.0638 7.27902 49.152 7.49258 49.1535 7.71584V16.0085ZM44.2443 13.5346V10.1898H45.9046V13.5346H44.2443Z" fill="#6A6A6A"/>
</g>
</g>
</svg>
