<svg width="56" height="56" viewBox="0 0 56 56" fill="none" xmlns="http://www.w3.org/2000/svg">
<g id="reports_request_icon">
<g id="Vector">
<path d="M16.4898 40.2875C16.1046 40.1431 15.6713 40.3288 15.5222 40.7031C15.3732 41.0774 15.5647 41.4984 15.95 41.6432C19.5105 42.981 19.8931 47.5629 19.9069 49.2966H6.7506C6.76452 47.5623 7.14735 42.981 10.7076 41.6432C11.0929 41.4984 11.2843 41.0775 11.1354 40.7031C10.9864 40.3288 10.5533 40.1425 10.168 40.2875C4.7302 42.3309 5.24908 49.7631 5.27381 50.0784C5.30363 50.4575 5.6286 50.75 6.01961 50.75H20.6379C21.0289 50.75 21.354 50.4575 21.3837 50.0787C21.4084 49.7631 21.9275 42.3309 16.4898 40.2875Z" fill="#6A6A6A"/>
<path d="M40.6476 42.5353C41.0605 42.5353 41.3956 42.2099 41.3956 41.8087C41.3956 41.4074 41.0605 41.0819 40.6476 41.0819H34.7281C34.3152 41.0819 33.9801 41.4074 33.9801 41.8087V50.0233C33.9801 50.4245 34.3152 50.7499 34.7281 50.7499H40.6476C41.0605 50.7499 41.3956 50.4245 41.3956 50.0233V44.5612C41.3956 44.1599 41.0605 43.8345 40.6476 43.8345C40.2346 43.8345 39.8996 44.1599 39.8996 44.5612V49.2966H35.4761V42.5354L40.6476 42.5353Z" fill="#6A6A6A"/>
<path d="M30.7348 32.7653C31.1479 32.7653 31.4828 32.4398 31.4828 32.0386C31.4828 31.6374 31.1479 31.3119 30.7348 31.3119H24.8154C24.4022 31.3119 24.0674 31.6374 24.0674 32.0386V50.0233C24.0674 50.4245 24.4022 50.7499 24.8154 50.7499H30.7348C31.1479 50.7499 31.4828 50.4245 31.4828 50.0233V34.8511C31.4828 34.4499 31.1479 34.1244 30.7348 34.1244C30.3218 34.1244 29.9868 34.4499 29.9868 34.8511V49.2965H25.5634V32.7652L30.7348 32.7653Z" fill="#6A6A6A"/>
<path d="M13.3287 39.4614C17.5419 39.4614 20.9695 36.1316 20.9695 32.0386C20.9695 27.9456 17.5419 24.6156 13.3287 24.6156C9.11563 24.6156 5.68812 27.9456 5.68812 32.0386C5.68812 36.1316 9.11563 39.4614 13.3287 39.4614ZM13.3287 26.069C16.717 26.069 19.4734 28.7469 19.4734 32.0385C19.4734 35.3299 16.7169 38.008 13.3287 38.008C9.9406 38.008 7.18412 35.3299 7.18412 32.0385C7.18412 28.7469 9.9406 26.069 13.3287 26.069Z" fill="#6A6A6A"/>
<path d="M36.1191 21.9872V7.59839C36.1191 7.19707 35.7841 6.8717 35.3711 6.8717H30.4117V5.97669C30.4117 5.57537 30.0768 5.25 29.6637 5.25C29.2507 5.25 28.9158 5.57537 28.9158 5.97669V8.98977C28.9158 9.39099 29.2507 9.71646 29.6637 9.71646C30.0768 9.71646 30.4117 9.39099 30.4117 8.98977V8.32509H34.6231V12.4238H32.386C31.973 12.4238 31.638 12.7493 31.638 13.1505C31.638 13.5517 31.973 13.8772 32.386 13.8772H34.6231V21.9872C34.6231 23.0807 33.7073 23.9702 32.5817 23.9702H19.9222C19.5092 23.9702 19.1742 24.2957 19.1742 24.6969C19.1742 25.0981 19.5092 25.4236 19.9222 25.4236H32.5817C34.5322 25.4237 36.1191 23.882 36.1191 21.9872Z" fill="#6A6A6A"/>
<path d="M11.9194 22.1881C12.3326 22.1881 12.6674 21.8628 12.6674 21.4615V13.8773H28.6059C29.019 13.8773 29.3539 13.5518 29.3539 13.1506C29.3539 12.7494 29.019 12.4239 28.6059 12.4239H12.6674V8.32509H14.7754C15.1887 8.32509 15.5235 7.99972 15.5235 7.5985C15.5235 7.19718 15.1885 6.87181 14.7754 6.87181H11.9194C11.5062 6.87181 11.1714 7.19718 11.1714 7.5985V21.4616C11.1714 21.8628 11.5062 22.1881 11.9194 22.1881Z" fill="#6A6A6A"/>
<path d="M23.6453 9.71646C24.0583 9.71646 24.3933 9.39099 24.3933 8.98977V8.32509H26.8311C27.2443 8.32509 27.5791 7.99972 27.5791 7.5985C27.5791 7.19718 27.2441 6.87181 26.8311 6.87181H24.3933V5.9768C24.3933 5.57548 24.0583 5.25011 23.6453 5.25011C23.232 5.25011 22.8972 5.57548 22.8972 5.9768V8.98988C22.8972 9.39099 23.232 9.71646 23.6453 9.71646Z" fill="#6A6A6A"/>
<path d="M17.6267 9.71646C18.0399 9.71646 18.3747 9.39099 18.3747 8.98977V8.32509H20.7976C21.2107 8.32509 21.5456 7.99972 21.5456 7.5985C21.5456 7.19718 21.2107 6.87181 20.7976 6.87181H18.3747V5.9768C18.3747 5.57548 18.0398 5.25011 17.6267 5.25011C17.2136 5.25011 16.8787 5.57548 16.8787 5.9768V8.98988C16.8787 9.39099 17.2136 9.71646 17.6267 9.71646Z" fill="#6A6A6A"/>
<path d="M17.713 18.5421C17.2998 18.5421 16.965 18.8675 16.965 19.2687V20.5089C16.965 20.9101 17.2998 21.2356 17.713 21.2356H21.548C21.9612 21.2356 22.296 20.9101 22.296 20.5089V16.7831C22.296 16.3819 21.9611 16.0564 21.548 16.0564H17.713C17.2998 16.0564 16.965 16.3819 16.965 16.7831C16.965 17.1844 17.2998 17.5098 17.713 17.5098H20.8V19.7822H18.461V19.2688C18.461 18.8675 18.1261 18.5421 17.713 18.5421Z" fill="#6A6A6A"/>
<path d="M25.7425 18.5421C25.3293 18.5421 24.9945 18.8675 24.9945 19.2687V20.5089C24.9945 20.9101 25.3293 21.2356 25.7425 21.2356H29.5775C29.9905 21.2356 30.3255 20.9101 30.3255 20.5089V16.7831C30.3255 16.3819 29.9905 16.0564 29.5775 16.0564H25.7425C25.3293 16.0564 24.9945 16.3819 24.9945 16.7831C24.9945 17.1844 25.3293 17.5098 25.7425 17.5098H28.8295V19.7822H26.4905V19.2688C26.4905 18.8675 26.1556 18.5421 25.7425 18.5421Z" fill="#6A6A6A"/>
<path d="M50.0021 16.0563C49.589 16.0563 49.2541 16.3818 49.2541 16.783V49.2965H44.8306V14.8245H50.0021C50.4151 14.8245 50.75 14.4992 50.75 14.098C50.75 13.6966 50.4151 13.3713 50.0021 13.3713H44.0826C43.6696 13.3713 43.3346 13.6966 43.3346 14.098V50.0234C43.3346 50.4246 43.6696 50.75 44.0826 50.75H50.0021C50.4151 50.75 50.75 50.4246 50.75 50.0234V16.783C50.75 16.3818 50.4151 16.0563 50.0021 16.0563Z" fill="#6A6A6A"/>
<path d="M16.4898 40.2875C16.1046 40.1431 15.6713 40.3288 15.5222 40.7031C15.3732 41.0774 15.5647 41.4984 15.95 41.6432C19.5105 42.981 19.8931 47.5629 19.9069 49.2966H6.7506C6.76452 47.5623 7.14735 42.981 10.7076 41.6432C11.0929 41.4984 11.2843 41.0775 11.1354 40.7031C10.9864 40.3288 10.5533 40.1425 10.168 40.2875C4.7302 42.3309 5.24908 49.7631 5.27381 50.0784C5.30363 50.4575 5.6286 50.75 6.01961 50.75H20.6379C21.0289 50.75 21.354 50.4575 21.3837 50.0787C21.4084 49.7631 21.9275 42.3309 16.4898 40.2875Z" fill="#6A6A6A"/>
<path d="M13.3287 39.4614C17.5419 39.4614 20.9695 36.1316 20.9695 32.0386C20.9695 27.9456 17.5419 24.6156 13.3287 24.6156C9.11563 24.6156 5.68812 27.9456 5.68812 32.0386C5.68812 36.1316 9.11563 39.4614 13.3287 39.4614ZM13.3287 26.069C16.717 26.069 19.4734 28.7469 19.4734 32.0385C19.4734 35.3299 16.7169 38.008 13.3287 38.008C9.9406 38.008 7.18412 35.3299 7.18412 32.0385C7.18412 28.7469 9.9406 26.069 13.3287 26.069Z" fill="#6A6A6A"/>
<path d="M36.1191 21.9872V7.59839C36.1191 7.19707 35.7841 6.8717 35.3711 6.8717H30.4117V5.97669C30.4117 5.57537 30.0768 5.25 29.6637 5.25C29.2507 5.25 28.9158 5.57537 28.9158 5.97669V8.98977C28.9158 9.39099 29.2507 9.71646 29.6637 9.71646C30.0768 9.71646 30.4117 9.39099 30.4117 8.98977V8.32509H34.6231V12.4238H32.386C31.973 12.4238 31.638 12.7493 31.638 13.1505C31.638 13.5517 31.973 13.8772 32.386 13.8772H34.6231V21.9872C34.6231 23.0807 33.7073 23.9702 32.5817 23.9702H19.9222C19.5092 23.9702 19.1742 24.2957 19.1742 24.6969C19.1742 25.0981 19.5092 25.4236 19.9222 25.4236H32.5817C34.5322 25.4237 36.1191 23.882 36.1191 21.9872Z" fill="#6A6A6A"/>
<path d="M11.9194 22.1881C12.3326 22.1881 12.6674 21.8628 12.6674 21.4615V13.8773H28.6059C29.019 13.8773 29.3539 13.5518 29.3539 13.1506C29.3539 12.7494 29.019 12.4239 28.6059 12.4239H12.6674V8.32509H14.7754C15.1887 8.32509 15.5235 7.99972 15.5235 7.5985C15.5235 7.19718 15.1885 6.87181 14.7754 6.87181H11.9194C11.5062 6.87181 11.1714 7.19718 11.1714 7.5985V21.4616C11.1714 21.8628 11.5062 22.1881 11.9194 22.1881Z" fill="#6A6A6A"/>
<path d="M23.6453 9.71646C24.0583 9.71646 24.3933 9.39099 24.3933 8.98977V8.32509H26.8311C27.2443 8.32509 27.5791 7.99972 27.5791 7.5985C27.5791 7.19718 27.2441 6.87181 26.8311 6.87181H24.3933V5.9768C24.3933 5.57548 24.0583 5.25011 23.6453 5.25011C23.232 5.25011 22.8972 5.57548 22.8972 5.9768V8.98988C22.8972 9.39099 23.232 9.71646 23.6453 9.71646Z" fill="#6A6A6A"/>
<path d="M17.6267 9.71646C18.0399 9.71646 18.3747 9.39099 18.3747 8.98977V8.32509H20.7976C21.2107 8.32509 21.5456 7.99972 21.5456 7.5985C21.5456 7.19718 21.2107 6.87181 20.7976 6.87181H18.3747V5.9768C18.3747 5.57548 18.0398 5.25011 17.6267 5.25011C17.2136 5.25011 16.8787 5.57548 16.8787 5.9768V8.98988C16.8787 9.39099 17.2136 9.71646 17.6267 9.71646Z" fill="#6A6A6A"/>
</g>
</g>
</svg>
