<svg width="32" height="32" viewBox="0 0 32 32" fill="none" xmlns="http://www.w3.org/2000/svg">
<path d="M27.5205 5.02368C27.5205 4.34493 27.2505 3.6937 26.7705 3.2137C26.2904 2.7337 25.6392 2.46368 24.9605 2.46368H7.04047C5.62671 2.46368 4.48047 3.60992 4.48047 5.02368V16.7037C4.48047 17.3824 4.75047 18.0337 5.23048 18.5137C5.7105 18.9937 6.36175 19.2637 7.04047 19.2637H14.1768L8.35311 24.48C8.08811 24.7188 8.06561 25.1275 8.30436 25.3925C8.54311 25.6575 8.95185 25.6788 9.21687 25.44L15.3606 19.9363V28.8963C15.3606 29.2501 15.6468 29.5363 16.0006 29.5363C16.3543 29.5363 16.6406 29.2501 16.6406 28.8963V19.9363L22.8169 25.4077C23.0819 25.6464 23.4906 25.6252 23.7281 25.3602C23.9669 25.0952 23.9456 24.6864 23.6806 24.4477L17.8243 19.264H24.9606C25.6394 19.264 26.2906 18.994 26.7706 18.514C27.2506 18.034 27.5206 17.3827 27.5206 16.704L27.5205 5.02368ZM26.2405 16.7037C26.2405 17.0437 26.1055 17.3687 25.8655 17.6087C25.6255 17.8487 25.3005 17.9837 24.9605 17.9837H7.04047C6.33298 17.9837 5.76047 17.4112 5.76047 16.7037V5.02368C5.76047 4.31744 6.33298 3.74368 7.04047 3.74368H24.9605C25.3005 3.74368 25.6255 3.87869 25.8655 4.11869C26.1055 4.3587 26.2405 4.68493 26.2405 5.02368V16.7037Z" fill="#848484"/>
<path d="M23.5536 5.79265H8.44859C8.09608 5.79265 7.80859 6.0789 7.80859 6.43265V15.2963C7.80859 15.4663 7.87609 15.6288 7.99609 15.7488C8.11609 15.8688 8.27985 15.9363 8.44861 15.9363H23.5536C23.7223 15.9363 23.8861 15.8688 24.0061 15.7488C24.1261 15.6288 24.1936 15.4663 24.1936 15.2963V6.43265C24.1936 6.26265 24.1261 6.10013 24.0061 5.98013C23.8861 5.86013 23.7223 5.79263 23.5536 5.79263L23.5536 5.79265ZM22.9136 14.6563H9.08859V7.07265H22.9136V14.6563Z" fill="#848484"/>
</svg>
