<svg width="56" height="56" viewBox="0 0 56 56" fill="none" xmlns="http://www.w3.org/2000/svg">
<g id="security_request_icon">
<g id="Vector">
<path d="M41.6337 43.7262C41.2488 43.7262 40.9368 44.0404 40.9368 44.4278V45.8817C40.9368 47.7923 39.3925 49.3468 37.4944 49.3468H12.6681C13.4852 48.6037 14.1112 47.5376 14.1112 46.0693V39.2085C14.1112 38.821 13.7992 38.507 13.4143 38.507C13.0294 38.507 12.7174 38.821 12.7174 39.2085V46.0693C12.7174 48.7674 9.70793 49.3342 9.5818 49.3568C9.56122 49.3603 9.54229 49.3676 9.52243 49.3728C9.46513 49.3575 9.40607 49.3468 9.34403 49.3468C7.85521 49.3468 6.64397 48.1275 6.64397 46.6289V42.0476H10.4074C10.7923 42.0476 11.1044 41.7335 11.1044 41.3461C11.1044 40.9586 10.7923 40.6445 10.4074 40.6445H5.94693C5.56205 40.6445 5.25 40.9586 5.25 41.3461V46.629C5.25 48.9013 7.08657 50.75 9.34393 50.75C9.40576 50.75 9.46451 50.7392 9.52161 50.7241C9.57871 50.7392 9.63735 50.75 9.69898 50.75H37.4943C40.1611 50.75 42.3307 48.5661 42.3307 45.8818V44.4279C42.3307 44.0405 42.0186 43.7262 41.6337 43.7262Z" fill="#6A6A6A"/>
<path d="M13.4142 15.5777C13.7992 15.5777 14.1111 15.2636 14.1111 14.8762V6.65304H40.9366V15.8225C40.9366 16.2101 41.2486 16.5241 41.6335 16.5241C42.0184 16.5241 42.3305 16.21 42.3305 15.8225V5.95152C42.3305 5.5641 42.0184 5.25 41.6335 5.25H13.4142C13.0293 5.25 12.7173 5.5641 12.7173 5.95152V14.8762C12.7174 15.2637 13.0293 15.5777 13.4142 15.5777Z" fill="#6A6A6A"/>
<path d="M26.4693 11.1263C26.0843 11.1263 25.7723 11.4404 25.7723 11.8278C25.7723 12.2153 26.0844 12.5293 26.4693 12.5293H37.7087C38.0937 12.5293 38.4057 12.2152 38.4057 11.8278C38.4057 11.4404 38.0937 11.1263 37.7087 11.1263H26.4693Z" fill="#6A6A6A"/>
<path d="M17.1969 11.1263C16.812 11.1263 16.5 11.4404 16.5 11.8278C16.5 12.2153 16.812 12.5293 17.1969 12.5293H22.1789C22.5638 12.5293 22.8759 12.2152 22.8759 11.8278C22.8759 11.4404 22.5638 11.1263 22.1789 11.1263H17.1969Z" fill="#6A6A6A"/>
<path d="M37.7087 46.3988C38.0937 46.3988 38.4057 46.0847 38.4057 45.6973C38.4057 45.3099 38.0937 44.9957 37.7087 44.9957H32.8688C32.4838 44.9957 32.1719 45.3099 32.1719 45.6973C32.1719 46.0847 32.4838 46.3988 32.8688 46.3988H37.7087Z" fill="#6A6A6A"/>
<path d="M16.5 45.6973C16.5 46.0847 16.812 46.3988 17.1969 46.3988H28.1361C28.521 46.3988 28.833 46.0847 28.833 45.6973C28.833 45.3099 28.521 44.9957 28.1361 44.9957H17.1969C16.812 44.9956 16.5 45.3098 16.5 45.6973Z" fill="#6A6A6A"/>
<path d="M22.6619 40.0314H17.1969C16.812 40.0314 16.5 40.3454 16.5 40.7329C16.5 41.1204 16.812 41.4344 17.1969 41.4344H22.6619C23.0468 41.4344 23.3588 41.1204 23.3588 40.7329C23.3589 40.3454 23.0468 40.0314 22.6619 40.0314Z" fill="#6A6A6A"/>
<path d="M38.2722 29.9969H27.0043C27.001 29.9969 26.9978 29.9978 26.9945 29.9979C26.9689 29.9983 26.944 30.0024 26.9188 30.0056C26.8978 30.0081 26.8764 30.0091 26.856 30.0136C26.8376 30.0176 26.8202 30.0248 26.8022 30.0304C26.7767 30.0381 26.7508 30.0449 26.7267 30.0553C26.7123 30.0617 26.6993 30.0707 26.6853 30.078C26.6598 30.0914 26.6339 30.1039 26.6104 30.12C26.5939 30.1314 26.5796 30.1458 26.564 30.1587C26.5452 30.1741 26.5255 30.1884 26.5085 30.2058C26.4937 30.2208 26.4818 30.2383 26.4684 30.2547C26.453 30.2736 26.4365 30.2914 26.4232 30.312C26.4134 30.3269 26.4062 30.3438 26.3974 30.3595C26.3837 30.3845 26.3695 30.4092 26.3587 30.436C26.3575 30.4388 26.3558 30.4411 26.3546 30.4439C26.2433 30.7319 26.1158 31.018 25.9755 31.2942C25.8004 31.6393 25.9363 32.0618 26.279 32.2381C26.3806 32.2904 26.4889 32.3151 26.5955 32.3151C26.849 32.3151 27.0936 32.1753 27.2167 31.9326C27.3053 31.758 27.3883 31.5798 27.4675 31.4H38.272C38.657 31.4 38.969 31.0859 38.969 30.6983C38.9692 30.3109 38.6572 29.9969 38.2722 29.9969Z" fill="#6A6A6A"/>
<path d="M30.2527 27.0151H32.0858C32.4707 27.0151 32.7828 26.701 32.7828 26.3136V24.4014C32.7828 24.2128 32.9351 24.0595 33.1224 24.0595H35.4158C35.5388 24.0595 35.6196 24.1227 35.6569 24.1605C35.6941 24.1983 35.7565 24.2802 35.7555 24.4042L35.7401 26.3527C35.7385 26.5397 35.8113 26.7196 35.9422 26.8523C36.0731 26.9852 36.2512 27.0598 36.4371 27.0598H38.3386C38.7236 27.0598 39.0355 26.7457 39.0355 26.3583C39.0355 25.9709 38.7236 25.6568 38.3386 25.6568H37.1396L37.1495 24.4154C37.1533 23.9466 36.9747 23.5051 36.6465 23.1724C36.3185 22.8396 35.8815 22.6564 35.4159 22.6564H33.1225C32.1667 22.6564 31.3889 23.4393 31.3889 24.4015V25.612H30.2527C29.8678 25.612 29.5558 25.9261 29.5558 26.3136C29.5557 26.701 29.8677 27.0151 30.2527 27.0151Z" fill="#6A6A6A"/>
<path d="M17.7449 37.7714C18.5592 37.7714 19.3707 37.6783 20.1571 37.4945C20.5321 37.4069 20.7654 37.0301 20.6784 36.6527C20.5914 36.2752 20.2174 36.0398 19.842 36.1279C19.1588 36.2874 18.4533 36.3684 17.7449 36.3684C12.6521 36.3684 8.50883 32.1978 8.50883 27.0715C8.50883 21.9452 12.6521 17.7746 17.7449 17.7746C18.9552 17.7746 20.1314 18.0063 21.2408 18.4635C21.5972 18.6104 22.0041 18.4385 22.1499 18.0801C22.2957 17.7215 22.1251 17.3118 21.7689 17.165C20.491 16.6385 19.1371 16.3715 17.7448 16.3715C11.8834 16.3715 7.11476 21.1715 7.11476 27.0715C7.11486 32.9715 11.8835 37.7714 17.7449 37.7714Z" fill="#6A6A6A"/>
<path d="M17.7449 24.5048C17.8545 24.5048 17.9645 24.5118 18.0719 24.5256C18.4544 24.5754 18.8028 24.303 18.8517 23.9188C18.9005 23.5345 18.6307 23.1831 18.2489 23.1339C18.083 23.1126 17.9135 23.1017 17.7449 23.1017C15.5703 23.1017 13.801 24.8826 13.801 27.0715C13.801 29.2605 15.5702 31.0412 17.7449 31.0412C18.1297 31.0412 18.4418 30.7272 18.4418 30.3398C18.4418 29.9523 18.1297 29.6383 17.7449 29.6383C16.3388 29.6383 15.195 28.4869 15.195 27.0716C15.195 25.6563 16.3388 24.5048 17.7449 24.5048Z" fill="#6A6A6A"/>
<path d="M49.962 42.1403L45.0644 37.2102C44.7921 36.9363 44.3508 36.9363 44.0787 37.2102C43.8064 37.4843 43.8064 37.9285 44.0787 38.2025L48.9763 43.1324C49.4835 43.6429 49.4835 44.4736 48.9764 44.9844C48.4691 45.4947 47.6438 45.4951 47.1364 44.9844L40.6416 38.4467C43.5746 36.0259 45.4497 32.3522 45.4497 28.2454C45.4497 20.9729 39.5718 15.0564 32.347 15.0564C25.122 15.0564 19.2442 20.973 19.2442 28.2454C19.2442 35.5177 25.1221 41.4344 32.347 41.4344C34.9863 41.4344 37.4442 40.642 39.5032 39.2851L46.1508 45.9763C46.6761 46.5051 47.3662 46.7694 48.0563 46.7694C48.7464 46.7694 49.4365 46.5051 49.9619 45.9763C51.0127 44.9188 51.0127 43.198 49.962 42.1403ZM32.347 40.0314C25.8906 40.0314 20.638 34.7441 20.638 28.2454C20.638 21.7466 25.8906 16.4594 32.347 16.4594C38.8032 16.4594 44.0558 21.7466 44.0558 28.2454C44.0558 34.7441 38.8032 40.0314 32.347 40.0314Z" fill="#6A6A6A"/>
<path d="M32.347 18.5967C27.0615 18.5967 22.7614 22.925 22.7614 28.2454C22.7614 33.5657 27.0615 37.8941 32.347 37.8941C37.6324 37.8941 41.9324 33.5657 41.9324 28.2454C41.9324 22.9252 37.6324 18.5967 32.347 18.5967ZM32.347 36.4909C27.8302 36.4909 24.1553 32.792 24.1553 28.2454C24.1553 23.6988 27.8301 19.9999 32.347 19.9999C36.8639 19.9999 40.5384 23.6988 40.5384 28.2454C40.5384 32.792 36.8638 36.4909 32.347 36.4909Z" fill="#6A6A6A"/>
<path d="M26.8271 25.3764C26.84 25.4435 26.8495 25.5096 26.8606 25.5761C26.9044 25.8482 26.9373 26.1225 26.9569 26.3985C26.9574 26.4071 26.9581 26.4157 26.9587 26.4242C26.9652 26.5186 26.9699 26.6132 26.9736 26.7078C26.9776 26.8266 26.981 26.9461 26.981 27.0715C26.981 27.2375 26.9749 27.4055 26.9662 27.5722C26.9615 27.6628 26.9569 27.7536 26.9496 27.8432C26.918 28.2293 27.2035 28.5681 27.5871 28.5999C27.6065 28.6015 27.6259 28.6023 27.645 28.6023C28.004 28.6023 28.3088 28.3247 28.3389 27.9582C28.3446 27.888 28.3474 27.817 28.3518 27.7462C28.3525 27.738 28.355 27.7305 28.3555 27.7222C28.3571 27.6977 28.3564 27.6729 28.3577 27.6484C28.3679 27.4563 28.3749 27.2635 28.3749 27.0715C28.3749 26.9312 28.3716 26.791 28.3661 26.6511C28.3625 26.5451 28.3562 26.4409 28.3498 26.3382C28.3485 26.3217 28.3476 26.3054 28.3465 26.289C28.3249 25.9747 28.2889 25.668 28.2376 25.3594C28.2247 25.2786 28.2116 25.1978 28.1969 25.1174C28.1953 25.1094 28.1945 25.1016 28.1929 25.0936C28.1925 25.0914 28.1914 25.0895 28.191 25.0873C28.1273 24.7452 28.0481 24.4065 27.9515 24.0726C27.8437 23.7006 27.4571 23.4868 27.0874 23.5954C26.7179 23.7038 26.5057 24.0932 26.6133 24.4652C26.7 24.7649 26.7709 25.0692 26.8271 25.3764Z" fill="#6A6A6A"/>
<path d="M41.6337 43.7262C41.2488 43.7262 40.9368 44.0404 40.9368 44.4278V45.8817C40.9368 47.7923 39.3925 49.3468 37.4944 49.3468H12.6681C13.4852 48.6037 14.1112 47.5376 14.1112 46.0693V39.2085C14.1112 38.821 13.7992 38.507 13.4143 38.507C13.0294 38.507 12.7174 38.821 12.7174 39.2085V46.0693C12.7174 48.7674 9.70793 49.3342 9.5818 49.3568C9.56122 49.3603 9.54229 49.3676 9.52243 49.3728C9.46513 49.3575 9.40607 49.3468 9.34403 49.3468C7.85521 49.3468 6.64397 48.1275 6.64397 46.6289V42.0476H10.4074C10.7923 42.0476 11.1044 41.7335 11.1044 41.3461C11.1044 40.9586 10.7923 40.6445 10.4074 40.6445H5.94693C5.56205 40.6445 5.25 40.9586 5.25 41.3461V46.629C5.25 48.9013 7.08657 50.75 9.34393 50.75C9.40576 50.75 9.46451 50.7392 9.52161 50.7241C9.57871 50.7392 9.63735 50.75 9.69898 50.75H37.4943C40.1611 50.75 42.3307 48.5661 42.3307 45.8818V44.4279C42.3307 44.0405 42.0186 43.7262 41.6337 43.7262Z" fill="#6A6A6A"/>
<path d="M13.4142 15.5777C13.7992 15.5777 14.1111 15.2636 14.1111 14.8762V6.65304H40.9366V15.8225C40.9366 16.2101 41.2486 16.5241 41.6335 16.5241C42.0184 16.5241 42.3305 16.21 42.3305 15.8225V5.95152C42.3305 5.5641 42.0184 5.25 41.6335 5.25H13.4142C13.0293 5.25 12.7173 5.5641 12.7173 5.95152V14.8762C12.7174 15.2637 13.0293 15.5777 13.4142 15.5777Z" fill="#6A6A6A"/>
<path d="M49.962 42.1403L45.0644 37.2102C44.7921 36.9363 44.3508 36.9363 44.0787 37.2102C43.8064 37.4843 43.8064 37.9285 44.0787 38.2025L48.9763 43.1324C49.4835 43.6429 49.4835 44.4736 48.9764 44.9844C48.4691 45.4947 47.6438 45.4951 47.1364 44.9844L40.6416 38.4467C43.5746 36.0259 45.4497 32.3522 45.4497 28.2454C45.4497 20.9729 39.5718 15.0564 32.347 15.0564C25.122 15.0564 19.2442 20.973 19.2442 28.2454C19.2442 35.5177 25.1221 41.4344 32.347 41.4344C34.9863 41.4344 37.4442 40.642 39.5032 39.2851L46.1508 45.9763C46.6761 46.5051 47.3662 46.7694 48.0563 46.7694C48.7464 46.7694 49.4365 46.5051 49.9619 45.9763C51.0127 44.9188 51.0127 43.198 49.962 42.1403ZM32.347 40.0314C25.8906 40.0314 20.638 34.7441 20.638 28.2454C20.638 21.7466 25.8906 16.4594 32.347 16.4594C38.8032 16.4594 44.0558 21.7466 44.0558 28.2454C44.0558 34.7441 38.8032 40.0314 32.347 40.0314Z" fill="#6A6A6A"/>
<path d="M32.347 18.5967C27.0615 18.5967 22.7614 22.925 22.7614 28.2454C22.7614 33.5657 27.0615 37.8941 32.347 37.8941C37.6324 37.8941 41.9324 33.5657 41.9324 28.2454C41.9324 22.9252 37.6324 18.5967 32.347 18.5967ZM32.347 36.4909C27.8302 36.4909 24.1553 32.792 24.1553 28.2454C24.1553 23.6988 27.8301 19.9999 32.347 19.9999C36.8639 19.9999 40.5384 23.6988 40.5384 28.2454C40.5384 32.792 36.8638 36.4909 32.347 36.4909Z" fill="#6A6A6A"/>
</g>
</g>
</svg>
