<svg width="56" height="56" viewBox="0 0 56 56" fill="none" xmlns="http://www.w3.org/2000/svg">
<g id="shopping_request_icon">
<g id="Vector">
<path d="M16.4254 9.70421C16.4207 10.0189 16.3231 10.3252 16.1448 10.5846C15.9665 10.8439 15.7156 11.0448 15.4235 11.162C15.1314 11.2792 14.8112 11.3074 14.5031 11.2431C14.195 11.1788 13.9127 11.0249 13.6919 10.8007C13.471 10.5765 13.3213 10.292 13.2616 9.98302C13.2019 9.674 13.2349 9.35424 13.3564 9.06391C13.4779 8.77358 13.6825 8.52564 13.9445 8.35126C14.2065 8.17687 14.5142 8.08381 14.8289 8.08377C15.2551 8.0882 15.6623 8.2611 15.9614 8.56472C16.2605 8.86834 16.4274 9.27799 16.4254 9.70421Z" fill="#6A6A6A"/>
<path d="M11.636 9.70421C11.6312 10.0189 11.5336 10.3252 11.3553 10.5846C11.1771 10.8439 10.9261 11.0448 10.634 11.162C10.3419 11.2792 10.0217 11.3074 9.71359 11.2431C9.4055 11.1788 9.12328 11.0249 8.90239 10.8007C8.68151 10.5765 8.53182 10.292 8.47213 9.98302C8.41245 9.674 8.44543 9.35424 8.56694 9.06391C8.68844 8.77358 8.89305 8.52564 9.15505 8.35126C9.41705 8.17687 9.72474 8.08381 10.0395 8.08377C10.4657 8.0882 10.8728 8.2611 11.1719 8.56472C11.4711 8.86834 11.6379 9.27799 11.636 9.70421Z" fill="#6A6A6A"/>
<path d="M21.2149 9.70421C21.2102 10.0189 21.1126 10.3252 20.9343 10.5846C20.756 10.8439 20.5051 11.0448 20.213 11.162C19.9209 11.2792 19.6006 11.3074 19.2925 11.2431C18.9844 11.1788 18.7022 11.0249 18.4813 10.8007C18.2605 10.5765 18.1108 10.292 18.0511 9.98302C17.9914 9.674 18.0244 9.35424 18.1459 9.06391C18.2674 8.77358 18.472 8.52564 18.734 8.35126C18.996 8.17687 19.3037 8.08381 19.6184 8.08377C20.0446 8.0882 20.4517 8.2611 20.7509 8.56472C21.05 8.86834 21.2168 9.27799 21.2149 9.70421Z" fill="#6A6A6A"/>
<path d="M49.1535 5.25H6.84649C6.42346 5.25126 6.01812 5.41987 5.719 5.719C5.41987 6.01812 5.25126 6.42346 5.25 6.84649V49.1535C5.25126 49.5765 5.41987 49.9819 5.719 50.281C6.01812 50.5801 6.42346 50.7487 6.84649 50.75H49.1535C49.5765 50.7487 49.9819 50.5801 50.281 50.281C50.5801 49.9819 50.7487 49.5765 50.75 49.1535V6.84649C50.7487 6.42346 50.5801 6.01812 50.281 5.719C49.9819 5.41987 49.5765 5.25126 49.1535 5.25ZM49.1535 49.1535H6.84649V14.1664H49.1535V49.1535ZM49.1535 12.5699H6.84649V6.84649H49.1535V12.5699Z" fill="#6A6A6A"/>
<path d="M47.3255 10.3668C47.4731 10.5174 47.5552 10.7203 47.5537 10.9312C47.5522 11.1421 47.4673 11.3438 47.3175 11.4923C47.245 11.5668 47.158 11.6257 47.062 11.6655C46.9659 11.7053 46.8627 11.7251 46.7588 11.7238C46.653 11.7244 46.5482 11.7035 46.4508 11.6624C46.3533 11.6212 46.2653 11.5606 46.192 11.4843L45.5614 10.8457L44.9308 11.4843C44.8575 11.5606 44.7695 11.6212 44.6721 11.6624C44.5746 11.7035 44.4698 11.7244 44.364 11.7238C44.2601 11.7251 44.1569 11.7053 44.0608 11.6655C43.9648 11.6257 43.8778 11.5668 43.8053 11.4923C43.6555 11.3438 43.5706 11.1421 43.5691 10.9312C43.5676 10.7203 43.6497 10.5174 43.7973 10.3668L44.4439 9.70421L43.7973 9.04965C43.6488 8.89788 43.5663 8.69357 43.5678 8.48125C43.5693 8.26893 43.6546 8.0658 43.8053 7.91614C43.9559 7.76852 44.1588 7.6865 44.3697 7.688C44.5806 7.6895 44.7823 7.77438 44.9308 7.92412L45.5614 8.5707L46.192 7.92412C46.3405 7.77438 46.5422 7.6895 46.7531 7.688C46.964 7.6865 47.1669 7.76852 47.3175 7.91614C47.4682 8.0658 47.5535 8.26893 47.555 8.48125C47.5565 8.69357 47.474 8.89788 47.3255 9.04965L46.6789 9.70421L47.3255 10.3668Z" fill="#6A6A6A"/>
<path d="M41.9693 9.70421C41.9693 9.91592 41.8852 10.119 41.7355 10.2687C41.5858 10.4184 41.3828 10.5025 41.1711 10.5025H37.9781C37.7664 10.5025 37.5633 10.4184 37.4136 10.2687C37.2639 10.119 37.1798 9.91592 37.1798 9.70421C37.1798 9.4925 37.2639 9.28947 37.4136 9.13977C37.5633 8.99007 37.7664 8.90596 37.9781 8.90596H41.1711C41.3828 8.90596 41.5858 8.99007 41.7355 9.13977C41.8852 9.28947 41.9693 9.4925 41.9693 9.70421Z" fill="#6A6A6A"/>
<path d="M18.5408 36.6929L21.4384 35.0246H35.5434C35.964 35.0224 36.376 34.9052 36.7348 34.6857C37.0935 34.4662 37.3855 34.1528 37.5789 33.7793L42.105 25.2301C42.3155 24.8271 42.4106 24.3738 42.3796 23.9202C42.3486 23.4665 42.1928 23.0303 41.9294 22.6597L41.3546 21.8455C41.1422 21.5473 40.8623 21.3036 40.5376 21.1343C40.213 20.9651 39.8529 20.8751 39.4868 20.8717H39.4788L20.6641 20.9196L20.5444 19.6903C20.4903 19.0833 20.2131 18.518 19.7663 18.1037C19.3195 17.6894 18.735 17.4555 18.1257 17.4472H13.6156C13.4039 17.4472 13.2009 17.5313 13.0512 17.681C12.9015 17.8307 12.8174 18.0337 12.8174 18.2454C12.8174 18.4571 12.9015 18.6602 13.0512 18.8099C13.2009 18.9596 13.4039 19.0437 13.6156 19.0437H18.1257C18.3401 19.0531 18.5435 19.1414 18.6968 19.2917C18.85 19.442 18.9423 19.6437 18.9559 19.8579L20.3768 33.7953L17.6867 35.3518C17.3542 35.5859 17.0833 35.8969 16.8971 36.2583C16.7108 36.6196 16.6147 37.0207 16.617 37.4273V37.6508C16.611 38.2748 16.8401 38.8783 17.2586 39.3412C17.6772 39.8041 18.2546 40.0926 18.8761 40.1493C18.4684 40.7616 18.2517 41.4812 18.2534 42.2168C18.236 42.6894 18.314 43.1608 18.4829 43.6026C18.6517 44.0445 18.9079 44.4477 19.2361 44.7883C19.5644 45.1289 19.9579 45.3998 20.3932 45.5848C20.8285 45.7699 21.2967 45.8652 21.7697 45.8652C22.2427 45.8652 22.7108 45.7699 23.1462 45.5848C23.5815 45.3998 23.975 45.1289 24.3032 44.7883C24.6315 44.4477 24.8877 44.0445 25.0565 43.6026C25.2254 43.1608 25.3034 42.6894 25.286 42.2168C25.2855 41.4876 25.0718 40.7745 24.6713 40.1653H31.9114C31.5072 40.7728 31.2932 41.487 31.2968 42.2168C31.2793 42.6894 31.3573 43.1608 31.5262 43.6026C31.695 44.0445 31.9512 44.4477 32.2795 44.7883C32.6077 45.1289 33.0013 45.3998 33.4366 45.5848C33.8719 45.7699 34.34 45.8652 34.813 45.8652C35.286 45.8652 35.7542 45.7699 36.1895 45.5848C36.6248 45.3998 37.0183 45.1289 37.3466 44.7883C37.6748 44.4477 37.931 44.0445 38.0999 43.6026C38.2687 43.1608 38.3467 42.6894 38.3293 42.2168C38.3288 41.4876 38.1152 40.7745 37.7146 40.1653H39.1595C39.3712 40.1653 39.5742 40.0812 39.7239 39.9315C39.8736 39.7818 39.9577 39.5787 39.9577 39.367C39.9577 39.1553 39.8736 38.9523 39.7239 38.8026C39.5742 38.6529 39.3712 38.5688 39.1595 38.5688H19.0517C18.8192 38.557 18.6008 38.454 18.4439 38.2821C18.287 38.1102 18.2042 37.8833 18.2135 37.6508V37.4273C18.2122 37.2886 18.2407 37.1512 18.2972 37.0244C18.3536 36.8977 18.4367 36.7847 18.5408 36.6929ZM36.174 33.0289C36.1145 33.146 36.0245 33.2449 35.9136 33.3151C35.8026 33.3854 35.6747 33.4244 35.5434 33.4281H21.9413L21.1191 25.3339L40.2451 25.3259L36.174 33.0289ZM39.4788 22.4682H39.4868C39.5987 22.4693 39.7087 22.4975 39.8073 22.5503C39.906 22.6031 39.9905 22.679 40.0535 22.7715L40.6362 23.5857C40.6602 23.6256 40.6841 23.6735 40.7081 23.7214L20.9515 23.7374L20.8318 22.5161L39.4788 22.4682ZM34.809 40.1653C35.2218 40.1362 35.6338 40.2322 35.9913 40.4406C36.3487 40.6491 36.6352 40.9603 36.8132 41.3338C36.9913 41.7073 37.0528 42.1258 36.9897 42.5348C36.9265 42.9437 36.7417 43.3242 36.4593 43.6266C36.1769 43.9291 35.8099 44.1395 35.4062 44.2304C35.0025 44.3213 34.5808 44.2886 34.196 44.1364C33.8112 43.9843 33.4811 43.7198 33.2487 43.3774C33.0164 43.035 32.8925 42.6306 32.8932 42.2168C32.8769 41.6911 33.0691 41.1803 33.4281 40.7959C33.787 40.4116 34.2835 40.1848 34.809 40.1653ZM21.7657 40.1653C22.1785 40.1362 22.5904 40.2322 22.9479 40.4406C23.3054 40.6491 23.5918 40.9603 23.7699 41.3338C23.948 41.7073 24.0095 42.1258 23.9463 42.5348C23.8832 42.9437 23.6984 43.3242 23.416 43.6266C23.1335 43.9291 22.7666 44.1395 22.3629 44.2304C21.9592 44.3213 21.5375 44.2886 21.1527 44.1364C20.7679 43.9843 20.4378 43.7198 20.2054 43.3774C19.973 43.035 19.8492 42.6306 19.8499 42.2168C19.8335 41.6911 20.0258 41.1803 20.3847 40.7959C20.7437 40.4116 21.2401 40.1848 21.7657 40.1653Z" fill="#6A6A6A"/>
<path d="M16.4254 9.70421C16.4207 10.0189 16.3231 10.3252 16.1448 10.5846C15.9665 10.8439 15.7156 11.0448 15.4235 11.162C15.1314 11.2792 14.8112 11.3074 14.5031 11.2431C14.195 11.1788 13.9127 11.0249 13.6919 10.8007C13.471 10.5765 13.3213 10.292 13.2616 9.98302C13.2019 9.674 13.2349 9.35424 13.3564 9.06391C13.4779 8.77358 13.6825 8.52564 13.9445 8.35126C14.2065 8.17687 14.5142 8.08381 14.8289 8.08377C15.2551 8.0882 15.6623 8.2611 15.9614 8.56472C16.2605 8.86834 16.4274 9.27799 16.4254 9.70421Z" fill="#6A6A6A"/>
<path d="M11.636 9.70421C11.6312 10.0189 11.5336 10.3252 11.3553 10.5846C11.1771 10.8439 10.9261 11.0448 10.634 11.162C10.3419 11.2792 10.0217 11.3074 9.71359 11.2431C9.4055 11.1788 9.12328 11.0249 8.90239 10.8007C8.68151 10.5765 8.53182 10.292 8.47213 9.98302C8.41245 9.674 8.44543 9.35424 8.56694 9.06391C8.68844 8.77358 8.89305 8.52564 9.15505 8.35126C9.41705 8.17687 9.72474 8.08381 10.0395 8.08377C10.4657 8.0882 10.8728 8.2611 11.1719 8.56472C11.4711 8.86834 11.6379 9.27799 11.636 9.70421Z" fill="#6A6A6A"/>
<path d="M21.2149 9.70421C21.2102 10.0189 21.1126 10.3252 20.9343 10.5846C20.756 10.8439 20.5051 11.0448 20.213 11.162C19.9209 11.2792 19.6006 11.3074 19.2925 11.2431C18.9844 11.1788 18.7022 11.0249 18.4813 10.8007C18.2605 10.5765 18.1108 10.292 18.0511 9.98302C17.9914 9.674 18.0244 9.35424 18.1459 9.06391C18.2674 8.77358 18.472 8.52564 18.734 8.35126C18.996 8.17687 19.3037 8.08381 19.6184 8.08377C20.0446 8.0882 20.4517 8.2611 20.7509 8.56472C21.05 8.86834 21.2168 9.27799 21.2149 9.70421Z" fill="#6A6A6A"/>
<path d="M49.1535 5.25H6.84649C6.42346 5.25126 6.01812 5.41987 5.719 5.719C5.41987 6.01812 5.25126 6.42346 5.25 6.84649V49.1535C5.25126 49.5765 5.41987 49.9819 5.719 50.281C6.01812 50.5801 6.42346 50.7487 6.84649 50.75H49.1535C49.5765 50.7487 49.9819 50.5801 50.281 50.281C50.5801 49.9819 50.7487 49.5765 50.75 49.1535V6.84649C50.7487 6.42346 50.5801 6.01812 50.281 5.719C49.9819 5.41987 49.5765 5.25126 49.1535 5.25ZM49.1535 49.1535H6.84649V14.1664H49.1535V49.1535ZM49.1535 12.5699H6.84649V6.84649H49.1535V12.5699Z" fill="#6A6A6A"/>
<path d="M47.3255 10.3668C47.4731 10.5174 47.5552 10.7203 47.5537 10.9312C47.5522 11.1421 47.4673 11.3438 47.3175 11.4923C47.245 11.5668 47.158 11.6257 47.062 11.6655C46.9659 11.7053 46.8627 11.7251 46.7588 11.7238C46.653 11.7244 46.5482 11.7035 46.4508 11.6624C46.3533 11.6212 46.2653 11.5606 46.192 11.4843L45.5614 10.8457L44.9308 11.4843C44.8575 11.5606 44.7695 11.6212 44.6721 11.6624C44.5746 11.7035 44.4698 11.7244 44.364 11.7238C44.2601 11.7251 44.1569 11.7053 44.0608 11.6655C43.9648 11.6257 43.8778 11.5668 43.8053 11.4923C43.6555 11.3438 43.5706 11.1421 43.5691 10.9312C43.5676 10.7203 43.6497 10.5174 43.7973 10.3668L44.4439 9.70421L43.7973 9.04965C43.6488 8.89788 43.5663 8.69357 43.5678 8.48125C43.5693 8.26893 43.6546 8.0658 43.8053 7.91614C43.9559 7.76852 44.1588 7.6865 44.3697 7.688C44.5806 7.6895 44.7823 7.77438 44.9308 7.92412L45.5614 8.5707L46.192 7.92412C46.3405 7.77438 46.5422 7.6895 46.7531 7.688C46.964 7.6865 47.1669 7.76852 47.3175 7.91614C47.4682 8.0658 47.5535 8.26893 47.555 8.48125C47.5565 8.69357 47.474 8.89788 47.3255 9.04965L46.6789 9.70421L47.3255 10.3668Z" fill="#6A6A6A"/>
<path d="M41.9693 9.70421C41.9693 9.91592 41.8852 10.119 41.7355 10.2687C41.5858 10.4184 41.3828 10.5025 41.1711 10.5025H37.9781C37.7664 10.5025 37.5633 10.4184 37.4136 10.2687C37.2639 10.119 37.1798 9.91592 37.1798 9.70421C37.1798 9.4925 37.2639 9.28947 37.4136 9.13977C37.5633 8.99007 37.7664 8.90596 37.9781 8.90596H41.1711C41.3828 8.90596 41.5858 8.99007 41.7355 9.13977C41.8852 9.28947 41.9693 9.4925 41.9693 9.70421Z" fill="#6A6A6A"/>
</g>
</g>
</svg>
