<svg width="56" height="56" viewBox="0 0 56 56" fill="none" xmlns="http://www.w3.org/2000/svg">
<g id="shoppingcart_request_icon">
<g id="Vector">
<path d="M48.1159 17.2253H22.0338V13.8256C22.0338 11.6483 20.4985 9.66614 18.3212 9.66614H15.8084C14.2249 9.66614 12.9366 11.0224 12.9366 12.6058C12.9366 14.1893 14.2249 15.5455 15.8084 15.5455H17.4423V14.0896H15.8084C15.0165 14.0896 14.3725 13.4256 14.3725 12.6338C14.3725 11.8421 15.0165 11.178 15.8084 11.178H18.3212C19.7066 11.178 20.69 12.44 20.69 13.8256V33.0715H22.0338V18.7371H48.1159C48.9078 18.7371 49.3588 19.4954 49.3588 20.2871V25.6717C49.3588 26.2549 49.0591 27.1399 48.6241 27.5285L40.7631 34.4796C40.3095 34.8848 39.3909 35.1433 38.7826 35.1433H24.7827C22.6054 35.1433 20.69 37.1353 20.69 39.3126V39.7402C18.8982 40.0792 17.5313 41.6884 17.5313 43.6203C17.5313 45.7976 19.3387 47.479 21.516 47.479C23.4478 47.479 25.0932 46.006 25.4321 44.1582H34.9026C35.2415 46.006 36.8508 47.479 38.7827 47.479C40.96 47.479 42.7313 45.7526 42.7313 43.5753C42.7313 41.398 40.96 39.5491 38.7827 39.5491C36.8508 39.5491 35.2416 41.0226 34.9026 42.7024H32.5047V41.0226H34.3525V39.5667H25.7295V41.0226H27.5213V42.7024H25.4321C25.1362 41.3585 23.8817 40.0361 22.0339 39.7401V39.3126C22.0339 37.9272 23.3973 36.6551 24.7827 36.6551H38.7826C39.7414 36.6551 41.0525 36.2272 41.7676 35.5888L49.5904 28.563C50.3378 27.8957 50.8146 26.6734 50.8146 25.6717V20.2871C50.8146 18.7037 49.6994 17.2253 48.1159 17.2253ZM38.7826 41.1075C40.168 41.1075 41.2954 42.2349 41.2954 43.6203C41.2954 45.0057 40.1681 46.1332 38.7826 46.1332C37.3972 46.1332 36.2698 45.0058 36.2698 43.6203C36.2698 42.2349 37.3972 41.1075 38.7826 41.1075ZM28.8651 41.0226H31.0488V42.7024H28.8651V41.0226ZM24.0648 43.6203C24.0648 45.0057 22.9374 46.1332 21.5519 46.1332C20.1665 46.1332 19.0391 45.0058 19.0391 43.6203C19.0391 42.2349 20.1665 41.1075 21.5519 41.1075C22.9374 41.1075 24.0648 42.2349 24.0648 43.6203Z" fill="#6A6A6A"/>
<path d="M20.4751 43.6203C20.4751 44.2142 20.9581 44.6973 21.552 44.6973C22.1459 44.6973 22.6289 44.2142 22.6289 43.6203C22.6289 43.0265 22.1459 42.5434 21.552 42.5434C20.9581 42.5434 20.4751 43.0265 20.4751 43.6203ZM38.7826 44.6973C39.3765 44.6973 39.8595 44.2142 39.8595 43.6203C39.8595 43.0265 39.3765 42.5434 38.7826 42.5434C38.1887 42.5434 37.7057 43.0265 37.7057 43.6203C37.7057 44.2142 38.1888 44.6973 38.7826 44.6973ZM4.84375 20.193H17.7783V21.6488H4.84375V20.193ZM8.37135 25.9043H17.7783V27.3602H8.37135V25.9043ZM12.0669 31.6157H17.7783V33.0715H12.0669V31.6157Z" fill="#6A6A6A"/>
<path d="M27.1852 21.6488H28.5291V33.0715H27.1852V21.6488ZM32.8966 21.6488H34.3524V33.0715H32.8966V21.6488ZM37.8801 21.6488H39.3359V31.2797H37.8801V21.6488ZM42.9195 21.6488H44.3753V27.7521H42.9195V21.6488Z" fill="#6A6A6A"/>
<path d="M24.2176 8.80003C24.2176 8.40516 24.7468 7.98633 25.1416 7.98633H32.3211C32.716 7.98633 32.8966 8.40516 32.8966 8.80003V15.1535H24.2176V8.80003ZM42.1356 15.1535H34.9684V12.3897C34.9684 11.9949 35.5159 11.5139 35.9108 11.5139H41.6544C42.0492 11.5139 42.1356 11.9949 42.1356 12.3897V15.1535Z" fill="#6A6A6A"/>
</g>
</g>
</svg>
