<svg width="56" height="56" viewBox="0 0 56 56" fill="none" xmlns="http://www.w3.org/2000/svg">
<rect width="56" height="56" fill="white"/>
<path fill-rule="evenodd" clip-rule="evenodd" d="M5.8 8.8V37.0644H49.1725V8.8H5.8ZM5 7C4.44772 7 4 7.44771 4 8V37.8644C4 38.4166 4.44772 38.8644 5 38.8644H49.9725C50.5247 38.8644 50.9725 38.4166 50.9725 37.8644V8C50.9725 7.44772 50.5247 7 49.9725 7H5Z" fill="#848484"/>
<path fill-rule="evenodd" clip-rule="evenodd" d="M24.4016 37.5836C24.8987 37.5836 25.3016 37.9865 25.3016 38.4836L25.3016 48.3099C25.3016 48.807 24.8987 49.2099 24.4016 49.2099C23.9046 49.2099 23.5016 48.807 23.5016 48.3099L23.5016 38.4836C23.5016 37.9865 23.9046 37.5836 24.4016 37.5836Z" fill="#848484"/>
<path fill-rule="evenodd" clip-rule="evenodd" d="M32.3687 37.5836C32.8657 37.5836 33.2687 37.9865 33.2687 38.4836L33.2687 48.3099C33.2687 48.807 32.8657 49.2099 32.3687 49.2099C31.8716 49.2099 31.4687 48.807 31.4687 48.3099L31.4687 38.4836C31.4687 37.9865 31.8716 37.5836 32.3687 37.5836Z" fill="#848484"/>
<path fill-rule="evenodd" clip-rule="evenodd" d="M37.5129 48.5553C37.5129 49.0523 37.11 49.4553 36.6129 49.4553H18.6351C18.138 49.4553 17.7351 49.0523 17.7351 48.5553C17.7351 48.0582 18.138 47.6553 18.6351 47.6553H36.6129C37.11 47.6553 37.5129 48.0582 37.5129 48.5553Z" fill="#848484"/>
<path fill-rule="evenodd" clip-rule="evenodd" d="M30.5482 16.3842C30.9781 16.6336 31.1244 17.1844 30.875 17.6143L24.4197 28.7393C24.1702 29.1693 23.6195 29.3156 23.1895 29.0661C22.7596 28.8166 22.6133 28.2659 22.8628 27.836L29.3181 16.7109C29.5675 16.281 30.1183 16.1347 30.5482 16.3842Z" fill="#848484"/>
<path fill-rule="evenodd" clip-rule="evenodd" d="M18.1601 15.773C18.5482 16.0835 18.6112 16.6499 18.3007 17.038L13.8452 22.6073C13.8165 22.6432 13.816 22.6941 13.8439 22.7306L18.3124 28.5644C18.6146 28.959 18.5398 29.5239 18.1452 29.8261C17.7505 30.1284 17.1856 30.0535 16.8834 29.6589L12.4149 23.8251C11.8837 23.1315 11.8939 22.1651 12.4397 21.4828L16.8951 15.9136C17.2056 15.5254 17.772 15.4625 18.1601 15.773Z" fill="#848484"/>
<path fill-rule="evenodd" clip-rule="evenodd" d="M36.675 15.773C36.2868 16.0835 36.2239 16.6499 36.5344 17.038L40.9899 22.6073C41.0186 22.6432 41.0191 22.6941 40.9912 22.7306L36.5227 28.5644C36.2205 28.959 36.2953 29.5239 36.6899 29.8261C37.0845 30.1284 37.6494 30.0535 37.9517 29.6589L42.4201 23.8251C42.9514 23.1315 42.9412 22.1651 42.3954 21.4828L37.94 15.9136C37.6295 15.5254 37.0631 15.4625 36.675 15.773Z" fill="#848484"/>
</svg>
