<svg width="56" height="56" viewBox="0 0 56 56" fill="none" xmlns="http://www.w3.org/2000/svg">
<g id="software_request_icon">
<g id="Vector">
<path d="M30.3216 10.7285H25.7302V15.32H30.3216V10.7285ZM28.8658 13.7522H27.298V12.1844H28.8658V13.7522ZM32.6174 39.7893V40.5172H23.4344V39.7893H21.9786V41.0471C21.9786 41.6799 22.6273 42.085 23.26 42.085H33.2057C33.8385 42.085 34.1852 41.6799 34.1852 41.0471V39.7893H32.6174Z" fill="#6A6A6A"/>
<path d="M33.3453 39.7893V41.0471C33.3453 41.2575 33.4161 41.2451 33.2058 41.2451H23.2601C23.0497 41.2451 22.7066 41.2575 22.7066 41.0471V39.7893" fill="#6A6A6A"/>
<path d="M4.28456 41.2451H10.4439V42.8129H4.28456V41.2451ZM45.6639 41.2451H51.7672V42.8129H45.6639V41.2451ZM48.7436 39.7893H47.1758V14.6528C47.1758 13.3872 46.3297 12.1844 45.0641 12.1844H11.4018C10.1361 12.1844 8.87604 13.3872 8.87604 14.6528V39.7893H7.42021V14.6528C7.42021 12.5436 9.29264 10.7285 11.4018 10.7285H45.0641C47.1732 10.7285 48.7436 12.5435 48.7436 14.6528V39.7893Z" fill="#6A6A6A"/>
<path d="M49.6544 45.1087H6.81144C5.12407 45.1087 3.55664 43.8821 3.55664 42.1947V40.6646C3.55664 39.8207 4.43748 38.9494 5.28136 38.9494H51.1845C52.0284 38.9494 52.4952 39.8207 52.4952 40.6646V42.1947C52.4952 43.8821 51.3417 45.1087 49.6544 45.1087ZM5.12446 40.5172V42.1947C5.12446 43.0386 5.96756 43.5408 6.81144 43.5408H49.6544C50.4982 43.5408 51.0393 43.0386 51.0393 42.1947V40.5172H5.12446ZM45.6639 37.4935H10.4439V16.1829C10.4439 14.9173 11.6663 13.7522 12.9319 13.7522H43.534C44.7996 13.7522 45.6639 14.9173 45.6639 16.1829V37.4935ZM12.0117 35.9257H44.0961V16.1829C44.0961 15.761 43.9557 15.32 43.534 15.32H12.9319C12.5101 15.32 12.0117 15.761 12.0117 16.1829V35.9257Z" fill="#6A6A6A"/>
<path d="M14.2514 26.7427H26.5701V28.2546H14.2514V26.7427ZM16.5472 29.8224H24.2743V31.3342H16.5472V29.8224ZM29.5937 26.7427H41.8004V28.2546H29.5937V26.7427ZM31.8895 29.8224H39.5046V31.3342H31.8895V29.8224Z" fill="#6A6A6A"/>
</g>
</g>
</svg>
