<svg width="32" height="32" viewBox="0 0 32 32" fill="none" xmlns="http://www.w3.org/2000/svg">
<g clip-path="url(#clip0)">
<path d="M26.2987 22.5626C25.9837 22.9176 25.6274 23.2326 25.2362 23.5001H25.8574C26.2199 23.5088 26.5074 23.8076 26.4999 24.1701V27.58C26.5074 27.9425 26.2199 28.2412 25.8574 28.25H6.14254C5.78005 28.2413 5.49256 27.9425 5.50004 27.58V24.1701C5.49254 23.8076 5.78005 23.5088 6.14254 23.5001H11.4827C11.7477 23.5001 12.0015 23.3951 12.1889 23.2076C12.3764 23.0201 12.4827 22.7651 12.4827 22.5001V20.8813C12.4814 20.6263 12.5877 20.3826 12.7764 20.2113H13.5364C13.8164 20.2113 14.0852 20.0926 14.2739 19.8851C14.4639 19.6776 14.5577 19.4001 14.5314 19.1201C14.3877 17.1776 13.9352 15.2714 13.1939 13.4714C12.7977 12.4914 12.2514 11.5802 11.5727 10.7702C10.6564 9.69144 10.1539 8.3227 10.1552 6.90907C10.1239 5.35281 10.7214 3.84907 11.8114 2.73787C12.9014 1.6266 14.3927 1.00036 15.949 1.00036C17.5053 1.00036 18.9965 1.6266 20.0866 2.73787C21.1766 3.84913 21.7729 5.35288 21.7429 6.90907C21.7479 8.23156 21.3091 9.5178 20.4954 10.5615C19.8979 11.309 19.3942 12.129 18.9967 13.0003C18.8442 13.3465 18.6842 13.7353 18.5242 14.1728V14.1741C18.9504 13.8503 19.4192 13.5866 19.9179 13.3928C20.2817 12.6003 20.7404 11.8553 21.2854 11.1741C22.2329 9.95406 22.7454 8.45281 22.7429 6.9091C22.7729 5.08661 22.0704 3.33022 20.7942 2.03038C19.5167 0.73163 17.7704 0.000366211 15.949 0.000366211C14.1277 0.000366211 12.3817 0.73163 11.1039 2.03038C9.82642 3.33038 9.12517 5.08664 9.15519 6.9091C9.15144 8.56161 9.73893 10.1603 10.8102 11.4192C11.4215 12.1492 11.9139 12.9704 12.2702 13.8529C12.9714 15.5617 13.3977 17.3691 13.5364 19.2117H12.6902C12.1615 19.2117 11.4815 19.9592 11.4815 20.8817L11.4827 22.5004H6.14255C5.22754 22.5079 4.49257 23.2567 4.50006 24.1704V27.5804C4.49631 28.3429 5.01132 29.0104 5.75004 29.2004V30.6666C5.76629 31.4179 6.3863 32.0141 7.13628 32.0004H24.8636C25.6137 32.0141 26.2336 31.4179 26.2499 30.6666V29.2004C26.9886 29.0104 27.5036 28.3429 27.4999 27.5804V24.1704C27.5036 23.4267 27.0136 22.7704 26.2986 22.563L26.2987 22.5626ZM25.2499 30.6662C25.2337 30.865 25.0624 31.0137 24.8637 31H7.13633C6.93758 31.0137 6.76635 30.865 6.75009 30.6662V29.25H25.2499V30.6662Z" fill="#848484"/>
<path d="M17.25 18.7501C17.25 20.0101 17.75 21.2176 18.6413 22.1088C19.5325 23 20.74 23.5001 22 23.5001C23.26 23.5001 24.4675 23.0001 25.3587 22.1088C26.2499 21.2175 26.75 20.01 26.75 18.7501C26.75 17.4901 26.25 16.2826 25.3587 15.3914C24.4674 14.5001 23.26 14.0001 22 14.0001C20.7412 14.0013 19.5337 14.5026 18.6425 15.3926C17.7526 16.2839 17.2513 17.4914 17.25 18.75L17.25 18.7501ZM25.7498 18.7501C25.7498 20.2663 24.8361 21.6338 23.4348 22.215C22.0336 22.795 20.4211 22.4738 19.3484 21.4013C18.2759 20.3288 17.9547 18.7163 18.5347 17.3149C19.1159 15.9136 20.4834 14.9999 21.9996 14.9999C24.0696 15.0024 25.7472 16.6799 25.7497 18.7499L25.7498 18.7501Z" fill="#848484"/>
<path d="M12.1914 6.90624C12.1914 7.18249 12.4152 7.40624 12.6914 7.40624C12.9677 7.40624 13.1914 7.18249 13.1914 6.90624C13.1939 5.35623 14.4489 4.1 15.9989 4.09875C16.2751 4.09875 16.4989 3.875 16.4989 3.59875C16.4989 3.32251 16.2751 3.09875 15.9989 3.09875C13.8976 3.10125 12.1938 4.80375 12.1915 6.90611L12.1914 6.90624Z" fill="#848484"/>
<path d="M20.8858 18.455C20.7108 18.2413 20.3959 18.2101 20.1821 18.385C19.9696 18.5601 19.9383 18.875 20.1134 19.0888L20.9146 20.0663V20.0675C21.0833 20.2738 21.3846 20.31 21.5983 20.1513L24.2971 18.1513C24.4046 18.0726 24.4746 17.955 24.4946 17.8238C24.5146 17.6926 24.4808 17.5588 24.4021 17.4525C24.3221 17.345 24.2046 17.275 24.0734 17.255C23.9421 17.2363 23.8084 17.2688 23.7021 17.3488L21.3858 19.0651L20.8858 18.455Z" fill="#848484"/>
</g>
<defs>
<clipPath id="clip0">
<rect width="32" height="32" fill="white"/>
</clipPath>
</defs>
</svg>
