<svg width="56" height="56" viewBox="0 0 56 56" fill="none" xmlns="http://www.w3.org/2000/svg">
<rect width="56" height="56" fill="white"/>
<g clip-path="url(#clip0_250_1979)">
<path d="M44.2708 37.5489C43.7885 38.0925 43.2429 38.5749 42.6439 38.9845H43.5952C44.1502 38.9979 44.5904 39.4553 44.579 40.0104V45.2319C44.5905 45.7869 44.1502 46.2444 43.5952 46.2578H13.4067C12.8517 46.2444 12.4115 45.787 12.4229 45.2319V40.0104C12.4114 39.4554 12.8517 38.9979 13.4067 38.9845H21.5839C21.9896 38.9845 22.3782 38.8237 22.6653 38.5366C22.9524 38.2495 23.1151 37.859 23.1151 37.4532V34.9745C23.1132 34.584 23.2759 34.2108 23.5649 33.9486H24.7287C25.1574 33.9486 25.5689 33.7667 25.858 33.449C26.1489 33.1313 26.2924 32.7064 26.2523 32.2776C26.0321 29.3032 25.3392 26.3844 24.2042 23.6281C23.5974 22.1275 22.761 20.7321 21.7217 19.4918C20.3186 17.84 19.5492 15.7441 19.5511 13.5795C19.5033 11.1965 20.4182 8.89387 22.0873 7.19235C23.7563 5.49073 26.0398 4.5318 28.423 4.5318C30.806 4.5318 33.0894 5.49073 34.7587 7.19235C36.4277 8.89397 37.3407 11.1966 37.2948 13.5795C37.3025 15.6046 36.6306 17.5741 35.3846 19.1724C34.4697 20.3169 33.6983 21.5726 33.0896 22.9067C32.8561 23.4369 32.6111 24.0322 32.3661 24.7021V24.704C33.0188 24.2083 33.7366 23.8044 34.5003 23.5077C35.0573 22.2942 35.7597 21.1534 36.5942 20.1103C38.0451 18.2421 38.8299 15.9434 38.826 13.5796C38.872 10.7889 37.7963 8.09939 35.842 6.10901C33.8859 4.1203 31.2119 3.00055 28.423 3.00055C25.634 3.00055 22.9604 4.1203 21.0039 6.10901C19.0477 8.09964 17.9739 10.7889 18.0199 13.5796C18.0141 16.11 18.9137 18.558 20.5541 20.4856C21.4901 21.6034 22.2442 22.861 22.7897 24.2123C23.8635 26.8288 24.5162 29.5964 24.7286 32.4178H23.4328C22.6232 32.4178 21.582 33.5624 21.582 34.9751L21.5839 37.4538H13.4068C12.0057 37.4653 10.8802 38.6118 10.8917 40.011V45.2324C10.8859 46.4 11.6746 47.4221 12.8057 47.7131V49.9582C12.8306 51.1086 13.78 52.0216 14.9284 52.0005H42.0734C43.2219 52.0216 44.1712 51.1086 44.1961 49.9582V47.7131C45.3273 47.4221 46.1159 46.4 46.1101 45.2324V40.011C46.1159 38.8721 45.3656 37.8672 44.2707 37.5495L44.2708 37.5489ZM42.6649 49.9577C42.6401 50.262 42.3778 50.4898 42.0735 50.4687H14.9285C14.6242 50.4898 14.3619 50.262 14.3371 49.9577V47.789H42.6649V49.9577Z" fill="#848484"/>
<path d="M30.4137 31.711C30.4137 33.6404 31.1793 35.4894 32.5441 36.8541C33.9088 38.2188 35.7578 38.9844 37.6871 38.9844C39.6164 38.9844 41.4654 38.2188 42.8301 36.8541C44.1948 35.4893 44.9605 33.6404 44.9605 31.711C44.9605 29.7817 44.1949 27.9327 42.8301 26.568C41.4654 25.2033 39.6164 24.4376 37.6871 24.4376C35.7596 24.4395 33.9107 25.2071 32.546 26.5699C31.1832 27.9347 30.4157 29.7836 30.4137 31.711L30.4137 31.711ZM43.4291 31.711C43.4291 34.0328 42.0299 36.1268 39.8842 37.0167C37.7386 37.9049 35.2694 37.413 33.6269 35.7707C31.9846 34.1284 31.4927 31.6593 32.3809 29.5134C33.2709 27.3677 35.3649 25.9685 37.6866 25.9685C40.8563 25.9724 43.425 28.541 43.4289 31.7108L43.4291 31.711Z" fill="#848484"/>
<path d="M22.6704 13.5751C22.6704 13.9982 23.013 14.3408 23.436 14.3408C23.859 14.3408 24.2017 13.9982 24.2017 13.5751C24.2055 11.2017 26.1272 9.27809 28.5006 9.27618C28.9236 9.27618 29.2662 8.93357 29.2662 8.51056C29.2662 8.08755 28.9236 7.74493 28.5006 7.74493C25.2831 7.74876 22.674 10.3557 22.6706 13.575L22.6704 13.5751Z" fill="#848484"/>
<path fill-rule="evenodd" clip-rule="evenodd" d="M40.4697 29.4697L41.5304 30.5304L37.0001 35.0607L34.4697 32.5304L35.5304 31.4697L37.0001 32.9394L40.4697 29.4697Z" fill="#848484"/>
</g>
<defs>
<clipPath id="clip0_250_1979">
<rect width="49" height="49" fill="white" transform="translate(4 3)"/>
</clipPath>
</defs>
</svg>
