<svg width="56" height="56" viewBox="0 0 56 56" fill="none" xmlns="http://www.w3.org/2000/svg">
<g id="store_request_icon">
<g id="Vector">
<path d="M47.063 31.8857C48.9667 31.5293 50.1986 29.9797 50.1986 28.1273V23.5244C50.1986 23.3669 50.2051 23.1591 50.1237 23.1591H50.1708L50.1923 23.1261C50.1921 23.1258 50.2036 23.1104 50.2034 23.1101L46.4599 17.3801C45.8448 16.4575 44.5509 15.6559 43.4421 15.6559H34.8563V14.1441H38.4557C39.7248 14.1441 40.5117 13.2862 40.5117 12.0171V5.87985C40.5117 4.61075 39.7248 3.44922 38.4557 3.44922H17.7425C16.4734 3.44922 15.3145 4.61075 15.3145 5.87985V12.017C15.3145 13.2861 16.4734 14.144 17.7425 14.144H21.0259V15.6559H12.756C11.6473 15.6559 10.3475 16.45 9.73239 17.3726L5.98305 23.0458C5.98288 23.0461 5.9826 23.092 5.98238 23.0924L5.98053 23.1285L5.89676 23.1347C5.8154 23.1347 5.68359 23.3669 5.68359 23.5244V28.1273C5.68359 29.9797 7.19542 31.5293 8.70726 31.8857V49.6075C8.70726 50.1667 9.07306 50.54 9.33551 50.988H6.41151V52.5558H49.4147V50.988H46.8627C47.1251 50.54 47.063 50.1667 47.063 49.6075V31.8857ZM45.5511 47.9642H24.8334V38.1003C24.8334 36.8312 23.9981 35.6457 22.729 35.6457H16.5918C15.3227 35.6457 14.0827 36.8312 14.0827 38.1003V47.9643H10.2191V31.8857C11.4509 31.6947 12.0846 31.1584 12.6383 30.4189C13.3385 31.3541 14.5104 31.9631 15.7658 31.9631C17.0211 31.9631 18.1636 31.3541 18.8638 30.4189C19.564 31.3541 20.6918 31.9631 21.9471 31.9631C23.2025 31.9631 24.3229 31.3541 25.0231 30.4189C25.7233 31.3541 26.84 31.9631 28.0954 31.9631C29.3507 31.9631 30.4656 31.3541 31.1658 30.4189C31.866 31.3541 32.98 31.9631 34.2354 31.9631C35.4907 31.9631 36.6042 31.3541 37.3044 30.4189C38.0046 31.3541 39.118 31.9631 40.3733 31.9631C41.6286 31.9631 42.6456 31.3541 43.3458 30.4189C43.8994 31.1584 44.7672 31.6947 45.5511 31.8857V47.9642ZM23.3216 38.7813H15.5945V38.1002C15.5945 37.6771 16.1689 37.1574 16.5918 37.1574H22.729C23.1519 37.1574 23.3216 37.6771 23.3216 38.1002L23.3216 38.7813ZM13.3547 24.1109H17.8902V28.1272C17.8902 29.3963 16.8916 30.4287 15.6225 30.4287C14.3534 30.4287 13.3547 29.3963 13.3547 28.1272V24.1109ZM19.4021 24.1109H24.0495V28.1272C24.0495 29.3963 22.9949 30.4287 21.7258 30.4287C20.4567 30.4287 19.4021 29.3963 19.4021 28.1272V24.1109ZM25.5614 24.1109H30.2648V28.1272C30.2648 29.3963 29.1822 30.4287 27.9131 30.4287C26.644 30.4287 25.5614 29.3963 25.5614 28.1272V24.1109ZM31.7767 24.1109H36.3682V28.1272C36.3682 29.3963 35.3415 30.4287 34.0724 30.4287C32.8033 30.4287 31.7767 29.3963 31.7767 28.1272V24.1109ZM37.88 24.1109H42.5275V28.1272C42.5275 29.3963 41.4728 30.4287 40.2037 30.4287C38.9346 30.4287 37.88 29.3963 37.88 28.1272V24.1109ZM48.6868 28.1273C48.6868 29.3964 47.6321 30.4287 46.363 30.4287C45.0939 30.4287 44.0393 29.3964 44.0393 28.1273V24.111H48.6868V28.1273ZM38.9999 11.8651C38.9999 12.2888 38.6564 12.6322 38.2327 12.6322H17.5935C17.1698 12.6322 16.8263 12.2888 16.8263 11.8651V5.72822C16.8263 5.30452 17.1698 4.96105 17.5935 4.96105H38.2327C38.6565 4.96105 38.9999 5.30452 38.9999 5.72822L38.9999 11.8651ZM11.009 18.1613C11.3353 17.6721 12.1679 17.2237 12.756 17.2237H27.8571V15.6559H22.5377V14.1441H33.2885V17.2237H43.4421C44.0302 17.2237 44.8629 17.6721 45.1892 18.1613L48.1459 22.5991H8.0523L11.009 18.1613ZM7.19542 28.1273V24.111H11.8429V28.1273C11.8429 29.3964 10.7883 30.4287 9.51916 30.4287C8.25007 30.4287 7.19542 29.3964 7.19542 28.1273ZM11.9889 50.9879C11.1427 50.9879 10.4546 50.5399 10.4546 49.4761H14.0827V50.9879H11.9889ZM15.5945 50.9879V40.2931H23.3216V50.9879H15.5945ZM24.8334 50.9879V49.4761H45.7436C45.7436 50.5399 45.0555 50.9879 44.2093 50.9879H24.8334Z" fill="#6A6A6A"/>
<path d="M42.9194 44.5094C42.9194 44.9331 42.576 45.2766 42.1523 45.2766H28.3443C27.9206 45.2766 27.5771 44.9331 27.5771 44.5094V36.4128C27.5771 35.9891 27.9206 35.6456 28.3443 35.6456H42.1523C42.576 35.6456 42.9195 35.9891 42.9195 36.4128L42.9194 44.5094Z" fill="#6A6A6A"/>
<path d="M20.6339 44.1007H22.1458V47.1243H20.6339V44.1007ZM21.8098 6.47288H34.0724V7.98471H21.8098V6.47288ZM24.4415 9.49654H31.3287V11.1204H24.4415V9.49654Z" fill="#6A6A6A"/>
</g>
</g>
</svg>
