<svg width="56" height="56" viewBox="0 0 56 56" fill="none" xmlns="http://www.w3.org/2000/svg">
<rect width="56" height="56" fill="white"/>
<path fill-rule="evenodd" clip-rule="evenodd" d="M34.4919 41.2515L30.7227 42.7515V40.8032L34.4919 39.3032V41.2515ZM37.7046 42.2802L30.7227 45.2621L30.7046 43.3106L37.7046 40.3106V42.2802Z" fill="#848484"/>
<path fill-rule="evenodd" clip-rule="evenodd" d="M24.4116 15.1604L31.668 18.9397L21.9279 23.6745L21.2721 22.3254L28.332 18.8935L24.3884 16.8395L16.3279 20.7578L15.6721 19.4088L24.4116 15.1604Z" fill="#848484"/>
<path fill-rule="evenodd" clip-rule="evenodd" d="M28.2911 6.15759L46.75 15.75V40.8387L28.2803 49.8369L9.25 40.2566V15.7434L28.2911 6.15759ZM10.75 17.4227V39.3324L27.5357 47.7828V25.8731L10.75 17.4227ZM29.0357 25.8664V47.8003L45.25 39.901V17.4405L29.0357 25.8664ZM44.3735 16.2055L28.2803 24.5686L11.6679 16.2055L28.2803 7.84241L44.3735 16.2055Z" fill="#848484"/>
<path fill-rule="evenodd" clip-rule="evenodd" d="M15.25 19.5L16.75 20V28.4762L18.919 27.5567L21.25 30.7187V22.8261H22.75V35.2813L18.4143 29.3999L15.25 30.7412V19.5Z" fill="#848484"/>
</svg>
