<svg width="56" height="56" viewBox="0 0 56 56" fill="none" xmlns="http://www.w3.org/2000/svg">
<g clip-path="url(#clip0_204_3708)">
<rect width="56" height="56" fill="white"/>
<path fill-rule="evenodd" clip-rule="evenodd" d="M48.9648 14.7903L45.8618 13.9588L45.497 15.3203L47.2385 15.787L40.8114 19.4977L41.5161 20.7183L48.2992 16.8021L47.6821 19.1051L49.0436 19.4699L50.2082 15.1235L49.0633 14.8167L49.0272 14.7542L48.9648 14.7903ZM28.2899 13.6283L40.1934 19.6059L40.1934 35.3898L28.2968 41.1042L16.4001 35.3898L16.4001 19.8586L28.2899 13.6283ZM28.3036 15.2124L18.6625 20.2644L28.0584 24.8757L37.905 20.034L28.3036 15.2124ZM38.7839 21.1725L28.7706 26.0961L28.9836 39.2106L38.7839 34.5032L38.7839 21.1725ZM27.5736 39.1932L27.361 26.1035L17.8096 21.4159L17.8096 34.5032L27.5736 39.1932ZM27.6244 50.8813L27.6244 43.0517L29.0339 43.0517L29.0339 50.4759L30.3115 49.1982L31.3082 50.1949L29.0339 52.4692L29.0339 52.5385L28.9645 52.5385L28.1264 53.3767L24.9446 50.1949L25.9413 49.1982L27.6244 50.8813ZM28.6284 4.8667L28.6284 12.6964L27.2189 12.6964L27.2189 5.27603L25.9431 6.55175L24.9465 5.55508L27.2189 3.2827L27.2189 3.20952L27.292 3.20952L28.1283 2.37328L31.3101 5.55508L30.3134 6.55175L28.6284 4.8667ZM47.7901 39.8169L41.0113 35.9031L41.716 34.6825L48.1544 38.3997L47.6845 36.6459L49.046 36.2811L49.8807 39.3964L49.9319 39.4259L49.9023 39.477L50.2106 40.6276L45.8642 41.7922L45.4994 40.4307L47.7901 39.8169ZM8.45775 15.9402L15.2242 19.8468L14.5195 21.0675L8.09536 17.3585L8.56487 19.1107L7.20339 19.4755L6.36908 16.3618L6.30364 16.324L6.34143 16.2586L6.03878 15.1291L10.3852 13.9645L10.75 15.326L8.45775 15.9402ZM7.9526 38.9388L14.7232 35.0297L15.428 36.2504L9.00418 39.9592L10.7529 40.4277L10.3881 41.7892L7.2779 40.9558L7.21211 40.9938L7.17413 40.928L6.04166 40.6246L7.20628 36.2782L8.56775 36.643L7.9526 38.9388Z" fill="#848484"/>
</g>
<defs>
<clipPath id="clip0_204_3708">
<rect width="56" height="56" fill="white"/>
</clipPath>
</defs>
</svg>
