<svg width="56" height="56" viewBox="0 0 56 56" fill="none" xmlns="http://www.w3.org/2000/svg">
<g id="support_request_icon">
<path id="Vector" d="M32.8203 30.0312C34.7221 29.1722 36.3328 27.829 37.4718 26.1524H40.4096C41.058 26.1163 41.665 25.8393 42.0984 25.3818C42.5317 24.9243 42.7561 24.3234 42.7226 23.7101V17.9718C42.7237 17.6692 42.6665 17.369 42.5538 17.0859V17.0699C41.6924 14.2608 40.1944 11.6627 38.164 9.45597L38.0543 9.33625C36.7242 7.94273 35.0716 6.8584 33.2255 6.16777C31.3062 5.46724 29.251 5.16183 27.1969 5.27193C25.1429 5.38203 23.1373 5.90511 21.314 6.80625C20.0517 7.4686 18.9136 8.32342 17.9457 9.33625L17.836 9.45597C15.8056 11.6627 14.3076 14.2608 13.4462 17.0699V17.0859C13.3335 17.369 13.2763 17.6692 13.2774 17.9718V23.7101C13.2439 24.3234 13.4683 24.9243 13.9017 25.3818C14.335 25.8393 14.942 26.1163 15.5904 26.1524H18.5282C19.6672 27.829 21.2779 29.1722 23.1797 30.0312C19.5497 30.9453 16.3399 32.9657 14.0475 35.7793C11.7552 38.5929 10.5083 42.0427 10.5 45.5942V49.9519C10.5 50.1636 10.5889 50.3666 10.7473 50.5162C10.9056 50.6659 11.1203 50.75 11.3442 50.75H44.6558C44.8797 50.75 45.0944 50.6659 45.2527 50.5162C45.4111 50.3666 45.5 50.1636 45.5 49.9519V45.5942C45.4917 42.0427 44.2448 38.5929 41.9525 35.7793C39.6601 32.9657 36.4503 30.9453 32.8203 30.0312ZM41.0343 17.9718V23.7101C41.0343 24.1571 40.7388 24.5561 40.4096 24.5561H38.3751C38.5186 24.2209 38.6536 23.8778 38.7634 23.5266C38.7634 23.5186 38.7634 23.5186 38.7718 23.5106C39.4411 21.4251 39.4116 19.1949 38.6874 17.1258H40.4096C40.7388 17.1258 41.0343 17.5248 41.0343 17.9718ZM15.5904 24.5561C15.2612 24.5561 14.9657 24.1571 14.9657 23.7101V17.9718C14.9657 17.5248 15.2612 17.1258 15.5904 17.1258H17.3126C16.4626 19.5567 16.5736 22.1966 17.6249 24.5561H15.5904ZM15.8099 15.5296C16.6077 13.7005 17.717 12.0074 19.0938 10.5174L19.1951 10.4137C20.0349 9.52697 21.0284 8.78205 22.1329 8.21092C23.7401 7.42843 25.5033 6.97431 27.3082 6.87806C29.1131 6.78181 30.9192 7.04558 32.6093 7.65225C34.2159 8.25184 35.6524 9.19736 36.8049 10.4137L36.9062 10.5174C38.283 12.0074 39.3923 13.7005 40.1901 15.5296H37.9783C37.0311 13.8004 35.5994 12.3506 33.8396 11.3386C32.0799 10.3266 30.0597 9.79141 28 9.79141C25.9403 9.79141 23.9201 10.3266 22.1604 11.3386C20.4006 12.3506 18.9689 13.8004 18.0217 15.5296H15.8099ZM18.4354 20.4299C18.4338 19.1572 18.7164 17.8985 19.2648 16.7361C19.8131 15.5737 20.6148 14.5339 21.6175 13.6846C22.6201 12.8353 23.8011 12.1957 25.0832 11.8075C26.3653 11.4194 27.7197 11.2915 29.0576 11.4323C30.3956 11.573 31.6871 11.9792 32.8476 12.6242C34.0081 13.2693 35.0115 14.1387 35.7922 15.1756C36.5729 16.2125 37.1132 17.3935 37.3779 18.6414C37.6426 19.8893 37.6257 21.1759 37.3283 22.4172H34.5087C34.3355 21.9509 34.0134 21.5469 33.587 21.261C33.1606 20.9751 32.6508 20.8213 32.1281 20.821H29.5955C28.9238 20.821 28.2797 21.0733 27.8047 21.5223C27.3298 21.9713 27.063 22.5803 27.063 23.2153C27.063 23.8503 27.3298 24.4593 27.8047 24.9084C28.2797 25.3574 28.9238 25.6096 29.5955 25.6096H32.1281C32.6508 25.6093 33.1606 25.4556 33.587 25.1697C34.0134 24.8837 34.3355 24.4797 34.5087 24.0134H36.7795C35.9074 25.9233 34.3653 27.4904 32.4133 28.4506C30.4613 29.4107 28.2188 29.7051 26.0639 29.2842C23.909 28.8632 21.9736 27.7526 20.584 26.1397C19.1943 24.5268 18.4355 22.5102 18.4354 20.4299ZM32.9723 23.2073V23.2233C32.9718 23.3276 32.9496 23.4308 32.9069 23.527C32.8643 23.6232 32.8019 23.7105 32.7235 23.7839C32.6451 23.8573 32.5521 23.9153 32.45 23.9547C32.3478 23.9941 32.2384 24.0141 32.1281 24.0134H29.5955C29.3716 24.0134 29.1569 23.9293 28.9986 23.7797C28.8403 23.63 28.7513 23.427 28.7513 23.2153C28.7513 23.0037 28.8403 22.8007 28.9986 22.651C29.1569 22.5013 29.3716 22.4172 29.5955 22.4172H32.1281C32.2384 22.4166 32.3478 22.4365 32.45 22.4759C32.5521 22.5153 32.6451 22.5734 32.7235 22.6467C32.8019 22.7201 32.8643 22.8074 32.9069 22.9036C32.9496 22.9998 32.9718 23.103 32.9723 23.2073ZM43.8116 49.1538H12.1884V45.5942C12.1946 41.7436 13.8154 38.0524 16.6954 35.3297C19.5753 32.6069 23.4797 31.0746 27.5526 31.0687H28.4474C32.5203 31.0746 36.4247 32.6069 39.3046 35.3297C42.1846 38.0524 43.8054 41.7436 43.8116 45.5942V49.1538Z" fill="#6A6A6A"/>
</g>
</svg>
