<svg width="56" height="56" viewBox="0 0 56 56" fill="none" xmlns="http://www.w3.org/2000/svg">
<rect width="56" height="56" fill="white"/>
<path fill-rule="evenodd" clip-rule="evenodd" d="M31.75 21.0798V38H30.25V36.677L29.8844 35.9458C28.0172 34.111 26.7193 33.9058 25.9319 34.1026C25.271 34.2679 24.7561 34.7655 24.4273 35.3139C27.7614 38.277 29.936 41.4388 31.4012 44.0029C32.1283 45.2752 32.6819 46.403 33.1101 47.2751L33.1732 47.4037C33.3937 47.8525 33.5734 48.2154 33.7278 48.4965C33.8922 48.796 33.9889 48.9282 34.0304 48.9697C34.3326 49.2719 34.5418 49.6654 34.6919 50.0478C34.8451 50.438 34.9559 50.8666 35.0364 51.2825C35.1971 52.1128 35.25 52.9615 35.25 53.5H33.75C33.75 53.0385 33.703 52.2872 33.5637 51.5675C33.4942 51.2084 33.405 50.8745 33.2956 50.5959C33.1832 50.3096 33.0674 50.1281 32.9697 50.0303C32.7612 49.8218 32.5766 49.5165 32.4129 49.2184C32.2391 48.9018 32.0439 48.5069 31.8269 48.0651L31.7663 47.9416C31.3376 47.0686 30.802 45.9776 30.0988 44.7471C28.6274 42.1721 26.4281 38.9976 23.0119 36.0694L22.6042 35.72L22.8037 35.2215C23.1865 34.2643 24.0801 33.0194 25.5681 32.6474C26.908 32.3124 28.4823 32.7421 30.25 34.247V20.9257L30.2646 20.8529C30.3656 20.3475 30.6304 19.6086 31.12 18.9777C31.6201 18.3333 32.4022 17.75 33.5 17.75C34.5978 17.75 35.3799 18.3333 35.88 18.9777C36.3696 19.6086 36.6344 20.3475 36.7354 20.8529L36.75 20.9257V27.846C37.2061 27.4965 37.7863 27.25 38.5 27.25C39.5978 27.25 40.3799 27.8333 40.88 28.4777C41.2492 28.9534 41.4905 29.4904 41.6302 29.9425C42.103 29.5427 42.7223 29.25 43.5 29.25C44.5978 29.25 45.3799 29.8333 45.88 30.4777C46.3696 31.1086 46.6344 31.8475 46.7354 32.3529L46.75 32.4257V32.846C47.2061 32.4965 47.7863 32.25 48.5 32.25C49.5978 32.25 50.3799 32.8333 50.88 33.4777C51.3696 34.1086 51.6344 34.8475 51.7354 35.3529L51.75 35.4257V44.5C51.75 45.2243 51.6433 46.3504 51.3174 47.4189C51.0187 48.3979 50.4822 49.5041 49.5031 50.0797C49.4815 50.1542 49.4545 50.2667 49.4264 50.4283C49.3329 50.9673 49.25 51.9187 49.25 53.5H47.75C47.75 51.8813 47.8338 50.8327 47.9486 50.1717C48.0051 49.8459 48.075 49.5788 48.1644 49.3744C48.2081 49.2746 48.2725 49.1518 48.3708 49.0416C48.4304 48.9747 48.5472 48.8637 48.72 48.7997C49.2085 48.5243 49.6083 47.8804 49.8826 46.9811C50.1567 46.083 50.25 45.109 50.25 44.5V35.5798C50.1739 35.2521 49.9927 34.7809 49.695 34.3973C49.3867 34.0001 49.0022 33.75 48.5 33.75C47.9978 33.75 47.6133 34.0001 47.305 34.3973C47.0073 34.7809 46.8261 35.2521 46.75 35.5798V37.5V38H45.25V37.5V35.4257V32.5798C45.1739 32.2521 44.9927 31.7809 44.695 31.3973C44.3867 31.0001 44.0022 30.75 43.5 30.75C42.9978 30.75 42.6133 31.0001 42.305 31.3973C42.0073 31.7809 41.8261 32.2521 41.75 32.5798V37V37.5H40.25V37V32.4257V30.5798C40.1739 30.2521 39.9927 29.7809 39.695 29.3973C39.3867 29.0001 39.0022 28.75 38.5 28.75C37.9978 28.75 37.6133 29.0001 37.305 29.3973C37.0073 29.7809 36.8261 30.2521 36.75 30.5798V36.5H35.25V30.4257V21.0798C35.1739 20.7521 34.9927 20.2809 34.695 19.8973C34.3867 19.5001 34.0022 19.25 33.5 19.25C32.9978 19.25 32.6133 19.5001 32.305 19.8973C32.0073 20.2809 31.8261 20.7521 31.75 21.0798Z" fill="#848484"/>
<path fill-rule="evenodd" clip-rule="evenodd" d="M12 5L13.0607 6.06066L8.53033 10.591L6 8.06066L7.06066 7L8.53033 8.46967L12 5Z" fill="#848484"/>
<path fill-rule="evenodd" clip-rule="evenodd" d="M45 8.5H17V7H45V8.5Z" fill="#848484"/>
<path fill-rule="evenodd" clip-rule="evenodd" d="M12 12L13.0607 13.0607L8.53033 17.591L6 15.0607L7.06066 14L8.53033 15.4697L12 12Z" fill="#848484"/>
<path fill-rule="evenodd" clip-rule="evenodd" d="M45 15.5H17V14H45V15.5Z" fill="#848484"/>
<path fill-rule="evenodd" clip-rule="evenodd" d="M12 19L13.0607 20.0607L8.53033 24.591L6 22.0607L7.06066 21L8.53033 22.4697L12 19Z" fill="#848484"/>
<path fill-rule="evenodd" clip-rule="evenodd" d="M12 26L13.0607 27.0607L8.53033 31.591L6 29.0607L7.06066 28L8.53033 29.4697L12 26Z" fill="#848484"/>
<path fill-rule="evenodd" clip-rule="evenodd" d="M28 22.5H17V21H28V22.5Z" fill="#848484"/>
<path fill-rule="evenodd" clip-rule="evenodd" d="M28 29.5H17V28H28V29.5Z" fill="#848484"/>
</svg>
