<svg width="56" height="56" viewBox="0 0 56 56" fill="none" xmlns="http://www.w3.org/2000/svg">
<rect width="56" height="56" fill="white"/>
<path d="M46.8404 14.7034H36.7167V8.358C36.7167 6.50618 35.2101 5 33.3587 5H7.75508C5.69712 5 4.02299 6.67454 4.02299 8.7325C4.19462 10.476 3.52134 12.4643 4.84425 12.4643C5.90808 12.3299 7.75508 12.9142 7.75508 11.643C7.75508 10.4633 6.16349 10.9092 5.6655 10.8218V8.7325C5.6655 5.96641 9.84517 5.96959 9.84517 8.7325V38.813C9.84517 40.8709 11.5194 42.5455 13.5773 42.5455C18.3287 42.2884 20.3694 43.1574 20.3694 41.7242C20.3694 40.4005 18.3897 41.0738 16.6674 40.903C17.554 39.5965 17.3098 40.5445 17.3058 18.4324C17.3058 17.2824 18.2454 16.3464 19.3998 16.3464H20.369C21.5235 16.3464 22.463 17.2824 22.463 18.4324V49.3362C22.463 49.7902 22.8308 50.1575 23.2843 50.1575H36.8678C39.3693 50.2488 41.4492 50.1575 43.438 50.1575C47.95 49.9048 50 50.765 50 49.3362V17.8637C50 16.1209 48.5827 14.7034 46.8404 14.7034ZM15.6636 18.4319C15.664 20.516 15.6623 10.8831 15.6672 38.8124C15.6672 41.5784 11.4879 41.5757 11.4879 38.8124V11.6432C11.3656 9.374 11.8384 8.10557 10.8455 6.64271H33.3581C34.3041 6.64271 35.0736 7.41264 35.0736 8.35821V14.7036H19.4C17.3397 14.7036 15.6636 16.3764 15.6636 18.4319ZM48.3575 48.5143H44.4136C40.5473 48.5143 37.6022 48.5143 35.8927 48.5143H24.1056C23.8698 17.1045 24.6321 18.0653 23.464 16.3458H46.84C47.6765 16.3458 48.3574 17.0267 48.3574 17.8632L48.3575 48.5143Z" fill="#848484"/>
<path d="M44.6984 21.4202H32.04V23.1873H44.6984V21.4202Z" fill="#848484"/>
<path d="M44.6984 26.3478H32.04V28.1148H44.6984V26.3478Z" fill="#848484"/>
<path d="M44.6984 35.2486H32.04V37.0156H44.6984V35.2486Z" fill="#848484"/>
<path d="M44.6984 31.2753H32.04V33.0423H44.6984V31.2753Z" fill="#848484"/>
<path d="M44.6984 40.1761H32.04V41.9432H44.6984V40.1761Z" fill="#848484"/>
<circle cx="28.767" cy="22.2117" r="1.17803" fill="#848484"/>
<circle cx="28.767" cy="27.2772" r="1.17803" fill="#848484"/>
<circle cx="28.767" cy="36.178" r="1.17803" fill="#848484"/>
<circle cx="28.767" cy="31.9893" r="1.17803" fill="#848484"/>
<circle cx="28.767" cy="40.8901" r="1.17803" fill="#848484"/>
</svg>
