<svg width="56" height="56" viewBox="0 0 56 56" fill="none" xmlns="http://www.w3.org/2000/svg">
<g id="ticket_request_icon">
<g id="Vector">
<path d="M48.3233 24.2477H49.9518C50.1635 24.2477 50.3665 24.1511 50.5162 23.979C50.6659 23.8069 50.75 23.5736 50.75 23.3303V15.8532C50.7485 15.3622 50.5782 14.8918 50.2761 14.5447C49.974 14.1975 49.5647 14.0017 49.1375 14H6.86246C6.43526 14.0017 6.02598 14.1975 5.7239 14.5447C5.42183 14.8918 5.25147 15.3622 5.25 15.8532V23.3303C5.25 23.5736 5.3341 23.8069 5.4838 23.979C5.6335 24.1511 5.83654 24.2477 6.04825 24.2477H7.67667C8.54255 24.2477 9.37297 24.643 9.98525 25.3467C10.5975 26.0504 10.9415 27.0048 10.9415 28C10.9415 28.9952 10.5975 29.9496 9.98525 30.6533C9.37297 31.357 8.54255 31.7523 7.67667 31.7523H6.04825C5.83654 31.7523 5.6335 31.849 5.4838 32.021C5.3341 32.1931 5.25 32.4264 5.25 32.6697V40.1468C5.25147 40.6378 5.42183 41.1082 5.7239 41.4553C6.02598 41.8025 6.43526 41.9983 6.86246 42H49.1375C49.5647 41.9983 49.974 41.8025 50.2761 41.4553C50.5782 41.1082 50.7485 40.6378 50.75 40.1468V32.6697C50.75 32.4264 50.6659 32.1931 50.5162 32.021C50.3665 31.849 50.1635 31.7523 49.9518 31.7523H48.3233C47.4574 31.7523 46.627 31.357 46.0148 30.6533C45.4025 29.9496 45.0585 28.9952 45.0585 28C45.0585 27.0048 45.4025 26.0504 46.0148 25.3467C46.627 24.643 47.4574 24.2477 48.3233 24.2477ZM48.3233 33.5872H49.1535L49.1375 40.1651L6.84649 40.1468V33.5872H7.67667C8.96597 33.5872 10.2025 32.9985 11.1141 31.9507C12.0258 30.9029 12.538 29.4818 12.538 28C12.538 26.5182 12.0258 25.0971 11.1141 24.0493C10.2025 23.0015 8.96597 22.4128 7.67667 22.4128H6.84649L6.86246 15.8349L49.1535 15.8532V22.4128H48.3233C47.034 22.4128 45.7975 23.0015 44.8859 24.0493C43.9742 25.0971 43.462 26.5182 43.462 28C43.462 29.4818 43.9742 30.9029 44.8859 31.9507C45.7975 32.9985 47.034 33.5872 48.3233 33.5872Z" fill="#6A6A6A"/>
<path d="M28 17.7376C27.7883 17.7376 27.5853 17.8343 27.4356 18.0063C27.2859 18.1784 27.2018 18.4117 27.2018 18.655V20.5248C27.2018 20.7681 27.2859 21.0014 27.4356 21.1735C27.5853 21.3455 27.7883 21.4422 28 21.4422C28.2117 21.4422 28.4147 21.3455 28.5644 21.1735C28.7141 21.0014 28.7982 20.7681 28.7982 20.5248V18.655C28.7982 18.4117 28.7141 18.1784 28.5644 18.0063C28.4147 17.8343 28.2117 17.7376 28 17.7376Z" fill="#6A6A6A"/>
<path d="M28 34.5578C27.7883 34.5578 27.5853 34.6545 27.4356 34.8265C27.2859 34.9986 27.2018 35.2319 27.2018 35.4752V37.345C27.2018 37.5883 27.2859 37.8216 27.4356 37.9937C27.5853 38.1657 27.7883 38.2624 28 38.2624C28.2117 38.2624 28.4147 38.1657 28.5644 37.9937C28.7141 37.8216 28.7982 37.5883 28.7982 37.345V35.4752C28.7982 35.2319 28.7141 34.9986 28.5644 34.8265C28.4147 34.6545 28.2117 34.5578 28 34.5578Z" fill="#6A6A6A"/>
<path d="M28 28.9514C27.7883 28.9514 27.5853 29.048 27.4356 29.2201C27.2859 29.3921 27.2018 29.6255 27.2018 29.8688V31.7376C27.2018 31.9809 27.2859 32.2143 27.4356 32.3863C27.5853 32.5584 27.7883 32.655 28 32.655C28.2117 32.655 28.4147 32.5584 28.5644 32.3863C28.7141 32.2143 28.7982 31.9809 28.7982 31.7376V29.8688C28.7982 29.6255 28.7141 29.3921 28.5644 29.2201C28.4147 29.048 28.2117 28.9514 28 28.9514Z" fill="#6A6A6A"/>
<path d="M28 23.345C27.7883 23.345 27.5853 23.4416 27.4356 23.6137C27.2859 23.7857 27.2018 24.0191 27.2018 24.2624V26.1312C27.2018 26.3745 27.2859 26.6079 27.4356 26.7799C27.5853 26.952 27.7883 27.0486 28 27.0486C28.2117 27.0486 28.4147 26.952 28.5644 26.7799C28.7141 26.6079 28.7982 26.3745 28.7982 26.1312V24.2624C28.7982 24.0191 28.7141 23.7857 28.5644 23.6137C28.4147 23.4416 28.2117 23.345 28 23.345Z" fill="#6A6A6A"/>
<path d="M15.8044 23.311H19.0596C19.2714 23.311 19.4744 23.2144 19.6241 23.0423C19.7738 22.8702 19.8579 22.6369 19.8579 22.3936C19.8579 22.1503 19.7738 21.9169 19.6241 21.7449C19.4744 21.5728 19.2714 21.4761 19.0596 21.4761H15.8044C15.5927 21.4761 15.3897 21.5728 15.24 21.7449C15.0903 21.9169 15.0062 22.1503 15.0062 22.3936C15.0062 22.6369 15.0903 22.8702 15.24 23.0423C15.3897 23.2144 15.5927 23.311 15.8044 23.311Z" fill="#6A6A6A"/>
<path d="M15.8044 28.9174H20.6825C20.8942 28.9174 21.0972 28.8208 21.2469 28.6487C21.3966 28.4767 21.4807 28.2433 21.4807 28C21.4807 27.7567 21.3966 27.5233 21.2469 27.3513C21.0972 27.1792 20.8942 27.0826 20.6825 27.0826H15.8044C15.5927 27.0826 15.3897 27.1792 15.24 27.3513C15.0903 27.5233 15.0062 27.7567 15.0062 28C15.0062 28.2433 15.0903 28.4767 15.24 28.6487C15.3897 28.8208 15.5927 28.9174 15.8044 28.9174Z" fill="#6A6A6A"/>
<path d="M22.3093 32.689H15.8044C15.5927 32.689 15.3897 32.7857 15.24 32.9577C15.0903 33.1298 15.0062 33.3631 15.0062 33.6064C15.0062 33.8497 15.0903 34.0831 15.24 34.2551C15.3897 34.4272 15.5927 34.5239 15.8044 34.5239H22.3093C22.521 34.5239 22.7241 34.4272 22.8738 34.2551C23.0235 34.0831 23.1076 33.8497 23.1076 33.6064C23.1076 33.3631 23.0235 33.1298 22.8738 32.9577C22.7241 32.7857 22.521 32.689 22.3093 32.689Z" fill="#6A6A6A"/>
<path d="M33.6915 21.4771C33.2127 21.478 32.7448 21.6419 32.347 21.9482C31.9492 22.2545 31.6393 22.6894 31.4565 23.198C31.2736 23.7066 31.2259 24.2661 31.3196 24.8058C31.4132 25.3455 31.6438 25.8412 31.9824 26.2303C32.321 26.6195 32.7523 26.8846 33.2219 26.9921C33.6914 27.0997 34.1782 27.045 34.6208 26.8348C35.0633 26.6246 35.4417 26.2684 35.7082 25.8113C35.9747 25.3541 36.1174 24.8164 36.1182 24.2661C36.1171 23.5267 35.8611 22.8181 35.4062 22.2953C34.9514 21.7725 34.3348 21.4783 33.6915 21.4771ZM33.6915 25.211C33.5281 25.2101 33.3686 25.1535 33.2332 25.0484C33.0977 24.9433 32.9925 24.7945 32.9307 24.6206C32.8689 24.4468 32.8533 24.2557 32.886 24.0717C32.9186 23.8877 32.998 23.719 33.1141 23.5868C33.2302 23.4547 33.3778 23.365 33.5382 23.3293C33.6986 23.2936 33.8647 23.3133 34.0153 23.386C34.166 23.4587 34.2945 23.5811 34.3846 23.7378C34.4748 23.8944 34.5225 24.0783 34.5217 24.2661C34.5202 24.5177 34.432 24.7585 34.2764 24.9356C34.1208 25.1127 33.9105 25.2117 33.6915 25.211Z" fill="#6A6A6A"/>
<path d="M40.1972 28.9541C39.7177 28.9532 39.2487 29.1159 38.8497 29.4215C38.4507 29.7271 38.1396 30.1619 37.9557 30.6709C37.7718 31.1798 37.7235 31.7401 37.8169 32.2806C37.9102 32.8212 38.1411 33.3177 38.4801 33.7074C38.8192 34.0971 39.2512 34.3624 39.7215 34.4697C40.1919 34.5769 40.6793 34.5214 41.1222 34.3101C41.565 34.0988 41.9433 33.7412 42.2092 33.2826C42.4751 32.824 42.6167 32.285 42.6159 31.7339C42.6144 30.9972 42.3591 30.2911 41.9058 29.7702C41.4526 29.2492 40.8382 28.9558 40.1972 28.9541ZM40.1972 32.6881C39.9781 32.6881 39.7679 32.588 39.613 32.41C39.4581 32.2319 39.371 31.9904 39.371 31.7385C39.371 31.4867 39.4581 31.2452 39.613 31.0671C39.7679 30.889 39.9781 30.789 40.1972 30.789C40.4163 30.789 40.6265 30.889 40.7814 31.0671C40.9363 31.2452 41.0234 31.4867 41.0234 31.7385C41.0234 31.9904 40.9363 32.2319 40.7814 32.41C40.6265 32.588 40.4163 32.6881 40.1972 32.6881Z" fill="#6A6A6A"/>
<path d="M41.5702 22.6789C41.4205 22.5069 41.2175 22.4103 41.0058 22.4103C40.7941 22.4103 40.5911 22.5069 40.4415 22.6789L32.3105 32.0239C32.2364 32.1093 32.1777 32.2106 32.1376 32.3221C32.0976 32.4337 32.0771 32.5531 32.0772 32.6738C32.0775 32.9174 32.162 33.1509 32.3121 33.3229C32.4622 33.495 32.6656 33.5914 32.8776 33.5911C33.0896 33.5907 33.2928 33.4936 33.4424 33.3211L41.5702 23.9761C41.7198 23.8041 41.8039 23.5708 41.8039 23.3275C41.8039 23.0843 41.7198 22.8509 41.5702 22.6789Z" fill="#6A6A6A"/>
<path d="M28 17.7376C27.7883 17.7376 27.5853 17.8343 27.4356 18.0063C27.2859 18.1784 27.2018 18.4117 27.2018 18.655V20.5248C27.2018 20.7681 27.2859 21.0014 27.4356 21.1735C27.5853 21.3455 27.7883 21.4422 28 21.4422C28.2117 21.4422 28.4147 21.3455 28.5644 21.1735C28.7141 21.0014 28.7982 20.7681 28.7982 20.5248V18.655C28.7982 18.4117 28.7141 18.1784 28.5644 18.0063C28.4147 17.8343 28.2117 17.7376 28 17.7376Z" fill="#6A6A6A"/>
<path d="M28 34.5578C27.7883 34.5578 27.5853 34.6545 27.4356 34.8265C27.2859 34.9986 27.2018 35.2319 27.2018 35.4752V37.345C27.2018 37.5883 27.2859 37.8216 27.4356 37.9937C27.5853 38.1657 27.7883 38.2624 28 38.2624C28.2117 38.2624 28.4147 38.1657 28.5644 37.9937C28.7141 37.8216 28.7982 37.5883 28.7982 37.345V35.4752C28.7982 35.2319 28.7141 34.9986 28.5644 34.8265C28.4147 34.6545 28.2117 34.5578 28 34.5578Z" fill="#6A6A6A"/>
<path d="M28 28.9514C27.7883 28.9514 27.5853 29.048 27.4356 29.2201C27.2859 29.3921 27.2018 29.6255 27.2018 29.8688V31.7376C27.2018 31.9809 27.2859 32.2143 27.4356 32.3863C27.5853 32.5584 27.7883 32.655 28 32.655C28.2117 32.655 28.4147 32.5584 28.5644 32.3863C28.7141 32.2143 28.7982 31.9809 28.7982 31.7376V29.8688C28.7982 29.6255 28.7141 29.3921 28.5644 29.2201C28.4147 29.048 28.2117 28.9514 28 28.9514Z" fill="#6A6A6A"/>
<path d="M28 23.345C27.7883 23.345 27.5853 23.4416 27.4356 23.6137C27.2859 23.7857 27.2018 24.0191 27.2018 24.2624V26.1312C27.2018 26.3745 27.2859 26.6079 27.4356 26.7799C27.5853 26.952 27.7883 27.0486 28 27.0486C28.2117 27.0486 28.4147 26.952 28.5644 26.7799C28.7141 26.6079 28.7982 26.3745 28.7982 26.1312V24.2624C28.7982 24.0191 28.7141 23.7857 28.5644 23.6137C28.4147 23.4416 28.2117 23.345 28 23.345Z" fill="#6A6A6A"/>
<path d="M15.8044 23.311H19.0596C19.2714 23.311 19.4744 23.2144 19.6241 23.0423C19.7738 22.8702 19.8579 22.6369 19.8579 22.3936C19.8579 22.1503 19.7738 21.9169 19.6241 21.7449C19.4744 21.5728 19.2714 21.4761 19.0596 21.4761H15.8044C15.5927 21.4761 15.3897 21.5728 15.24 21.7449C15.0903 21.9169 15.0062 22.1503 15.0062 22.3936C15.0062 22.6369 15.0903 22.8702 15.24 23.0423C15.3897 23.2144 15.5927 23.311 15.8044 23.311Z" fill="#6A6A6A"/>
<path d="M15.8044 28.9174H20.6825C20.8942 28.9174 21.0972 28.8208 21.2469 28.6487C21.3966 28.4767 21.4807 28.2433 21.4807 28C21.4807 27.7567 21.3966 27.5233 21.2469 27.3513C21.0972 27.1792 20.8942 27.0826 20.6825 27.0826H15.8044C15.5927 27.0826 15.3897 27.1792 15.24 27.3513C15.0903 27.5233 15.0062 27.7567 15.0062 28C15.0062 28.2433 15.0903 28.4767 15.24 28.6487C15.3897 28.8208 15.5927 28.9174 15.8044 28.9174Z" fill="#6A6A6A"/>
<path d="M22.3093 32.689H15.8044C15.5927 32.689 15.3897 32.7857 15.24 32.9577C15.0903 33.1298 15.0062 33.3631 15.0062 33.6064C15.0062 33.8497 15.0903 34.0831 15.24 34.2551C15.3897 34.4272 15.5927 34.5239 15.8044 34.5239H22.3093C22.521 34.5239 22.7241 34.4272 22.8738 34.2551C23.0235 34.0831 23.1076 33.8497 23.1076 33.6064C23.1076 33.3631 23.0235 33.1298 22.8738 32.9577C22.7241 32.7857 22.521 32.689 22.3093 32.689Z" fill="#6A6A6A"/>
<path d="M33.6915 21.4771C33.2127 21.478 32.7448 21.6419 32.347 21.9482C31.9492 22.2545 31.6393 22.6894 31.4565 23.198C31.2736 23.7066 31.2259 24.2661 31.3196 24.8058C31.4132 25.3455 31.6438 25.8412 31.9824 26.2303C32.321 26.6195 32.7523 26.8846 33.2219 26.9921C33.6914 27.0997 34.1782 27.045 34.6208 26.8348C35.0633 26.6246 35.4417 26.2684 35.7082 25.8113C35.9747 25.3541 36.1174 24.8164 36.1182 24.2661C36.1171 23.5267 35.8611 22.8181 35.4062 22.2953C34.9514 21.7725 34.3348 21.4783 33.6915 21.4771ZM33.6915 25.211C33.5281 25.2101 33.3686 25.1535 33.2332 25.0484C33.0977 24.9433 32.9925 24.7945 32.9307 24.6206C32.8689 24.4468 32.8533 24.2557 32.886 24.0717C32.9186 23.8877 32.998 23.719 33.1141 23.5868C33.2302 23.4547 33.3778 23.365 33.5382 23.3293C33.6986 23.2936 33.8647 23.3133 34.0153 23.386C34.166 23.4587 34.2945 23.5811 34.3846 23.7378C34.4748 23.8944 34.5225 24.0783 34.5217 24.2661C34.5202 24.5177 34.432 24.7585 34.2764 24.9356C34.1208 25.1127 33.9105 25.2117 33.6915 25.211Z" fill="#6A6A6A"/>
<path d="M40.1972 28.9541C39.7177 28.9532 39.2487 29.1159 38.8497 29.4215C38.4507 29.7271 38.1396 30.1619 37.9557 30.6709C37.7718 31.1798 37.7235 31.7401 37.8169 32.2806C37.9102 32.8212 38.1411 33.3177 38.4801 33.7074C38.8192 34.0971 39.2512 34.3624 39.7215 34.4697C40.1919 34.5769 40.6793 34.5214 41.1222 34.3101C41.565 34.0988 41.9433 33.7412 42.2092 33.2826C42.4751 32.824 42.6167 32.285 42.6159 31.7339C42.6144 30.9972 42.3591 30.2911 41.9058 29.7702C41.4526 29.2492 40.8382 28.9558 40.1972 28.9541ZM40.1972 32.6881C39.9781 32.6881 39.7679 32.588 39.613 32.41C39.4581 32.2319 39.371 31.9904 39.371 31.7385C39.371 31.4867 39.4581 31.2452 39.613 31.0671C39.7679 30.889 39.9781 30.789 40.1972 30.789C40.4163 30.789 40.6265 30.889 40.7814 31.0671C40.9363 31.2452 41.0234 31.4867 41.0234 31.7385C41.0234 31.9904 40.9363 32.2319 40.7814 32.41C40.6265 32.588 40.4163 32.6881 40.1972 32.6881Z" fill="#6A6A6A"/>
<path d="M41.5702 22.6789C41.4205 22.5069 41.2175 22.4103 41.0058 22.4103C40.7941 22.4103 40.5911 22.5069 40.4415 22.6789L32.3105 32.0239C32.2364 32.1093 32.1777 32.2106 32.1376 32.3221C32.0976 32.4337 32.0771 32.5531 32.0772 32.6738C32.0775 32.9174 32.162 33.1509 32.3121 33.3229C32.4622 33.495 32.6656 33.5914 32.8776 33.5911C33.0896 33.5907 33.2928 33.4936 33.4424 33.3211L41.5702 23.9761C41.7198 23.8041 41.8039 23.5708 41.8039 23.3275C41.8039 23.0843 41.7198 22.8509 41.5702 22.6789Z" fill="#6A6A6A"/>
</g>
</g>
</svg>
