<svg width="32" height="32" viewBox="0 0 32 32" fill="none" xmlns="http://www.w3.org/2000/svg">
<path d="M27.4102 1.95252C27.3627 1.93627 27.3114 1.92377 27.2564 1.92377C27.2177 1.92377 27.1802 1.92752 27.1377 1.93002C27.0989 1.93002 27.0614 1.92377 27.0189 1.92377H8.60643C6.93267 1.92377 5.57267 3.28377 5.57267 4.95753V25.1649H2.41517C2.15267 25.1649 1.94141 25.3761 1.94141 25.6386V27.0436C1.94141 28.7174 3.30141 30.0774 4.97517 30.0774L22.1425 30.0761C22.1775 30.0761 22.21 30.0724 22.2413 30.0699C22.2738 30.0699 22.3088 30.0761 22.34 30.0761C22.3813 30.0761 22.4238 30.0699 22.4613 30.0599C23.985 29.8999 25.175 28.6074 25.175 27.0449L25.1875 6.90729H29.5811C29.8436 6.90729 30.0549 6.69604 30.0549 6.43353V4.96102C30.0561 3.41727 28.9011 2.14352 27.4099 1.95228L27.4102 1.95252ZM4.97528 29.1263C3.82654 29.1263 2.88904 28.1913 2.88904 27.04V26.1125H19.3114V27.0438C19.3114 27.8538 19.6314 28.5863 20.1464 29.1301H4.97525L4.97528 29.1263ZM24.229 25.6837V27.04C24.229 28.1562 23.3453 29.0687 22.2453 29.12C21.1416 29.0687 20.2616 28.1562 20.2616 27.04V25.635C20.2616 25.3725 20.0503 25.1612 19.7878 25.1612H6.52027V4.9561C6.52027 3.80736 7.45528 2.86986 8.60651 2.86986H25.0641C24.5454 3.4136 24.2291 4.14612 24.2291 4.9561V25.6374C24.2266 25.6549 24.2291 25.6674 24.2291 25.6836L24.229 25.6837ZM29.109 5.9586H25.1727V4.95984C25.1727 3.84983 26.0465 2.94109 27.1402 2.87984C28.2352 2.9411 29.1077 3.84983 29.1077 4.95984L29.109 5.9586Z" fill="#848484"/>
<path d="M11.5034 8.07615L9.54219 10.0374L8.67845 9.19241C8.49345 9.00991 8.19221 9.01366 8.00971 9.19866C7.82722 9.38366 7.83096 9.6849 8.01596 9.8674L9.21596 11.0424C9.30846 11.1324 9.42721 11.1774 9.54594 11.1774C9.6672 11.1774 9.7897 11.1299 9.8822 11.0399L12.1735 8.7449C12.3585 8.5599 12.3585 8.25866 12.1735 8.07616C11.9872 7.89491 11.6897 7.89116 11.5034 8.07616L11.5034 8.07615Z" fill="#848484"/>
<path d="M11.5034 13.9136L9.54219 15.8749L8.67845 15.0299C8.49345 14.8474 8.19221 14.8511 8.00971 15.0361C7.82722 15.2211 7.83096 15.5224 8.01596 15.7048L9.21596 16.8799C9.30846 16.9699 9.42721 17.0149 9.54594 17.0149C9.6672 17.0149 9.7897 16.9674 9.8822 16.8774L12.1735 14.5823C12.3585 14.3974 12.3585 14.0961 12.1735 13.9136C11.9872 13.7274 11.6897 13.7274 11.5034 13.9136L11.5034 13.9136Z" fill="#848484"/>
<path d="M11.5034 19.7501L9.54219 21.7113L8.67845 20.8663C8.49345 20.6838 8.19221 20.6876 8.00971 20.8726C7.82721 21.0576 7.83096 21.3588 8.01596 21.5413L9.21596 22.7163C9.30846 22.8063 9.42721 22.8513 9.54595 22.8513C9.6672 22.8513 9.7897 22.8038 9.8822 22.7138L12.1735 20.4188C12.3585 20.2338 12.3585 19.9326 12.1735 19.7501C11.9872 19.5651 11.6897 19.5651 11.5035 19.7501L11.5034 19.7501Z" fill="#848484"/>
<path d="M19.9446 7.93887H14.1046C13.8421 7.93887 13.6309 8.15012 13.6309 8.41263C13.6309 8.67513 13.8421 8.88639 14.1046 8.88639H19.9446C20.2071 8.88639 20.4184 8.67514 20.4184 8.41263C20.4184 8.15013 20.2071 7.93887 19.9446 7.93887Z" fill="#848484"/>
<path d="M14.1046 11.1811H17.5997C17.8622 11.1811 18.0734 10.9699 18.0734 10.7074C18.0734 10.4449 17.8622 10.2336 17.5997 10.2336H14.1046C13.8421 10.2336 13.6309 10.4449 13.6309 10.7074C13.6321 10.9699 13.8434 11.1811 14.1046 11.1811Z" fill="#848484"/>
<path d="M19.9446 13.7126H14.1046C13.8421 13.7126 13.6309 13.9239 13.6309 14.1864C13.6309 14.4489 13.8421 14.6602 14.1046 14.6602H19.9446C20.2071 14.6602 20.4184 14.4489 20.4184 14.1864C20.4184 13.9239 20.2071 13.7126 19.9446 13.7126Z" fill="#848484"/>
<path d="M14.1046 16.9536H17.5997C17.8622 16.9536 18.0734 16.7424 18.0734 16.4799C18.0734 16.2174 17.8622 16.0061 17.5997 16.0061H14.1046C13.8421 16.0061 13.6309 16.2174 13.6309 16.4799C13.6321 16.7424 13.8434 16.9536 14.1046 16.9536Z" fill="#848484"/>
<path d="M19.9446 19.5162H14.1046C13.8421 19.5162 13.6309 19.7274 13.6309 19.9899C13.6309 20.2524 13.8421 20.4637 14.1046 20.4637H19.9446C20.2071 20.4637 20.4184 20.2524 20.4184 19.9899C20.4184 19.7274 20.2071 19.5162 19.9446 19.5162Z" fill="#848484"/>
<path d="M17.5997 21.8112H14.1046C13.8421 21.8112 13.6309 22.0224 13.6309 22.2849C13.6309 22.5475 13.8421 22.7587 14.1046 22.7587H17.5997C17.8622 22.7587 18.0734 22.5475 18.0734 22.2849C18.0734 22.0224 17.8622 21.8112 17.5997 21.8112Z" fill="#848484"/>
</svg>
