<svg width="56" height="56" viewBox="0 0 56 56" fill="none" xmlns="http://www.w3.org/2000/svg">
<g id="transanction_request_icon">
<g id="Vector">
<path d="M46.5607 45.5144L40.9501 41.5579C40.6379 41.3378 40.2097 41.4176 39.9941 41.7365C39.7785 42.0554 39.8568 42.4924 40.169 42.7127L44.9609 46.0918L41.2468 48.7111V47.5248C41.2468 47.1375 40.9391 46.8232 40.5597 46.8232H18.9681V45.3603H40.5597C40.9391 45.3603 41.2468 45.0461 41.2468 44.6587C41.2468 44.2713 40.9391 43.9571 40.5597 43.9571H18.2809C17.9015 43.9571 17.5938 44.2713 17.5938 44.6587V47.5248C17.5938 47.9122 17.9015 48.2264 18.2809 48.2264H39.8724V50.0484C39.8724 50.3092 40.0141 50.5485 40.2403 50.6697C40.3407 50.7235 40.4502 50.75 40.5596 50.75C40.6967 50.75 40.8332 50.7081 40.9501 50.6257L46.5607 46.6691C46.7465 46.538 46.8574 46.3221 46.8574 46.0917C46.8574 45.8611 46.7465 45.6453 46.5607 45.5144Z" fill="#6A6A6A"/>
<path d="M15.3854 43.957H12.3328C11.9534 43.957 11.6456 44.2712 11.6456 44.6586V47.5248C11.6456 47.9122 11.9534 48.2264 12.3328 48.2264H15.3854C15.7648 48.2264 16.0725 47.9122 16.0725 47.5248V44.6586C16.0725 44.2712 15.7648 43.957 15.3854 43.957ZM14.6982 46.8232H13.0199V45.3603H14.6982V46.8232Z" fill="#6A6A6A"/>
<path d="M9.43716 43.957C9.05777 43.957 8.75 44.2712 8.75 44.6586V47.5248C8.75 47.9122 9.05777 48.2264 9.43716 48.2264C9.81655 48.2264 10.1243 47.9122 10.1243 47.5248V44.6586C10.1243 44.2712 9.81655 43.957 9.43716 43.957Z" fill="#6A6A6A"/>
<path d="M9.43929 10.4858L15.0499 14.4424C15.1692 14.5264 15.3051 14.5667 15.4398 14.5667C15.658 14.5667 15.8727 14.4609 16.0059 14.2638C16.2215 13.9449 16.1432 13.508 15.831 13.2877L11.0391 9.9083L14.7532 7.28898V8.47528C14.7532 8.86267 15.0609 9.17693 15.4403 9.17693H37.0319V10.6398H15.4404C15.061 10.6398 14.7533 10.954 14.7533 11.3414C14.7533 11.7288 15.061 12.0431 15.4404 12.0431H37.7191C38.0985 12.0431 38.4062 11.7288 38.4062 11.3414V8.47528C38.4062 8.08779 38.0985 7.77363 37.7191 7.77363H16.1276V5.95166C16.1276 5.69085 15.9859 5.45148 15.7597 5.33018C15.5334 5.2092 15.2599 5.22609 15.0499 5.37431L9.43929 9.33105C9.25345 9.46198 9.14258 9.67794 9.14258 9.90841C9.14258 10.1389 9.25345 10.3547 9.43929 10.4858Z" fill="#6A6A6A"/>
<path d="M40.6147 12.0431H43.6672C44.0466 12.0431 44.3544 11.7288 44.3544 11.3414V8.47528C44.3544 8.08779 44.0466 7.77363 43.6672 7.77363H40.6147C40.2352 7.77363 39.9274 8.08789 39.9274 8.47528V11.3414C39.9274 11.7289 40.2352 12.0431 40.6147 12.0431ZM41.3018 9.17693H42.9801V10.6398H41.3018V9.17693Z" fill="#6A6A6A"/>
<path d="M46.5628 7.77363C46.1834 7.77363 45.8757 8.08789 45.8757 8.47528V11.3414C45.8757 11.7288 46.1834 12.0431 46.5628 12.0431C46.9422 12.0431 47.25 11.7288 47.25 11.3414V8.47528C47.2501 8.08779 46.9422 7.77363 46.5628 7.77363Z" fill="#6A6A6A"/>
<path d="M29.8847 14C24.1247 14 19.4385 18.3732 19.4385 23.7486C19.4385 25.2997 19.8387 26.8433 20.5956 28.2124C20.7733 28.5343 21.1976 28.6604 21.5424 28.4946C21.8874 28.3285 22.0229 27.933 21.8447 27.611C21.1808 26.4101 20.8441 25.1105 20.8441 23.7486C20.8441 19.0964 24.8995 15.3118 29.8846 15.3118C34.8697 15.3118 38.9252 19.0964 38.9252 23.7486C38.9252 26.5458 37.4434 29.156 34.9609 30.7308C34.6399 30.9345 34.5567 31.3424 34.7748 31.6421C34.911 31.8287 35.1316 31.9291 35.3566 31.9291C35.4928 31.9291 35.6301 31.8923 35.7511 31.8157C38.619 29.9963 40.3309 26.9806 40.3309 23.7486C40.331 18.3732 35.6449 14 29.8847 14Z" fill="#6A6A6A"/>
<path d="M32.1687 29.9682C32.2524 29.9682 32.3373 29.9541 32.4201 29.9245C35.1416 28.9508 36.97 26.469 36.97 23.7485C36.97 20.1025 33.7916 17.1364 29.8847 17.1364C25.9779 17.1364 22.7992 20.1025 22.7992 23.7485C22.7992 25.4433 23.4856 27.055 24.7321 28.2869C24.9983 28.5504 25.4433 28.5626 25.7255 28.3137C26.0079 28.0649 26.0206 27.65 25.754 27.3866C24.7551 26.3989 24.2048 25.1069 24.2048 23.7485C24.2048 20.8259 26.7528 18.4482 29.8846 18.4482C33.0164 18.4482 35.5643 20.8259 35.5643 23.7485C35.5643 25.9296 34.0984 27.9191 31.9168 28.6997C31.5544 28.8294 31.3733 29.2088 31.5121 29.547C31.6195 29.8079 31.8859 29.9682 32.1687 29.9682Z" fill="#6A6A6A"/>
<path d="M16.6692 31.1261C17.0573 31.1261 17.372 30.8324 17.372 30.4702C17.372 30.108 17.0573 29.8144 16.6692 29.8144H14.7027C14.3147 29.8144 14 30.108 14 30.4702V39.5941C14 39.9562 14.3147 40.25 14.7027 40.25H32.0094C33.6774 40.25 35.3264 39.7299 36.6524 38.7854L40.9189 35.7468C42.107 34.9008 42.354 33.2979 41.4694 32.1739C40.5838 31.0484 38.8696 30.7893 37.6482 31.5964L35.464 33.04C35.1473 33.2494 35.0725 33.6587 35.2968 33.9544C35.5213 34.2498 35.9599 34.3197 36.2766 34.1105L38.4609 32.6668C39.0605 32.2702 39.902 32.398 40.3363 32.9503C40.7707 33.5021 40.6496 34.2888 40.0663 34.704L35.7997 37.7425C34.7169 38.5136 33.3711 38.9382 32.0094 38.9382H19.9376V31.126H24.6956C25.5211 31.126 26.3007 31.4225 26.8908 31.961C27.7456 32.7402 28.8742 33.1693 30.0689 33.1693H31.4304C32.0679 33.1693 32.5863 33.6531 32.5863 34.2479C32.5863 35.0409 31.8952 35.6861 31.0453 35.6861H26.1139C25.7259 35.6861 25.4111 35.9797 25.4111 36.3418C25.4111 36.704 25.7259 36.9977 26.1139 36.9977H31.0453C32.6701 36.9977 33.9919 35.7641 33.9919 34.2479C33.9919 32.9301 32.8428 31.8576 31.4304 31.8576H30.0689C29.2434 31.8576 28.4637 31.561 27.8733 31.0227C27.0191 30.2432 25.8905 29.8142 24.6956 29.8142H19.2347C18.8467 29.8142 18.5319 30.1078 18.5319 30.47V38.9381H15.4055V31.1259L16.6692 31.1261Z" fill="#6A6A6A"/>
<path d="M29.8847 28.5688C30.2728 28.5688 30.5875 28.275 30.5875 27.9129V27.382C31.5772 27.2116 32.3297 26.4018 32.3297 25.4298C32.3297 24.3341 31.3746 23.4429 30.2006 23.4429H29.5704C29.1715 23.4429 28.847 23.1403 28.847 22.768C28.847 22.3957 29.1715 22.093 29.5704 22.093H31.2137C31.6019 22.093 31.9165 21.7993 31.9165 21.4372C31.9165 21.0751 31.6019 20.7813 31.2137 20.7813H30.5876V20.3625C30.5876 20.0003 30.2729 19.7066 29.8848 19.7066C29.4968 19.7066 29.1821 20.0004 29.1821 20.3625V20.8161C28.1932 20.9872 27.4415 21.7966 27.4415 22.7681C27.4415 23.8635 28.3965 24.7547 29.5705 24.7547H30.2007C30.5996 24.7547 30.9242 25.0576 30.9242 25.4299C30.9242 25.8021 30.5996 26.1048 30.2007 26.1048H28.5574C28.1694 26.1048 27.8546 26.3986 27.8546 26.7607C27.8546 27.1229 28.1694 27.4165 28.5574 27.4165H29.1821V27.913C29.182 28.275 29.4967 28.5688 29.8847 28.5688Z" fill="#6A6A6A"/>
</g>
</g>
</svg>
