<svg width="20" height="20" viewBox="0 0 20 20" fill="none" xmlns="http://www.w3.org/2000/svg">
<path d="M19 4C19 2.34315 17.6569 1 16 1C14.3431 1 13 2.34315 13 4C13 5.65685 14.3431 7 16 7C17.6569 7 19 5.65685 19 4Z" stroke="#44B8BF" stroke-width="1.5" stroke-linecap="round" stroke-linejoin="round"/>
<path d="M7 16C7 14.3431 5.65685 13 4 13C2.34315 13 1 14.3431 1 16C1 17.6569 2.34315 19 4 19C5.65685 19 7 17.6569 7 16Z" stroke="#44B8BF" stroke-width="1.5" stroke-linecap="round" stroke-linejoin="round"/>
<path d="M4 9L4 6C4 5.46957 4.21071 4.96086 4.58579 4.58579C4.96086 4.21071 5.46957 4 6 4L13 4" stroke="#44B8BF" stroke-width="1.5" stroke-linecap="round" stroke-linejoin="round"/>
<path d="M7 16L19 16" stroke="#44B8BF" stroke-width="1.5" stroke-linecap="round" stroke-linejoin="round"/>
</svg>
