<svg width="20" height="23" viewBox="0 0 20 23" fill="none" xmlns="http://www.w3.org/2000/svg">
<path d="M18.1408 9.73802L4.00077 1.26802C3.69835 1.09339 3.35547 1.00099 3.00625 1.00001C2.65703 0.99903 2.31364 1.08951 2.01025 1.26245C1.70685 1.43538 1.45402 1.68474 1.27692 1.98573C1.09982 2.28671 1.00461 2.62882 1.00077 2.97802L1.00077 19.918C1.00461 20.2672 1.09982 20.6093 1.27692 20.9103C1.45402 21.2113 1.70685 21.4607 2.01025 21.6336C2.31364 21.8065 2.65703 21.897 3.00625 21.896C3.35547 21.8951 3.69835 21.8027 4.00077 21.628L18.1408 13.158C18.4347 12.9797 18.6777 12.7287 18.8463 12.4292C19.0149 12.1297 19.1035 11.7918 19.1035 11.448C19.1035 11.1043 19.0149 10.7663 18.8463 10.4668C18.6777 10.1673 18.4347 9.91629 18.1408 9.73802V9.73802Z" stroke="#9D6DDB" stroke-width="1.5" stroke-linecap="round" stroke-linejoin="round"/>
</svg>
