<svg width="18" height="18" viewBox="0 0 18 18" fill="none" xmlns="http://www.w3.org/2000/svg">
<path fill-rule="evenodd" clip-rule="evenodd" d="M3.1665 2.33329C2.70627 2.33329 2.33317 2.70639 2.33317 3.16663L2.33317 5.66663L15.6665 5.66663V3.16663C15.6665 2.70639 15.2934 2.33329 14.8332 2.33329L3.1665 2.33329ZM17.3332 3.16663C17.3332 1.78591 16.2139 0.666626 14.8332 0.666626L3.1665 0.666626C1.78579 0.666626 0.666504 1.78591 0.666504 3.16663L0.666504 14.8333C0.666504 16.214 1.78579 17.3333 3.1665 17.3333H14.8332C16.2139 17.3333 17.3332 16.214 17.3332 14.8333V3.16663ZM15.6665 7.33329L7.33317 7.33329L7.33317 15.6666L14.8332 15.6666C15.2934 15.6666 15.6665 15.2935 15.6665 14.8333L15.6665 7.33329ZM5.6665 15.6666L5.6665 7.33329L2.33317 7.33329L2.33317 14.8333C2.33317 15.2935 2.70627 15.6666 3.1665 15.6666H5.6665Z" fill="#6A6A6A"/>
</svg>
