<svg width="16" height="16" viewBox="0 0 16 16" fill="none" xmlns="http://www.w3.org/2000/svg">
<g id="Branch">
<path id="Union" fill-rule="evenodd" clip-rule="evenodd" d="M2.00016 1.33325C2.36835 1.33325 2.66683 1.63173 2.66683 1.99992V2.66659C2.66683 3.40297 3.26378 3.99992 4.00016 3.99992H9.5118C9.83278 2.88753 10.8585 2.07397 12.0742 2.07397C13.547 2.07397 14.7409 3.26788 14.7409 4.74064C14.7409 6.2134 13.547 7.40731 12.0742 7.40731C10.8052 7.40731 9.74313 6.52079 9.47366 5.33325H4.00016C3.51445 5.33325 3.05906 5.20339 2.66683 4.9765V9.33325C2.66683 10.0696 3.26378 10.6666 4.00016 10.6666H9.5118C9.83278 9.5542 10.8585 8.74064 12.0742 8.74064C13.547 8.74064 14.7409 9.93455 14.7409 11.4073C14.7409 12.8801 13.547 14.074 12.0742 14.074C10.8052 14.074 9.74313 13.1875 9.47366 11.9999H4.00016C2.5274 11.9999 1.3335 10.806 1.3335 9.33325V1.99992C1.3335 1.63173 1.63197 1.33325 2.00016 1.33325ZM10.7409 4.74064C10.7409 4.00426 11.3379 3.40731 12.0742 3.40731C12.8106 3.40731 13.4076 4.00426 13.4076 4.74064C13.4076 5.47702 12.8106 6.07397 12.0742 6.07397C11.3379 6.07397 10.7409 5.47702 10.7409 4.74064ZM10.7409 11.4073C10.7409 10.6709 11.3379 10.074 12.0742 10.074C12.8106 10.074 13.4076 10.6709 13.4076 11.4073C13.4076 12.1437 12.8106 12.7406 12.0742 12.7406C11.3379 12.7406 10.7409 12.1437 10.7409 11.4073Z" fill="#575F70"/>
</g>
</svg>
