<svg width="12" height="10" viewBox="0 0 12 10" fill="none" xmlns="http://www.w3.org/2000/svg">
<path fill-rule="evenodd" clip-rule="evenodd" d="M0.666667 9.66699C0.298477 9.66699 0 9.36852 0 9.00033L0 6.33366C0 5.96547 0.298477 5.66699 0.666667 5.66699L11.3333 5.66699C11.7015 5.66699 12 5.96547 12 6.33366V9.00033C12 9.36852 11.7015 9.66699 11.3333 9.66699H0.666667ZM1.33333 8.33366H10.6667V7.00033H1.33333L1.33333 8.33366ZM0.666667 4.33366C0.298477 4.33366 0 4.03518 0 3.66699L0 1.00033C0 0.632135 0.298477 0.333658 0.666667 0.333658H11.3333C11.7015 0.333658 12 0.632135 12 1.00033V3.66699C12 4.03518 11.7015 4.33366 11.3333 4.33366L0.666667 4.33366ZM1.33333 3.00033L10.6667 3.00033V1.66699L1.33333 1.66699V3.00033Z" fill="#575F70"/>
</svg>
